<?xml version="1.0" encoding="UTF-8"?>
<svg width="146px" height="74px" viewBox="0 0 146 74" version="1.1" xmlns="http://www.w3.org/2000/svg" xmlns:xlink="http://www.w3.org/1999/xlink">
    <!-- Generator: Sketch 42 (36781) - http://www.bohemiancoding.com/sketch -->
    <title>Adobe</title>
    <desc>Created with Sketch.</desc>
    <defs></defs>
    <g id="Cloud-v2" stroke="none" stroke-width="1" fill="none" fill-rule="evenodd">
        <g id="Home" transform="translate(-565.000000, -530.000000)" fill="#227EA8">
            <g id="Adobe" transform="translate(563.000000, 530.000000)">
                <g id="Leaves">
                    <path d="M31.5047424,1.09756098 C31.3156422,2.06748935 30.9003611,2.9557303 30.3834256,3.79994348 C29.4045404,5.39866739 28.0625874,6.61815963 26.1919163,7.22214152 C25.6575378,7.39473914 25.0779925,7.45029537 24.5142729,7.5274812 C24.2789662,7.55976091 24.0848988,7.60949801 23.8945279,7.75881911 C22.2473808,9.050776 20.8386594,10.5574918 19.4993633,12.1281082 C19.4827289,12.1475419 19.4731411,12.1724653 19.4314397,12.24493 C19.6696343,12.2163833 19.8730586,12.1989259 20.0729018,12.1631328 C20.120379,12.1545688 20.1742096,12.0918759 20.1940784,12.0426877 C20.7993839,10.5429988 22.078496,9.90585888 23.6297645,9.63554377 C24.6636355,9.4553703 25.6912686,9.60622853 26.7139345,9.75862389 C27.4609785,9.86984615 28.2055966,9.99556134 28.9793249,10.1193002 C28.9356597,10.1863849 28.9053944,10.245235 28.863693,10.2955211 C27.5667914,11.8621849 25.9462131,12.9167651 23.8144751,13.1360256 C22.6019004,13.2607526 21.4381891,13.1124197 20.3743994,12.4902118 C20.2854518,12.438169 20.152608,12.4298246 20.0433296,12.4382788 C19.7964712,12.4573832 19.5493819,12.4896629 19.3071442,12.537753 C19.2135759,12.5563084 19.1070699,12.6137311 19.0495428,12.6848782 C17.6335438,14.4353387 16.3982124,16.2960333 15.3149005,18.2485165 C15.1992686,18.4569073 15.0874488,18.6672744 14.9348518,18.948569 C15.2215633,18.8611722 15.4449718,18.8019927 15.658908,18.7206347 C15.7069628,18.7024087 15.7394229,18.6086439 15.7497038,18.545402 C15.9632935,17.2258866 16.7824197,16.3430256 17.9966116,15.7599047 C18.7874363,15.3801241 19.6413328,15.177772 20.5191413,15.1024527 C21.7868173,14.9937557 23.0577277,14.9205225 24.3639862,14.8296123 C24.3339519,14.9209617 24.327021,14.9803608 24.2973333,15.0266942 C23.2531813,16.6595643 21.9330609,18.0097125 20.0352435,18.7621372 C18.7053042,19.2894822 17.3539944,19.4616406 15.9643332,18.9708573 C15.8944458,18.9461535 15.8007621,18.9446163 15.7299506,18.9665753 C15.425334,19.0612185 15.1236054,19.1650845 14.8245337,19.2748795 C14.7740531,19.293325 14.7291172,19.3511869 14.7033571,19.400924 C13.3385319,22.0376492 12.2852542,24.784279 11.5018226,27.6254423 C11.4954692,27.6486091 11.505288,27.6757284 11.5075984,27.7012008 C11.5214603,27.6993343 11.5315102,27.6999931 11.5395964,27.6964797 C11.9220709,27.5305795 12.1524104,27.3420616 12.1513708,26.8480943 C12.1474432,24.9778475 13.2344517,23.7097161 14.8247647,22.7541709 C15.8615236,22.1313043 16.9956628,21.7124366 18.1326898,21.2975216 C18.7941362,21.0561923 19.4553516,20.8142043 20.173632,20.5515749 C20.0223056,20.9768106 19.897086,21.3774523 19.7384821,21.7656872 C18.976883,23.6292364 17.847018,25.2333403 16.1029527,26.4040836 C15.0020823,27.1431132 13.8085678,27.594041 12.4349633,27.5325558 C12.340702,27.5283836 12.2318856,27.5952487 12.1474432,27.6526715 C11.9080934,27.8156071 11.6724401,27.9846913 11.4471833,28.1648648 C11.3787977,28.2196525 11.3231188,28.3135271 11.3060224,28.39763 C11.0118024,29.8436292 10.6501208,31.2819427 10.4553603,32.7402389 C10.2324138,34.4085728 10.159061,36.0951327 10.0217121,37.7737873 C10.0203259,37.7897076 10.0314154,37.806616 10.0369602,37.8229754 C10.4538586,37.586587 10.5659094,37.3332901 10.4956755,36.8768726 C10.2374965,35.1988767 10.7211633,33.6987486 11.7296207,32.331143 C12.3439365,31.4979094 13.0965252,30.7864382 13.9258168,30.1491885 C14.9075899,29.3946778 15.9011457,28.654111 16.9414856,27.8683087 C16.9136462,28.2768556 16.9037118,28.6485115 16.8607397,29.0166538 C16.629245,31.0009775 16.0196655,32.8590371 14.7899943,34.5029965 C13.9378305,35.6422286 12.9546712,36.6510244 11.5375171,37.1511403 C11.0330574,37.3291179 10.669643,37.5820854 10.3586731,38.008968 C10.1120458,38.3475756 10.0061174,38.6545622 10.0095828,39.056192 C10.0345344,41.9445671 10.3654886,44.7994548 10.9974783,47.6238195 C11.0124955,47.6907944 11.0372159,47.755793 11.0725639,47.8710776 C11.2017112,47.5824268 11.317343,47.3363764 11.4189974,47.0852754 C11.4367869,47.0413574 11.4134526,46.963403 11.3800684,46.9227789 C10.9720647,46.4281527 10.8648656,45.842836 10.8258211,45.2420381 C10.7377977,43.8861806 11.1397944,42.6428629 11.8002012,41.457956 C12.5482848,40.1158229 13.5387217,38.9346491 14.5067483,37.7377746 C14.9276898,37.2174564 15.3392744,36.6902212 15.8007621,36.1085277 C15.8605995,36.521137 15.9282921,36.8772019 15.9615608,37.2362314 C16.1607109,39.3807458 15.8818545,41.4527957 14.9325415,43.428226 C14.2370178,44.8755427 13.3290596,46.1522381 11.8922677,47.0326836 C11.809558,47.083299 11.7566515,47.1908981 11.7117157,47.2818083 C11.551148,47.6064719 11.3945079,47.9332216 11.2490729,48.2642533 C11.2134938,48.3450623 11.1991698,48.4513438 11.2206558,48.5355565 C12.0087081,51.6255151 13.1537058,54.588441 14.7255362,57.3986421 C14.7452895,57.4338863 14.7741686,57.4644093 14.8433629,57.556637 C14.8772092,57.261618 14.9077055,57.0312683 14.9266501,56.80015 C14.9303467,56.756232 14.9020452,56.6939783 14.8662351,56.6655414 C14.3070206,56.2207621 14.0712519,55.6044832 13.8570846,54.9738212 C13.3651006,53.5248575 13.5027961,52.0845677 13.8973998,50.6419722 C14.323424,49.084092 14.9852169,47.6078992 15.6070412,46.1175429 C15.7597538,45.751267 15.9053043,45.3823561 16.0702616,44.9752365 C16.1259405,45.0666956 16.175728,45.1336706 16.2102674,45.2072332 C17.705395,48.3986423 17.8844453,51.6295775 16.4726049,54.8853265 C16.2259776,55.454174 15.8154326,55.9579131 15.4927956,56.4983237 C15.3962239,56.6600516 15.3239107,56.8396761 15.2718129,57.0193006 C15.2231805,57.1870673 15.2489406,57.3777811 15.183905,57.5369837 C15.0360441,57.8983188 15.1671551,58.1819191 15.357526,58.4915408 C16.7625509,60.7757144 18.4087738,62.8842162 20.3626167,64.7723595 C20.4185266,64.8263786 20.4795192,64.8755667 20.5933028,64.9753703 C20.5695064,64.6902329 20.5579548,64.4675688 20.5276895,64.2472104 C20.5200654,64.1914346 20.4647331,64.1183111 20.4111335,64.094815 C19.7079858,63.7870598 19.2558549,63.2384146 18.8475048,62.6448632 C18.1674602,61.6563795 17.9454379,60.5498663 17.8910297,59.392518 C17.8268026,58.0262299 17.9929151,56.6760817 18.1645723,55.3254943 C18.2761611,54.4475741 18.3946808,53.5705322 18.516204,52.6475961 C18.6073463,52.7331263 18.6869371,52.7980151 18.7545141,52.8726757 C20.2933069,54.5753754 21.2318769,56.531921 21.5312952,58.764491 C21.7689123,60.5368007 21.6512011,62.2642042 20.9177881,63.9342948 C20.8333457,64.1267653 20.9265673,64.3834659 20.899652,64.6063496 C20.8399301,65.1005365 21.041506,65.4379363 21.4348391,65.7733598 C23.4837519,67.5207461 25.7194546,68.9934254 28.2223465,70.0915943 C28.3049406,70.1279364 28.3894986,70.1604357 28.537475,70.2210425 C28.4685117,69.9692827 28.4129484,69.7666013 28.3593488,69.5711663 C27.3795395,69.5853299 26.7364602,69.0358063 26.0991567,68.4821105 C25.1387541,67.647669 24.6517373,66.5534528 24.3668741,65.3913833 C24.0471249,64.0866902 23.8307629,62.7589402 23.5762805,61.4400835 C23.4769364,60.9249257 23.396075,60.4064741 23.3067809,59.8895596 C23.3266497,59.866832 23.3465185,59.8441045 23.3663873,59.8213769 C23.9319552,60.1761243 24.5337952,60.4886007 25.0569685,60.8928656 C27.4918213,62.7744212 28.7117891,65.2203228 28.7211459,68.2065252 C28.7214925,68.3203825 28.7228786,68.4373141 28.6985047,68.547658 C28.5736316,69.1154076 28.697003,69.6609786 28.8625379,70.2001815 C28.8911859,70.2935071 28.9814042,70.4041804 29.072431,70.4408519 C30.9395211,71.1926178 32.864947,71.7624534 34.8667292,72.0861289 C35.3661062,72.166938 35.5147757,72.3420609 35.4839328,72.8943293 C34.9750835,72.8096774 34.4696996,72.7331504 33.9675502,72.6408129 C32.496681,72.3701684 31.0677442,71.9620606 29.6645676,71.4638113 C29.5022672,71.4061689 29.2930672,71.4669953 29.1055842,71.4739124 C28.580447,71.4932363 28.2571169,71.7190845 27.9764122,72.1762705 C27.3946721,73.1234713 26.4293023,73.6533417 25.3372111,73.9223392 C22.6814911,74.5763876 20.1193393,74.2586411 17.6636936,73.131706 C17.3143723,72.9714054 17.0178419,72.7073486 16.6337502,72.4487815 C17.1539201,72.0780041 17.5940373,71.7351145 18.0641887,71.4346058 C19.6526534,70.4194419 21.3945239,69.8176559 23.3194877,69.7468382 C24.6330237,69.6986382 25.8580741,70.0296699 27.0272147,70.5728254 C27.3419967,70.7190723 27.65932,70.8661975 27.9523849,71.0467003 C28.2025932,71.2008524 28.4405568,71.2268738 28.7415923,71.1058798 C28.4147966,70.9580958 28.1098336,70.8208522 27.8056791,70.682291 C25.6355897,69.6935877 23.6412006,68.4462075 21.8503513,66.9222539 C21.4096565,66.5471945 20.913745,66.5769489 20.4207214,66.4887836 C20.3741683,66.4804392 20.3006999,66.5278706 20.2626951,66.5687143 C19.3088769,67.5954066 18.0733144,67.8776894 16.7015582,67.7719569 C14.8956918,67.6328467 13.261598,67.0213988 11.7381689,66.1104303 C10.9052963,65.6124005 10.1116993,65.0733074 9.50535415,64.3219807 C9.42137379,64.2178951 9.34906058,64.1049162 9.27616979,63.9932547 C9.24301661,63.9425295 9.22129954,63.8849969 9.18733775,63.8161555 C9.24602003,63.7798134 9.2939593,63.7397382 9.34975368,63.7170107 C11.5233086,62.8329419 13.7543906,62.5849152 16.058941,63.1779176 C17.6092854,63.5768026 18.8374548,64.4510996 19.9125651,65.5487194 C20.0007041,65.6386415 20.0992395,65.7220856 20.1715527,65.822548 C20.3265756,66.0380754 20.5319636,66.1377692 20.8423559,66.1061483 C20.7833271,66.0409301 20.7395464,65.9842759 20.687102,65.9359661 C18.6310272,64.0444192 16.891236,61.9151662 15.3824775,59.6078258 C15.258413,59.4181002 14.9847548,59.3190651 14.7875685,59.1696343 C14.4598487,58.9211683 14.1692097,58.8705529 13.7348684,59.0523733 C12.6320341,59.5139511 11.5102552,59.3200533 10.4195502,58.9341241 C9.44794254,58.5903562 8.65295929,57.9907661 7.91665833,57.3186016 C6.72961272,56.2349257 5.6869625,55.0436507 5.01823857,53.596883 C4.84600375,53.224239 4.7457356,52.8214014 4.60145572,52.4007771 C5.19058891,52.4007771 5.71549503,52.360153 6.23150639,52.4073648 C9.39249471,52.6972234 11.6831832,54.2941906 13.3672955,56.7691878 C13.6821929,57.2319734 13.9458011,57.7270387 14.2214231,58.2131009 C14.4167611,58.5575275 14.4079819,58.5620291 14.8341216,58.7573543 C14.7977339,58.6720436 14.7800599,58.6125348 14.748986,58.5602724 C13.1175492,55.8241829 11.8728609,52.9343804 10.9162704,49.9265484 C10.8305573,49.6568921 10.5604801,49.4448781 10.4112331,49.1876286 C10.2379586,48.8887668 10.0443533,48.78534 9.65263745,48.8299167 C8.50810184,48.9601335 7.5694163,48.4727538 6.73792989,47.7841201 C5.74414307,46.9609875 4.98600952,45.9550464 4.36372316,44.8597322 C3.61725676,43.5455967 2.94656906,42.1991816 2.6438008,40.7167305 C2.61942686,40.5972736 2.58869952,40.4790245 2.56097561,40.3602264 L2.56097561,39.5697029 C2.78242038,39.6286628 3.01068061,39.670824 3.22438578,39.748998 C5.25007981,40.4905529 6.8314981,41.7759221 8.13590829,43.3957267 C9.30320061,44.8451295 9.90365439,46.5177454 10.272729,48.2839066 C10.3128132,48.4756085 10.4339898,48.6519391 10.5173925,48.8352967 C10.5433837,48.8255249 10.5693749,48.8157532 10.5953661,48.8059814 C10.5906299,48.7640398 10.5907454,48.7208904 10.5802334,48.6802662 C9.93738515,46.1811141 9.61775152,43.6422163 9.53781423,41.0732346 C9.5269557,40.7232084 9.55467962,40.3609949 9.46792687,40.0269988 C9.37897931,39.684768 9.17948264,39.3664725 9.00955814,39.0466399 C8.97005157,38.9723087 8.86077314,38.8990755 8.77321177,38.8854609 C8.26147452,38.8059694 7.79825411,38.6232706 7.3803161,38.3352786 C6.80227248,37.9371622 6.35892088,37.4229925 5.99643069,36.8453614 C5.29986734,35.7354445 4.86032778,34.5275905 4.53607349,33.2803202 C4.16954024,31.8706631 3.92499221,30.4434389 3.96149536,28.9855819 C3.9723539,28.5515625 4.03196031,28.1186411 4.07354618,27.6347749 C4.21112611,27.7201954 4.28852204,27.7638937 4.36095076,27.8139602 C6.47917336,29.2789539 7.8881258,31.2318763 8.71626223,33.5749 C9.27570772,35.1573742 9.3392417,36.7937578 9.22476503,38.4418894 C9.20535829,38.7223057 9.29118691,38.9427739 9.5014266,39.1463337 C9.53908491,38.654672 9.5262626,38.1654258 9.54139524,37.677058 C9.59949994,35.7986864 9.76272449,33.9288788 10.0190552,32.0647806 C10.0949494,31.5130611 10.3631783,30.9655138 10.1008407,30.3849182 C9.99017611,30.1398559 9.98647958,29.852852 9.90550265,29.5929674 C9.87431325,29.4928344 9.77820368,29.3969835 9.68671476,29.3302281 C9.40242912,29.1229353 9.07667312,28.9597801 8.81976485,28.726905 C7.9674855,27.9542781 7.59540747,26.9493252 7.38574536,25.8801422 C7.06357037,24.2376101 7.04913083,22.5809145 7.17758497,20.921474 C7.25913949,19.8684308 7.45216724,18.8331745 7.83140729,17.8355778 C7.87241558,17.7276494 7.92543757,17.6236736 7.98723879,17.4856614 C8.13717897,17.6599059 8.24784359,17.7884758 8.35850822,17.9170456 C10.1395387,19.9850331 10.981075,22.3590189 10.9259737,25.0263769 C10.8974412,26.4036444 10.6382226,27.7466559 10.2615239,29.0715513 C10.1770815,29.3687662 10.3094632,29.6175615 10.375423,29.9373941 C10.4129658,29.8700898 10.4195502,29.8628433 10.421283,29.8546087 C10.9692924,27.2507123 11.7736324,24.720598 12.8354584,22.2643757 C12.8627202,22.2013534 12.8846683,22.1311945 12.8862855,22.0638902 C12.8947182,21.7143031 12.9081181,21.3640573 12.8921769,21.015129 C12.8869786,20.9008325 12.8213654,20.7727018 12.7442005,20.6806937 C12.5376573,20.4348629 12.2791318,20.2248252 12.0958074,19.9657091 C11.3858442,18.9615248 11.2185766,17.8207555 11.2446832,16.6448518 C11.275064,15.2786736 11.5218069,13.9407126 11.8803695,12.6200992 C12.2042772,11.427397 12.602924,10.2622532 13.2818134,9.20141464 C13.3749195,9.05582657 13.4863928,8.9209984 13.6043349,8.7609174 C14.3526496,10.0768096 14.7925357,11.4324475 14.9449017,12.8738353 C15.2235271,15.5101213 14.7980805,18.0179472 13.4140796,20.3427449 C13.2356069,20.6425949 13.2674894,20.9367355 13.2388413,21.2813817 C13.286203,21.2329622 13.3088442,21.2187986 13.318201,21.1990355 C14.5204948,18.643888 15.9847795,16.2322425 17.7038933,13.9598169 C17.7399344,13.9122757 17.7728565,13.854304 17.7812892,13.7976498 C17.8306147,13.468814 17.8667713,13.1382215 17.9186381,12.8098249 C17.9418569,12.6619311 17.9120537,12.5599316 17.8021977,12.4359731 C17.6084768,12.217591 17.4261921,11.9753834 17.3061706,11.7151695 C16.8694034,10.768298 16.8426037,9.76938379 17.0002834,8.76761489 C17.386801,6.31303953 18.5746552,4.22221476 20.2853363,2.38161263 C20.5662719,2.0793472 20.9011537,1.82231728 21.2264477,1.53048237 C21.268149,1.6076682 21.2857075,1.62907821 21.2915989,1.6530135 C21.317128,1.75545217 21.3436967,1.85778104 21.3620638,1.96142745 C21.6170083,3.40391318 21.5710328,4.84563035 21.3569811,6.28811608 C21.0132045,8.60588696 20.1215341,10.6872694 18.4116617,12.4062187 C18.1173262,12.702116 18.1626085,13.0403942 18.1168641,13.3787822 C18.197379,13.3196027 18.254444,13.2522984 18.3098918,13.1836766 C19.9904231,11.1052586 21.8052999,9.14498005 23.8977623,7.42734823 C23.9532102,7.38178334 23.9935254,7.27912508 23.9847461,7.2094053 C23.8979934,6.51341527 24.0526697,5.86353911 24.3956376,5.25329891 C25.031786,4.12175241 25.9998127,3.29422805 27.1915944,2.74503383 C28.2171482,2.27258627 29.306236,1.92464615 30.3654051,1.51730698 C30.7111454,1.38434532 31.0512254,1.23787889 31.3938468,1.09756098 L31.5047424,1.09756098 Z" id="Fill-1" transform="translate(19.024390, 37.678260) rotate(-4.000000) translate(-19.024390, -37.678260) "></path>
                    <path d="M118.599918,1.09756098 C118.700879,1.15162771 118.796532,1.21841604 118.903493,1.25767748 C120.06356,1.68275391 121.242896,2.06549816 122.382194,2.53575815 C123.595338,3.0363964 124.613253,3.8033106 125.354016,4.86369862 C125.847512,5.57018529 126.106663,6.34159591 126.000626,7.20315432 C125.992087,7.27301337 126.033279,7.37544407 126.08901,7.42117597 C128.1793,9.13716432 129.991747,11.0958498 131.670694,13.1721003 C131.725847,13.2403143 131.783309,13.306993 131.862231,13.3654465 C131.821962,13.0153835 131.848039,12.6744231 131.547349,12.3708597 C129.934055,10.7423871 129.047908,8.78041158 128.678219,6.58846047 C128.418029,5.04574889 128.348222,3.50281798 128.620873,1.95528098 C128.639104,1.85175359 128.665758,1.74943256 128.691719,1.6472212 C128.697719,1.62375207 128.717103,1.603244 128.758411,1.53492031 C129.062331,1.80547334 129.374329,2.0474028 129.642134,2.32749702 C131.176275,3.93217149 132.266535,5.77131794 132.804915,7.88628152 C133.092221,9.01499323 133.183605,10.1543428 132.835954,11.2925957 C132.700378,11.7365352 132.488533,12.1389101 132.141921,12.4729614 C132.087344,12.5254928 132.048345,12.6246334 132.055499,12.6974535 C132.092191,13.0708759 132.14319,13.4432017 132.197767,13.8147597 C132.205959,13.8706908 132.255112,13.9235512 132.292497,13.9729022 C134.004213,16.2359187 135.462086,18.6377759 136.656306,21.1836284 C136.66346,21.198982 136.67696,21.2114843 136.758998,21.2195998 C136.718037,20.9665938 136.749306,20.6745456 136.624807,20.4668329 C135.419047,18.454629 134.89959,16.2875727 134.950013,13.9869398 C134.990166,12.1537154 135.407048,10.4094325 136.368424,8.76121953 C136.458308,8.87670082 136.544615,8.97474476 136.616268,9.08156221 C137.293801,10.0905155 137.699605,11.2058476 138.021757,12.3526547 C138.441868,13.8479893 138.733789,15.3630644 138.727443,16.9168525 C138.72352,17.8829253 138.573752,18.8293674 138.043564,19.6727208 C137.819951,20.0284865 137.49353,20.3250311 137.227225,20.658205 C137.152225,20.7520815 137.08738,20.8785297 137.082188,20.9928046 C137.06638,21.3413322 137.080111,21.6911758 137.086803,22.0404711 C137.087957,22.0994729 137.101341,22.1619841 137.124995,22.2165992 C138.195871,24.6852448 139.005518,27.2291232 139.578859,29.8509762 C139.661243,29.5849196 139.791626,29.3339973 139.706935,29.0370141 C139.32963,27.7134208 139.072209,26.3714032 139.044287,24.995498 C138.990402,22.3313128 139.829242,19.9592855 141.611227,17.8948792 C141.710687,17.7797269 141.80911,17.6636973 141.908917,17.5487644 C141.920224,17.5357138 141.937878,17.5275983 141.993954,17.4880078 C142.083492,17.7140353 142.178568,17.9255865 142.251837,18.1437178 C142.684987,19.4339717 142.818371,20.7669965 142.851601,22.1113171 C142.888639,23.6056647 142.816986,25.0936516 142.40922,26.547312 C142.180414,27.3629192 141.802071,28.110751 141.146231,28.7014274 C140.946963,28.8809553 140.731196,29.0643216 140.487159,29.1738808 C140.178854,29.3122828 140.041894,29.5063967 139.989394,29.8185142 C139.939779,30.1127557 139.815396,30.3953723 139.729435,30.684569 C139.718012,30.7230628 139.736819,30.7703301 139.74455,30.8131009 C140.229854,33.5247727 140.423237,36.2598039 140.467429,39.0065696 C140.46789,39.0382639 140.476775,39.0697389 140.488775,39.1456297 C140.670504,38.8939397 140.768003,38.6778921 140.743195,38.3939595 C140.489351,35.4818131 141.118654,32.7837403 142.917947,30.3714645 C143.67221,29.3602081 144.57001,28.4871345 145.628886,27.7637588 C145.688193,27.723291 145.751885,27.6884163 145.862653,27.6210797 C145.89773,27.8506165 145.937883,28.0499945 145.957614,28.2512368 C146.123305,29.941124 145.849961,31.59164 145.432156,33.224609 C145.113121,34.4711051 144.689663,35.6885389 143.968976,36.7820469 C143.664133,37.2446301 143.277367,37.6681711 142.874562,38.0599082 C142.420297,38.5016543 141.836802,38.7474222 141.187076,38.8422857 C141.105731,38.8542396 141.001193,38.9186152 140.965771,38.9862809 C140.793849,39.3145197 140.623196,39.6457196 140.491082,39.9894218 C140.430506,40.1469062 140.45289,40.335427 140.448967,40.5101294 C140.388506,43.2703845 140.070047,46.0000419 139.37763,48.6855028 C139.373592,48.7012951 139.380053,48.7195001 139.450552,48.7659997 C139.533859,48.5919553 139.655358,48.4252586 139.694473,48.2425504 C139.994471,46.8439436 140.399814,45.4790053 141.196192,44.254772 C142.537181,42.1931075 144.328627,40.6142052 146.725838,39.7087792 C146.929375,39.6317917 147.144796,39.5832084 147.439024,39.49657 C147.383871,39.9743972 147.388486,40.4158142 147.276103,40.8282787 C146.593031,43.3369535 145.432272,45.6115949 143.509403,47.4853967 C142.856101,48.1220243 142.082454,48.6067606 141.134923,48.7485624 C140.786118,48.8007648 140.420352,48.7688511 140.064047,48.7477947 C139.917395,48.7391309 139.830626,48.7553619 139.744319,48.8759976 C139.542975,49.1574078 139.321092,49.4254385 139.111209,49.7013653 C139.079825,49.7427104 139.064017,49.7964482 139.048556,49.8465668 C138.107025,52.8923995 136.83342,55.8052039 135.183665,58.5675427 C135.167396,58.5948502 135.160934,58.6273122 135.139588,58.6855463 C135.415817,58.5871734 135.596623,58.4554611 135.720314,58.215067 C136.409616,56.8756815 137.238417,55.626334 138.414869,54.6160647 C140.351583,52.9529367 142.614949,52.1609084 145.232081,52.3223409 C145.249504,52.3234376 145.266235,52.3336368 145.346196,52.3614927 C145.22885,52.7205484 145.138159,53.0942999 144.986545,53.4441435 C144.462588,54.6531327 143.638056,55.6742593 142.70841,56.6215788 C141.900032,57.4455208 141.039847,58.216383 139.950394,58.7014483 C138.871788,59.1817978 137.749451,59.3992711 136.565615,59.1101841 C136.38827,59.0668649 136.200079,59.0192686 136.05135,58.9247341 C135.825083,58.7808486 135.651084,58.7951055 135.438086,58.9491902 C135.212857,59.1120485 134.954167,59.2326842 134.714861,59.3786534 C134.664669,59.409251 134.629131,59.4668272 134.596477,59.5174942 C133.094182,61.8460926 131.339658,63.9837577 129.270945,65.8840993 C129.226753,65.9247865 129.190061,65.9728214 129.134792,66.0340166 C129.413097,66.0492606 129.603711,65.9813756 129.780479,65.7874811 C130.821124,64.6456091 132.010037,63.6876518 133.554217,63.2154178 C135.777314,62.5355806 137.971795,62.6792468 140.136624,63.4619533 C140.34916,63.5387215 140.557659,63.6259082 140.847272,63.7393058 C140.57612,64.0716024 140.370968,64.3984156 140.092201,64.6519699 C138.419369,66.1739541 136.447,67.1622897 134.167943,67.5833083 C133.262065,67.7505533 132.357573,67.7923372 131.457119,67.5449243 C130.80324,67.365177 130.239129,67.0473567 129.78994,66.5593304 C129.681249,66.441217 129.573942,66.3799122 129.410328,66.4238894 C129.357598,66.4380366 129.300829,66.4457135 129.246137,66.4449458 C128.714334,66.4367206 128.329991,66.6931264 127.939879,67.0134691 C125.994972,68.6107957 123.846875,69.9117972 121.497202,70.9081386 C121.423702,70.9392845 121.353549,70.9773396 121.257435,71.0239489 C121.544971,71.1431589 121.770315,71.1142063 122.022774,70.9733915 C123.069535,70.389076 124.166257,69.9142099 125.381131,69.7434555 C126.957503,69.5219244 128.466952,69.7900648 129.928862,70.3452084 C131.16566,70.8148104 132.261689,71.501447 133.320103,72.3896549 C132.940376,72.6382742 132.613725,72.9228648 132.23042,73.0916452 C129.681134,74.2149831 127.042886,74.5378482 124.323871,73.7354013 C123.181803,73.3983889 122.290695,72.7243642 121.736392,71.6863487 C121.691393,71.6019037 121.570817,71.5265612 121.470317,71.5013373 C121.185666,71.4299429 120.894668,71.3774115 120.603209,71.3374921 C120.502133,71.3236738 120.385596,71.3530651 120.287058,71.3893654 C118.482804,72.0528619 116.620973,72.5060136 114.709643,72.780076 C114.648143,72.7888495 114.584913,72.7876432 114.524683,72.7909332 C114.46203,72.2963268 114.631528,72.0835692 115.11487,72.0060333 C117.115161,71.685581 119.039068,71.1182641 120.903668,70.3658262 C121.001629,70.3263454 121.096821,70.2097674 121.131089,70.1097494 C121.321357,69.5554831 121.34628,68.9923336 121.295857,68.406044 C121.006591,65.0415136 123.231764,61.3687042 126.419584,59.9008964 C126.49366,59.8667894 126.570967,59.8389335 126.682774,59.7935306 C126.60639,60.2284772 126.538891,60.6376517 126.46216,61.0451811 C126.205547,62.4069391 125.97628,63.7743999 125.672936,65.1267263 C125.537822,65.7291373 125.283516,66.3140012 125.025634,66.8832921 C124.561215,67.9083668 123.76426,68.6691395 122.753268,69.2135357 C122.468963,69.3666334 122.110812,69.3945989 121.788776,69.4870497 C121.721508,69.5063515 121.629316,69.5444065 121.608662,69.5956219 C121.544509,69.7550804 121.509086,69.9250671 121.44251,70.1620615 C121.926775,69.938995 122.34331,69.7585898 122.74923,69.5584442 C125.024826,68.4368609 127.081425,67.0237779 128.928025,65.3350971 C129.002678,65.2668831 129.053908,65.1471247 129.062447,65.0472164 C129.090254,64.7243514 129.095562,64.3995122 129.103292,64.0754408 C129.105139,63.9991113 129.099715,63.9153243 129.068677,63.8467813 C128.266184,62.0701461 128.199954,60.2270516 128.506874,58.3479856 C128.84841,56.2571492 129.773441,54.4260086 131.213198,52.8212244 C131.28289,52.7434692 131.329735,52.6470703 131.387312,52.5593352 C131.415004,52.582585 131.442811,52.6058348 131.470503,52.628975 C131.553234,53.2688926 131.645771,53.9077136 131.716386,54.5488377 C131.848731,55.7514662 132.01696,56.9531077 132.080306,58.1594649 C132.151729,59.5201262 132.10119,60.8822132 131.394119,62.1303543 C130.951392,62.9119641 130.438281,63.6321594 129.553866,64.0289412 C129.507251,64.049888 129.460636,64.1155796 129.454174,64.1651499 C129.425559,64.3877777 129.411367,64.6121601 129.453136,64.8669208 C129.804248,64.5142259 130.16286,64.168111 130.505088,63.8078489 C132.155998,62.0695977 133.579024,60.1749589 134.780514,58.1311703 C134.843629,58.0238046 134.845591,57.8719132 134.840283,57.7420653 C134.808899,56.972519 134.435863,56.3449939 133.993829,55.7142884 C133.218797,54.6084975 132.881069,53.3371067 132.681109,52.0357762 C132.317996,49.6720837 132.710762,47.4100542 133.726485,45.2366371 C133.773792,45.1355224 133.836676,45.0409879 133.907291,44.9170621 C134.694554,46.9771913 135.681661,48.9244712 136.193272,51.0366931 C136.575653,52.6149374 136.526038,54.1529332 135.823006,55.639275 C135.664699,55.9739843 135.380279,56.2547365 135.156665,56.5621382 C135.113165,56.6219078 135.048781,56.6915475 135.051781,56.7540587 C135.062627,56.9780025 135.098281,57.2008496 135.192319,57.4410243 C135.415124,57.0266955 135.646238,56.616205 135.859467,56.1974894 C137.104687,53.7525322 138.056256,51.2074475 138.731366,48.5681571 C138.775212,48.3968544 138.789866,48.2509949 138.662021,48.1037096 C138.593598,48.024748 138.541445,47.9223173 138.515483,47.8226284 C138.365254,47.246867 137.962103,46.8857275 137.473338,46.5386256 C136.318809,45.718851 135.609661,44.5683152 135.025358,43.3413402 C133.923329,41.0274374 133.737677,38.6169163 134.167827,36.1136153 C134.216288,36.1413615 134.252519,36.1512317 134.270519,36.1740428 C135.23328,37.3947667 136.207349,38.6079234 137.151648,39.8413689 C137.843027,40.7444918 138.420984,41.7149513 138.79725,42.7780811 C139.161978,43.8085295 139.289361,44.8679305 139.024556,45.9376403 C138.946557,46.2531576 138.74902,46.5415866 138.611136,46.844492 C138.581367,46.9097449 138.539022,46.995506 138.560598,47.0517661 C138.65429,47.2963276 138.769443,47.5334316 138.93398,47.7698777 C139.059748,47.1550741 139.196939,46.542135 139.308977,45.9250284 C139.71755,43.6747335 139.939433,41.4078786 139.952471,39.1234766 C139.952817,39.0709453 139.955125,39.0180849 139.960894,38.9658825 C139.99724,38.6367663 139.910241,38.3769608 139.700704,38.0793196 C139.338861,37.5656307 138.890711,37.2675508 138.291524,37.0474455 C136.941996,36.551852 136.00762,35.5647228 135.190472,34.4717631 C133.951483,32.8146669 133.335449,30.9431682 133.11299,28.9405055 C133.073875,28.5882492 133.061644,28.2332511 133.033375,27.8274764 C134.178558,28.7012081 135.277356,29.5229567 136.355847,30.3679551 C137.171494,31.0069954 137.886181,31.7424347 138.453407,32.5936842 C139.299515,33.8633204 139.737973,35.2451478 139.467629,36.7464045 C139.378091,37.2437527 139.555667,37.5183635 139.932048,37.8108503 C139.932048,37.6086209 139.937125,37.4241579 139.931356,37.2399143 C139.837434,34.2685467 139.414091,31.338963 138.69802,28.4461183 C138.652905,28.2641777 138.586906,28.1196342 138.390638,28.0525169 C138.348639,28.0380406 138.305254,28.0113911 138.276985,27.9789291 C137.911681,27.5582394 137.426608,27.4943025 136.882343,27.4729171 C135.395625,27.4143539 134.201288,26.7022741 133.120028,25.8073764 C131.451465,24.4266457 130.472666,22.6413466 129.859171,20.6525022 C129.849478,20.6209176 129.853748,20.5854945 129.849825,20.5276991 C131.594079,21.2533778 133.432949,21.717277 135.050166,22.6712862 C136.121272,23.3031981 137.026111,24.0783374 137.510953,25.2226221 C137.752682,25.7930098 137.862066,26.3880729 137.83322,26.9962963 C137.821335,27.2465606 137.886296,27.3924201 138.11441,27.4946315 C138.229793,27.5463952 138.335254,27.6182283 138.504291,27.7146272 C138.357408,27.2098215 138.232332,26.7576569 138.094218,26.309221 C137.370762,23.9591274 136.4515,21.6807573 135.327317,19.4770716 C135.254049,19.3334054 135.181703,19.2240656 134.992359,19.2293297 C134.931321,19.2309747 134.861168,19.2083829 134.808783,19.176579 C134.372056,18.9118384 133.94006,18.9604217 133.456256,19.093121 C132.176998,19.4439516 130.949662,19.1685731 129.772287,18.6707863 C127.947379,17.899266 126.668351,16.5684346 125.664513,14.9681469 C125.64686,14.9400717 125.64109,14.905197 125.613514,14.8280998 C125.958165,14.8500335 126.273854,14.8645098 126.588506,14.89094 C127.818265,14.9943577 129.055524,15.0506178 130.274783,15.2221399 C131.38235,15.3779793 132.400265,15.7902245 133.207951,16.5798402 C133.731908,17.092213 134.080712,17.6904565 134.198404,18.3928854 C134.238442,18.6320732 134.327634,18.7535862 134.571208,18.7949314 C134.7039,18.8174135 134.831283,18.8674225 135.021205,18.9224763 C134.957051,18.7906543 134.920475,18.7078543 134.877437,18.6281251 C133.7506,16.5409077 132.448841,14.5584241 130.954854,12.6898864 C130.855162,12.5650833 130.759048,12.4919341 130.591742,12.518474 C130.538088,12.5269185 130.474858,12.53306 130.426974,12.5144163 C129.933247,12.3226054 129.53252,12.53306 129.087946,12.7209227 C127.454575,13.4111784 125.811627,13.273544 124.203641,12.6268268 C122.953228,12.1239952 121.951698,11.3044399 121.12509,10.2873711 C121.086667,10.2401038 121.053667,10.1888885 120.997014,10.1103656 C121.556855,10.0216435 122.086351,9.92579295 122.619539,9.85604356 C123.459185,9.74626505 124.298717,9.60490192 125.142864,9.56542114 C126.57316,9.49841348 127.900418,9.82489761 128.952255,10.8073111 C129.265753,11.1001269 129.504135,11.4864902 129.69798,11.8662734 C129.819248,12.1039258 129.955055,12.1978023 130.205091,12.2024084 C130.305129,12.2042728 130.405166,12.2140333 130.542934,12.2225875 C130.487896,12.1436259 130.45432,12.0863788 130.411858,12.0358214 C129.259176,10.6621095 128.008878,9.37415868 126.644236,8.18819984 C126.413353,7.98750586 126.166201,7.80249453 125.915819,7.62384399 C125.841858,7.57109328 125.731897,7.5438954 125.637052,7.54027633 C123.447647,7.45791503 121.759584,6.46979878 120.408095,4.90109569 C119.495757,3.84213337 118.889185,2.62809931 118.523534,1.30538343 C118.504842,1.23793709 118.500227,1.16687168 118.48915,1.09756098 L118.599918,1.09756098 Z" id="Fill-4" transform="translate(130.975610, 37.639059) rotate(4.000000) translate(-130.975610, -37.639059) "></path>
                </g>
                <g id="Text" transform="translate(34.390244, 8.780488)">
                    <path d="M29.8432317,16.3595122 L30.7604268,16.3595122 L33.3268902,22.3170732 L32.1151829,22.3170732 L31.5598171,20.9539024 L28.9765244,20.9539024 L28.4379878,22.3170732 L27.2515244,22.3170732 L29.8432317,16.3595122 Z M31.1895732,20.045122 L30.272378,17.6217073 L29.3383537,20.045122 L31.1895732,20.045122 Z M37.9717683,22.3170732 L37.0125,22.3170732 L37.0125,21.7112195 L36.9956707,21.7112195 C36.8554261,21.9468304 36.6604891,22.1263408 36.4108537,22.2497561 C36.1612183,22.3731713 35.8933551,22.434878 35.6072561,22.434878 C35.298718,22.434878 35.0224402,22.3773786 34.7784146,22.262378 C34.534389,22.1473775 34.3268301,21.9931107 34.1557317,21.7995732 C33.9846333,21.6060356 33.8528053,21.3788428 33.7602439,21.1179878 C33.6676825,20.8571328 33.6214024,20.5780503 33.6214024,20.2807317 C33.6214024,19.9834131 33.6690849,19.705733 33.7644512,19.4476829 C33.8598175,19.1896329 33.9944503,18.9652449 34.1683537,18.7745122 C34.342257,18.5837795 34.5498159,18.4337201 34.7910366,18.3243293 C35.0322573,18.2149385 35.2959132,18.1602439 35.5820122,18.1602439 C35.7671351,18.1602439 35.9326212,18.1812803 36.0784756,18.2233537 C36.22433,18.265427 36.3519507,18.3173168 36.4613415,18.3790244 C36.5707323,18.440732 36.6646947,18.5080484 36.7432317,18.5809756 C36.8217687,18.6539028 36.8862802,18.7240241 36.9367683,18.7913415 L36.9620122,18.7913415 L36.9620122,15.9556098 L37.9717683,15.9556098 L37.9717683,22.3170732 Z M34.6479878,20.2807317 C34.6479878,20.4378057 34.671829,20.5948773 34.7195122,20.7519512 C34.7671954,20.9090252 34.838719,21.0492677 34.9340854,21.1726829 C35.0294517,21.2960982 35.1500602,21.3970728 35.2959146,21.4756098 C35.441769,21.5541467 35.6128649,21.5934146 35.8092073,21.5934146 C35.9943302,21.5934146 36.1598163,21.5555492 36.3056707,21.4798171 C36.4515251,21.404085 36.5763409,21.3045128 36.680122,21.1810976 C36.783903,21.0576823 36.8624388,20.9188422 36.9157317,20.7645732 C36.9690247,20.6103041 36.9956707,20.4546349 36.9956707,20.297561 C36.9956707,20.140487 36.9690247,19.9834154 36.9157317,19.8263415 C36.8624388,19.6692675 36.783903,19.529025 36.680122,19.4056098 C36.5763409,19.2821945 36.4515251,19.1812199 36.3056707,19.1026829 C36.1598163,19.0241459 35.9943302,18.984878 35.8092073,18.984878 C35.6128649,18.984878 35.441769,19.0227435 35.2959146,19.0984756 C35.1500602,19.1742077 35.0294517,19.2737799 34.9340854,19.3971951 C34.838719,19.5206104 34.7671954,19.6594504 34.7195122,19.8137195 C34.671829,19.9679886 34.6479878,20.1236578 34.6479878,20.2807317 Z M38.9646951,20.2807317 C38.9646951,19.960974 39.0221945,19.670672 39.1371951,19.4098171 C39.2521957,19.1489621 39.4078649,18.9259765 39.6042073,18.7408537 C39.8005498,18.5557308 40.0333523,18.4126834 40.302622,18.3117073 C40.5718916,18.2107312 40.8579863,18.1602439 41.1609146,18.1602439 C41.463843,18.1602439 41.7499377,18.2107312 42.0192073,18.3117073 C42.288477,18.4126834 42.5212795,18.5557308 42.717622,18.7408537 C42.9139644,18.9259765 43.0696336,19.1489621 43.1846341,19.4098171 C43.2996347,19.670672 43.3571341,19.960974 43.3571341,20.2807317 C43.3571341,20.6004894 43.2996347,20.8921938 43.1846341,21.1558537 C43.0696336,21.4195135 42.9139644,21.6453039 42.717622,21.8332317 C42.5212795,22.0211595 42.288477,22.1684141 42.0192073,22.275 C41.7499377,22.3815859 41.463843,22.434878 41.1609146,22.434878 C40.8579863,22.434878 40.5718916,22.3815859 40.302622,22.275 C40.0333523,22.1684141 39.8005498,22.0211595 39.6042073,21.8332317 C39.4078649,21.6453039 39.2521957,21.4195135 39.1371951,21.1558537 C39.0221945,20.8921938 38.9646951,20.6004894 38.9646951,20.2807317 Z M39.9912805,20.2807317 C39.9912805,20.4378057 40.0151217,20.5948773 40.0628049,20.7519512 C40.110488,20.9090252 40.1820117,21.0492677 40.277378,21.1726829 C40.3727444,21.2960982 40.4933529,21.3970728 40.6392073,21.4756098 C40.7850617,21.5541467 40.9589624,21.5934146 41.1609146,21.5934146 C41.3628669,21.5934146 41.5367676,21.5541467 41.682622,21.4756098 C41.8284763,21.3970728 41.9490849,21.2960982 42.0444512,21.1726829 C42.1398175,21.0492677 42.2113412,20.9090252 42.2590244,20.7519512 C42.3067076,20.5948773 42.3305488,20.4378057 42.3305488,20.2807317 C42.3305488,20.1236578 42.3067076,19.9679886 42.2590244,19.8137195 C42.2113412,19.6594504 42.1398175,19.5206104 42.0444512,19.3971951 C41.9490849,19.2737799 41.8284763,19.1742077 41.682622,19.0984756 C41.5367676,19.0227435 41.3628669,18.984878 41.1609146,18.984878 C40.9589624,18.984878 40.7850617,19.0227435 40.6392073,19.0984756 C40.4933529,19.1742077 40.3727444,19.2737799 40.277378,19.3971951 C40.1820117,19.5206104 40.110488,19.6594504 40.0628049,19.8137195 C40.0151217,19.9679886 39.9912805,20.1236578 39.9912805,20.2807317 Z M45.3598171,15.9556098 L45.3598171,18.7913415 L45.385061,18.7913415 C45.435549,18.7240241 45.5000606,18.6539028 45.5785976,18.5809756 C45.6571345,18.5080484 45.751097,18.440732 45.8604878,18.3790244 C45.9698786,18.3173168 46.0974993,18.265427 46.2433537,18.2233537 C46.389208,18.1812803 46.5546942,18.1602439 46.7398171,18.1602439 C47.0259161,18.1602439 47.289572,18.2149385 47.5307927,18.3243293 C47.7720134,18.4337201 47.9795723,18.5837795 48.1534756,18.7745122 C48.3273789,18.9652449 48.4620117,19.1896329 48.557378,19.4476829 C48.6527444,19.705733 48.7004268,19.9834131 48.7004268,20.2807317 C48.7004268,20.5780503 48.6541468,20.8571328 48.5615854,21.1179878 C48.4690239,21.3788428 48.337196,21.6060356 48.1660976,21.7995732 C47.9949991,21.9931107 47.7874402,22.1473775 47.5434146,22.262378 C47.299389,22.3773786 47.0231113,22.434878 46.7145732,22.434878 C46.4284742,22.434878 46.160611,22.3731713 45.9109756,22.2497561 C45.6613402,22.1263408 45.4664031,21.9468304 45.3261585,21.7112195 L45.3093293,21.7112195 L45.3093293,22.3170732 L44.350061,22.3170732 L44.350061,15.9556098 L45.3598171,15.9556098 Z M47.6738415,20.2807317 C47.6738415,20.1236578 47.6500002,19.9679886 47.6023171,19.8137195 C47.5546339,19.6594504 47.4831102,19.5206104 47.3877439,19.3971951 C47.2923776,19.2737799 47.171769,19.1742077 47.0259146,19.0984756 C46.8800602,19.0227435 46.7089644,18.984878 46.512622,18.984878 C46.3274991,18.984878 46.1620129,19.0241459 46.0161585,19.1026829 C45.8703041,19.1812199 45.7454883,19.2821945 45.6417073,19.4056098 C45.5379263,19.529025 45.4593905,19.6692675 45.4060976,19.8263415 C45.3528046,19.9834154 45.3261585,20.140487 45.3261585,20.297561 C45.3261585,20.4546349 45.3528046,20.6103041 45.4060976,20.7645732 C45.4593905,20.9188422 45.5379263,21.0576823 45.6417073,21.1810976 C45.7454883,21.3045128 45.8703041,21.404085 46.0161585,21.4798171 C46.1620129,21.5555492 46.3274991,21.5934146 46.512622,21.5934146 C46.7089644,21.5934146 46.8800602,21.5541467 47.0259146,21.4756098 C47.171769,21.3970728 47.2923776,21.2960982 47.3877439,21.1726829 C47.4831102,21.0492677 47.5546339,20.9090252 47.6023171,20.7519512 C47.6500002,20.5948773 47.6738415,20.4378057 47.6738415,20.2807317 Z M52.5206707,19.8936585 C52.5206707,19.7646335 52.5024392,19.6412201 52.4659756,19.5234146 C52.429512,19.4056092 52.3720126,19.3018297 52.2934756,19.2120732 C52.2149386,19.1223166 52.1153665,19.0507929 51.9947561,18.9975 C51.8741457,18.9442071 51.7325008,18.917561 51.5698171,18.917561 C51.2668887,18.917561 51.010245,19.0087186 50.799878,19.1910366 C50.5895111,19.3733546 50.4731099,19.6075595 50.4506707,19.8936585 L52.5206707,19.8936585 Z M53.5304268,20.3480488 L53.5304268,20.4826829 C53.5304268,20.5275612 53.527622,20.5724388 53.5220122,20.6173171 L50.4506707,20.6173171 C50.4618903,20.7631715 50.4997558,20.8964018 50.5642683,21.0170122 C50.6287808,21.1376226 50.7143287,21.241402 50.8209146,21.3283537 C50.9275005,21.4153053 51.0481091,21.4840241 51.1827439,21.5345122 C51.3173787,21.5850003 51.4576212,21.6102439 51.6034756,21.6102439 C51.8559159,21.6102439 52.0690845,21.5639639 52.2429878,21.4714024 C52.4168911,21.378841 52.5599385,21.2512203 52.6721341,21.0885366 L53.3453049,21.6270732 C52.9470102,22.1656124 52.3692111,22.434878 51.6118902,22.434878 C51.2977423,22.434878 51.0088428,22.3857932 50.7451829,22.287622 C50.4815231,22.1894507 50.2529278,22.0506107 50.0593902,21.8710976 C49.8658527,21.6915845 49.7143908,21.4714037 49.605,21.2105488 C49.4956092,20.9496938 49.4409146,20.6537821 49.4409146,20.3228049 C49.4409146,19.9974374 49.4956092,19.7015257 49.605,19.435061 C49.7143908,19.1685962 49.8644503,18.9414034 50.0551829,18.7534756 C50.2459156,18.5655478 50.471706,18.4196956 50.732561,18.3159146 C50.9934159,18.2121336 51.2753034,18.1602439 51.5782317,18.1602439 C51.8587209,18.1602439 52.1181695,18.2065239 52.3565854,18.2990854 C52.5950012,18.3916468 52.8011577,18.5290845 52.975061,18.7114024 C53.1489643,18.8937204 53.2849995,19.1209133 53.3831707,19.3929878 C53.481342,19.6650623 53.5304268,19.9834128 53.5304268,20.3480488 Z M2.94164634,27.7009756 L6.78713415,27.7009756 L6.78713415,28.6265854 L4.00189024,28.6265854 L4.00189024,30.2590244 L6.6272561,30.2590244 L6.6272561,31.1509756 L4.00189024,31.1509756 L4.00189024,33.6585366 L2.94164634,33.6585366 L2.94164634,27.7009756 Z M7.57810976,29.6195122 L8.58786585,29.6195122 L8.58786585,33.6585366 L7.57810976,33.6585366 L7.57810976,29.6195122 Z M7.43506098,28.2479268 C7.43506098,28.0852431 7.49536525,27.9435982 7.61597561,27.8229878 C7.73658597,27.7023774 7.88945029,27.6420732 8.07457317,27.6420732 C8.25969605,27.6420732 8.41536522,27.6995726 8.54158537,27.8145732 C8.66780551,27.9295737 8.73091463,28.0740235 8.73091463,28.2479268 C8.73091463,28.4218301 8.66780551,28.5662799 8.54158537,28.6812805 C8.41536522,28.7962811 8.25969605,28.8537805 8.07457317,28.8537805 C7.88945029,28.8537805 7.73658597,28.7934762 7.61597561,28.6728659 C7.49536525,28.5522555 7.43506098,28.4106106 7.43506098,28.2479268 Z M9.81640244,29.6195122 L10.7840854,29.6195122 L10.7840854,30.2926829 L10.8009146,30.2926829 C10.9131103,30.057072 11.0701819,29.8663422 11.2721341,29.7204878 C11.4740864,29.5746334 11.7096938,29.5017073 11.9789634,29.5017073 C12.0182319,29.5017073 12.0603047,29.5031097 12.1051829,29.5059146 C12.1500612,29.5087195 12.1893291,29.5157317 12.2229878,29.5269512 L12.2229878,30.452561 C12.1556704,30.4357316 12.098171,30.4245122 12.0504878,30.4189024 C12.0028046,30.4132927 11.9565246,30.4104878 11.9116463,30.4104878 C11.6816452,30.4104878 11.4965251,30.4525606 11.3562805,30.5367073 C11.2160359,30.6208541 11.1066467,30.7218287 11.0281098,30.8396341 C10.9495728,30.9574396 10.8962806,31.0780482 10.8682317,31.2014634 C10.8401828,31.3248787 10.8261585,31.4230484 10.8261585,31.4959756 L10.8261585,33.6585366 L9.81640244,33.6585366 L9.81640244,29.6195122 Z M15.092378,30.6965854 C15.0026215,30.5787799 14.8792081,30.4764029 14.7221341,30.3894512 C14.5650602,30.3024996 14.3939643,30.2590244 14.2088415,30.2590244 C14.0461577,30.2590244 13.8975007,30.2926826 13.7628659,30.36 C13.628231,30.4273174 13.5609146,30.5395114 13.5609146,30.6965854 C13.5609146,30.8536593 13.6352432,30.9644509 13.7839024,31.0289634 C13.9325617,31.0934759 14.1499376,31.1593899 14.4360366,31.2267073 C14.5875008,31.260366 14.7403651,31.3052436 14.8946341,31.3613415 C15.0489032,31.4174393 15.1891457,31.4917678 15.3153659,31.5843293 C15.441586,31.6768907 15.543963,31.7918896 15.6225,31.9293293 C15.701037,32.066769 15.7403049,32.2336576 15.7403049,32.43 C15.7403049,32.6768305 15.6940249,32.8857918 15.6014634,33.0568902 C15.508902,33.2279887 15.3854886,33.3668287 15.2312195,33.4734146 C15.0769504,33.5800005 14.89744,33.6571339 14.6926829,33.7048171 C14.4879258,33.7525002 14.2761596,33.7763415 14.057378,33.7763415 C13.7432301,33.7763415 13.4375015,33.718842 13.1401829,33.6038415 C12.8428644,33.4888409 12.5960376,33.3247572 12.3996951,33.1115854 L13.0644512,32.4889024 C13.1766469,32.6347568 13.3224991,32.7553654 13.5020122,32.8507317 C13.6815253,32.946098 13.8806696,32.9937805 14.0994512,32.9937805 C14.1723784,32.9937805 14.2467069,32.9853659 14.322439,32.9685366 C14.3981711,32.9517072 14.4682924,32.9250612 14.5328049,32.8885976 C14.5973174,32.852134 14.6492071,32.8030491 14.6884756,32.7413415 C14.7277441,32.6796338 14.747378,32.6039029 14.747378,32.5141463 C14.747378,32.3458528 14.6702447,32.2252443 14.5159756,32.1523171 C14.3617065,32.0793899 14.1303064,32.0064638 13.8217683,31.9335366 C13.6703041,31.8998779 13.5230495,31.8564027 13.38,31.8031098 C13.2369505,31.7498168 13.1093298,31.6796956 12.9971341,31.5927439 C12.8849385,31.5057922 12.7951833,31.3978055 12.7278659,31.2687805 C12.6605484,31.1397555 12.6268902,30.979879 12.6268902,30.7891463 C12.6268902,30.564755 12.6731703,30.3712203 12.7657317,30.2085366 C12.8582931,30.0458528 12.9803041,29.9126225 13.1317683,29.8088415 C13.2832325,29.7050605 13.4543283,29.6279271 13.645061,29.577439 C13.8357936,29.526951 14.0321331,29.5017073 14.2340854,29.5017073 C14.5257941,29.5017073 14.8104864,29.5521946 15.0881707,29.6531707 C15.365855,29.7541468 15.5860358,29.9084136 15.7487195,30.1159756 L15.092378,30.6965854 Z M16.0348171,30.4273171 L16.0348171,29.6195122 L16.7416463,29.6195122 L16.7416463,28.449878 L17.7345732,28.449878 L17.7345732,29.6195122 L18.7443293,29.6195122 L18.7443293,30.4273171 L17.7345732,30.4273171 L17.7345732,32.3037805 C17.7345732,32.4832936 17.7668289,32.6319506 17.8313415,32.7497561 C17.895854,32.8675616 18.0403038,32.9264634 18.2646951,32.9264634 C18.3320125,32.9264634 18.4049386,32.9194513 18.4834756,32.9054268 C18.5620126,32.8914024 18.6321338,32.870366 18.6938415,32.8423171 L18.7275,33.6332927 C18.6377435,33.6669514 18.5311592,33.6935975 18.4077439,33.7132317 C18.2843287,33.732866 18.166525,33.7426829 18.0543293,33.7426829 C17.7850596,33.7426829 17.5662813,33.7048175 17.3979878,33.6290854 C17.2296943,33.5533533 17.0964639,33.4495738 16.9982927,33.3177439 C16.9001215,33.185914 16.8328051,33.0344521 16.7963415,32.8633537 C16.7598779,32.6922552 16.7416463,32.5085376 16.7416463,32.3121951 L16.7416463,30.4273171 L16.0348171,30.4273171 Z M21.6305488,27.7009756 L25.4760366,27.7009756 L25.4760366,28.6265854 L22.6907927,28.6265854 L22.6907927,30.2590244 L25.3161585,30.2590244 L25.3161585,31.1509756 L22.6907927,31.1509756 L22.6907927,33.6585366 L21.6305488,33.6585366 L21.6305488,27.7009756 Z M26.0482317,29.6195122 L27.0159146,29.6195122 L27.0159146,30.2926829 L27.0327439,30.2926829 C27.1449396,30.057072 27.3020112,29.8663422 27.5039634,29.7204878 C27.7059156,29.5746334 27.941523,29.5017073 28.2107927,29.5017073 C28.2500612,29.5017073 28.2921339,29.5031097 28.3370122,29.5059146 C28.3818905,29.5087195 28.4211584,29.5157317 28.4548171,29.5269512 L28.4548171,30.452561 C28.3874997,30.4357316 28.3300002,30.4245122 28.2823171,30.4189024 C28.2346339,30.4132927 28.1883539,30.4104878 28.1434756,30.4104878 C27.9134745,30.4104878 27.7283544,30.4525606 27.5881098,30.5367073 C27.4478652,30.6208541 27.338476,30.7218287 27.259939,30.8396341 C27.181402,30.9574396 27.1281099,31.0780482 27.100061,31.2014634 C27.0720121,31.3248787 27.0579878,31.4230484 27.0579878,31.4959756 L27.0579878,33.6585366 L26.0482317,33.6585366 L26.0482317,29.6195122 Z M31.5093293,33.1452439 L31.4840854,33.1452439 C31.3831093,33.324757 31.220428,33.4720116 30.9960366,33.5870122 C30.7716452,33.7020128 30.5164039,33.7595122 30.2303049,33.7595122 C30.0676211,33.7595122 29.8979277,33.7384758 29.7212195,33.6964024 C29.5445113,33.6543291 29.38183,33.5842078 29.2331707,33.4860366 C29.0845115,33.3878654 28.9610981,33.2588423 28.8629268,33.0989634 C28.7647556,32.9390846 28.7156707,32.7413426 28.7156707,32.5057317 C28.7156707,32.2028034 28.8012187,31.9615863 28.9723171,31.7820732 C29.1434155,31.6025601 29.3635962,31.4651224 29.6328659,31.3697561 C29.9021355,31.2743898 30.200852,31.2112806 30.5290244,31.1804268 C30.8571968,31.149573 31.1783521,31.1341463 31.4925,31.1341463 L31.4925,31.0331707 C31.4925,30.7807304 31.4013424,30.5942079 31.2190244,30.4735976 C31.0367064,30.3529872 30.8193305,30.2926829 30.5668902,30.2926829 C30.3537184,30.2926829 30.1489644,30.3375605 29.952622,30.4273171 C29.7562795,30.5170736 29.5935982,30.6264628 29.4645732,30.7554878 L28.9428659,30.1412195 C29.172867,29.9280477 29.4379253,29.7681713 29.7380488,29.6615854 C30.0381722,29.5549995 30.3424985,29.5017073 30.6510366,29.5017073 C31.0100628,29.5017073 31.3059744,29.5521946 31.5387805,29.6531707 C31.7715865,29.7541468 31.9553042,29.8859748 32.089939,30.0486585 C32.2245738,30.2113423 32.3185363,30.3936575 32.3718293,30.5956098 C32.4251222,30.797562 32.4517683,30.9995112 32.4517683,31.2014634 L32.4517683,33.6585366 L31.5093293,33.6585366 L31.5093293,33.1452439 Z M31.4925,31.8157317 L31.2653049,31.8157317 C31.1026211,31.8157317 30.9315253,31.8227438 30.7520122,31.8367683 C30.5724991,31.8507928 30.407013,31.8816461 30.2555488,31.9293293 C30.1040846,31.9770124 29.9778664,32.0443288 29.8768902,32.1312805 C29.7759141,32.2182321 29.7254268,32.3374383 29.7254268,32.4889024 C29.7254268,32.5842688 29.7464632,32.664207 29.7885366,32.7287195 C29.83061,32.793232 29.8853045,32.8451218 29.952622,32.8843902 C30.0199394,32.9236587 30.0956703,32.9517072 30.1798171,32.9685366 C30.2639638,32.9853659 30.3481093,32.9937805 30.4322561,32.9937805 C30.7800627,32.9937805 31.0437186,32.9012204 31.2232317,32.7160976 C31.4027448,32.5309747 31.4925,32.2785382 31.4925,31.9587805 L31.4925,31.8157317 Z M38.4514024,29.5017073 C38.7150623,29.5017073 38.9408527,29.5479873 39.1287805,29.6405488 C39.3167083,29.7331102 39.470975,29.8551212 39.5915854,30.0065854 C39.7121957,30.1580495 39.8005485,30.3319502 39.8566463,30.5282927 C39.9127442,30.7246351 39.9407927,30.9265843 39.9407927,31.1341463 L39.9407927,33.6585366 L38.9310366,33.6585366 L38.9310366,31.4202439 C38.9310366,31.3024384 38.922622,31.179025 38.9057927,31.05 C38.8889633,30.920975 38.8525003,30.8045737 38.7964024,30.7007927 C38.7403046,30.5970117 38.6631712,30.5114638 38.565,30.4441463 C38.4668288,30.3768289 38.3364033,30.3431707 38.1737195,30.3431707 C38.0166456,30.3431707 37.8820128,30.3768289 37.7698171,30.4441463 C37.6576214,30.5114638 37.5650613,30.5984141 37.4921341,30.705 C37.419207,30.8115859 37.3659148,30.930792 37.3322561,31.062622 C37.2985974,31.1944519 37.2817683,31.3248774 37.2817683,31.4539024 L37.2817683,33.6585366 L36.2720122,33.6585366 L36.2720122,31.2182927 C36.2720122,30.9658524 36.2117079,30.7568911 36.0910976,30.5914024 C35.9704872,30.4259138 35.7811598,30.3431707 35.5231098,30.3431707 C35.3716456,30.3431707 35.2398176,30.3754265 35.127622,30.439939 C35.0154263,30.5044515 34.9242686,30.5871946 34.8541463,30.6881707 C34.784024,30.7891468 34.7307319,30.9055481 34.6942683,31.037378 C34.6578047,31.169208 34.6395732,31.3024384 34.6395732,31.4370732 L34.6395732,33.6585366 L33.6298171,33.6585366 L33.6298171,29.6195122 L34.5890854,29.6195122 L34.5890854,30.267439 L34.6059146,30.267439 C34.6507929,30.1664629 34.7110972,30.071098 34.7868293,29.9813415 C34.8625614,29.8915849 34.9523166,29.8102443 35.0560976,29.7373171 C35.1598786,29.6643899 35.2790847,29.6068905 35.4137195,29.5648171 C35.5483543,29.5227437 35.6970114,29.5017073 35.8596951,29.5017073 C36.173843,29.5017073 36.4346941,29.5718286 36.6422561,29.7120732 C36.8498181,29.8523178 37.0096946,30.0374379 37.1218902,30.267439 C37.2565251,30.0206085 37.4360355,29.8312811 37.6604268,29.6994512 C37.8848182,29.5676213 38.1484741,29.5017073 38.4514024,29.5017073 Z M43.9629878,31.235122 C43.9629878,31.1060969 43.9447563,30.9826835 43.9082927,30.864878 C43.8718291,30.7470726 43.8143297,30.6432931 43.7357927,30.5535366 C43.6572557,30.46378 43.5576835,30.3922564 43.4370732,30.3389634 C43.3164628,30.2856705 43.1748179,30.2590244 43.0121341,30.2590244 C42.7092058,30.2590244 42.452562,30.350182 42.2421951,30.5325 C42.0318282,30.714818 41.9154269,30.949023 41.8929878,31.235122 L43.9629878,31.235122 Z M44.9727439,31.6895122 L44.9727439,31.8241463 C44.9727439,31.8690246 44.9699391,31.9139022 44.9643293,31.9587805 L41.8929878,31.9587805 C41.9042074,32.1046349 41.9420728,32.2378653 42.0065854,32.3584756 C42.0710979,32.479086 42.1566458,32.5828654 42.2632317,32.6698171 C42.3698176,32.7567687 42.4904262,32.8254876 42.625061,32.8759756 C42.7596958,32.9264637 42.8999383,32.9517073 43.0457927,32.9517073 C43.298233,32.9517073 43.5114016,32.9054273 43.6853049,32.8128659 C43.8592082,32.7203044 44.0022555,32.5926837 44.1144512,32.43 L44.787622,32.9685366 C44.3893273,33.5070759 43.8115282,33.7763415 43.0542073,33.7763415 C42.7400594,33.7763415 42.4511599,33.7272566 42.1875,33.6290854 C41.9238401,33.5309141 41.6952449,33.3920741 41.5017073,33.212561 C41.3081698,33.0330479 41.1567079,32.8128672 41.0473171,32.5520122 C40.9379263,32.2911572 40.8832317,31.9952456 40.8832317,31.6642683 C40.8832317,31.3389008 40.9379263,31.0429891 41.0473171,30.7765244 C41.1567079,30.5100596 41.3067673,30.2828668 41.4975,30.094939 C41.6882327,29.9070113 41.9140231,29.7611591 42.174878,29.657378 C42.435733,29.553597 42.7176204,29.5017073 43.0205488,29.5017073 C43.301038,29.5017073 43.5604866,29.5479873 43.7989024,29.6405488 C44.0373183,29.7331102 44.2434747,29.8705479 44.417378,30.0528659 C44.5912814,30.2351838 44.7273166,30.4623767 44.8254878,30.7344512 C44.923659,31.0065258 44.9727439,31.3248762 44.9727439,31.6895122 Z M48.1029878,27.7009756 L51.9484756,27.7009756 L51.9484756,28.6265854 L49.1632317,28.6265854 L49.1632317,30.2590244 L51.7885976,30.2590244 L51.7885976,31.1509756 L49.1632317,31.1509756 L49.1632317,33.6585366 L48.1029878,33.6585366 L48.1029878,27.7009756 Z M55.3143293,31.235122 C55.3143293,31.1060969 55.2960977,30.9826835 55.2596341,30.864878 C55.2231705,30.7470726 55.1656711,30.6432931 55.0871341,30.5535366 C55.0085972,30.46378 54.909025,30.3922564 54.7884146,30.3389634 C54.6678043,30.2856705 54.5261593,30.2590244 54.3634756,30.2590244 C54.0605473,30.2590244 53.8039035,30.350182 53.5935366,30.5325 C53.3831697,30.714818 53.2667684,30.949023 53.2443293,31.235122 L55.3143293,31.235122 Z M56.3240854,31.6895122 L56.3240854,31.8241463 C56.3240854,31.8690246 56.3212805,31.9139022 56.3156707,31.9587805 L53.2443293,31.9587805 C53.2555488,32.1046349 53.2934143,32.2378653 53.3579268,32.3584756 C53.4224393,32.479086 53.5079873,32.5828654 53.6145732,32.6698171 C53.7211591,32.7567687 53.8417676,32.8254876 53.9764024,32.8759756 C54.1110373,32.9264637 54.2512798,32.9517073 54.3971341,32.9517073 C54.6495744,32.9517073 54.862743,32.9054273 55.0366463,32.8128659 C55.2105496,32.7203044 55.353597,32.5926837 55.4657927,32.43 L56.1389634,32.9685366 C55.7406687,33.5070759 55.1628696,33.7763415 54.4055488,33.7763415 C54.0914009,33.7763415 53.8025013,33.7272566 53.5388415,33.6290854 C53.2751816,33.5309141 53.0465863,33.3920741 52.8530488,33.212561 C52.6595112,33.0330479 52.5080493,32.8128672 52.3986585,32.5520122 C52.2892677,32.2911572 52.2345732,31.9952456 52.2345732,31.6642683 C52.2345732,31.3389008 52.2892677,31.0429891 52.3986585,30.7765244 C52.5080493,30.5100596 52.6581088,30.2828668 52.8488415,30.094939 C53.0395741,29.9070113 53.2653645,29.7611591 53.5262195,29.657378 C53.7870745,29.553597 54.0689619,29.5017073 54.3718902,29.5017073 C54.6523795,29.5017073 54.9118281,29.5479873 55.1502439,29.6405488 C55.3886597,29.7331102 55.5948162,29.8705479 55.7687195,30.0528659 C55.9426228,30.2351838 56.078658,30.4623767 56.1768293,30.7344512 C56.2750005,31.0065258 56.3240854,31.3248762 56.3240854,31.6895122 Z M59.5132317,30.6965854 C59.4234752,30.5787799 59.3000618,30.4764029 59.1429878,30.3894512 C58.9859138,30.3024996 58.814818,30.2590244 58.6296951,30.2590244 C58.4670114,30.2590244 58.3183543,30.2926826 58.1837195,30.36 C58.0490847,30.4273174 57.9817683,30.5395114 57.9817683,30.6965854 C57.9817683,30.8536593 58.0560968,30.9644509 58.2047561,31.0289634 C58.3534154,31.0934759 58.5707913,31.1593899 58.8568902,31.2267073 C59.0083544,31.260366 59.1612187,31.3052436 59.3154878,31.3613415 C59.4697569,31.4174393 59.6099994,31.4917678 59.7362195,31.5843293 C59.8624397,31.6768907 59.9648167,31.7918896 60.0433537,31.9293293 C60.1218906,32.066769 60.1611585,32.2336576 60.1611585,32.43 C60.1611585,32.6768305 60.1148785,32.8857918 60.0223171,33.0568902 C59.9297556,33.2279887 59.8063422,33.3668287 59.6520732,33.4734146 C59.4978041,33.5800005 59.3182937,33.6571339 59.1135366,33.7048171 C58.9087795,33.7525002 58.6970133,33.7763415 58.4782317,33.7763415 C58.1640838,33.7763415 57.8583551,33.718842 57.5610366,33.6038415 C57.263718,33.4888409 57.0168912,33.3247572 56.8205488,33.1115854 L57.4853049,32.4889024 C57.5975006,32.6347568 57.7433528,32.7553654 57.9228659,32.8507317 C58.1023789,32.946098 58.3015233,32.9937805 58.5203049,32.9937805 C58.5932321,32.9937805 58.6675606,32.9853659 58.7432927,32.9685366 C58.8190248,32.9517072 58.889146,32.9250612 58.9536585,32.8885976 C59.0181711,32.852134 59.0700608,32.8030491 59.1093293,32.7413415 C59.1485978,32.6796338 59.1682317,32.6039029 59.1682317,32.5141463 C59.1682317,32.3458528 59.0910983,32.2252443 58.9368293,32.1523171 C58.7825602,32.0793899 58.5511601,32.0064638 58.242622,31.9335366 C58.0911578,31.8998779 57.9439032,31.8564027 57.8008537,31.8031098 C57.6578042,31.7498168 57.5301835,31.6796956 57.4179878,31.5927439 C57.3057921,31.5057922 57.2160369,31.3978055 57.1487195,31.2687805 C57.0814021,31.1397555 57.0477439,30.979879 57.0477439,30.7891463 C57.0477439,30.564755 57.0940239,30.3712203 57.1865854,30.2085366 C57.2791468,30.0458528 57.4011578,29.9126225 57.552622,29.8088415 C57.7040861,29.7050605 57.875182,29.6279271 58.0659146,29.577439 C58.2566473,29.526951 58.4529868,29.5017073 58.654939,29.5017073 C58.9466478,29.5017073 59.2313401,29.5521946 59.5090244,29.6531707 C59.7867087,29.7541468 60.0068894,29.9084136 60.1695732,30.1159756 L59.5132317,30.6965854 Z M60.4556707,30.4273171 L60.4556707,29.6195122 L61.1625,29.6195122 L61.1625,28.449878 L62.1554268,28.449878 L62.1554268,29.6195122 L63.1651829,29.6195122 L63.1651829,30.4273171 L62.1554268,30.4273171 L62.1554268,32.3037805 C62.1554268,32.4832936 62.1876826,32.6319506 62.2521951,32.7497561 C62.3167076,32.8675616 62.4611574,32.9264634 62.6855488,32.9264634 C62.7528662,32.9264634 62.8257923,32.9194513 62.9043293,32.9054268 C62.9828662,32.8914024 63.0529875,32.870366 63.1146951,32.8423171 L63.1483537,33.6332927 C63.0585971,33.6669514 62.9520128,33.6935975 62.8285976,33.7132317 C62.7051823,33.732866 62.5873786,33.7426829 62.4751829,33.7426829 C62.2059133,33.7426829 61.987135,33.7048175 61.8188415,33.6290854 C61.6505479,33.5533533 61.5173176,33.4495738 61.4191463,33.3177439 C61.3209751,33.185914 61.2536587,33.0344521 61.2171951,32.8633537 C61.1807315,32.6922552 61.1625,32.5085376 61.1625,32.3121951 L61.1625,30.4273171 L60.4556707,30.4273171 Z M63.9140854,29.6195122 L64.9238415,29.6195122 L64.9238415,33.6585366 L63.9140854,33.6585366 L63.9140854,29.6195122 Z M63.7710366,28.2479268 C63.7710366,28.0852431 63.8313409,27.9435982 63.9519512,27.8229878 C64.0725616,27.7023774 64.2254259,27.6420732 64.4105488,27.6420732 C64.5956717,27.6420732 64.7513408,27.6995726 64.877561,27.8145732 C65.0037811,27.9295737 65.0668902,28.0740235 65.0668902,28.2479268 C65.0668902,28.4218301 65.0037811,28.5662799 64.877561,28.6812805 C64.7513408,28.7962811 64.5956717,28.8537805 64.4105488,28.8537805 C64.2254259,28.8537805 64.0725616,28.7934762 63.9519512,28.6728659 C63.8313409,28.5522555 63.7710366,28.4106106 63.7710366,28.2479268 Z M65.5465244,29.6195122 L66.6488415,29.6195122 L67.7090854,32.5646341 L67.7259146,32.5646341 L68.7945732,29.6195122 L69.8632317,29.6195122 L68.2560366,33.6585366 L67.1789634,33.6585366 L65.5465244,29.6195122 Z M72.9766463,33.1452439 L72.9514024,33.1452439 C72.8504263,33.324757 72.687745,33.4720116 72.4633537,33.5870122 C72.2389623,33.7020128 71.9837209,33.7595122 71.697622,33.7595122 C71.5349382,33.7595122 71.3652448,33.7384758 71.1885366,33.6964024 C71.0118284,33.6543291 70.8491471,33.5842078 70.7004878,33.4860366 C70.5518285,33.3878654 70.4284151,33.2588423 70.3302439,33.0989634 C70.2320727,32.9390846 70.1829878,32.7413426 70.1829878,32.5057317 C70.1829878,32.2028034 70.2685357,31.9615863 70.4396341,31.7820732 C70.6107326,31.6025601 70.8309133,31.4651224 71.1001829,31.3697561 C71.3694526,31.2743898 71.6681691,31.2112806 71.9963415,31.1804268 C72.3245138,31.149573 72.6456692,31.1341463 72.9598171,31.1341463 L72.9598171,31.0331707 C72.9598171,30.7807304 72.8686594,30.5942079 72.6863415,30.4735976 C72.5040235,30.3529872 72.2866476,30.2926829 72.0342073,30.2926829 C71.8210355,30.2926829 71.6162815,30.3375605 71.419939,30.4273171 C71.2235966,30.5170736 71.0609153,30.6264628 70.9318902,30.7554878 L70.4101829,30.1412195 C70.6401841,29.9280477 70.9052424,29.7681713 71.2053659,29.6615854 C71.5054893,29.5549995 71.8098155,29.5017073 72.1183537,29.5017073 C72.4773798,29.5017073 72.7732915,29.5521946 73.0060976,29.6531707 C73.2389036,29.7541468 73.4226213,29.8859748 73.5572561,30.0486585 C73.6918909,30.2113423 73.7858534,30.3936575 73.8391463,30.5956098 C73.8924393,30.797562 73.9190854,30.9995112 73.9190854,31.2014634 L73.9190854,33.6585366 L72.9766463,33.6585366 L72.9766463,33.1452439 Z M72.9598171,31.8157317 L72.732622,31.8157317 C72.5699382,31.8157317 72.3988424,31.8227438 72.2193293,31.8367683 C72.0398162,31.8507928 71.87433,31.8816461 71.7228659,31.9293293 C71.5714017,31.9770124 71.4451834,32.0443288 71.3442073,32.1312805 C71.2432312,32.2182321 71.1927439,32.3374383 71.1927439,32.4889024 C71.1927439,32.5842688 71.2137803,32.664207 71.2558537,32.7287195 C71.297927,32.793232 71.3526216,32.8451218 71.419939,32.8843902 C71.4872564,32.9236587 71.5629874,32.9517072 71.6471341,32.9685366 C71.7312809,32.9853659 71.8154264,32.9937805 71.8995732,32.9937805 C72.2473798,32.9937805 72.5110357,32.9012204 72.6905488,32.7160976 C72.8700619,32.5309747 72.9598171,32.2785382 72.9598171,31.9587805 L72.9598171,31.8157317 Z M75.1139634,27.2970732 L76.1237195,27.2970732 L76.1237195,33.6585366 L75.1139634,33.6585366 L75.1139634,27.2970732 Z M77.537378,32.4973171 L78.5134756,32.4973171 L77.7982317,34.7187805 L76.9483537,34.7187805 L77.537378,32.4973171 Z M19.9939024,39.042439 L21.0541463,39.042439 L21.0541463,41.4490244 L23.8393902,41.4490244 L23.8393902,39.042439 L24.8996341,39.042439 L24.8996341,45 L23.8393902,45 L23.8393902,42.3578049 L21.0541463,42.3578049 L21.0541463,45 L19.9939024,45 L19.9939024,39.042439 Z M25.9262195,42.9636585 C25.9262195,42.6439008 25.9837189,42.3535989 26.0987195,42.0927439 C26.2137201,41.8318889 26.3693893,41.6089034 26.5657317,41.4237805 C26.7620742,41.2386576 26.9948767,41.0956103 27.2641463,40.9946341 C27.533416,40.893658 27.8195107,40.8431707 28.122439,40.8431707 C28.4253674,40.8431707 28.7114621,40.893658 28.9807317,40.9946341 C29.2500013,41.0956103 29.4828039,41.2386576 29.6791463,41.4237805 C29.8754888,41.6089034 30.031158,41.8318889 30.1461585,42.0927439 C30.2611591,42.3535989 30.3186585,42.6439008 30.3186585,42.9636585 C30.3186585,43.2834162 30.2611591,43.5751206 30.1461585,43.8387805 C30.031158,44.1024403 29.8754888,44.3282308 29.6791463,44.5161585 C29.4828039,44.7040863 29.2500013,44.8513409 28.9807317,44.9579268 C28.7114621,45.0645127 28.4253674,45.1178049 28.122439,45.1178049 C27.8195107,45.1178049 27.533416,45.0645127 27.2641463,44.9579268 C26.9948767,44.8513409 26.7620742,44.7040863 26.5657317,44.5161585 C26.3693893,44.3282308 26.2137201,44.1024403 26.0987195,43.8387805 C25.9837189,43.5751206 25.9262195,43.2834162 25.9262195,42.9636585 Z M26.9528049,42.9636585 C26.9528049,43.1207325 26.9766461,43.2778041 27.0243293,43.434878 C27.0720124,43.591952 27.1435361,43.7321945 27.2389024,43.8556098 C27.3342688,43.979025 27.4548773,44.0799996 27.6007317,44.1585366 C27.7465861,44.2370736 27.9204868,44.2763415 28.122439,44.2763415 C28.3243913,44.2763415 28.498292,44.2370736 28.6441463,44.1585366 C28.7900007,44.0799996 28.9106093,43.979025 29.0059756,43.8556098 C29.1013419,43.7321945 29.1728656,43.591952 29.2205488,43.434878 C29.2682319,43.2778041 29.2920732,43.1207325 29.2920732,42.9636585 C29.2920732,42.8065846 29.2682319,42.6509154 29.2205488,42.4966463 C29.1728656,42.3423773 29.1013419,42.2035372 29.0059756,42.080122 C28.9106093,41.9567067 28.7900007,41.8571345 28.6441463,41.7814024 C28.498292,41.7056704 28.3243913,41.6678049 28.122439,41.6678049 C27.9204868,41.6678049 27.7465861,41.7056704 27.6007317,41.7814024 C27.4548773,41.8571345 27.3342688,41.9567067 27.2389024,42.080122 C27.1435361,42.2035372 27.0720124,42.3423773 27.0243293,42.4966463 C26.9766461,42.6509154 26.9528049,42.8065846 26.9528049,42.9636585 Z M31.3115854,38.6385366 L32.3213415,38.6385366 L32.3213415,45 L31.3115854,45 L31.3115854,38.6385366 Z M33.5667073,38.6385366 L34.5764634,38.6385366 L34.5764634,45 L33.5667073,45 L33.5667073,38.6385366 Z M35.1991463,40.9609756 L36.3182927,40.9609756 L37.4458537,43.8976829 L37.4626829,43.8976829 L38.4640244,40.9609756 L39.5158537,40.9609756 L37.6057317,45.8667073 C37.5328045,46.0518302 37.4542687,46.2159139 37.370122,46.3589634 C37.2859752,46.5020129 37.1850006,46.6226215 37.0671951,46.7207927 C36.9493897,46.8189639 36.8105496,46.8932924 36.6506707,46.9437805 C36.4907919,46.9942685 36.2986597,47.0195122 36.0742683,47.0195122 C35.9901215,47.0195122 35.9045736,47.0153049 35.817622,47.0068902 C35.7306703,46.9984756 35.6423175,46.9830489 35.552561,46.9606098 L35.6367073,46.0854878 C35.7040247,46.1079269 35.7699387,46.1233536 35.8344512,46.1317683 C35.8989637,46.140183 35.959268,46.1443902 36.0153659,46.1443902 C36.1219518,46.1443902 36.211707,46.1317684 36.2846341,46.1065244 C36.3575613,46.0812804 36.419268,46.0420125 36.4697561,45.9887195 C36.5202442,45.9354266 36.5651218,45.8695126 36.6043902,45.7909756 C36.6436587,45.7124386 36.6857315,45.6198786 36.7306098,45.5132927 L36.932561,45 L35.1991463,40.9609756 Z M39.5495122,40.9609756 L40.6434146,40.9609756 L41.484878,43.8556098 L41.5017073,43.8556098 L42.3684146,40.9609756 L43.4454878,40.9609756 L44.3206098,43.8556098 L44.337439,43.8556098 L45.1957317,40.9609756 L46.247561,40.9609756 L44.8507317,45 L43.8241463,45 L42.9069512,42.1726829 L42.890122,42.1726829 L41.9813415,45 L40.9547561,45 L39.5495122,40.9609756 Z M46.6514634,42.9636585 C46.6514634,42.6439008 46.7089628,42.3535989 46.8239634,42.0927439 C46.938964,41.8318889 47.0946332,41.6089034 47.2909756,41.4237805 C47.4873181,41.2386576 47.7201206,41.0956103 47.9893902,40.9946341 C48.2586599,40.893658 48.5447546,40.8431707 48.8476829,40.8431707 C49.1506113,40.8431707 49.436706,40.893658 49.7059756,40.9946341 C49.9752452,41.0956103 50.2080478,41.2386576 50.4043902,41.4237805 C50.6007327,41.6089034 50.7564019,41.8318889 50.8714024,42.0927439 C50.986403,42.3535989 51.0439024,42.6439008 51.0439024,42.9636585 C51.0439024,43.2834162 50.986403,43.5751206 50.8714024,43.8387805 C50.7564019,44.1024403 50.6007327,44.3282308 50.4043902,44.5161585 C50.2080478,44.7040863 49.9752452,44.8513409 49.7059756,44.9579268 C49.436706,45.0645127 49.1506113,45.1178049 48.8476829,45.1178049 C48.5447546,45.1178049 48.2586599,45.0645127 47.9893902,44.9579268 C47.7201206,44.8513409 47.4873181,44.7040863 47.2909756,44.5161585 C47.0946332,44.3282308 46.938964,44.1024403 46.8239634,43.8387805 C46.7089628,43.5751206 46.6514634,43.2834162 46.6514634,42.9636585 Z M47.6780488,42.9636585 C47.6780488,43.1207325 47.70189,43.2778041 47.7495732,43.434878 C47.7972563,43.591952 47.86878,43.7321945 47.9641463,43.8556098 C48.0595127,43.979025 48.1801212,44.0799996 48.3259756,44.1585366 C48.47183,44.2370736 48.6457307,44.2763415 48.8476829,44.2763415 C49.0496352,44.2763415 49.2235359,44.2370736 49.3693902,44.1585366 C49.5152446,44.0799996 49.6358532,43.979025 49.7312195,43.8556098 C49.8265858,43.7321945 49.8981095,43.591952 49.9457927,43.434878 C49.9934758,43.2778041 50.0173171,43.1207325 50.0173171,42.9636585 C50.0173171,42.8065846 49.9934758,42.6509154 49.9457927,42.4966463 C49.8981095,42.3423773 49.8265858,42.2035372 49.7312195,42.080122 C49.6358532,41.9567067 49.5152446,41.8571345 49.3693902,41.7814024 C49.2235359,41.7056704 49.0496352,41.6678049 48.8476829,41.6678049 C48.6457307,41.6678049 48.47183,41.7056704 48.3259756,41.7814024 C48.1801212,41.8571345 48.0595127,41.9567067 47.9641463,42.080122 C47.86878,42.2035372 47.7972563,42.3423773 47.7495732,42.4966463 C47.70189,42.6509154 47.6780488,42.8065846 47.6780488,42.9636585 Z M51.7843902,42.9636585 C51.7843902,42.6439008 51.8418897,42.3535989 51.9568902,42.0927439 C52.0718908,41.8318889 52.22756,41.6089034 52.4239024,41.4237805 C52.6202449,41.2386576 52.8530474,41.0956103 53.1223171,40.9946341 C53.3915867,40.893658 53.6776814,40.8431707 53.9806098,40.8431707 C54.2835381,40.8431707 54.5696328,40.893658 54.8389024,40.9946341 C55.1081721,41.0956103 55.3409746,41.2386576 55.5373171,41.4237805 C55.7336595,41.6089034 55.8893287,41.8318889 56.0043293,42.0927439 C56.1193298,42.3535989 56.1768293,42.6439008 56.1768293,42.9636585 C56.1768293,43.2834162 56.1193298,43.5751206 56.0043293,43.8387805 C55.8893287,44.1024403 55.7336595,44.3282308 55.5373171,44.5161585 C55.3409746,44.7040863 55.1081721,44.8513409 54.8389024,44.9579268 C54.5696328,45.0645127 54.2835381,45.1178049 53.9806098,45.1178049 C53.6776814,45.1178049 53.3915867,45.0645127 53.1223171,44.9579268 C52.8530474,44.8513409 52.6202449,44.7040863 52.4239024,44.5161585 C52.22756,44.3282308 52.0718908,44.1024403 51.9568902,43.8387805 C51.8418897,43.5751206 51.7843902,43.2834162 51.7843902,42.9636585 Z M52.8109756,42.9636585 C52.8109756,43.1207325 52.8348168,43.2778041 52.8825,43.434878 C52.9301832,43.591952 53.0017068,43.7321945 53.0970732,43.8556098 C53.1924395,43.979025 53.3130481,44.0799996 53.4589024,44.1585366 C53.6047568,44.2370736 53.7786575,44.2763415 53.9806098,44.2763415 C54.182562,44.2763415 54.3564627,44.2370736 54.5023171,44.1585366 C54.6481715,44.0799996 54.76878,43.979025 54.8641463,43.8556098 C54.9595127,43.7321945 55.0310363,43.591952 55.0787195,43.434878 C55.1264027,43.2778041 55.1502439,43.1207325 55.1502439,42.9636585 C55.1502439,42.8065846 55.1264027,42.6509154 55.0787195,42.4966463 C55.0310363,42.3423773 54.9595127,42.2035372 54.8641463,42.080122 C54.76878,41.9567067 54.6481715,41.8571345 54.5023171,41.7814024 C54.3564627,41.7056704 54.182562,41.6678049 53.9806098,41.6678049 C53.7786575,41.6678049 53.6047568,41.7056704 53.4589024,41.7814024 C53.3130481,41.8571345 53.1924395,41.9567067 53.0970732,42.080122 C53.0017068,42.2035372 52.9301832,42.3423773 52.8825,42.4966463 C52.8348168,42.6509154 52.8109756,42.8065846 52.8109756,42.9636585 Z M61.2592683,45 L60.3,45 L60.3,44.3941463 L60.2831707,44.3941463 C60.1429261,44.6297573 59.9479891,44.8092677 59.6983537,44.9326829 C59.4487183,45.0560982 59.1808551,45.1178049 58.8947561,45.1178049 C58.586218,45.1178049 58.3099402,45.0603055 58.0659146,44.9453049 C57.821889,44.8303043 57.6143301,44.6760376 57.4432317,44.4825 C57.2721333,44.2889624 57.1403053,44.0617696 57.0477439,43.8009146 C56.9551825,43.5400597 56.9089024,43.2609771 56.9089024,42.9636585 C56.9089024,42.66634 56.9565849,42.3886598 57.0519512,42.1306098 C57.1473175,41.8725597 57.2819503,41.6481717 57.4558537,41.457439 C57.629757,41.2667064 57.8373159,41.1166469 58.0785366,41.0072561 C58.3197573,40.8978653 58.5834132,40.8431707 58.8695122,40.8431707 C59.0546351,40.8431707 59.2201212,40.8642071 59.3659756,40.9062805 C59.51183,40.9483539 59.6394507,41.0002436 59.7488415,41.0619512 C59.8582323,41.1236588 59.9521947,41.1909752 60.0307317,41.2639024 C60.1092687,41.3368296 60.1737802,41.4069509 60.2242683,41.4742683 L60.2495122,41.4742683 L60.2495122,38.6385366 L61.2592683,38.6385366 L61.2592683,45 Z M57.9354878,42.9636585 C57.9354878,43.1207325 57.959329,43.2778041 58.0070122,43.434878 C58.0546954,43.591952 58.126219,43.7321945 58.2215854,43.8556098 C58.3169517,43.979025 58.4375602,44.0799996 58.5834146,44.1585366 C58.729269,44.2370736 58.9003649,44.2763415 59.0967073,44.2763415 C59.2818302,44.2763415 59.4473163,44.238476 59.5931707,44.1627439 C59.7390251,44.0870118 59.8638409,43.9874396 59.967622,43.8640244 C60.071403,43.7406091 60.1499388,43.6017691 60.2032317,43.4475 C60.2565247,43.2932309 60.2831707,43.1375618 60.2831707,42.9804878 C60.2831707,42.8234138 60.2565247,42.6663422 60.2032317,42.5092683 C60.1499388,42.3521943 60.071403,42.2119518 59.967622,42.0885366 C59.8638409,41.9651213 59.7390251,41.8641467 59.5931707,41.7856098 C59.4473163,41.7070728 59.2818302,41.6678049 59.0967073,41.6678049 C58.9003649,41.6678049 58.729269,41.7056704 58.5834146,41.7814024 C58.4375602,41.8571345 58.3169517,41.9567067 58.2215854,42.080122 C58.126219,42.2035372 58.0546954,42.3423773 58.0070122,42.4966463 C57.959329,42.6509154 57.9354878,42.8065846 57.9354878,42.9636585 Z" id="Adobe-First-Frame-Fe"></path>
                    <path d="M4.45463444,2.31219512 C4.45463444,2.63219672 4.39902524,2.92585232 4.28780517,3.19317073 C4.17658511,3.46048914 4.02341591,3.69073074 3.82829298,3.88390244 C3.63317005,4.07707414 3.40097725,4.22731654 3.13170761,4.33463415 C2.86243797,4.44195176 2.56975797,4.49560976 2.25365883,4.49560976 C1.93755969,4.49560976 1.64585529,4.44195176 1.37853688,4.33463415 C1.11121847,4.22731654 0.880001272,4.07707414 0.684878345,3.88390244 C0.489755419,3.69073074 0.337561819,3.46048914 0.228292979,3.19317073 C0.11902414,2.92585232 0.0643905405,2.63219672 0.0643905405,2.31219512 C0.0643905405,1.98829106 0.11902414,1.69268426 0.228292979,1.42536585 C0.337561819,1.15804744 0.489755419,0.929757044 0.684878345,0.740487805 C0.880001272,0.551218566 1.11121847,0.403902966 1.37853688,0.298536585 C1.64585529,0.193170205 1.93755969,0.140487805 2.25365883,0.140487805 C2.56975797,0.140487805 2.86243797,0.193170205 3.13170761,0.298536585 C3.40097725,0.403902966 3.63317005,0.551218566 3.82829298,0.740487805 C4.02341591,0.929757044 4.17658511,1.15804744 4.28780517,1.42536585 C4.39902524,1.69268426 4.45463444,1.98829106 4.45463444,2.31219512 Z M3.82829298,2.31219512 C3.82829298,2.08585253 3.79122018,1.87219613 3.71707347,1.67121951 C3.64292676,1.4702429 3.53756196,1.2936593 3.40097591,1.14146341 C3.26438986,0.989267532 3.09951346,0.869268732 2.90634176,0.781463415 C2.71317006,0.693658098 2.49561126,0.649756098 2.25365883,0.649756098 C2.01560886,0.649756098 1.80000126,0.693658098 1.60682956,0.781463415 C1.41365787,0.869268732 1.24975707,0.989267532 1.11512225,1.14146341 C0.980487428,1.2936593 0.876098228,1.4702429 0.801951516,1.67121951 C0.727804804,1.87219613 0.690732004,2.08585253 0.690732004,2.31219512 C0.690732004,2.54244018 0.727804804,2.75902338 0.801951516,2.96195122 C0.876098228,3.16487906 0.981463028,3.34146266 1.11804908,3.49170732 C1.25463513,3.64195197 1.41853593,3.75999957 1.60975639,3.84585366 C1.80097686,3.93170775 2.01560886,3.97463415 2.25365883,3.97463415 C2.4917088,3.97463415 2.708292,3.93170775 2.90341493,3.84585366 C3.09853786,3.75999957 3.26438986,3.64195197 3.40097591,3.49170732 C3.53756196,3.34146266 3.64292676,3.16487906 3.71707347,2.96195122 C3.79122018,2.75902338 3.82829298,2.54244018 3.82829298,2.31219512 Z M7.14146368,4.3902439 L6.56195148,4.3902439 L6.56195148,0.245853659 L9.14926855,0.245853659 L9.14926855,0.755121951 L7.14146368,0.755121951 L7.14146368,2.04292683 L9.02048807,2.04292683 L9.02048807,2.5404878 L7.14146368,2.5404878 L7.14146368,4.3902439 Z M11.7834149,4.3902439 L11.2039027,4.3902439 L11.2039027,0.245853659 L13.7912197,0.245853659 L13.7912197,0.755121951 L11.7834149,0.755121951 L11.7834149,2.04292683 L13.6624393,2.04292683 L13.6624393,2.5404878 L11.7834149,2.5404878 L11.7834149,4.3902439 Z M16.425366,4.3902439 L15.8458539,4.3902439 L15.8458539,0.245853659 L16.425366,0.245853659 L16.425366,4.3902439 Z M22.3024392,3.74634146 C22.1385359,3.9687816 21.9258551,4.1492676 21.6643904,4.28780488 C21.4029257,4.42634216 21.0887825,4.49560976 20.7219514,4.49560976 C20.4058522,4.49560976 20.1141478,4.44195176 19.8468294,4.33463415 C19.579511,4.22731654 19.3492694,4.07707414 19.1560977,3.88390244 C18.962926,3.69073074 18.811708,3.46048914 18.7024392,3.19317073 C18.5931703,2.92585232 18.5385367,2.63219672 18.5385367,2.31219512 C18.5385367,1.98829106 18.5941459,1.69268426 18.705366,1.42536585 C18.8165861,1.15804744 18.9707309,0.929757044 19.167805,0.740487805 C19.3648792,0.551218566 19.5980476,0.403902966 19.8673172,0.298536585 C20.1365869,0.193170205 20.4292669,0.140487805 20.745366,0.140487805 C20.8858545,0.140487805 21.0282921,0.154146205 21.1726831,0.181463415 C21.317074,0.208780624 21.4556092,0.249755824 21.5882928,0.304390244 C21.7209764,0.359024663 21.8419508,0.426341063 21.9512197,0.506341463 C22.0604885,0.586341863 22.1541461,0.679023863 22.2321953,0.784390244 L21.7756099,1.13560976 C21.674146,0.995121249 21.5307328,0.879024849 21.345366,0.787317073 C21.1599992,0.695609298 20.9600012,0.649756098 20.745366,0.649756098 C20.5034136,0.649756098 20.2858548,0.693658098 20.0926831,0.781463415 C19.8995114,0.869268732 19.734635,0.989267532 19.5980489,1.14146341 C19.4614629,1.2936593 19.3560981,1.4702429 19.2819514,1.67121951 C19.2078047,1.87219613 19.1707319,2.08585253 19.1707319,2.31219512 C19.1707319,2.54634263 19.2068291,2.76487703 19.2790245,2.96780488 C19.35122,3.17073272 19.4546336,3.34731632 19.5892684,3.49756098 C19.7239033,3.64780563 19.8878041,3.76585323 20.0809758,3.85170732 C20.2741475,3.9375614 20.4897551,3.9804878 20.727805,3.9804878 C20.9619525,3.9804878 21.1746333,3.933659 21.3658538,3.84 C21.5570743,3.746341 21.7151215,3.609757 21.8400002,3.4302439 L22.3024392,3.74634146 Z M24.790244,4.3902439 L24.2107318,4.3902439 L24.2107318,0.245853659 L24.790244,0.245853659 L24.790244,4.3902439 Z M27.2839025,4.3902439 L26.6400001,4.3902439 L28.4370733,0.245853659 L28.9639025,0.245853659 L30.7434147,4.3902439 L30.087805,4.3902439 L29.6663416,3.37170732 L27.6995123,3.37170732 L27.2839025,4.3902439 Z M27.9043903,2.86243902 L29.4556098,2.86243902 L28.6829269,0.91902439 L27.9043903,2.86243902 Z M33.172683,3.87512195 L35.0224391,3.87512195 L35.0224391,4.3902439 L32.5931708,4.3902439 L32.5931708,0.245853659 L33.172683,0.245853659 L33.172683,3.87512195 Z M41.6019512,1.01268293 C41.5199996,0.899511629 41.4087812,0.806829629 41.2682927,0.734634146 C41.1278042,0.662438663 40.969757,0.626341463 40.7941463,0.626341463 C40.7004873,0.626341463 40.6058541,0.639024263 40.5102439,0.664390244 C40.4146337,0.689756224 40.3278053,0.730731424 40.2497561,0.787317073 C40.1717069,0.843902722 40.1082929,0.914145922 40.0595122,0.99804878 C40.0107314,1.08195164 39.9863414,1.18243844 39.9863414,1.2995122 C39.9863414,1.41268349 40.0087802,1.50731669 40.0536585,1.58341463 C40.0985368,1.65951258 40.159024,1.72390218 40.2351219,1.77658537 C40.3112199,1.82926856 40.4009751,1.87414616 40.5043902,1.91121951 C40.6078054,1.94829287 40.7180482,1.98634127 40.8351219,2.02536585 C40.9756104,2.0682929 41.118048,2.1170729 41.262439,2.17170732 C41.40683,2.22634174 41.5375604,2.29853614 41.6546341,2.38829268 C41.7717079,2.47804923 41.8673167,2.59024323 41.9414634,2.72487805 C42.0156101,2.85951287 42.0526829,3.03024287 42.0526829,3.23707317 C42.0526829,3.45170839 42.0126833,3.63804799 41.9326829,3.79609756 C41.8526825,3.95414713 41.7463421,4.08487753 41.6136585,4.18829268 C41.4809749,4.29170783 41.3278057,4.36878023 41.1541463,4.4195122 C40.9804869,4.47024416 40.8019521,4.49560976 40.6185366,4.49560976 C40.3570718,4.49560976 40.1043914,4.44487856 39.8604878,4.34341463 C39.6165841,4.24195071 39.4146349,4.09170831 39.2546341,3.89268293 L39.7053658,3.51219512 C39.8029273,3.65658609 39.9336577,3.77365809 40.097561,3.86341463 C40.2614642,3.95317118 40.4390234,3.99804878 40.6302439,3.99804878 C40.7278053,3.99804878 40.8253653,3.98439038 40.9229268,3.95707317 C41.0204883,3.92975596 41.1092679,3.88682956 41.1892683,3.82829268 C41.2692687,3.7697558 41.3346339,3.6965858 41.3853658,3.60878049 C41.4360978,3.52097517 41.4614634,3.41463477 41.4614634,3.2897561 C41.4614634,3.16487742 41.4351222,3.06048822 41.382439,2.97658537 C41.3297558,2.89268251 41.258537,2.82146371 41.1687805,2.76292683 C41.0790239,2.70438995 40.9746347,2.65463435 40.8556097,2.61365854 C40.7365848,2.57268272 40.6107324,2.53073192 40.4780488,2.48780488 C40.3453652,2.44878029 40.2146348,2.40097589 40.0858536,2.34439024 C39.9570725,2.2878046 39.8419517,2.2156102 39.7404878,2.12780488 C39.6390239,2.03999956 39.5570735,1.93170796 39.4946341,1.80292683 C39.4321948,1.6741457 39.4009756,1.5141473 39.4009756,1.32292683 C39.4009756,1.11609653 39.4429264,0.938537327 39.5268293,0.790243902 C39.6107321,0.641950478 39.7199993,0.519024878 39.8546341,0.421463415 C39.9892689,0.323901951 40.1414625,0.252683151 40.3112195,0.207804878 C40.4809764,0.162926605 40.6517064,0.140487805 40.8234146,0.140487805 C41.065367,0.140487805 41.2917062,0.183414205 41.502439,0.269268293 C41.7131718,0.35512238 41.8829262,0.47024318 42.0117073,0.614634146 L41.6019512,1.01268293 Z M44.7687804,3.87512195 L46.9346341,3.87512195 L46.9346341,4.3902439 L44.1892682,4.3902439 L44.1892682,0.245853659 L46.8468292,0.245853659 L46.8468292,0.755121951 L44.7687804,0.755121951 L44.7687804,1.99609756 L46.7239024,1.99609756 L46.7239024,2.49365854 L44.7687804,2.49365854 L44.7687804,3.87512195 Z M49.6039024,3.87512195 L51.4536584,3.87512195 L51.4536584,4.3902439 L49.0243902,4.3902439 L49.0243902,0.245853659 L49.6039024,0.245853659 L49.6039024,3.87512195 Z M53.912195,3.87512195 L56.0780487,3.87512195 L56.0780487,4.3902439 L53.3326828,4.3902439 L53.3326828,0.245853659 L55.9902438,0.245853659 L55.9902438,0.755121951 L53.912195,0.755121951 L53.912195,1.99609756 L55.867317,1.99609756 L55.867317,2.49365854 L53.912195,2.49365854 L53.912195,3.87512195 Z M61.7209755,3.74634146 C61.5570722,3.9687816 61.3443914,4.1492676 61.0829267,4.28780488 C60.821462,4.42634216 60.5073188,4.49560976 60.1404876,4.49560976 C59.8243885,4.49560976 59.5326841,4.44195176 59.2653657,4.33463415 C58.9980473,4.22731654 58.7678057,4.07707414 58.574634,3.88390244 C58.3814623,3.69073074 58.2302443,3.46048914 58.1209755,3.19317073 C58.0117066,2.92585232 57.957073,2.63219672 57.957073,2.31219512 C57.957073,1.98829106 58.0126822,1.69268426 58.1239023,1.42536585 C58.2351224,1.15804744 58.3892672,0.929757044 58.5863413,0.740487805 C58.7834155,0.551218566 59.0165839,0.403902966 59.2858535,0.298536585 C59.5551231,0.193170205 59.8478031,0.140487805 60.1639023,0.140487805 C60.3043908,0.140487805 60.4468284,0.154146205 60.5912194,0.181463415 C60.7356103,0.208780624 60.8741455,0.249755824 61.0068291,0.304390244 C61.1395127,0.359024663 61.2604871,0.426341063 61.3697559,0.506341463 C61.4790248,0.586341863 61.5726824,0.679023863 61.6507316,0.784390244 L61.1941462,1.13560976 C61.0926823,0.995121249 60.9492691,0.879024849 60.7639023,0.787317073 C60.5785355,0.695609298 60.3785375,0.649756098 60.1639023,0.649756098 C59.9219499,0.649756098 59.7043911,0.693658098 59.5112194,0.781463415 C59.3180477,0.869268732 59.1531713,0.989267532 59.0165852,1.14146341 C58.8799992,1.2936593 58.7746344,1.4702429 58.7004876,1.67121951 C58.6263409,1.87219613 58.5892681,2.08585253 58.5892681,2.31219512 C58.5892681,2.54634263 58.6253653,2.76487703 58.6975608,2.96780488 C58.7697563,3.17073272 58.8731699,3.34731632 59.0078047,3.49756098 C59.1424395,3.64780563 59.3063403,3.76585323 59.499512,3.85170732 C59.6926837,3.9375614 59.9082913,3.9804878 60.1463413,3.9804878 C60.3804888,3.9804878 60.5931696,3.933659 60.7843901,3.84 C60.9756106,3.746341 61.1336578,3.609757 61.2585364,3.4302439 L61.7209755,3.74634146 Z M65.0458535,4.3902439 L64.4663413,4.3902439 L64.4663413,0.755121951 L63.1375608,0.755121951 L63.1375608,0.245853659 L66.374634,0.245853659 L66.374634,0.755121951 L65.0458535,0.755121951 L65.0458535,4.3902439 Z M68.8214632,4.3902439 L68.241951,4.3902439 L68.241951,0.245853659 L68.8214632,0.245853659 L68.8214632,4.3902439 Z M75.3248778,2.31219512 C75.3248778,2.63219672 75.2692686,2.92585232 75.1580485,3.19317073 C75.0468285,3.46048914 74.8936593,3.69073074 74.6985363,3.88390244 C74.5034134,4.07707414 74.2712206,4.22731654 74.001951,4.33463415 C73.7326813,4.44195176 73.4400013,4.49560976 73.1239022,4.49560976 C72.807803,4.49560976 72.5160986,4.44195176 72.2487802,4.33463415 C71.9814618,4.22731654 71.7502446,4.07707414 71.5551217,3.88390244 C71.3599988,3.69073074 71.2078052,3.46048914 71.0985363,3.19317073 C70.9892675,2.92585232 70.9346339,2.63219672 70.9346339,2.31219512 C70.9346339,1.98829106 70.9892675,1.69268426 71.0985363,1.42536585 C71.2078052,1.15804744 71.3599988,0.929757044 71.5551217,0.740487805 C71.7502446,0.551218566 71.9814618,0.403902966 72.2487802,0.298536585 C72.5160986,0.193170205 72.807803,0.140487805 73.1239022,0.140487805 C73.4400013,0.140487805 73.7326813,0.193170205 74.001951,0.298536585 C74.2712206,0.403902966 74.5034134,0.551218566 74.6985363,0.740487805 C74.8936593,0.929757044 75.0468285,1.15804744 75.1580485,1.42536585 C75.2692686,1.69268426 75.3248778,1.98829106 75.3248778,2.31219512 Z M74.6985363,2.31219512 C74.6985363,2.08585253 74.6614635,1.87219613 74.5873168,1.67121951 C74.5131701,1.4702429 74.4078053,1.2936593 74.2712193,1.14146341 C74.1346332,0.989267532 73.9697568,0.869268732 73.7765851,0.781463415 C73.5834134,0.693658098 73.3658546,0.649756098 73.1239022,0.649756098 C72.8858522,0.649756098 72.6702446,0.693658098 72.4770729,0.781463415 C72.2839012,0.869268732 72.1200004,0.989267532 71.9853656,1.14146341 C71.8507308,1.2936593 71.7463416,1.4702429 71.6721949,1.67121951 C71.5980481,1.87219613 71.5609753,2.08585253 71.5609753,2.31219512 C71.5609753,2.54244018 71.5980481,2.75902338 71.6721949,2.96195122 C71.7463416,3.16487906 71.8517064,3.34146266 71.9882924,3.49170732 C72.1248785,3.64195197 72.2887793,3.75999957 72.4799997,3.84585366 C72.6712202,3.93170775 72.8858522,3.97463415 73.1239022,3.97463415 C73.3619521,3.97463415 73.5785353,3.93170775 73.7736583,3.84585366 C73.9687812,3.75999957 74.1346332,3.64195197 74.2712193,3.49170732 C74.4078053,3.34146266 74.5131701,3.16487906 74.5873168,2.96195122 C74.6614635,2.75902338 74.6985363,2.54244018 74.6985363,2.31219512 Z M80.3531704,3.55902439 L80.3648778,3.55902439 L80.3648778,0.245853659 L80.9443899,0.245853659 L80.9443899,4.3902439 L80.2126826,4.3902439 L78.0234143,1.00682927 L78.011707,1.00682927 L78.011707,4.3902439 L77.4321948,4.3902439 L77.4321948,0.245853659 L78.1873168,0.245853659 L80.3531704,3.55902439 Z" id="OFFICIAL-SELECTION"></path>
                    <path d="M35.1512196,60.7317073 L32.6158537,60.7317073 L32.6158537,60.2213415 L34.1634147,58.6847561 C34.2804884,58.5640238 34.3810972,58.4378055 34.465244,58.3060976 C34.5493907,58.1743896 34.5914635,58.0262203 34.5914635,57.8615854 C34.5914635,57.7591458 34.573171,57.6667687 34.5365854,57.5844512 C34.4999999,57.5021337 34.4506101,57.4317076 34.3884147,57.3731707 C34.3262193,57.3146339 34.2530493,57.2698172 34.1689025,57.2387195 C34.0847557,57.2076218 33.9951225,57.1920732 33.9000001,57.1920732 C33.7024381,57.1920732 33.5396348,57.2551823 33.4115854,57.3814024 C33.283536,57.5076226 33.203049,57.6695112 33.170122,57.8670732 L32.6487805,57.7792683 C32.6707319,57.6329261 32.7173777,57.496647 32.7887196,57.3704268 C32.8600614,57.2442067 32.9506093,57.1344517 33.0603659,57.0411585 C33.1701226,56.9478654 33.2972554,56.87561 33.4417683,56.8243902 C33.5862813,56.7731705 33.7408529,56.747561 33.9054879,56.747561 C34.0664643,56.747561 34.2210359,56.7713412 34.3692074,56.8189024 C34.5173788,56.8664637 34.6481702,56.9359752 34.7615854,57.027439 C34.8750006,57.1189029 34.9655485,57.2341456 35.0332318,57.3731707 C35.100915,57.5121958 35.1347561,57.6713406 35.1347561,57.8506098 C35.1347561,57.9750006 35.1182929,58.0902434 35.0853659,58.1963415 C35.0524389,58.3024396 35.0076223,58.4030483 34.9509147,58.4981707 C34.8942071,58.5932932 34.8274395,58.683841 34.7506098,58.7698171 C34.6737802,58.8557931 34.5932932,58.9408532 34.5091464,59.025 L33.2469513,60.2542683 L35.1512196,60.2542683 L35.1512196,60.7317073 Z M38.5042683,56.747561 C38.7347573,56.747561 38.9332309,56.8006092 39.0996951,56.9067073 C39.2661594,57.0128054 39.4033531,57.1582308 39.5112805,57.3429878 C39.6192079,57.5277448 39.6987802,57.744511 39.75,57.9932927 C39.8012198,58.2420744 39.8268293,58.5073157 39.8268293,58.7890244 C39.8268293,59.0743917 39.8012198,59.3405475 39.75,59.5875 C39.6987802,59.8344525 39.6192079,60.050304 39.5112805,60.235061 C39.4033531,60.419818 39.2661594,60.5652434 39.0996951,60.6713415 C38.9332309,60.7774396 38.7347573,60.8304878 38.5042683,60.8304878 C38.2737794,60.8304878 38.0743911,60.7774396 37.9060976,60.6713415 C37.7378041,60.5652434 37.5996957,60.419818 37.4917683,60.235061 C37.3838409,60.050304 37.3042686,59.8344525 37.2530488,59.5875 C37.201829,59.3405475 37.1762195,59.0743917 37.1762195,58.7890244 C37.1762195,58.5073157 37.201829,58.2420744 37.2530488,57.9932927 C37.3042686,57.744511 37.3838409,57.5277448 37.4917683,57.3429878 C37.5996957,57.1582308 37.7378041,57.0128054 37.9060976,56.9067073 C38.0743911,56.8006092 38.2737794,56.747561 38.5042683,56.747561 Z M38.5042683,57.1920732 C38.3432919,57.1920732 38.2115859,57.2442068 38.1091464,57.3484756 C38.0067068,57.4527444 37.9271344,57.5844504 37.8704268,57.7435976 C37.8137192,57.9027447 37.7743904,58.0756088 37.752439,58.2621951 C37.7304877,58.4487814 37.7195122,58.6243894 37.7195122,58.7890244 C37.7195122,58.9536594 37.7304877,59.1292674 37.752439,59.3158537 C37.7743904,59.50244 37.8137192,59.6743895 37.8704268,59.8317073 C37.9271344,59.9890252 38.0067068,60.1198166 38.1091464,60.2240854 C38.2115859,60.3283542 38.3432919,60.3804878 38.5042683,60.3804878 C38.6615862,60.3804878 38.7905483,60.3283542 38.8911586,60.2240854 C38.9917688,60.1198166 39.0713412,59.9890252 39.1298781,59.8317073 C39.1884149,59.6743895 39.2286584,59.50244 39.2506098,59.3158537 C39.2725611,59.1292674 39.2835366,58.9536594 39.2835366,58.7890244 C39.2835366,58.6243894 39.2725611,58.4487814 39.2506098,58.2621951 C39.2286584,58.0756088 39.1884149,57.9027447 39.1298781,57.7435976 C39.0713412,57.5844504 38.9917688,57.4527444 38.8911586,57.3484756 C38.7905483,57.2442068 38.6615862,57.1920732 38.5042683,57.1920732 Z M43.5310975,60.7317073 L42.9987805,60.7317073 L42.9987805,57.4939024 L42.2634146,58.1085366 L41.9506097,57.7408537 L43.0536585,56.8463415 L43.5310975,56.8463415 L43.5310975,60.7317073 Z M47.3012195,58.4103659 L47.3067073,58.4213415 C47.3615856,58.3884145 47.4347556,58.362805 47.5262195,58.3445122 C47.6176833,58.3262194 47.7054873,58.3170732 47.7896341,58.3170732 C47.9579276,58.3170732 48.1161577,58.3472558 48.2643292,58.407622 C48.4125007,58.4679881 48.5414628,58.5521336 48.6512195,58.660061 C48.7609761,58.7679883 48.8469509,58.8969505 48.9091463,59.0469512 C48.9713417,59.196952 49.002439,59.3597552 49.002439,59.5353659 C49.002439,59.7292693 48.9685978,59.9057919 48.9009146,60.064939 C48.8332313,60.2240862 48.7390249,60.3603653 48.6182926,60.4737805 C48.4975603,60.5871957 48.3557934,60.6749997 48.1929878,60.7371951 C48.0301821,60.7993906 47.8536594,60.8304878 47.6634146,60.8304878 C47.4695112,60.8304878 47.2902447,60.7984759 47.1256097,60.7344512 C46.9609747,60.6704265 46.8192079,60.5817079 46.7003048,60.4682927 C46.5814018,60.3548775 46.48811,60.219513 46.4204268,60.0621951 C46.3527435,59.9048773 46.3189024,59.734757 46.3189024,59.5518293 C46.3189024,59.3396331 46.3536581,59.1475618 46.4231707,58.9756098 C46.4926832,58.8036577 46.5841457,58.6280497 46.6975609,58.4487805 L47.7128048,56.8463415 L48.3439024,56.8463415 L47.3012195,58.4103659 Z M46.8567073,59.5573171 C46.8567073,59.6707323 46.8759144,59.7777434 46.9143292,59.8783537 C46.952744,59.9789639 47.0076215,60.0658533 47.0789634,60.1390244 C47.1503052,60.2121955 47.2353653,60.2707315 47.3341463,60.3146341 C47.4329273,60.3585368 47.5426823,60.3804878 47.6634146,60.3804878 C47.7841469,60.3804878 47.8929873,60.3603661 47.989939,60.320122 C48.0868907,60.2798778 48.1710362,60.2222565 48.242378,60.1472561 C48.3137198,60.0722557 48.3685973,59.9844517 48.4070121,59.8838415 C48.445427,59.7832312 48.4646341,59.6725616 48.4646341,59.5518293 C48.4646341,59.4347555 48.445427,59.3268298 48.4070121,59.2280488 C48.3685973,59.1292678 48.3155491,59.043293 48.2478658,58.970122 C48.1801825,58.8969509 48.0969517,58.8402441 47.9981707,58.8 C47.8993897,58.7597559 47.7896347,58.7396341 47.6689024,58.7396341 C47.5481701,58.7396341 47.4375005,58.7597559 47.3368902,58.8 C47.2362799,58.8402441 47.1503052,58.8969509 47.0789634,58.970122 C47.0076215,59.043293 46.952744,59.1292678 46.9143292,59.2280488 C46.8759144,59.3268298 46.8567073,59.4365848 46.8567073,59.5573171 Z" id="2016"></path>
                </g>
            </g>
        </g>
    </g>
</svg>