<?xml version="1.0" encoding="UTF-8"?>
<svg width="146px" height="74px" viewBox="0 0 146 74" version="1.1" xmlns="http://www.w3.org/2000/svg" xmlns:xlink="http://www.w3.org/1999/xlink">
    <!-- Generator: Sketch 42 (36781) - http://www.bohemiancoding.com/sketch -->
    <title>Ecuador</title>
    <desc>Created with Sketch.</desc>
    <defs></defs>
    <g id="Cloud-v2" stroke="none" stroke-width="1" fill="none" fill-rule="evenodd">
        <g id="Home" transform="translate(-635.000000, -421.000000)" fill="#227EA8">
            <g id="Ecuador" transform="translate(633.000000, 421.000000)">
                <g id="Leaves">
                    <path d="M31.5047424,1.09756098 C31.3156422,2.06748935 30.9003611,2.9557303 30.3834256,3.79994348 C29.4045404,5.39866739 28.0625874,6.61815963 26.1919163,7.22214152 C25.6575378,7.39473914 25.0779925,7.45029537 24.5142729,7.5274812 C24.2789662,7.55976091 24.0848988,7.60949801 23.8945279,7.75881911 C22.2473808,9.050776 20.8386594,10.5574918 19.4993633,12.1281082 C19.4827289,12.1475419 19.4731411,12.1724653 19.4314397,12.24493 C19.6696343,12.2163833 19.8730586,12.1989259 20.0729018,12.1631328 C20.120379,12.1545688 20.1742096,12.0918759 20.1940784,12.0426877 C20.7993839,10.5429988 22.078496,9.90585888 23.6297645,9.63554377 C24.6636355,9.4553703 25.6912686,9.60622853 26.7139345,9.75862389 C27.4609785,9.86984615 28.2055966,9.99556134 28.9793249,10.1193002 C28.9356597,10.1863849 28.9053944,10.245235 28.863693,10.2955211 C27.5667914,11.8621849 25.9462131,12.9167651 23.8144751,13.1360256 C22.6019004,13.2607526 21.4381891,13.1124197 20.3743994,12.4902118 C20.2854518,12.438169 20.152608,12.4298246 20.0433296,12.4382788 C19.7964712,12.4573832 19.5493819,12.4896629 19.3071442,12.537753 C19.2135759,12.5563084 19.1070699,12.6137311 19.0495428,12.6848782 C17.6335438,14.4353387 16.3982124,16.2960333 15.3149005,18.2485165 C15.1992686,18.4569073 15.0874488,18.6672744 14.9348518,18.948569 C15.2215633,18.8611722 15.4449718,18.8019927 15.658908,18.7206347 C15.7069628,18.7024087 15.7394229,18.6086439 15.7497038,18.545402 C15.9632935,17.2258866 16.7824197,16.3430256 17.9966116,15.7599047 C18.7874363,15.3801241 19.6413328,15.177772 20.5191413,15.1024527 C21.7868173,14.9937557 23.0577277,14.9205225 24.3639862,14.8296123 C24.3339519,14.9209617 24.327021,14.9803608 24.2973333,15.0266942 C23.2531813,16.6595643 21.9330609,18.0097125 20.0352435,18.7621372 C18.7053042,19.2894822 17.3539944,19.4616406 15.9643332,18.9708573 C15.8944458,18.9461535 15.8007621,18.9446163 15.7299506,18.9665753 C15.425334,19.0612185 15.1236054,19.1650845 14.8245337,19.2748795 C14.7740531,19.293325 14.7291172,19.3511869 14.7033571,19.400924 C13.3385319,22.0376492 12.2852542,24.784279 11.5018226,27.6254423 C11.4954692,27.6486091 11.505288,27.6757284 11.5075984,27.7012008 C11.5214603,27.6993343 11.5315102,27.6999931 11.5395964,27.6964797 C11.9220709,27.5305795 12.1524104,27.3420616 12.1513708,26.8480943 C12.1474432,24.9778475 13.2344517,23.7097161 14.8247647,22.7541709 C15.8615236,22.1313043 16.9956628,21.7124366 18.1326898,21.2975216 C18.7941362,21.0561923 19.4553516,20.8142043 20.173632,20.5515749 C20.0223056,20.9768106 19.897086,21.3774523 19.7384821,21.7656872 C18.976883,23.6292364 17.847018,25.2333403 16.1029527,26.4040836 C15.0020823,27.1431132 13.8085678,27.594041 12.4349633,27.5325558 C12.340702,27.5283836 12.2318856,27.5952487 12.1474432,27.6526715 C11.9080934,27.8156071 11.6724401,27.9846913 11.4471833,28.1648648 C11.3787977,28.2196525 11.3231188,28.3135271 11.3060224,28.39763 C11.0118024,29.8436292 10.6501208,31.2819427 10.4553603,32.7402389 C10.2324138,34.4085728 10.159061,36.0951327 10.0217121,37.7737873 C10.0203259,37.7897076 10.0314154,37.806616 10.0369602,37.8229754 C10.4538586,37.586587 10.5659094,37.3332901 10.4956755,36.8768726 C10.2374965,35.1988767 10.7211633,33.6987486 11.7296207,32.331143 C12.3439365,31.4979094 13.0965252,30.7864382 13.9258168,30.1491885 C14.9075899,29.3946778 15.9011457,28.654111 16.9414856,27.8683087 C16.9136462,28.2768556 16.9037118,28.6485115 16.8607397,29.0166538 C16.629245,31.0009775 16.0196655,32.8590371 14.7899943,34.5029965 C13.9378305,35.6422286 12.9546712,36.6510244 11.5375171,37.1511403 C11.0330574,37.3291179 10.669643,37.5820854 10.3586731,38.008968 C10.1120458,38.3475756 10.0061174,38.6545622 10.0095828,39.056192 C10.0345344,41.9445671 10.3654886,44.7994548 10.9974783,47.6238195 C11.0124955,47.6907944 11.0372159,47.755793 11.0725639,47.8710776 C11.2017112,47.5824268 11.317343,47.3363764 11.4189974,47.0852754 C11.4367869,47.0413574 11.4134526,46.963403 11.3800684,46.9227789 C10.9720647,46.4281527 10.8648656,45.842836 10.8258211,45.2420381 C10.7377977,43.8861806 11.1397944,42.6428629 11.8002012,41.457956 C12.5482848,40.1158229 13.5387217,38.9346491 14.5067483,37.7377746 C14.9276898,37.2174564 15.3392744,36.6902212 15.8007621,36.1085277 C15.8605995,36.521137 15.9282921,36.8772019 15.9615608,37.2362314 C16.1607109,39.3807458 15.8818545,41.4527957 14.9325415,43.428226 C14.2370178,44.8755427 13.3290596,46.1522381 11.8922677,47.0326836 C11.809558,47.083299 11.7566515,47.1908981 11.7117157,47.2818083 C11.551148,47.6064719 11.3945079,47.9332216 11.2490729,48.2642533 C11.2134938,48.3450623 11.1991698,48.4513438 11.2206558,48.5355565 C12.0087081,51.6255151 13.1537058,54.588441 14.7255362,57.3986421 C14.7452895,57.4338863 14.7741686,57.4644093 14.8433629,57.556637 C14.8772092,57.261618 14.9077055,57.0312683 14.9266501,56.80015 C14.9303467,56.756232 14.9020452,56.6939783 14.8662351,56.6655414 C14.3070206,56.2207621 14.0712519,55.6044832 13.8570846,54.9738212 C13.3651006,53.5248575 13.5027961,52.0845677 13.8973998,50.6419722 C14.323424,49.084092 14.9852169,47.6078992 15.6070412,46.1175429 C15.7597538,45.751267 15.9053043,45.3823561 16.0702616,44.9752365 C16.1259405,45.0666956 16.175728,45.1336706 16.2102674,45.2072332 C17.705395,48.3986423 17.8844453,51.6295775 16.4726049,54.8853265 C16.2259776,55.454174 15.8154326,55.9579131 15.4927956,56.4983237 C15.3962239,56.6600516 15.3239107,56.8396761 15.2718129,57.0193006 C15.2231805,57.1870673 15.2489406,57.3777811 15.183905,57.5369837 C15.0360441,57.8983188 15.1671551,58.1819191 15.357526,58.4915408 C16.7625509,60.7757144 18.4087738,62.8842162 20.3626167,64.7723595 C20.4185266,64.8263786 20.4795192,64.8755667 20.5933028,64.9753703 C20.5695064,64.6902329 20.5579548,64.4675688 20.5276895,64.2472104 C20.5200654,64.1914346 20.4647331,64.1183111 20.4111335,64.094815 C19.7079858,63.7870598 19.2558549,63.2384146 18.8475048,62.6448632 C18.1674602,61.6563795 17.9454379,60.5498663 17.8910297,59.392518 C17.8268026,58.0262299 17.9929151,56.6760817 18.1645723,55.3254943 C18.2761611,54.4475741 18.3946808,53.5705322 18.516204,52.6475961 C18.6073463,52.7331263 18.6869371,52.7980151 18.7545141,52.8726757 C20.2933069,54.5753754 21.2318769,56.531921 21.5312952,58.764491 C21.7689123,60.5368007 21.6512011,62.2642042 20.9177881,63.9342948 C20.8333457,64.1267653 20.9265673,64.3834659 20.899652,64.6063496 C20.8399301,65.1005365 21.041506,65.4379363 21.4348391,65.7733598 C23.4837519,67.5207461 25.7194546,68.9934254 28.2223465,70.0915943 C28.3049406,70.1279364 28.3894986,70.1604357 28.537475,70.2210425 C28.4685117,69.9692827 28.4129484,69.7666013 28.3593488,69.5711663 C27.3795395,69.5853299 26.7364602,69.0358063 26.0991567,68.4821105 C25.1387541,67.647669 24.6517373,66.5534528 24.3668741,65.3913833 C24.0471249,64.0866902 23.8307629,62.7589402 23.5762805,61.4400835 C23.4769364,60.9249257 23.396075,60.4064741 23.3067809,59.8895596 C23.3266497,59.866832 23.3465185,59.8441045 23.3663873,59.8213769 C23.9319552,60.1761243 24.5337952,60.4886007 25.0569685,60.8928656 C27.4918213,62.7744212 28.7117891,65.2203228 28.7211459,68.2065252 C28.7214925,68.3203825 28.7228786,68.4373141 28.6985047,68.547658 C28.5736316,69.1154076 28.697003,69.6609786 28.8625379,70.2001815 C28.8911859,70.2935071 28.9814042,70.4041804 29.072431,70.4408519 C30.9395211,71.1926178 32.864947,71.7624534 34.8667292,72.0861289 C35.3661062,72.166938 35.5147757,72.3420609 35.4839328,72.8943293 C34.9750835,72.8096774 34.4696996,72.7331504 33.9675502,72.6408129 C32.496681,72.3701684 31.0677442,71.9620606 29.6645676,71.4638113 C29.5022672,71.4061689 29.2930672,71.4669953 29.1055842,71.4739124 C28.580447,71.4932363 28.2571169,71.7190845 27.9764122,72.1762705 C27.3946721,73.1234713 26.4293023,73.6533417 25.3372111,73.9223392 C22.6814911,74.5763876 20.1193393,74.2586411 17.6636936,73.131706 C17.3143723,72.9714054 17.0178419,72.7073486 16.6337502,72.4487815 C17.1539201,72.0780041 17.5940373,71.7351145 18.0641887,71.4346058 C19.6526534,70.4194419 21.3945239,69.8176559 23.3194877,69.7468382 C24.6330237,69.6986382 25.8580741,70.0296699 27.0272147,70.5728254 C27.3419967,70.7190723 27.65932,70.8661975 27.9523849,71.0467003 C28.2025932,71.2008524 28.4405568,71.2268738 28.7415923,71.1058798 C28.4147966,70.9580958 28.1098336,70.8208522 27.8056791,70.682291 C25.6355897,69.6935877 23.6412006,68.4462075 21.8503513,66.9222539 C21.4096565,66.5471945 20.913745,66.5769489 20.4207214,66.4887836 C20.3741683,66.4804392 20.3006999,66.5278706 20.2626951,66.5687143 C19.3088769,67.5954066 18.0733144,67.8776894 16.7015582,67.7719569 C14.8956918,67.6328467 13.261598,67.0213988 11.7381689,66.1104303 C10.9052963,65.6124005 10.1116993,65.0733074 9.50535415,64.3219807 C9.42137379,64.2178951 9.34906058,64.1049162 9.27616979,63.9932547 C9.24301661,63.9425295 9.22129954,63.8849969 9.18733775,63.8161555 C9.24602003,63.7798134 9.2939593,63.7397382 9.34975368,63.7170107 C11.5233086,62.8329419 13.7543906,62.5849152 16.058941,63.1779176 C17.6092854,63.5768026 18.8374548,64.4510996 19.9125651,65.5487194 C20.0007041,65.6386415 20.0992395,65.7220856 20.1715527,65.822548 C20.3265756,66.0380754 20.5319636,66.1377692 20.8423559,66.1061483 C20.7833271,66.0409301 20.7395464,65.9842759 20.687102,65.9359661 C18.6310272,64.0444192 16.891236,61.9151662 15.3824775,59.6078258 C15.258413,59.4181002 14.9847548,59.3190651 14.7875685,59.1696343 C14.4598487,58.9211683 14.1692097,58.8705529 13.7348684,59.0523733 C12.6320341,59.5139511 11.5102552,59.3200533 10.4195502,58.9341241 C9.44794254,58.5903562 8.65295929,57.9907661 7.91665833,57.3186016 C6.72961272,56.2349257 5.6869625,55.0436507 5.01823857,53.596883 C4.84600375,53.224239 4.7457356,52.8214014 4.60145572,52.4007771 C5.19058891,52.4007771 5.71549503,52.360153 6.23150639,52.4073648 C9.39249471,52.6972234 11.6831832,54.2941906 13.3672955,56.7691878 C13.6821929,57.2319734 13.9458011,57.7270387 14.2214231,58.2131009 C14.4167611,58.5575275 14.4079819,58.5620291 14.8341216,58.7573543 C14.7977339,58.6720436 14.7800599,58.6125348 14.748986,58.5602724 C13.1175492,55.8241829 11.8728609,52.9343804 10.9162704,49.9265484 C10.8305573,49.6568921 10.5604801,49.4448781 10.4112331,49.1876286 C10.2379586,48.8887668 10.0443533,48.78534 9.65263745,48.8299167 C8.50810184,48.9601335 7.5694163,48.4727538 6.73792989,47.7841201 C5.74414307,46.9609875 4.98600952,45.9550464 4.36372316,44.8597322 C3.61725676,43.5455967 2.94656906,42.1991816 2.6438008,40.7167305 C2.61942686,40.5972736 2.58869952,40.4790245 2.56097561,40.3602264 L2.56097561,39.5697029 C2.78242038,39.6286628 3.01068061,39.670824 3.22438578,39.748998 C5.25007981,40.4905529 6.8314981,41.7759221 8.13590829,43.3957267 C9.30320061,44.8451295 9.90365439,46.5177454 10.272729,48.2839066 C10.3128132,48.4756085 10.4339898,48.6519391 10.5173925,48.8352967 C10.5433837,48.8255249 10.5693749,48.8157532 10.5953661,48.8059814 C10.5906299,48.7640398 10.5907454,48.7208904 10.5802334,48.6802662 C9.93738515,46.1811141 9.61775152,43.6422163 9.53781423,41.0732346 C9.5269557,40.7232084 9.55467962,40.3609949 9.46792687,40.0269988 C9.37897931,39.684768 9.17948264,39.3664725 9.00955814,39.0466399 C8.97005157,38.9723087 8.86077314,38.8990755 8.77321177,38.8854609 C8.26147452,38.8059694 7.79825411,38.6232706 7.3803161,38.3352786 C6.80227248,37.9371622 6.35892088,37.4229925 5.99643069,36.8453614 C5.29986734,35.7354445 4.86032778,34.5275905 4.53607349,33.2803202 C4.16954024,31.8706631 3.92499221,30.4434389 3.96149536,28.9855819 C3.9723539,28.5515625 4.03196031,28.1186411 4.07354618,27.6347749 C4.21112611,27.7201954 4.28852204,27.7638937 4.36095076,27.8139602 C6.47917336,29.2789539 7.8881258,31.2318763 8.71626223,33.5749 C9.27570772,35.1573742 9.3392417,36.7937578 9.22476503,38.4418894 C9.20535829,38.7223057 9.29118691,38.9427739 9.5014266,39.1463337 C9.53908491,38.654672 9.5262626,38.1654258 9.54139524,37.677058 C9.59949994,35.7986864 9.76272449,33.9288788 10.0190552,32.0647806 C10.0949494,31.5130611 10.3631783,30.9655138 10.1008407,30.3849182 C9.99017611,30.1398559 9.98647958,29.852852 9.90550265,29.5929674 C9.87431325,29.4928344 9.77820368,29.3969835 9.68671476,29.3302281 C9.40242912,29.1229353 9.07667312,28.9597801 8.81976485,28.726905 C7.9674855,27.9542781 7.59540747,26.9493252 7.38574536,25.8801422 C7.06357037,24.2376101 7.04913083,22.5809145 7.17758497,20.921474 C7.25913949,19.8684308 7.45216724,18.8331745 7.83140729,17.8355778 C7.87241558,17.7276494 7.92543757,17.6236736 7.98723879,17.4856614 C8.13717897,17.6599059 8.24784359,17.7884758 8.35850822,17.9170456 C10.1395387,19.9850331 10.981075,22.3590189 10.9259737,25.0263769 C10.8974412,26.4036444 10.6382226,27.7466559 10.2615239,29.0715513 C10.1770815,29.3687662 10.3094632,29.6175615 10.375423,29.9373941 C10.4129658,29.8700898 10.4195502,29.8628433 10.421283,29.8546087 C10.9692924,27.2507123 11.7736324,24.720598 12.8354584,22.2643757 C12.8627202,22.2013534 12.8846683,22.1311945 12.8862855,22.0638902 C12.8947182,21.7143031 12.9081181,21.3640573 12.8921769,21.015129 C12.8869786,20.9008325 12.8213654,20.7727018 12.7442005,20.6806937 C12.5376573,20.4348629 12.2791318,20.2248252 12.0958074,19.9657091 C11.3858442,18.9615248 11.2185766,17.8207555 11.2446832,16.6448518 C11.275064,15.2786736 11.5218069,13.9407126 11.8803695,12.6200992 C12.2042772,11.427397 12.602924,10.2622532 13.2818134,9.20141464 C13.3749195,9.05582657 13.4863928,8.9209984 13.6043349,8.7609174 C14.3526496,10.0768096 14.7925357,11.4324475 14.9449017,12.8738353 C15.2235271,15.5101213 14.7980805,18.0179472 13.4140796,20.3427449 C13.2356069,20.6425949 13.2674894,20.9367355 13.2388413,21.2813817 C13.286203,21.2329622 13.3088442,21.2187986 13.318201,21.1990355 C14.5204948,18.643888 15.9847795,16.2322425 17.7038933,13.9598169 C17.7399344,13.9122757 17.7728565,13.854304 17.7812892,13.7976498 C17.8306147,13.468814 17.8667713,13.1382215 17.9186381,12.8098249 C17.9418569,12.6619311 17.9120537,12.5599316 17.8021977,12.4359731 C17.6084768,12.217591 17.4261921,11.9753834 17.3061706,11.7151695 C16.8694034,10.768298 16.8426037,9.76938379 17.0002834,8.76761489 C17.386801,6.31303953 18.5746552,4.22221476 20.2853363,2.38161263 C20.5662719,2.0793472 20.9011537,1.82231728 21.2264477,1.53048237 C21.268149,1.6076682 21.2857075,1.62907821 21.2915989,1.6530135 C21.317128,1.75545217 21.3436967,1.85778104 21.3620638,1.96142745 C21.6170083,3.40391318 21.5710328,4.84563035 21.3569811,6.28811608 C21.0132045,8.60588696 20.1215341,10.6872694 18.4116617,12.4062187 C18.1173262,12.702116 18.1626085,13.0403942 18.1168641,13.3787822 C18.197379,13.3196027 18.254444,13.2522984 18.3098918,13.1836766 C19.9904231,11.1052586 21.8052999,9.14498005 23.8977623,7.42734823 C23.9532102,7.38178334 23.9935254,7.27912508 23.9847461,7.2094053 C23.8979934,6.51341527 24.0526697,5.86353911 24.3956376,5.25329891 C25.031786,4.12175241 25.9998127,3.29422805 27.1915944,2.74503383 C28.2171482,2.27258627 29.306236,1.92464615 30.3654051,1.51730698 C30.7111454,1.38434532 31.0512254,1.23787889 31.3938468,1.09756098 L31.5047424,1.09756098 Z" id="Fill-1" transform="translate(19.024390, 37.678260) rotate(-4.000000) translate(-19.024390, -37.678260) "></path>
                    <path d="M118.599918,1.09756098 C118.700879,1.15162771 118.796532,1.21841604 118.903493,1.25767748 C120.06356,1.68275391 121.242896,2.06549816 122.382194,2.53575815 C123.595338,3.0363964 124.613253,3.8033106 125.354016,4.86369862 C125.847512,5.57018529 126.106663,6.34159591 126.000626,7.20315432 C125.992087,7.27301337 126.033279,7.37544407 126.08901,7.42117597 C128.1793,9.13716432 129.991747,11.0958498 131.670694,13.1721003 C131.725847,13.2403143 131.783309,13.306993 131.862231,13.3654465 C131.821962,13.0153835 131.848039,12.6744231 131.547349,12.3708597 C129.934055,10.7423871 129.047908,8.78041158 128.678219,6.58846047 C128.418029,5.04574889 128.348222,3.50281798 128.620873,1.95528098 C128.639104,1.85175359 128.665758,1.74943256 128.691719,1.6472212 C128.697719,1.62375207 128.717103,1.603244 128.758411,1.53492031 C129.062331,1.80547334 129.374329,2.0474028 129.642134,2.32749702 C131.176275,3.93217149 132.266535,5.77131794 132.804915,7.88628152 C133.092221,9.01499323 133.183605,10.1543428 132.835954,11.2925957 C132.700378,11.7365352 132.488533,12.1389101 132.141921,12.4729614 C132.087344,12.5254928 132.048345,12.6246334 132.055499,12.6974535 C132.092191,13.0708759 132.14319,13.4432017 132.197767,13.8147597 C132.205959,13.8706908 132.255112,13.9235512 132.292497,13.9729022 C134.004213,16.2359187 135.462086,18.6377759 136.656306,21.1836284 C136.66346,21.198982 136.67696,21.2114843 136.758998,21.2195998 C136.718037,20.9665938 136.749306,20.6745456 136.624807,20.4668329 C135.419047,18.454629 134.89959,16.2875727 134.950013,13.9869398 C134.990166,12.1537154 135.407048,10.4094325 136.368424,8.76121953 C136.458308,8.87670082 136.544615,8.97474476 136.616268,9.08156221 C137.293801,10.0905155 137.699605,11.2058476 138.021757,12.3526547 C138.441868,13.8479893 138.733789,15.3630644 138.727443,16.9168525 C138.72352,17.8829253 138.573752,18.8293674 138.043564,19.6727208 C137.819951,20.0284865 137.49353,20.3250311 137.227225,20.658205 C137.152225,20.7520815 137.08738,20.8785297 137.082188,20.9928046 C137.06638,21.3413322 137.080111,21.6911758 137.086803,22.0404711 C137.087957,22.0994729 137.101341,22.1619841 137.124995,22.2165992 C138.195871,24.6852448 139.005518,27.2291232 139.578859,29.8509762 C139.661243,29.5849196 139.791626,29.3339973 139.706935,29.0370141 C139.32963,27.7134208 139.072209,26.3714032 139.044287,24.995498 C138.990402,22.3313128 139.829242,19.9592855 141.611227,17.8948792 C141.710687,17.7797269 141.80911,17.6636973 141.908917,17.5487644 C141.920224,17.5357138 141.937878,17.5275983 141.993954,17.4880078 C142.083492,17.7140353 142.178568,17.9255865 142.251837,18.1437178 C142.684987,19.4339717 142.818371,20.7669965 142.851601,22.1113171 C142.888639,23.6056647 142.816986,25.0936516 142.40922,26.547312 C142.180414,27.3629192 141.802071,28.110751 141.146231,28.7014274 C140.946963,28.8809553 140.731196,29.0643216 140.487159,29.1738808 C140.178854,29.3122828 140.041894,29.5063967 139.989394,29.8185142 C139.939779,30.1127557 139.815396,30.3953723 139.729435,30.684569 C139.718012,30.7230628 139.736819,30.7703301 139.74455,30.8131009 C140.229854,33.5247727 140.423237,36.2598039 140.467429,39.0065696 C140.46789,39.0382639 140.476775,39.0697389 140.488775,39.1456297 C140.670504,38.8939397 140.768003,38.6778921 140.743195,38.3939595 C140.489351,35.4818131 141.118654,32.7837403 142.917947,30.3714645 C143.67221,29.3602081 144.57001,28.4871345 145.628886,27.7637588 C145.688193,27.723291 145.751885,27.6884163 145.862653,27.6210797 C145.89773,27.8506165 145.937883,28.0499945 145.957614,28.2512368 C146.123305,29.941124 145.849961,31.59164 145.432156,33.224609 C145.113121,34.4711051 144.689663,35.6885389 143.968976,36.7820469 C143.664133,37.2446301 143.277367,37.6681711 142.874562,38.0599082 C142.420297,38.5016543 141.836802,38.7474222 141.187076,38.8422857 C141.105731,38.8542396 141.001193,38.9186152 140.965771,38.9862809 C140.793849,39.3145197 140.623196,39.6457196 140.491082,39.9894218 C140.430506,40.1469062 140.45289,40.335427 140.448967,40.5101294 C140.388506,43.2703845 140.070047,46.0000419 139.37763,48.6855028 C139.373592,48.7012951 139.380053,48.7195001 139.450552,48.7659997 C139.533859,48.5919553 139.655358,48.4252586 139.694473,48.2425504 C139.994471,46.8439436 140.399814,45.4790053 141.196192,44.254772 C142.537181,42.1931075 144.328627,40.6142052 146.725838,39.7087792 C146.929375,39.6317917 147.144796,39.5832084 147.439024,39.49657 C147.383871,39.9743972 147.388486,40.4158142 147.276103,40.8282787 C146.593031,43.3369535 145.432272,45.6115949 143.509403,47.4853967 C142.856101,48.1220243 142.082454,48.6067606 141.134923,48.7485624 C140.786118,48.8007648 140.420352,48.7688511 140.064047,48.7477947 C139.917395,48.7391309 139.830626,48.7553619 139.744319,48.8759976 C139.542975,49.1574078 139.321092,49.4254385 139.111209,49.7013653 C139.079825,49.7427104 139.064017,49.7964482 139.048556,49.8465668 C138.107025,52.8923995 136.83342,55.8052039 135.183665,58.5675427 C135.167396,58.5948502 135.160934,58.6273122 135.139588,58.6855463 C135.415817,58.5871734 135.596623,58.4554611 135.720314,58.215067 C136.409616,56.8756815 137.238417,55.626334 138.414869,54.6160647 C140.351583,52.9529367 142.614949,52.1609084 145.232081,52.3223409 C145.249504,52.3234376 145.266235,52.3336368 145.346196,52.3614927 C145.22885,52.7205484 145.138159,53.0942999 144.986545,53.4441435 C144.462588,54.6531327 143.638056,55.6742593 142.70841,56.6215788 C141.900032,57.4455208 141.039847,58.216383 139.950394,58.7014483 C138.871788,59.1817978 137.749451,59.3992711 136.565615,59.1101841 C136.38827,59.0668649 136.200079,59.0192686 136.05135,58.9247341 C135.825083,58.7808486 135.651084,58.7951055 135.438086,58.9491902 C135.212857,59.1120485 134.954167,59.2326842 134.714861,59.3786534 C134.664669,59.409251 134.629131,59.4668272 134.596477,59.5174942 C133.094182,61.8460926 131.339658,63.9837577 129.270945,65.8840993 C129.226753,65.9247865 129.190061,65.9728214 129.134792,66.0340166 C129.413097,66.0492606 129.603711,65.9813756 129.780479,65.7874811 C130.821124,64.6456091 132.010037,63.6876518 133.554217,63.2154178 C135.777314,62.5355806 137.971795,62.6792468 140.136624,63.4619533 C140.34916,63.5387215 140.557659,63.6259082 140.847272,63.7393058 C140.57612,64.0716024 140.370968,64.3984156 140.092201,64.6519699 C138.419369,66.1739541 136.447,67.1622897 134.167943,67.5833083 C133.262065,67.7505533 132.357573,67.7923372 131.457119,67.5449243 C130.80324,67.365177 130.239129,67.0473567 129.78994,66.5593304 C129.681249,66.441217 129.573942,66.3799122 129.410328,66.4238894 C129.357598,66.4380366 129.300829,66.4457135 129.246137,66.4449458 C128.714334,66.4367206 128.329991,66.6931264 127.939879,67.0134691 C125.994972,68.6107957 123.846875,69.9117972 121.497202,70.9081386 C121.423702,70.9392845 121.353549,70.9773396 121.257435,71.0239489 C121.544971,71.1431589 121.770315,71.1142063 122.022774,70.9733915 C123.069535,70.389076 124.166257,69.9142099 125.381131,69.7434555 C126.957503,69.5219244 128.466952,69.7900648 129.928862,70.3452084 C131.16566,70.8148104 132.261689,71.501447 133.320103,72.3896549 C132.940376,72.6382742 132.613725,72.9228648 132.23042,73.0916452 C129.681134,74.2149831 127.042886,74.5378482 124.323871,73.7354013 C123.181803,73.3983889 122.290695,72.7243642 121.736392,71.6863487 C121.691393,71.6019037 121.570817,71.5265612 121.470317,71.5013373 C121.185666,71.4299429 120.894668,71.3774115 120.603209,71.3374921 C120.502133,71.3236738 120.385596,71.3530651 120.287058,71.3893654 C118.482804,72.0528619 116.620973,72.5060136 114.709643,72.780076 C114.648143,72.7888495 114.584913,72.7876432 114.524683,72.7909332 C114.46203,72.2963268 114.631528,72.0835692 115.11487,72.0060333 C117.115161,71.685581 119.039068,71.1182641 120.903668,70.3658262 C121.001629,70.3263454 121.096821,70.2097674 121.131089,70.1097494 C121.321357,69.5554831 121.34628,68.9923336 121.295857,68.406044 C121.006591,65.0415136 123.231764,61.3687042 126.419584,59.9008964 C126.49366,59.8667894 126.570967,59.8389335 126.682774,59.7935306 C126.60639,60.2284772 126.538891,60.6376517 126.46216,61.0451811 C126.205547,62.4069391 125.97628,63.7743999 125.672936,65.1267263 C125.537822,65.7291373 125.283516,66.3140012 125.025634,66.8832921 C124.561215,67.9083668 123.76426,68.6691395 122.753268,69.2135357 C122.468963,69.3666334 122.110812,69.3945989 121.788776,69.4870497 C121.721508,69.5063515 121.629316,69.5444065 121.608662,69.5956219 C121.544509,69.7550804 121.509086,69.9250671 121.44251,70.1620615 C121.926775,69.938995 122.34331,69.7585898 122.74923,69.5584442 C125.024826,68.4368609 127.081425,67.0237779 128.928025,65.3350971 C129.002678,65.2668831 129.053908,65.1471247 129.062447,65.0472164 C129.090254,64.7243514 129.095562,64.3995122 129.103292,64.0754408 C129.105139,63.9991113 129.099715,63.9153243 129.068677,63.8467813 C128.266184,62.0701461 128.199954,60.2270516 128.506874,58.3479856 C128.84841,56.2571492 129.773441,54.4260086 131.213198,52.8212244 C131.28289,52.7434692 131.329735,52.6470703 131.387312,52.5593352 C131.415004,52.582585 131.442811,52.6058348 131.470503,52.628975 C131.553234,53.2688926 131.645771,53.9077136 131.716386,54.5488377 C131.848731,55.7514662 132.01696,56.9531077 132.080306,58.1594649 C132.151729,59.5201262 132.10119,60.8822132 131.394119,62.1303543 C130.951392,62.9119641 130.438281,63.6321594 129.553866,64.0289412 C129.507251,64.049888 129.460636,64.1155796 129.454174,64.1651499 C129.425559,64.3877777 129.411367,64.6121601 129.453136,64.8669208 C129.804248,64.5142259 130.16286,64.168111 130.505088,63.8078489 C132.155998,62.0695977 133.579024,60.1749589 134.780514,58.1311703 C134.843629,58.0238046 134.845591,57.8719132 134.840283,57.7420653 C134.808899,56.972519 134.435863,56.3449939 133.993829,55.7142884 C133.218797,54.6084975 132.881069,53.3371067 132.681109,52.0357762 C132.317996,49.6720837 132.710762,47.4100542 133.726485,45.2366371 C133.773792,45.1355224 133.836676,45.0409879 133.907291,44.9170621 C134.694554,46.9771913 135.681661,48.9244712 136.193272,51.0366931 C136.575653,52.6149374 136.526038,54.1529332 135.823006,55.639275 C135.664699,55.9739843 135.380279,56.2547365 135.156665,56.5621382 C135.113165,56.6219078 135.048781,56.6915475 135.051781,56.7540587 C135.062627,56.9780025 135.098281,57.2008496 135.192319,57.4410243 C135.415124,57.0266955 135.646238,56.616205 135.859467,56.1974894 C137.104687,53.7525322 138.056256,51.2074475 138.731366,48.5681571 C138.775212,48.3968544 138.789866,48.2509949 138.662021,48.1037096 C138.593598,48.024748 138.541445,47.9223173 138.515483,47.8226284 C138.365254,47.246867 137.962103,46.8857275 137.473338,46.5386256 C136.318809,45.718851 135.609661,44.5683152 135.025358,43.3413402 C133.923329,41.0274374 133.737677,38.6169163 134.167827,36.1136153 C134.216288,36.1413615 134.252519,36.1512317 134.270519,36.1740428 C135.23328,37.3947667 136.207349,38.6079234 137.151648,39.8413689 C137.843027,40.7444918 138.420984,41.7149513 138.79725,42.7780811 C139.161978,43.8085295 139.289361,44.8679305 139.024556,45.9376403 C138.946557,46.2531576 138.74902,46.5415866 138.611136,46.844492 C138.581367,46.9097449 138.539022,46.995506 138.560598,47.0517661 C138.65429,47.2963276 138.769443,47.5334316 138.93398,47.7698777 C139.059748,47.1550741 139.196939,46.542135 139.308977,45.9250284 C139.71755,43.6747335 139.939433,41.4078786 139.952471,39.1234766 C139.952817,39.0709453 139.955125,39.0180849 139.960894,38.9658825 C139.99724,38.6367663 139.910241,38.3769608 139.700704,38.0793196 C139.338861,37.5656307 138.890711,37.2675508 138.291524,37.0474455 C136.941996,36.551852 136.00762,35.5647228 135.190472,34.4717631 C133.951483,32.8146669 133.335449,30.9431682 133.11299,28.9405055 C133.073875,28.5882492 133.061644,28.2332511 133.033375,27.8274764 C134.178558,28.7012081 135.277356,29.5229567 136.355847,30.3679551 C137.171494,31.0069954 137.886181,31.7424347 138.453407,32.5936842 C139.299515,33.8633204 139.737973,35.2451478 139.467629,36.7464045 C139.378091,37.2437527 139.555667,37.5183635 139.932048,37.8108503 C139.932048,37.6086209 139.937125,37.4241579 139.931356,37.2399143 C139.837434,34.2685467 139.414091,31.338963 138.69802,28.4461183 C138.652905,28.2641777 138.586906,28.1196342 138.390638,28.0525169 C138.348639,28.0380406 138.305254,28.0113911 138.276985,27.9789291 C137.911681,27.5582394 137.426608,27.4943025 136.882343,27.4729171 C135.395625,27.4143539 134.201288,26.7022741 133.120028,25.8073764 C131.451465,24.4266457 130.472666,22.6413466 129.859171,20.6525022 C129.849478,20.6209176 129.853748,20.5854945 129.849825,20.5276991 C131.594079,21.2533778 133.432949,21.717277 135.050166,22.6712862 C136.121272,23.3031981 137.026111,24.0783374 137.510953,25.2226221 C137.752682,25.7930098 137.862066,26.3880729 137.83322,26.9962963 C137.821335,27.2465606 137.886296,27.3924201 138.11441,27.4946315 C138.229793,27.5463952 138.335254,27.6182283 138.504291,27.7146272 C138.357408,27.2098215 138.232332,26.7576569 138.094218,26.309221 C137.370762,23.9591274 136.4515,21.6807573 135.327317,19.4770716 C135.254049,19.3334054 135.181703,19.2240656 134.992359,19.2293297 C134.931321,19.2309747 134.861168,19.2083829 134.808783,19.176579 C134.372056,18.9118384 133.94006,18.9604217 133.456256,19.093121 C132.176998,19.4439516 130.949662,19.1685731 129.772287,18.6707863 C127.947379,17.899266 126.668351,16.5684346 125.664513,14.9681469 C125.64686,14.9400717 125.64109,14.905197 125.613514,14.8280998 C125.958165,14.8500335 126.273854,14.8645098 126.588506,14.89094 C127.818265,14.9943577 129.055524,15.0506178 130.274783,15.2221399 C131.38235,15.3779793 132.400265,15.7902245 133.207951,16.5798402 C133.731908,17.092213 134.080712,17.6904565 134.198404,18.3928854 C134.238442,18.6320732 134.327634,18.7535862 134.571208,18.7949314 C134.7039,18.8174135 134.831283,18.8674225 135.021205,18.9224763 C134.957051,18.7906543 134.920475,18.7078543 134.877437,18.6281251 C133.7506,16.5409077 132.448841,14.5584241 130.954854,12.6898864 C130.855162,12.5650833 130.759048,12.4919341 130.591742,12.518474 C130.538088,12.5269185 130.474858,12.53306 130.426974,12.5144163 C129.933247,12.3226054 129.53252,12.53306 129.087946,12.7209227 C127.454575,13.4111784 125.811627,13.273544 124.203641,12.6268268 C122.953228,12.1239952 121.951698,11.3044399 121.12509,10.2873711 C121.086667,10.2401038 121.053667,10.1888885 120.997014,10.1103656 C121.556855,10.0216435 122.086351,9.92579295 122.619539,9.85604356 C123.459185,9.74626505 124.298717,9.60490192 125.142864,9.56542114 C126.57316,9.49841348 127.900418,9.82489761 128.952255,10.8073111 C129.265753,11.1001269 129.504135,11.4864902 129.69798,11.8662734 C129.819248,12.1039258 129.955055,12.1978023 130.205091,12.2024084 C130.305129,12.2042728 130.405166,12.2140333 130.542934,12.2225875 C130.487896,12.1436259 130.45432,12.0863788 130.411858,12.0358214 C129.259176,10.6621095 128.008878,9.37415868 126.644236,8.18819984 C126.413353,7.98750586 126.166201,7.80249453 125.915819,7.62384399 C125.841858,7.57109328 125.731897,7.5438954 125.637052,7.54027633 C123.447647,7.45791503 121.759584,6.46979878 120.408095,4.90109569 C119.495757,3.84213337 118.889185,2.62809931 118.523534,1.30538343 C118.504842,1.23793709 118.500227,1.16687168 118.48915,1.09756098 L118.599918,1.09756098 Z" id="Fill-4" transform="translate(130.975610, 37.639059) rotate(4.000000) translate(-130.975610, -37.639059) "></path>
                </g>
                <g id="Text" transform="translate(34.024390, 8.780488)">
                    <path d="M18.3338415,16.3595122 L22.1793293,16.3595122 L22.1793293,17.285122 L19.3940854,17.285122 L19.3940854,18.917561 L22.0194512,18.917561 L22.0194512,19.8095122 L19.3940854,19.8095122 L19.3940854,22.3170732 L18.3338415,22.3170732 L18.3338415,16.3595122 Z M22.7515244,18.2780488 L23.7192073,18.2780488 L23.7192073,18.9512195 L23.7360366,18.9512195 C23.8482323,18.7156086 24.0053039,18.5248788 24.2072561,18.3790244 C24.4092083,18.23317 24.6448157,18.1602439 24.9140854,18.1602439 C24.9533539,18.1602439 24.9954266,18.1616463 25.0403049,18.1644512 C25.0851832,18.1672561 25.1244511,18.1742682 25.1581098,18.1854878 L25.1581098,19.1110976 C25.0907923,19.0942682 25.0332929,19.0830488 24.9856098,19.077439 C24.9379266,19.0718292 24.8916466,19.0690244 24.8467683,19.0690244 C24.6167671,19.0690244 24.431647,19.1110971 24.2914024,19.1952439 C24.1511578,19.2793907 24.0417687,19.3803653 23.9632317,19.4981707 C23.8846947,19.6159762 23.8314026,19.7365847 23.8033537,19.86 C23.7753047,19.9834153 23.7612805,20.081585 23.7612805,20.1545122 L23.7612805,22.3170732 L22.7515244,22.3170732 L22.7515244,18.2780488 Z M28.5071341,19.8936585 C28.5071341,19.7646335 28.4889026,19.6412201 28.452439,19.5234146 C28.4159754,19.4056092 28.358476,19.3018297 28.279939,19.2120732 C28.201402,19.1223166 28.1018299,19.0507929 27.9812195,18.9975 C27.8606092,18.9442071 27.7189642,18.917561 27.5562805,18.917561 C27.2533521,18.917561 26.9967084,19.0087186 26.7863415,19.1910366 C26.5759746,19.3733546 26.4595733,19.6075595 26.4371341,19.8936585 L28.5071341,19.8936585 Z M29.5168902,20.3480488 L29.5168902,20.4826829 C29.5168902,20.5275612 29.5140854,20.5724388 29.5084756,20.6173171 L26.4371341,20.6173171 C26.4483537,20.7631715 26.4862192,20.8964018 26.5507317,21.0170122 C26.6152442,21.1376226 26.7007921,21.241402 26.807378,21.3283537 C26.9139639,21.4153053 27.0345725,21.4840241 27.1692073,21.5345122 C27.3038421,21.5850003 27.4440846,21.6102439 27.589939,21.6102439 C27.8423793,21.6102439 28.0555479,21.5639639 28.2294512,21.4714024 C28.4033545,21.378841 28.5464019,21.2512203 28.6585976,21.0885366 L29.3317683,21.6270732 C28.9334736,22.1656124 28.3556745,22.434878 27.5983537,22.434878 C27.2842057,22.434878 26.9953062,22.3857932 26.7316463,22.287622 C26.4679865,22.1894507 26.2393912,22.0506107 26.0458537,21.8710976 C25.8523161,21.6915845 25.7008542,21.4714037 25.5914634,21.2105488 C25.4820726,20.9496938 25.427378,20.6537821 25.427378,20.3228049 C25.427378,19.9974374 25.4820726,19.7015257 25.5914634,19.435061 C25.7008542,19.1685962 25.8509137,18.9414034 26.0416463,18.7534756 C26.232379,18.5655478 26.4581694,18.4196956 26.7190244,18.3159146 C26.9798794,18.2121336 27.2617668,18.1602439 27.5646951,18.1602439 C27.8451843,18.1602439 28.104633,18.2065239 28.3430488,18.2990854 C28.5814646,18.3916468 28.7876211,18.5290845 28.9615244,18.7114024 C29.1354277,18.8937204 29.2714629,19.1209133 29.3696341,19.3929878 C29.4678054,19.6650623 29.5168902,19.9834128 29.5168902,20.3480488 Z M32.7060366,19.355122 C32.61628,19.2373165 32.4928666,19.1349395 32.3357927,19.0479878 C32.1787187,18.9610362 32.0076229,18.917561 31.8225,18.917561 C31.6598163,18.917561 31.5111592,18.9512192 31.3765244,19.0185366 C31.2418896,19.085854 31.1745732,19.198048 31.1745732,19.355122 C31.1745732,19.5121959 31.2489017,19.6229875 31.397561,19.6875 C31.5462203,19.7520125 31.7635961,19.8179265 32.0496951,19.8852439 C32.2011593,19.9189026 32.3540236,19.9637802 32.5082927,20.019878 C32.6625617,20.0759759 32.8028042,20.1503044 32.9290244,20.2428659 C33.0552445,20.3354273 33.1576216,20.4504261 33.2361585,20.5878659 C33.3146955,20.7253056 33.3539634,20.8921941 33.3539634,21.0885366 C33.3539634,21.3353671 33.3076834,21.5443284 33.215122,21.7154268 C33.1225605,21.8865252 32.9991471,22.0253653 32.844878,22.1319512 C32.690609,22.2385371 32.5110986,22.3156705 32.3063415,22.3633537 C32.1015843,22.4110368 31.8898182,22.434878 31.6710366,22.434878 C31.3568887,22.434878 31.05116,22.3773786 30.7538415,22.262378 C30.4565229,22.1473775 30.2096961,21.9832937 30.0133537,21.770122 L30.6781098,21.147439 C30.7903054,21.2932934 30.9361576,21.413902 31.1156707,21.5092683 C31.2951838,21.6046346 31.4943282,21.6523171 31.7131098,21.6523171 C31.7860369,21.6523171 31.8603655,21.6439025 31.9360976,21.6270732 C32.0118296,21.6102438 32.0819509,21.5835977 32.1464634,21.5471341 C32.2109759,21.5106705 32.2628657,21.4615857 32.3021341,21.399878 C32.3414026,21.3381704 32.3610366,21.2624395 32.3610366,21.1726829 C32.3610366,21.0043894 32.2839032,20.8837809 32.1296341,20.8108537 C31.9753651,20.7379265 31.743965,20.6650004 31.4354268,20.5920732 C31.2839627,20.5584145 31.136708,20.5149393 30.9936585,20.4616463 C30.850609,20.4083534 30.7229884,20.3382321 30.6107927,20.2512805 C30.498597,20.1643288 30.4088418,20.0563421 30.3415244,19.9273171 C30.274207,19.798292 30.2405488,19.6384156 30.2405488,19.4476829 C30.2405488,19.2232916 30.2868288,19.0297569 30.3793902,18.8670732 C30.4719517,18.7043894 30.5939627,18.5711591 30.7454268,18.467378 C30.896891,18.363597 31.0679869,18.2864637 31.2587195,18.2359756 C31.4494522,18.1854876 31.6457917,18.1602439 31.8477439,18.1602439 C32.1394527,18.1602439 32.424145,18.2107312 32.7018293,18.3117073 C32.9795136,18.4126834 33.1996943,18.5669502 33.362378,18.7745122 L32.7060366,19.355122 Z M36.4757927,18.1602439 C36.7394525,18.1602439 36.965243,18.2065239 37.1531707,18.2990854 C37.3410985,18.3916468 37.4953653,18.5136578 37.6159756,18.665122 C37.736586,18.8165861 37.8249387,18.9904868 37.8810366,19.1868293 C37.9371344,19.3831717 37.9651829,19.5851209 37.9651829,19.7926829 L37.9651829,22.3170732 L36.9554268,22.3170732 L36.9554268,20.0956098 C36.9554268,19.9778043 36.9470123,19.8557933 36.9301829,19.7295732 C36.9133536,19.603353 36.8782929,19.4883542 36.825,19.3845732 C36.7717071,19.2807922 36.6959761,19.1952442 36.5978049,19.1279268 C36.4996337,19.0606094 36.3692081,19.0269512 36.2065244,19.0269512 C36.0438406,19.0269512 35.9035981,19.0578046 35.7857927,19.1195122 C35.6679872,19.1812198 35.5698175,19.2639629 35.4912805,19.3677439 C35.4127435,19.4715249 35.3538417,19.5879262 35.3145732,19.7169512 C35.2753047,19.8459763 35.2556707,19.9778042 35.2556707,20.112439 L35.2556707,22.3170732 L34.2459146,22.3170732 L34.2459146,15.9556098 L35.2556707,15.9556098 L35.2556707,18.8418293 L35.2725,18.8418293 C35.3117685,18.7576825 35.3692679,18.6749394 35.445,18.5935976 C35.5207321,18.5122557 35.6090849,18.4393296 35.710061,18.3748171 C35.8110371,18.3103046 35.9260359,18.2584148 36.055061,18.2191463 C36.184086,18.1798779 36.3243285,18.1602439 36.4757927,18.1602439 Z M41.297378,16.3595122 L42.955061,16.3595122 L44.5033537,20.5920732 L44.5285976,20.5920732 L46.060061,16.3595122 L47.7261585,16.3595122 L47.7261585,22.3170732 L46.6743293,22.3170732 L46.6743293,17.5291463 L46.6575,17.5291463 L44.8483537,22.3170732 L44.1078659,22.3170732 L42.3239634,17.5291463 L42.3071341,17.5291463 L42.3071341,22.3170732 L41.297378,22.3170732 L41.297378,16.3595122 Z M51.8325,19.8936585 C51.8325,19.7646335 51.8142685,19.6412201 51.7778049,19.5234146 C51.7413413,19.4056092 51.6838419,19.3018297 51.6053049,19.2120732 C51.5267679,19.1223166 51.4271957,19.0507929 51.3065854,18.9975 C51.185975,18.9442071 51.0443301,18.917561 50.8816463,18.917561 C50.578718,18.917561 50.3220742,19.0087186 50.1117073,19.1910366 C49.9013404,19.3733546 49.7849391,19.6075595 49.7625,19.8936585 L51.8325,19.8936585 Z M52.8422561,20.3480488 L52.8422561,20.4826829 C52.8422561,20.5275612 52.8394512,20.5724388 52.8338415,20.6173171 L49.7625,20.6173171 C49.7737196,20.7631715 49.811585,20.8964018 49.8760976,21.0170122 C49.9406101,21.1376226 50.026158,21.241402 50.1327439,21.3283537 C50.2393298,21.4153053 50.3599384,21.4840241 50.4945732,21.5345122 C50.629208,21.5850003 50.7694505,21.6102439 50.9153049,21.6102439 C51.1677452,21.6102439 51.3809138,21.5639639 51.5548171,21.4714024 C51.7287204,21.378841 51.8717677,21.2512203 51.9839634,21.0885366 L52.6571341,21.6270732 C52.2588395,22.1656124 51.6810404,22.434878 50.9237195,22.434878 C50.6095716,22.434878 50.320672,22.3857932 50.0570122,22.287622 C49.7933523,22.1894507 49.5647571,22.0506107 49.3712195,21.8710976 C49.177682,21.6915845 49.0262201,21.4714037 48.9168293,21.2105488 C48.8074385,20.9496938 48.7527439,20.6537821 48.7527439,20.3228049 C48.7527439,19.9974374 48.8074385,19.7015257 48.9168293,19.435061 C49.0262201,19.1685962 49.1762795,18.9414034 49.3670122,18.7534756 C49.5577449,18.5655478 49.7835353,18.4196956 50.0443902,18.3159146 C50.3052452,18.2121336 50.5871326,18.1602439 50.890061,18.1602439 C51.1705502,18.1602439 51.4299988,18.2065239 51.6684146,18.2990854 C51.9068305,18.3916468 52.1129869,18.5290845 52.2868902,18.7114024 C52.4607936,18.8937204 52.5968288,19.1209133 52.695,19.3929878 C52.7931712,19.6650623 52.8422561,19.9834128 52.8422561,20.3480488 Z M56.6625,19.8936585 C56.6625,19.7646335 56.6442685,19.6412201 56.6078049,19.5234146 C56.5713413,19.4056092 56.5138419,19.3018297 56.4353049,19.2120732 C56.3567679,19.1223166 56.2571957,19.0507929 56.1365854,18.9975 C56.015975,18.9442071 55.8743301,18.917561 55.7116463,18.917561 C55.408718,18.917561 55.1520742,19.0087186 54.9417073,19.1910366 C54.7313404,19.3733546 54.6149391,19.6075595 54.5925,19.8936585 L56.6625,19.8936585 Z M57.6722561,20.3480488 L57.6722561,20.4826829 C57.6722561,20.5275612 57.6694512,20.5724388 57.6638415,20.6173171 L54.5925,20.6173171 C54.6037196,20.7631715 54.641585,20.8964018 54.7060976,21.0170122 C54.7706101,21.1376226 54.856158,21.241402 54.9627439,21.3283537 C55.0693298,21.4153053 55.1899384,21.4840241 55.3245732,21.5345122 C55.459208,21.5850003 55.5994505,21.6102439 55.7453049,21.6102439 C55.9977452,21.6102439 56.2109138,21.5639639 56.3848171,21.4714024 C56.5587204,21.378841 56.7017677,21.2512203 56.8139634,21.0885366 L57.4871341,21.6270732 C57.0888395,22.1656124 56.5110404,22.434878 55.7537195,22.434878 C55.4395716,22.434878 55.150672,22.3857932 54.8870122,22.287622 C54.6233523,22.1894507 54.3947571,22.0506107 54.2012195,21.8710976 C54.007682,21.6915845 53.8562201,21.4714037 53.7468293,21.2105488 C53.6374385,20.9496938 53.5827439,20.6537821 53.5827439,20.3228049 C53.5827439,19.9974374 53.6374385,19.7015257 53.7468293,19.435061 C53.8562201,19.1685962 54.0062795,18.9414034 54.1970122,18.7534756 C54.3877449,18.5655478 54.6135353,18.4196956 54.8743902,18.3159146 C55.1352452,18.2121336 55.4171326,18.1602439 55.720061,18.1602439 C56.0005502,18.1602439 56.2599988,18.2065239 56.4984146,18.2990854 C56.7368305,18.3916468 56.9429869,18.5290845 57.1168902,18.7114024 C57.2907936,18.8937204 57.4268288,19.1209133 57.525,19.3929878 C57.6231712,19.6650623 57.6722561,19.9834128 57.6722561,20.3480488 Z M58.0677439,19.0858537 L58.0677439,18.2780488 L58.7745732,18.2780488 L58.7745732,17.1084146 L59.7675,17.1084146 L59.7675,18.2780488 L60.7772561,18.2780488 L60.7772561,19.0858537 L59.7675,19.0858537 L59.7675,20.9623171 C59.7675,21.1418302 59.7997558,21.2904872 59.8642683,21.4082927 C59.9287808,21.5260982 60.0732306,21.585 60.297622,21.585 C60.3649394,21.585 60.4378655,21.5779879 60.5164024,21.5639634 C60.5949394,21.549939 60.6650607,21.5289026 60.7267683,21.5008537 L60.7604268,22.2918293 C60.6706703,22.325488 60.564086,22.352134 60.4406707,22.3717683 C60.3172555,22.3914025 60.1994518,22.4012195 60.0872561,22.4012195 C59.8179865,22.4012195 59.5992082,22.363354 59.4309146,22.287622 C59.2626211,22.2118899 59.1293907,22.1081104 59.0312195,21.9762805 C58.9330483,21.8444506 58.8657319,21.6929887 58.8292683,21.5218902 C58.7928047,21.3507918 58.7745732,21.1670742 58.7745732,20.9707317 L58.7745732,19.0858537 L58.0677439,19.0858537 Z M63.722378,19.355122 C63.6326215,19.2373165 63.5092081,19.1349395 63.3521341,19.0479878 C63.1950602,18.9610362 63.0239643,18.917561 62.8388415,18.917561 C62.6761577,18.917561 62.5275007,18.9512192 62.3928659,19.0185366 C62.258231,19.085854 62.1909146,19.198048 62.1909146,19.355122 C62.1909146,19.5121959 62.2652432,19.6229875 62.4139024,19.6875 C62.5625617,19.7520125 62.7799376,19.8179265 63.0660366,19.8852439 C63.2175008,19.9189026 63.3703651,19.9637802 63.5246341,20.019878 C63.6789032,20.0759759 63.8191457,20.1503044 63.9453659,20.2428659 C64.071586,20.3354273 64.173963,20.4504261 64.2525,20.5878659 C64.331037,20.7253056 64.3703049,20.8921941 64.3703049,21.0885366 C64.3703049,21.3353671 64.3240249,21.5443284 64.2314634,21.7154268 C64.138902,21.8865252 64.0154886,22.0253653 63.8612195,22.1319512 C63.7069504,22.2385371 63.52744,22.3156705 63.3226829,22.3633537 C63.1179258,22.4110368 62.9061596,22.434878 62.687378,22.434878 C62.3732301,22.434878 62.0675015,22.3773786 61.7701829,22.262378 C61.4728644,22.1473775 61.2260376,21.9832937 61.0296951,21.770122 L61.6944512,21.147439 C61.8066469,21.2932934 61.9524991,21.413902 62.1320122,21.5092683 C62.3115253,21.6046346 62.5106696,21.6523171 62.7294512,21.6523171 C62.8023784,21.6523171 62.8767069,21.6439025 62.952439,21.6270732 C63.0281711,21.6102438 63.0982924,21.5835977 63.1628049,21.5471341 C63.2273174,21.5106705 63.2792071,21.4615857 63.3184756,21.399878 C63.3577441,21.3381704 63.377378,21.2624395 63.377378,21.1726829 C63.377378,21.0043894 63.3002447,20.8837809 63.1459756,20.8108537 C62.9917065,20.7379265 62.7603064,20.6650004 62.4517683,20.5920732 C62.3003041,20.5584145 62.1530495,20.5149393 62.01,20.4616463 C61.8669505,20.4083534 61.7393298,20.3382321 61.6271341,20.2512805 C61.5149385,20.1643288 61.4251833,20.0563421 61.3578659,19.9273171 C61.2905484,19.798292 61.2568902,19.6384156 61.2568902,19.4476829 C61.2568902,19.2232916 61.3031703,19.0297569 61.3957317,18.8670732 C61.4882931,18.7043894 61.6103041,18.5711591 61.7617683,18.467378 C61.9132325,18.363597 62.0843283,18.2864637 62.275061,18.2359756 C62.4657936,18.1854876 62.6621331,18.1602439 62.8640854,18.1602439 C63.1557941,18.1602439 63.4404864,18.2107312 63.7181707,18.3117073 C63.995855,18.4126834 64.2160358,18.5669502 64.3787195,18.7745122 L63.722378,19.355122 Z M0.271829268,27.7009756 L1.33207317,27.7009756 L1.33207317,33.6585366 L0.271829268,33.6585366 L0.271829268,27.7009756 Z M2.59426829,29.6195122 L3.55353659,29.6195122 L3.55353659,30.267439 L3.57036585,30.267439 C3.6601224,30.0654868 3.81579157,29.8873788 4.03737805,29.7331098 C4.25896452,29.5788407 4.521218,29.5017073 4.82414634,29.5017073 C5.0878062,29.5017073 5.31359662,29.5479873 5.50152439,29.6405488 C5.68945216,29.7331102 5.84371891,29.8551212 5.96432927,30.0065854 C6.08493963,30.1580495 6.1732924,30.3319502 6.22939024,30.5282927 C6.28548809,30.7246351 6.31353659,30.9265843 6.31353659,31.1341463 L6.31353659,33.6585366 L5.30378049,33.6585366 L5.30378049,31.4202439 C5.30378049,31.3024384 5.29536594,31.179025 5.27853659,31.05 C5.26170723,30.920975 5.22524418,30.8045737 5.16914634,30.7007927 C5.1130485,30.5970117 5.03591512,30.5114638 4.9377439,30.4441463 C4.83957268,30.3768289 4.70914715,30.3431707 4.54646341,30.3431707 C4.38377967,30.3431707 4.24353717,30.3754265 4.12573171,30.439939 C4.00792624,30.5044515 3.91115892,30.5871946 3.83542683,30.6881707 C3.75969474,30.7891468 3.70219532,30.9055481 3.66292683,31.037378 C3.62365834,31.169208 3.60402439,31.3024384 3.60402439,31.4370732 L3.60402439,33.6585366 L2.59426829,33.6585366 L2.59426829,29.6195122 Z M6.91097561,30.4273171 L6.91097561,29.6195122 L7.61780488,29.6195122 L7.61780488,28.449878 L8.61073171,28.449878 L8.61073171,29.6195122 L9.6204878,29.6195122 L9.6204878,30.4273171 L8.61073171,30.4273171 L8.61073171,32.3037805 C8.61073171,32.4832936 8.64298748,32.6319506 8.7075,32.7497561 C8.77201252,32.8675616 8.91646229,32.9264634 9.14085366,32.9264634 C9.20817107,32.9264634 9.28109717,32.9194513 9.35963415,32.9054268 C9.43817112,32.8914024 9.50829237,32.870366 9.57,32.8423171 L9.60365854,33.6332927 C9.51390199,33.6669514 9.40731769,33.6935975 9.28390244,33.7132317 C9.16048719,33.732866 9.04268349,33.7426829 8.9304878,33.7426829 C8.66121817,33.7426829 8.44243987,33.7048175 8.27414634,33.6290854 C8.10585282,33.5533533 7.97262244,33.4495738 7.87445122,33.3177439 C7.77628,33.185914 7.7089636,33.0344521 7.6725,32.8633537 C7.6360364,32.6922552 7.61780488,32.5085376 7.61780488,32.3121951 L7.61780488,30.4273171 L6.91097561,30.4273171 Z M13.1967073,31.235122 C13.1967073,31.1060969 13.1784758,30.9826835 13.1420122,30.864878 C13.1055486,30.7470726 13.0480492,30.6432931 12.9695122,30.5535366 C12.8909752,30.46378 12.791403,30.3922564 12.6707927,30.3389634 C12.5501823,30.2856705 12.4085374,30.2590244 12.2458537,30.2590244 C11.9429253,30.2590244 11.6862815,30.350182 11.4759146,30.5325 C11.2655477,30.714818 11.1491465,30.949023 11.1267073,31.235122 L13.1967073,31.235122 Z M14.2064634,31.6895122 L14.2064634,31.8241463 C14.2064634,31.8690246 14.2036586,31.9139022 14.1980488,31.9587805 L11.1267073,31.9587805 C11.1379269,32.1046349 11.1757924,32.2378653 11.2403049,32.3584756 C11.3048174,32.479086 11.3903653,32.5828654 11.4969512,32.6698171 C11.6035371,32.7567687 11.7241457,32.8254876 11.8587805,32.8759756 C11.9934153,32.9264637 12.1336578,32.9517073 12.2795122,32.9517073 C12.5319525,32.9517073 12.7451211,32.9054273 12.9190244,32.8128659 C13.0929277,32.7203044 13.235975,32.5926837 13.3481707,32.43 L14.0213415,32.9685366 C13.6230468,33.5070759 13.0452477,33.7763415 12.2879268,33.7763415 C11.9737789,33.7763415 11.6848794,33.7272566 11.4212195,33.6290854 C11.1575597,33.5309141 10.9289644,33.3920741 10.7354268,33.212561 C10.5418893,33.0330479 10.3904274,32.8128672 10.2810366,32.5520122 C10.1716458,32.2911572 10.1169512,31.9952456 10.1169512,31.6642683 C10.1169512,31.3389008 10.1716458,31.0429891 10.2810366,30.7765244 C10.3904274,30.5100596 10.5404869,30.2828668 10.7312195,30.094939 C10.9219522,29.9070113 11.1477426,29.7611591 11.4085976,29.657378 C11.6694525,29.553597 11.9513399,29.5017073 12.2542683,29.5017073 C12.5347575,29.5017073 12.7942061,29.5479873 13.032622,29.6405488 C13.2710378,29.7331102 13.4771943,29.8705479 13.6510976,30.0528659 C13.8250009,30.2351838 13.9610361,30.4623767 14.0592073,30.7344512 C14.1573785,31.0065258 14.2064634,31.3248762 14.2064634,31.6895122 Z M15.182561,29.6195122 L16.1502439,29.6195122 L16.1502439,30.2926829 L16.1670732,30.2926829 C16.2792689,30.057072 16.4363405,29.8663422 16.6382927,29.7204878 C16.8402449,29.5746334 17.0758523,29.5017073 17.345122,29.5017073 C17.3843904,29.5017073 17.4264632,29.5031097 17.4713415,29.5059146 C17.5162197,29.5087195 17.5554876,29.5157317 17.5891463,29.5269512 L17.5891463,30.452561 C17.5218289,30.4357316 17.4643295,30.4245122 17.4166463,30.4189024 C17.3689632,30.4132927 17.3226832,30.4104878 17.2778049,30.4104878 C17.0478037,30.4104878 16.8626836,30.4525606 16.722439,30.5367073 C16.5821944,30.6208541 16.4728053,30.7218287 16.3942683,30.8396341 C16.3157313,30.9574396 16.2624392,31.0780482 16.2343902,31.2014634 C16.2063413,31.3248787 16.1923171,31.4230484 16.1923171,31.4959756 L16.1923171,33.6585366 L15.182561,33.6585366 L15.182561,29.6195122 Z M18.2454878,29.6195122 L19.2047561,29.6195122 L19.2047561,30.267439 L19.2215854,30.267439 C19.3113419,30.0654868 19.4670111,29.8873788 19.6885976,29.7331098 C19.910184,29.5788407 20.1724375,29.5017073 20.4753659,29.5017073 C20.7390257,29.5017073 20.9648161,29.5479873 21.1527439,29.6405488 C21.3406717,29.7331102 21.4949384,29.8551212 21.6155488,30.0065854 C21.7361591,30.1580495 21.8245119,30.3319502 21.8806098,30.5282927 C21.9367076,30.7246351 21.9647561,30.9265843 21.9647561,31.1341463 L21.9647561,33.6585366 L20.955,33.6585366 L20.955,31.4202439 C20.955,31.3024384 20.9465854,31.179025 20.9297561,31.05 C20.9129267,30.920975 20.8764637,30.8045737 20.8203659,30.7007927 C20.764268,30.5970117 20.6871346,30.5114638 20.5889634,30.4441463 C20.4907922,30.3768289 20.3603667,30.3431707 20.1976829,30.3431707 C20.0349992,30.3431707 19.8947567,30.3754265 19.7769512,30.439939 C19.6591458,30.5044515 19.5623784,30.5871946 19.4866463,30.6881707 C19.4109143,30.7891468 19.3534148,30.9055481 19.3141463,31.037378 C19.2748779,31.169208 19.2552439,31.3024384 19.2552439,31.4370732 L19.2552439,33.6585366 L18.2454878,33.6585366 L18.2454878,29.6195122 Z M25.6503659,33.1452439 L25.625122,33.1452439 C25.5241458,33.324757 25.3614645,33.4720116 25.1370732,33.5870122 C24.9126818,33.7020128 24.6574405,33.7595122 24.3713415,33.7595122 C24.2086577,33.7595122 24.0389643,33.7384758 23.8622561,33.6964024 C23.6855479,33.6543291 23.5228666,33.5842078 23.3742073,33.4860366 C23.225548,33.3878654 23.1021346,33.2588423 23.0039634,33.0989634 C22.9057922,32.9390846 22.8567073,32.7413426 22.8567073,32.5057317 C22.8567073,32.2028034 22.9422552,31.9615863 23.1133537,31.7820732 C23.2844521,31.6025601 23.5046328,31.4651224 23.7739024,31.3697561 C24.0431721,31.2743898 24.3418886,31.2112806 24.670061,31.1804268 C24.9982333,31.149573 25.3193887,31.1341463 25.6335366,31.1341463 L25.6335366,31.0331707 C25.6335366,30.7807304 25.542379,30.5942079 25.360061,30.4735976 C25.177743,30.3529872 24.9603671,30.2926829 24.7079268,30.2926829 C24.494755,30.2926829 24.290001,30.3375605 24.0936585,30.4273171 C23.8973161,30.5170736 23.7346348,30.6264628 23.6056098,30.7554878 L23.0839024,30.1412195 C23.3139036,29.9280477 23.5789619,29.7681713 23.8790854,29.6615854 C24.1792088,29.5549995 24.483535,29.5017073 24.7920732,29.5017073 C25.1510994,29.5017073 25.447011,29.5521946 25.6798171,29.6531707 C25.9126231,29.7541468 26.0963408,29.8859748 26.2309756,30.0486585 C26.3656104,30.2113423 26.4595729,30.3936575 26.5128659,30.5956098 C26.5661588,30.797562 26.5928049,30.9995112 26.5928049,31.2014634 L26.5928049,33.6585366 L25.6503659,33.6585366 L25.6503659,33.1452439 Z M25.6335366,31.8157317 L25.4063415,31.8157317 C25.2436577,31.8157317 25.0725619,31.8227438 24.8930488,31.8367683 C24.7135357,31.8507928 24.5480495,31.8816461 24.3965854,31.9293293 C24.2451212,31.9770124 24.1189029,32.0443288 24.0179268,32.1312805 C23.9169507,32.2182321 23.8664634,32.3374383 23.8664634,32.4889024 C23.8664634,32.5842688 23.8874998,32.664207 23.9295732,32.7287195 C23.9716466,32.793232 24.0263411,32.8451218 24.0936585,32.8843902 C24.1609759,32.9236587 24.2367069,32.9517072 24.3208537,32.9685366 C24.4050004,32.9853659 24.4891459,32.9937805 24.5732927,32.9937805 C24.9210993,32.9937805 25.1847552,32.9012204 25.3642683,32.7160976 C25.5437814,32.5309747 25.6335366,32.2785382 25.6335366,31.9587805 L25.6335366,31.8157317 Z M27.1060976,30.4273171 L27.1060976,29.6195122 L27.8129268,29.6195122 L27.8129268,28.449878 L28.8058537,28.449878 L28.8058537,29.6195122 L29.8156098,29.6195122 L29.8156098,30.4273171 L28.8058537,30.4273171 L28.8058537,32.3037805 C28.8058537,32.4832936 28.8381094,32.6319506 28.902622,32.7497561 C28.9671345,32.8675616 29.1115842,32.9264634 29.3359756,32.9264634 C29.403293,32.9264634 29.4762191,32.9194513 29.5547561,32.9054268 C29.6332931,32.8914024 29.7034143,32.870366 29.765122,32.8423171 L29.7987805,33.6332927 C29.7090239,33.6669514 29.6024396,33.6935975 29.4790244,33.7132317 C29.3556091,33.732866 29.2378054,33.7426829 29.1256098,33.7426829 C28.8563401,33.7426829 28.6375618,33.7048175 28.4692683,33.6290854 C28.3009748,33.5533533 28.1677444,33.4495738 28.0695732,33.3177439 C27.9714019,33.185914 27.9040855,33.0344521 27.867622,32.8633537 C27.8311584,32.6922552 27.8129268,32.5085376 27.8129268,32.3121951 L27.8129268,30.4273171 L27.1060976,30.4273171 Z M30.5645122,29.6195122 L31.5742683,29.6195122 L31.5742683,33.6585366 L30.5645122,33.6585366 L30.5645122,29.6195122 Z M30.4214634,28.2479268 C30.4214634,28.0852431 30.4817677,27.9435982 30.602378,27.8229878 C30.7229884,27.7023774 30.8758527,27.6420732 31.0609756,27.6420732 C31.2460985,27.6420732 31.4017677,27.6995726 31.5279878,27.8145732 C31.6542079,27.9295737 31.7173171,28.0740235 31.7173171,28.2479268 C31.7173171,28.4218301 31.6542079,28.5662799 31.5279878,28.6812805 C31.4017677,28.7962811 31.2460985,28.8537805 31.0609756,28.8537805 C30.8758527,28.8537805 30.7229884,28.7934762 30.602378,28.6728659 C30.4817677,28.5522555 30.4214634,28.4106106 30.4214634,28.2479268 Z M32.5671951,31.6221951 C32.5671951,31.3024374 32.6246945,31.0121355 32.7396951,30.7512805 C32.8546957,30.4904255 33.0103649,30.26744 33.2067073,30.0823171 C33.4030498,29.8971942 33.6358523,29.7541468 33.905122,29.6531707 C34.1743916,29.5521946 34.4604863,29.5017073 34.7634146,29.5017073 C35.066343,29.5017073 35.3524377,29.5521946 35.6217073,29.6531707 C35.890977,29.7541468 36.1237795,29.8971942 36.320122,30.0823171 C36.5164644,30.26744 36.6721336,30.4904255 36.7871341,30.7512805 C36.9021347,31.0121355 36.9596341,31.3024374 36.9596341,31.6221951 C36.9596341,31.9419528 36.9021347,32.2336572 36.7871341,32.4973171 C36.6721336,32.7609769 36.5164644,32.9867674 36.320122,33.1746951 C36.1237795,33.3626229 35.890977,33.5098775 35.6217073,33.6164634 C35.3524377,33.7230493 35.066343,33.7763415 34.7634146,33.7763415 C34.4604863,33.7763415 34.1743916,33.7230493 33.905122,33.6164634 C33.6358523,33.5098775 33.4030498,33.3626229 33.2067073,33.1746951 C33.0103649,32.9867674 32.8546957,32.7609769 32.7396951,32.4973171 C32.6246945,32.2336572 32.5671951,31.9419528 32.5671951,31.6221951 Z M33.5937805,31.6221951 C33.5937805,31.7792691 33.6176217,31.9363407 33.6653049,32.0934146 C33.712988,32.2504886 33.7845117,32.3907311 33.879878,32.5141463 C33.9752444,32.6375616 34.0958529,32.7385362 34.2417073,32.8170732 C34.3875617,32.8956101 34.5614624,32.934878 34.7634146,32.934878 C34.9653669,32.934878 35.1392676,32.8956101 35.285122,32.8170732 C35.4309763,32.7385362 35.5515849,32.6375616 35.6469512,32.5141463 C35.7423175,32.3907311 35.8138412,32.2504886 35.8615244,32.0934146 C35.9092076,31.9363407 35.9330488,31.7792691 35.9330488,31.6221951 C35.9330488,31.4651212 35.9092076,31.309452 35.8615244,31.1551829 C35.8138412,31.0009139 35.7423175,30.8620738 35.6469512,30.7386585 C35.5515849,30.6152433 35.4309763,30.5156711 35.285122,30.439939 C35.1392676,30.3642069 34.9653669,30.3263415 34.7634146,30.3263415 C34.5614624,30.3263415 34.3875617,30.3642069 34.2417073,30.439939 C34.0958529,30.5156711 33.9752444,30.6152433 33.879878,30.7386585 C33.7845117,30.8620738 33.712988,31.0009139 33.6653049,31.1551829 C33.6176217,31.309452 33.5937805,31.4651212 33.5937805,31.6221951 Z M37.9357317,29.6195122 L38.895,29.6195122 L38.895,30.267439 L38.9118293,30.267439 C39.0015858,30.0654868 39.157255,29.8873788 39.3788415,29.7331098 C39.6004279,29.5788407 39.8626814,29.5017073 40.1656098,29.5017073 C40.4292696,29.5017073 40.65506,29.5479873 40.8429878,29.6405488 C41.0309156,29.7331102 41.1851823,29.8551212 41.3057927,30.0065854 C41.426403,30.1580495 41.5147558,30.3319502 41.5708537,30.5282927 C41.6269515,30.7246351 41.655,30.9265843 41.655,31.1341463 L41.655,33.6585366 L40.6452439,33.6585366 L40.6452439,31.4202439 C40.6452439,31.3024384 40.6368294,31.179025 40.62,31.05 C40.6031706,30.920975 40.5667076,30.8045737 40.5106098,30.7007927 C40.4545119,30.5970117 40.3773785,30.5114638 40.2792073,30.4441463 C40.1810361,30.3768289 40.0506106,30.3431707 39.8879268,30.3431707 C39.7252431,30.3431707 39.5850006,30.3754265 39.4671951,30.439939 C39.3493897,30.5044515 39.2526223,30.5871946 39.1768902,30.6881707 C39.1011582,30.7891468 39.0436587,30.9055481 39.0043902,31.037378 C38.9651218,31.169208 38.9454878,31.3024384 38.9454878,31.4370732 L38.9454878,33.6585366 L37.9357317,33.6585366 L37.9357317,29.6195122 Z M45.3406098,33.1452439 L45.3153659,33.1452439 C45.2143897,33.324757 45.0517084,33.4720116 44.8273171,33.5870122 C44.6029257,33.7020128 44.3476844,33.7595122 44.0615854,33.7595122 C43.8989016,33.7595122 43.7292082,33.7384758 43.5525,33.6964024 C43.3757918,33.6543291 43.2131105,33.5842078 43.0644512,33.4860366 C42.9157919,33.3878654 42.7923785,33.2588423 42.6942073,33.0989634 C42.5960361,32.9390846 42.5469512,32.7413426 42.5469512,32.5057317 C42.5469512,32.2028034 42.6324991,31.9615863 42.8035976,31.7820732 C42.974696,31.6025601 43.1948767,31.4651224 43.4641463,31.3697561 C43.733416,31.2743898 44.0321325,31.2112806 44.3603049,31.1804268 C44.6884773,31.149573 45.0096326,31.1341463 45.3237805,31.1341463 L45.3237805,31.0331707 C45.3237805,30.7807304 45.2326229,30.5942079 45.0503049,30.4735976 C44.8679869,30.3529872 44.650611,30.2926829 44.3981707,30.2926829 C44.1849989,30.2926829 43.9802449,30.3375605 43.7839024,30.4273171 C43.58756,30.5170736 43.4248787,30.6264628 43.2958537,30.7554878 L42.7741463,30.1412195 C43.0041475,29.9280477 43.2692058,29.7681713 43.5693293,29.6615854 C43.8694527,29.5549995 44.1737789,29.5017073 44.4823171,29.5017073 C44.8413433,29.5017073 45.1372549,29.5521946 45.370061,29.6531707 C45.602867,29.7541468 45.7865847,29.8859748 45.9212195,30.0486585 C46.0558543,30.2113423 46.1498168,30.3936575 46.2031098,30.5956098 C46.2564027,30.797562 46.2830488,30.9995112 46.2830488,31.2014634 L46.2830488,33.6585366 L45.3406098,33.6585366 L45.3406098,33.1452439 Z M45.3237805,31.8157317 L45.0965854,31.8157317 C44.9339016,31.8157317 44.7628058,31.8227438 44.5832927,31.8367683 C44.4037796,31.8507928 44.2382934,31.8816461 44.0868293,31.9293293 C43.9353651,31.9770124 43.8091468,32.0443288 43.7081707,32.1312805 C43.6071946,32.2182321 43.5567073,32.3374383 43.5567073,32.4889024 C43.5567073,32.5842688 43.5777437,32.664207 43.6198171,32.7287195 C43.6618905,32.793232 43.716585,32.8451218 43.7839024,32.8843902 C43.8512198,32.9236587 43.9269508,32.9517072 44.0110976,32.9685366 C44.0952443,32.9853659 44.1793898,32.9937805 44.2635366,32.9937805 C44.6113432,32.9937805 44.8749991,32.9012204 45.0545122,32.7160976 C45.2340253,32.5309747 45.3237805,32.2785382 45.3237805,31.9587805 L45.3237805,31.8157317 Z M47.4779268,27.2970732 L48.4876829,27.2970732 L48.4876829,33.6585366 L47.4779268,33.6585366 L47.4779268,27.2970732 Z M51.8703659,27.7009756 L55.7158537,27.7009756 L55.7158537,28.6265854 L52.9306098,28.6265854 L52.9306098,30.2590244 L55.5559756,30.2590244 L55.5559756,31.1509756 L52.9306098,31.1509756 L52.9306098,33.6585366 L51.8703659,33.6585366 L51.8703659,27.7009756 Z M59.0817073,31.235122 C59.0817073,31.1060969 59.0634758,30.9826835 59.0270122,30.864878 C58.9905486,30.7470726 58.9330492,30.6432931 58.8545122,30.5535366 C58.7759752,30.46378 58.676403,30.3922564 58.5557927,30.3389634 C58.4351823,30.2856705 58.2935374,30.2590244 58.1308537,30.2590244 C57.8279253,30.2590244 57.5712815,30.350182 57.3609146,30.5325 C57.1505477,30.714818 57.0341465,30.949023 57.0117073,31.235122 L59.0817073,31.235122 Z M60.0914634,31.6895122 L60.0914634,31.8241463 C60.0914634,31.8690246 60.0886586,31.9139022 60.0830488,31.9587805 L57.0117073,31.9587805 C57.0229269,32.1046349 57.0607924,32.2378653 57.1253049,32.3584756 C57.1898174,32.479086 57.2753653,32.5828654 57.3819512,32.6698171 C57.4885371,32.7567687 57.6091457,32.8254876 57.7437805,32.8759756 C57.8784153,32.9264637 58.0186578,32.9517073 58.1645122,32.9517073 C58.4169525,32.9517073 58.6301211,32.9054273 58.8040244,32.8128659 C58.9779277,32.7203044 59.120975,32.5926837 59.2331707,32.43 L59.9063415,32.9685366 C59.5080468,33.5070759 58.9302477,33.7763415 58.1729268,33.7763415 C57.8587789,33.7763415 57.5698794,33.7272566 57.3062195,33.6290854 C57.0425597,33.5309141 56.8139644,33.3920741 56.6204268,33.212561 C56.4268893,33.0330479 56.2754274,32.8128672 56.1660366,32.5520122 C56.0566458,32.2911572 56.0019512,31.9952456 56.0019512,31.6642683 C56.0019512,31.3389008 56.0566458,31.0429891 56.1660366,30.7765244 C56.2754274,30.5100596 56.4254869,30.2828668 56.6162195,30.094939 C56.8069522,29.9070113 57.0327426,29.7611591 57.2935976,29.657378 C57.5544525,29.553597 57.8363399,29.5017073 58.1392683,29.5017073 C58.4197575,29.5017073 58.6792061,29.5479873 58.917622,29.6405488 C59.1560378,29.7331102 59.3621943,29.8705479 59.5360976,30.0528659 C59.7100009,30.2351838 59.8460361,30.4623767 59.9442073,30.7344512 C60.0423785,31.0065258 60.0914634,31.3248762 60.0914634,31.6895122 Z M63.2806098,30.6965854 C63.1908532,30.5787799 63.0674398,30.4764029 62.9103659,30.3894512 C62.7532919,30.3024996 62.582196,30.2590244 62.3970732,30.2590244 C62.2343894,30.2590244 62.0857324,30.2926826 61.9510976,30.36 C61.8164627,30.4273174 61.7491463,30.5395114 61.7491463,30.6965854 C61.7491463,30.8536593 61.8234749,30.9644509 61.9721341,31.0289634 C62.1207934,31.0934759 62.3381693,31.1593899 62.6242683,31.2267073 C62.7757325,31.260366 62.9285968,31.3052436 63.0828659,31.3613415 C63.2371349,31.4174393 63.3773774,31.4917678 63.5035976,31.5843293 C63.6298177,31.6768907 63.7321947,31.7918896 63.8107317,31.9293293 C63.8892687,32.066769 63.9285366,32.2336576 63.9285366,32.43 C63.9285366,32.6768305 63.8822566,32.8857918 63.7896951,33.0568902 C63.6971337,33.2279887 63.5737203,33.3668287 63.4194512,33.4734146 C63.2651822,33.5800005 63.0856718,33.6571339 62.8809146,33.7048171 C62.6761575,33.7525002 62.4643913,33.7763415 62.2456098,33.7763415 C61.9314618,33.7763415 61.6257332,33.718842 61.3284146,33.6038415 C61.0310961,33.4888409 60.7842693,33.3247572 60.5879268,33.1115854 L61.2526829,32.4889024 C61.3648786,32.6347568 61.5107308,32.7553654 61.6902439,32.8507317 C61.869757,32.946098 62.0689013,32.9937805 62.2876829,32.9937805 C62.3606101,32.9937805 62.4349386,32.9853659 62.5106707,32.9685366 C62.5864028,32.9517072 62.6565241,32.9250612 62.7210366,32.8885976 C62.7855491,32.852134 62.8374388,32.8030491 62.8767073,32.7413415 C62.9159758,32.6796338 62.9356098,32.6039029 62.9356098,32.5141463 C62.9356098,32.3458528 62.8584764,32.2252443 62.7042073,32.1523171 C62.5499383,32.0793899 62.3185381,32.0064638 62.01,31.9335366 C61.8585358,31.8998779 61.7112812,31.8564027 61.5682317,31.8031098 C61.4251822,31.7498168 61.2975615,31.6796956 61.1853659,31.5927439 C61.0731702,31.5057922 60.983415,31.3978055 60.9160976,31.2687805 C60.8487802,31.1397555 60.815122,30.979879 60.815122,30.7891463 C60.815122,30.564755 60.861402,30.3712203 60.9539634,30.2085366 C61.0465249,30.0458528 61.1685358,29.9126225 61.32,29.8088415 C61.4714642,29.7050605 61.64256,29.6279271 61.8332927,29.577439 C62.0240253,29.526951 62.2203648,29.5017073 62.4223171,29.5017073 C62.7140258,29.5017073 62.9987181,29.5521946 63.2764024,29.6531707 C63.5540868,29.7541468 63.7742675,29.9084136 63.9369512,30.1159756 L63.2806098,30.6965854 Z M64.2230488,30.4273171 L64.2230488,29.6195122 L64.929878,29.6195122 L64.929878,28.449878 L65.9228049,28.449878 L65.9228049,29.6195122 L66.932561,29.6195122 L66.932561,30.4273171 L65.9228049,30.4273171 L65.9228049,32.3037805 C65.9228049,32.4832936 65.9550607,32.6319506 66.0195732,32.7497561 C66.0840857,32.8675616 66.2285355,32.9264634 66.4529268,32.9264634 C66.5202442,32.9264634 66.5931703,32.9194513 66.6717073,32.9054268 C66.7502443,32.8914024 66.8203655,32.870366 66.8820732,32.8423171 L66.9157317,33.6332927 C66.8259752,33.6669514 66.7193909,33.6935975 66.5959756,33.7132317 C66.4725604,33.732866 66.3547567,33.7426829 66.242561,33.7426829 C65.9732913,33.7426829 65.754513,33.7048175 65.5862195,33.6290854 C65.417926,33.5533533 65.2846956,33.4495738 65.1865244,33.3177439 C65.0883532,33.185914 65.0210368,33.0344521 64.9845732,32.8633537 C64.9481096,32.6922552 64.929878,32.5085376 64.929878,32.3121951 L64.929878,30.4273171 L64.2230488,30.4273171 Z M67.6814634,29.6195122 L68.6912195,29.6195122 L68.6912195,33.6585366 L67.6814634,33.6585366 L67.6814634,29.6195122 Z M67.5384146,28.2479268 C67.5384146,28.0852431 67.5987189,27.9435982 67.7193293,27.8229878 C67.8399396,27.7023774 67.992804,27.6420732 68.1779268,27.6420732 C68.3630497,27.6420732 68.5187189,27.6995726 68.644939,27.8145732 C68.7711592,27.9295737 68.8342683,28.0740235 68.8342683,28.2479268 C68.8342683,28.4218301 68.7711592,28.5662799 68.644939,28.6812805 C68.5187189,28.7962811 68.3630497,28.8537805 68.1779268,28.8537805 C67.992804,28.8537805 67.8399396,28.7934762 67.7193293,28.6728659 C67.5987189,28.5522555 67.5384146,28.4106106 67.5384146,28.2479268 Z M69.3139024,29.6195122 L70.4162195,29.6195122 L71.4764634,32.5646341 L71.4932927,32.5646341 L72.5619512,29.6195122 L73.6306098,29.6195122 L72.0234146,33.6585366 L70.9463415,33.6585366 L69.3139024,29.6195122 Z M76.7440244,33.1452439 L76.7187805,33.1452439 C76.6178044,33.324757 76.4551231,33.4720116 76.2307317,33.5870122 C76.0063403,33.7020128 75.751099,33.7595122 75.465,33.7595122 C75.3023163,33.7595122 75.1326228,33.7384758 74.9559146,33.6964024 C74.7792064,33.6543291 74.6165251,33.5842078 74.4678659,33.4860366 C74.3192066,33.3878654 74.1957932,33.2588423 74.097622,33.0989634 C73.9994507,32.9390846 73.9503659,32.7413426 73.9503659,32.5057317 C73.9503659,32.2028034 74.0359138,31.9615863 74.2070122,31.7820732 C74.3781106,31.6025601 74.5982913,31.4651224 74.867561,31.3697561 C75.1368306,31.2743898 75.4355471,31.2112806 75.7637195,31.1804268 C76.0918919,31.149573 76.4130472,31.1341463 76.7271951,31.1341463 L76.7271951,31.0331707 C76.7271951,30.7807304 76.6360375,30.5942079 76.4537195,30.4735976 C76.2714015,30.3529872 76.0540257,30.2926829 75.8015854,30.2926829 C75.5884136,30.2926829 75.3836595,30.3375605 75.1873171,30.4273171 C74.9909746,30.5170736 74.8282933,30.6264628 74.6992683,30.7554878 L74.177561,30.1412195 C74.4075621,29.9280477 74.6726205,29.7681713 74.9727439,29.6615854 C75.2728674,29.5549995 75.5771936,29.5017073 75.8857317,29.5017073 C76.2447579,29.5017073 76.5406696,29.5521946 76.7734756,29.6531707 C77.0062817,29.7541468 77.1899993,29.8859748 77.3246341,30.0486585 C77.459269,30.2113423 77.5532314,30.3936575 77.6065244,30.5956098 C77.6598173,30.797562 77.6864634,30.9995112 77.6864634,31.2014634 L77.6864634,33.6585366 L76.7440244,33.6585366 L76.7440244,33.1452439 Z M76.7271951,31.8157317 L76.5,31.8157317 C76.3373163,31.8157317 76.1662204,31.8227438 75.9867073,31.8367683 C75.8071942,31.8507928 75.6417081,31.8816461 75.4902439,31.9293293 C75.3387797,31.9770124 75.2125615,32.0443288 75.1115854,32.1312805 C75.0106093,32.2182321 74.960122,32.3374383 74.960122,32.4889024 C74.960122,32.5842688 74.9811583,32.664207 75.0232317,32.7287195 C75.0653051,32.793232 75.1199997,32.8451218 75.1873171,32.8843902 C75.2546345,32.9236587 75.3303654,32.9517072 75.4145122,32.9685366 C75.498659,32.9853659 75.5828045,32.9937805 75.6669512,32.9937805 C76.0147578,32.9937805 76.2784137,32.9012204 76.4579268,32.7160976 C76.6374399,32.5309747 76.7271951,32.2785382 76.7271951,31.9587805 L76.7271951,31.8157317 Z M78.8813415,27.2970732 L79.8910976,27.2970732 L79.8910976,33.6585366 L78.8813415,33.6585366 L78.8813415,27.2970732 Z M81.3047561,32.4973171 L82.2808537,32.4973171 L81.5656098,34.7187805 L80.7157317,34.7187805 L81.3047561,32.4973171 Z M25.6671951,39.042439 L29.6136585,39.042439 L29.6136585,39.9680488 L26.727439,39.9680488 L26.727439,41.4826829 L29.4621951,41.4826829 L29.4621951,42.3746341 L26.727439,42.3746341 L26.727439,44.057561 L29.765122,44.057561 L29.765122,45 L25.6671951,45 L25.6671951,39.042439 Z M33.5096341,42.080122 C33.4310972,41.9679263 33.3132935,41.8739638 33.1562195,41.7982317 C32.9991456,41.7224996 32.8392691,41.6846341 32.6765854,41.6846341 C32.4914625,41.6846341 32.3287812,41.7224996 32.1885366,41.7982317 C32.048292,41.8739638 31.9318907,41.973536 31.8393293,42.0969512 C31.7467678,42.2203665 31.678049,42.3592065 31.6331707,42.5134756 C31.5882925,42.6677447 31.5658537,42.8234138 31.5658537,42.9804878 C31.5658537,43.1375618 31.5896949,43.2932309 31.637378,43.4475 C31.6850612,43.6017691 31.7565849,43.7406091 31.8519512,43.8640244 C31.9473175,43.9874396 32.0665237,44.0870118 32.2095732,44.1627439 C32.3526227,44.238476 32.5195112,44.2763415 32.7102439,44.2763415 C32.8673179,44.2763415 33.0243895,44.2454881 33.1814634,44.1837805 C33.3385374,44.1220729 33.4647556,44.0323177 33.560122,43.9145122 L34.1912195,44.5540244 C34.022926,44.7335375 33.808355,44.8723776 33.5475,44.9705488 C33.286645,45.06872 33.0047576,45.1178049 32.7018293,45.1178049 C32.4045107,45.1178049 32.1226233,45.0701224 31.8561585,44.9747561 C31.5896938,44.8793898 31.3568912,44.7391473 31.1577439,44.5540244 C30.9585966,44.3689015 30.801525,44.1445135 30.6865244,43.8808537 C30.5715238,43.6171938 30.5140244,43.3170749 30.5140244,42.9804878 C30.5140244,42.6551203 30.5715238,42.3606111 30.6865244,42.0969512 C30.801525,41.8332914 30.9571941,41.6089034 31.1535366,41.4237805 C31.349879,41.2386576 31.5784743,41.0956103 31.8393293,40.9946341 C32.1001842,40.893658 32.3792668,40.8431707 32.6765854,40.8431707 C32.9739039,40.8431707 33.2614011,40.8992677 33.5390854,41.0114634 C33.8167697,41.1236591 34.0369504,41.2779258 34.1996341,41.4742683 L33.5096341,42.080122 Z M38.5415854,45 L37.5823171,45 L37.5823171,44.3520732 L37.5654878,44.3520732 C37.4757313,44.5540254 37.3200621,44.7321334 37.0984756,44.8864024 C36.8768891,45.0406715 36.6146357,45.1178049 36.3117073,45.1178049 C36.0480475,45.1178049 35.822257,45.0715249 35.6343293,44.9789634 C35.4464015,44.886402 35.2921347,44.764391 35.1715244,44.6129268 C35.050914,44.4614627 34.9625613,44.287562 34.9064634,44.0912195 C34.8503656,43.8948771 34.8223171,43.6929279 34.8223171,43.4853659 L34.8223171,40.9609756 L35.8320732,40.9609756 L35.8320732,43.1992683 C35.8320732,43.3170738 35.8404877,43.4404872 35.8573171,43.5695122 C35.8741464,43.6985372 35.9106095,43.8149385 35.9667073,43.9187195 C36.0228052,44.0225005 36.0999385,44.1080484 36.1981098,44.1753659 C36.296281,44.2426833 36.4267065,44.2763415 36.5893902,44.2763415 C36.7464642,44.2763415 36.8853043,44.2440857 37.0059146,44.1795732 C37.126525,44.1150607 37.2246947,44.0323176 37.3004268,43.9313415 C37.3761589,43.8303653 37.4336583,43.7139641 37.4729268,43.5821341 C37.5121953,43.4503042 37.5318293,43.3170738 37.5318293,43.182439 L37.5318293,40.9609756 L38.5415854,40.9609756 L38.5415854,45 Z M42.2608537,44.4867073 L42.2356098,44.4867073 C42.1346336,44.6662204 41.9719523,44.813475 41.747561,44.9284756 C41.5231696,45.0434762 41.2679283,45.1009756 40.9818293,45.1009756 C40.8191455,45.1009756 40.6494521,45.0799392 40.4727439,45.0378659 C40.2960357,44.9957925 40.1333544,44.9256712 39.9846951,44.8275 C39.8360358,44.7293288 39.7126224,44.6003057 39.6144512,44.4404268 C39.51628,44.280548 39.4671951,44.0828061 39.4671951,43.8471951 C39.4671951,43.5442668 39.552743,43.3030497 39.7238415,43.1235366 C39.8949399,42.9440235 40.1151206,42.8065858 40.3843902,42.7112195 C40.6536599,42.6158532 40.9523764,42.5527441 41.2805488,42.5218902 C41.6087212,42.4910364 41.9298765,42.4756098 42.2440244,42.4756098 L42.2440244,42.3746341 C42.2440244,42.1221939 42.1528668,41.9356713 41.9705488,41.815061 C41.7882308,41.6944506 41.5708549,41.6341463 41.3184146,41.6341463 C41.1052428,41.6341463 40.9004888,41.6790239 40.7041463,41.7687805 C40.5078039,41.858537 40.3451226,41.9679262 40.2160976,42.0969512 L39.6943902,41.4826829 C39.9243914,41.2695111 40.1894497,41.1096347 40.4895732,41.0030488 C40.7896966,40.8964629 41.0940228,40.8431707 41.402561,40.8431707 C41.7615872,40.8431707 42.0574988,40.893658 42.2903049,40.9946341 C42.5231109,41.0956103 42.7068286,41.2274382 42.8414634,41.390122 C42.9760982,41.5528057 43.0700607,41.7351209 43.1233537,41.9370732 C43.1766466,42.1390254 43.2032927,42.3409746 43.2032927,42.5429268 L43.2032927,45 L42.2608537,45 L42.2608537,44.4867073 Z M42.2440244,43.1571951 L42.0168293,43.1571951 C41.8541455,43.1571951 41.6830497,43.1642072 41.5035366,43.1782317 C41.3240235,43.1922562 41.1585373,43.2231095 41.0070732,43.2707927 C40.855609,43.3184758 40.7293907,43.3857922 40.6284146,43.4727439 C40.5274385,43.5596956 40.4769512,43.6789017 40.4769512,43.8303659 C40.4769512,43.9257322 40.4979876,44.0056704 40.540061,44.0701829 C40.5821344,44.1346954 40.6368289,44.1865852 40.7041463,44.2258537 C40.7714638,44.2651221 40.8471947,44.2931706 40.9313415,44.31 C41.0154882,44.3268294 41.0996337,44.3352439 41.1837805,44.3352439 C41.5315871,44.3352439 41.795243,44.2426839 41.9747561,44.057561 C42.1542692,43.8724381 42.2440244,43.6200016 42.2440244,43.3002439 L42.2440244,43.1571951 Z M48.4876829,45 L47.5284146,45 L47.5284146,44.3941463 L47.5115854,44.3941463 C47.3713408,44.6297573 47.1764037,44.8092677 46.9267683,44.9326829 C46.6771329,45.0560982 46.4092697,45.1178049 46.1231707,45.1178049 C45.8146326,45.1178049 45.5383549,45.0603055 45.2943293,44.9453049 C45.0503037,44.8303043 44.8427448,44.6760376 44.6716463,44.4825 C44.5005479,44.2889624 44.36872,44.0617696 44.2761585,43.8009146 C44.1835971,43.5400597 44.1373171,43.2609771 44.1373171,42.9636585 C44.1373171,42.66634 44.1849995,42.3886598 44.2803659,42.1306098 C44.3757322,41.8725597 44.510365,41.6481717 44.6842683,41.457439 C44.8581716,41.2667064 45.0657305,41.1166469 45.3069512,41.0072561 C45.5481719,40.8978653 45.8118278,40.8431707 46.0979268,40.8431707 C46.2830497,40.8431707 46.4485359,40.8642071 46.5943902,40.9062805 C46.7402446,40.9483539 46.8678653,41.0002436 46.9772561,41.0619512 C47.0866469,41.1236588 47.1806094,41.1909752 47.2591463,41.2639024 C47.3376833,41.3368296 47.4021949,41.4069509 47.4526829,41.4742683 L47.4779268,41.4742683 L47.4779268,38.6385366 L48.4876829,38.6385366 L48.4876829,45 Z M45.1639024,42.9636585 C45.1639024,43.1207325 45.1877437,43.2778041 45.2354268,43.434878 C45.28311,43.591952 45.3546337,43.7321945 45.45,43.8556098 C45.5453663,43.979025 45.6659749,44.0799996 45.8118293,44.1585366 C45.9576837,44.2370736 46.1287795,44.2763415 46.325122,44.2763415 C46.5102448,44.2763415 46.675731,44.238476 46.8215854,44.1627439 C46.9674398,44.0870118 47.0922556,43.9874396 47.1960366,43.8640244 C47.2998176,43.7406091 47.3783534,43.6017691 47.4316463,43.4475 C47.4849393,43.2932309 47.5115854,43.1375618 47.5115854,42.9804878 C47.5115854,42.8234138 47.4849393,42.6663422 47.4316463,42.5092683 C47.3783534,42.3521943 47.2998176,42.2119518 47.1960366,42.0885366 C47.0922556,41.9651213 46.9674398,41.8641467 46.8215854,41.7856098 C46.675731,41.7070728 46.5102448,41.6678049 46.325122,41.6678049 C46.1287795,41.6678049 45.9576837,41.7056704 45.8118293,41.7814024 C45.6659749,41.8571345 45.5453663,41.9567067 45.45,42.080122 C45.3546337,42.2035372 45.28311,42.3423773 45.2354268,42.4966463 C45.1877437,42.6509154 45.1639024,42.8065846 45.1639024,42.9636585 Z M49.4806098,42.9636585 C49.4806098,42.6439008 49.5381092,42.3535989 49.6531098,42.0927439 C49.7681103,41.8318889 49.9237795,41.6089034 50.120122,41.4237805 C50.3164644,41.2386576 50.5492669,41.0956103 50.8185366,40.9946341 C51.0878062,40.893658 51.3739009,40.8431707 51.6768293,40.8431707 C51.9797576,40.8431707 52.2658523,40.893658 52.535122,40.9946341 C52.8043916,41.0956103 53.0371941,41.2386576 53.2335366,41.4237805 C53.429879,41.6089034 53.5855482,41.8318889 53.7005488,42.0927439 C53.8155494,42.3535989 53.8730488,42.6439008 53.8730488,42.9636585 C53.8730488,43.2834162 53.8155494,43.5751206 53.7005488,43.8387805 C53.5855482,44.1024403 53.429879,44.3282308 53.2335366,44.5161585 C53.0371941,44.7040863 52.8043916,44.8513409 52.535122,44.9579268 C52.2658523,45.0645127 51.9797576,45.1178049 51.6768293,45.1178049 C51.3739009,45.1178049 51.0878062,45.0645127 50.8185366,44.9579268 C50.5492669,44.8513409 50.3164644,44.7040863 50.120122,44.5161585 C49.9237795,44.3282308 49.7681103,44.1024403 49.6531098,43.8387805 C49.5381092,43.5751206 49.4806098,43.2834162 49.4806098,42.9636585 Z M50.5071951,42.9636585 C50.5071951,43.1207325 50.5310363,43.2778041 50.5787195,43.434878 C50.6264027,43.591952 50.6979264,43.7321945 50.7932927,43.8556098 C50.888659,43.979025 51.0092676,44.0799996 51.155122,44.1585366 C51.3009763,44.2370736 51.474877,44.2763415 51.6768293,44.2763415 C51.8787815,44.2763415 52.0526822,44.2370736 52.1985366,44.1585366 C52.344391,44.0799996 52.4649995,43.979025 52.5603659,43.8556098 C52.6557322,43.7321945 52.7272559,43.591952 52.774939,43.434878 C52.8226222,43.2778041 52.8464634,43.1207325 52.8464634,42.9636585 C52.8464634,42.8065846 52.8226222,42.6509154 52.774939,42.4966463 C52.7272559,42.3423773 52.6557322,42.2035372 52.5603659,42.080122 C52.4649995,41.9567067 52.344391,41.8571345 52.1985366,41.7814024 C52.0526822,41.7056704 51.8787815,41.6678049 51.6768293,41.6678049 C51.474877,41.6678049 51.3009763,41.7056704 51.155122,41.7814024 C51.0092676,41.8571345 50.888659,41.9567067 50.7932927,42.080122 C50.6979264,42.2035372 50.6264027,42.3423773 50.5787195,42.4966463 C50.5310363,42.6509154 50.5071951,42.8065846 50.5071951,42.9636585 Z M54.8491463,40.9609756 L55.8168293,40.9609756 L55.8168293,41.6341463 L55.8336585,41.6341463 C55.9458542,41.3985354 56.1029258,41.2078056 56.304878,41.0619512 C56.5068303,40.9160968 56.7424377,40.8431707 57.0117073,40.8431707 C57.0509758,40.8431707 57.0930486,40.8445732 57.1379268,40.847378 C57.1828051,40.8501829 57.222073,40.8571951 57.2557317,40.8684146 L57.2557317,41.7940244 C57.1884143,41.777195 57.1309149,41.7659756 57.0832317,41.7603659 C57.0355485,41.7547561 56.9892685,41.7519512 56.9443902,41.7519512 C56.7143891,41.7519512 56.529269,41.794024 56.3890244,41.8781707 C56.2487798,41.9623175 56.1393906,42.0632921 56.0608537,42.1810976 C55.9823167,42.298903 55.9290245,42.4195116 55.9009756,42.5429268 C55.8729267,42.6663421 55.8589024,42.7645118 55.8589024,42.837439 L55.8589024,45 L54.8491463,45 L54.8491463,40.9609756 Z" id="Fresh-Meets-Internat"></path>
                    <path d="M4.8204881,2.31219512 C4.8204881,2.63219672 4.7648789,2.92585232 4.65365883,3.19317073 C4.54243876,3.46048914 4.38926956,3.69073074 4.19414664,3.88390244 C3.99902371,4.07707414 3.76683091,4.22731654 3.49756127,4.33463415 C3.22829163,4.44195176 2.93561163,4.49560976 2.61951249,4.49560976 C2.30341335,4.49560976 2.01170895,4.44195176 1.74439054,4.33463415 C1.47707213,4.22731654 1.24585493,4.07707414 1.050732,3.88390244 C0.855609077,3.69073074 0.703415477,3.46048914 0.594146638,3.19317073 C0.484877799,2.92585232 0.430244199,2.63219672 0.430244199,2.31219512 C0.430244199,1.98829106 0.484877799,1.69268426 0.594146638,1.42536585 C0.703415477,1.15804744 0.855609077,0.929757044 1.050732,0.740487805 C1.24585493,0.551218566 1.47707213,0.403902966 1.74439054,0.298536585 C2.01170895,0.193170205 2.30341335,0.140487805 2.61951249,0.140487805 C2.93561163,0.140487805 3.22829163,0.193170205 3.49756127,0.298536585 C3.76683091,0.403902966 3.99902371,0.551218566 4.19414664,0.740487805 C4.38926956,0.929757044 4.54243876,1.15804744 4.65365883,1.42536585 C4.7648789,1.69268426 4.8204881,1.98829106 4.8204881,2.31219512 Z M4.19414664,2.31219512 C4.19414664,2.08585253 4.15707384,1.87219613 4.08292713,1.67121951 C4.00878041,1.4702429 3.90341561,1.2936593 3.76682956,1.14146341 C3.63024352,0.989267532 3.46536712,0.869268732 3.27219542,0.781463415 C3.07902372,0.693658098 2.86146492,0.649756098 2.61951249,0.649756098 C2.38146252,0.649756098 2.16585492,0.693658098 1.97268322,0.781463415 C1.77951153,0.869268732 1.61561073,0.989267532 1.48097591,1.14146341 C1.34634109,1.2936593 1.24195189,1.4702429 1.16780517,1.67121951 C1.09365846,1.87219613 1.05658566,2.08585253 1.05658566,2.31219512 C1.05658566,2.54244018 1.09365846,2.75902338 1.16780517,2.96195122 C1.24195189,3.16487906 1.34731669,3.34146266 1.48390274,3.49170732 C1.62048878,3.64195197 1.78438958,3.75999957 1.97561005,3.84585366 C2.16683052,3.93170775 2.38146252,3.97463415 2.61951249,3.97463415 C2.85756246,3.97463415 3.07414566,3.93170775 3.26926859,3.84585366 C3.46439152,3.75999957 3.63024352,3.64195197 3.76682956,3.49170732 C3.90341561,3.34146266 4.00878041,3.16487906 4.08292713,2.96195122 C4.15707384,2.75902338 4.19414664,2.54244018 4.19414664,2.31219512 Z M7.50731733,4.3902439 L6.92780514,4.3902439 L6.92780514,0.245853659 L9.51512221,0.245853659 L9.51512221,0.755121951 L7.50731733,0.755121951 L7.50731733,2.04292683 L9.38634173,2.04292683 L9.38634173,2.5404878 L7.50731733,2.5404878 L7.50731733,4.3902439 Z M12.1492685,4.3902439 L11.5697563,4.3902439 L11.5697563,0.245853659 L14.1570734,0.245853659 L14.1570734,0.755121951 L12.1492685,0.755121951 L12.1492685,2.04292683 L14.0282929,2.04292683 L14.0282929,2.5404878 L12.1492685,2.5404878 L12.1492685,4.3902439 Z M16.7912197,4.3902439 L16.2117075,4.3902439 L16.2117075,0.245853659 L16.7912197,0.245853659 L16.7912197,4.3902439 Z M22.6682928,3.74634146 C22.5043896,3.9687816 22.2917088,4.1492676 22.0302441,4.28780488 C21.7687793,4.42634216 21.4546361,4.49560976 21.087805,4.49560976 C20.7717059,4.49560976 20.4800015,4.44195176 20.2126831,4.33463415 C19.9453647,4.22731654 19.7151231,4.07707414 19.5219514,3.88390244 C19.3287797,3.69073074 19.1775617,3.46048914 19.0682928,3.19317073 C18.959024,2.92585232 18.9043904,2.63219672 18.9043904,2.31219512 C18.9043904,1.98829106 18.9599996,1.69268426 19.0712197,1.42536585 C19.1824397,1.15804744 19.3365845,0.929757044 19.5336587,0.740487805 C19.7307328,0.551218566 19.9639012,0.403902966 20.2331709,0.298536585 C20.5024405,0.193170205 20.7951205,0.140487805 21.1112197,0.140487805 C21.2517082,0.140487805 21.3941458,0.154146205 21.5385367,0.181463415 C21.6829277,0.208780624 21.8214629,0.249755824 21.9541465,0.304390244 C22.0868301,0.359024663 22.2078045,0.426341063 22.3170733,0.506341463 C22.4263422,0.586341863 22.5199998,0.679023863 22.5980489,0.784390244 L22.1414636,1.13560976 C22.0399996,0.995121249 21.8965864,0.879024849 21.7112197,0.787317073 C21.5258529,0.695609298 21.3258549,0.649756098 21.1112197,0.649756098 C20.8692672,0.649756098 20.6517084,0.693658098 20.4585367,0.781463415 C20.265365,0.869268732 20.1004886,0.989267532 19.9639026,1.14146341 C19.8273165,1.2936593 19.7219517,1.4702429 19.647805,1.67121951 C19.5736583,1.87219613 19.5365855,2.08585253 19.5365855,2.31219512 C19.5365855,2.54634263 19.5726827,2.76487703 19.6448782,2.96780488 C19.7170737,3.17073272 19.8204873,3.34731632 19.9551221,3.49756098 C20.0897569,3.64780563 20.2536577,3.76585323 20.4468294,3.85170732 C20.6400011,3.9375614 20.8556087,3.9804878 21.0936587,3.9804878 C21.3278062,3.9804878 21.540487,3.933659 21.7317075,3.84 C21.9229279,3.746341 22.0809751,3.609757 22.2058538,3.4302439 L22.6682928,3.74634146 Z M25.1560977,4.3902439 L24.5765855,4.3902439 L24.5765855,0.245853659 L25.1560977,0.245853659 L25.1560977,4.3902439 Z M27.6497562,4.3902439 L27.0058537,4.3902439 L28.8029269,0.245853659 L29.3297562,0.245853659 L31.1092684,4.3902439 L30.4536586,4.3902439 L30.0321952,3.37170732 L28.0653659,3.37170732 L27.6497562,4.3902439 Z M28.270244,2.86243902 L29.8214635,2.86243902 L29.0487806,0.91902439 L28.270244,2.86243902 Z M33.5385366,3.87512195 L35.3882927,3.87512195 L35.3882927,4.3902439 L32.9590244,4.3902439 L32.9590244,0.245853659 L33.5385366,0.245853659 L33.5385366,3.87512195 Z M41.9678049,1.01268293 C41.8858532,0.899511629 41.7746348,0.806829629 41.6341463,0.734634146 C41.4936578,0.662438663 41.3356106,0.626341463 41.16,0.626341463 C41.066341,0.626341463 40.9717078,0.639024263 40.8760975,0.664390244 C40.7804873,0.689756224 40.6936589,0.730731424 40.6156097,0.787317073 C40.5375606,0.843902722 40.4741466,0.914145922 40.4253658,0.99804878 C40.3765851,1.08195164 40.3521951,1.18243844 40.3521951,1.2995122 C40.3521951,1.41268349 40.3746339,1.50731669 40.4195122,1.58341463 C40.4643905,1.65951258 40.5248777,1.72390218 40.6009756,1.77658537 C40.6770735,1.82926856 40.7668287,1.87414616 40.8702439,1.91121951 C40.973659,1.94829287 41.0839018,1.98634127 41.2009756,2.02536585 C41.3414641,2.0682929 41.4839017,2.1170729 41.6282927,2.17170732 C41.7726836,2.22634174 41.903414,2.29853614 42.0204878,2.38829268 C42.1375615,2.47804923 42.2331703,2.59024323 42.3073171,2.72487805 C42.3814638,2.85951287 42.4185366,3.03024287 42.4185366,3.23707317 C42.4185366,3.45170839 42.378537,3.63804799 42.2985366,3.79609756 C42.2185362,3.95414713 42.1121958,4.08487753 41.9795122,4.18829268 C41.8468286,4.29170783 41.6936594,4.36878023 41.52,4.4195122 C41.3463406,4.47024416 41.1678058,4.49560976 40.9843902,4.49560976 C40.7229255,4.49560976 40.4702451,4.44487856 40.2263414,4.34341463 C39.9824378,4.24195071 39.7804886,4.09170831 39.6204878,3.89268293 L40.0712195,3.51219512 C40.168781,3.65658609 40.2995114,3.77365809 40.4634146,3.86341463 C40.6273179,3.95317118 40.8048771,3.99804878 40.9960975,3.99804878 C41.093659,3.99804878 41.191219,3.98439038 41.2887805,3.95707317 C41.3863419,3.92975596 41.4751215,3.88682956 41.5551219,3.82829268 C41.6351223,3.7697558 41.7004875,3.6965858 41.7512195,3.60878049 C41.8019515,3.52097517 41.8273171,3.41463477 41.8273171,3.2897561 C41.8273171,3.16487742 41.8009759,3.06048822 41.7482927,2.97658537 C41.6956095,2.89268251 41.6243907,2.82146371 41.5346341,2.76292683 C41.4448776,2.70438995 41.3404884,2.65463435 41.2214634,2.61365854 C41.1024384,2.57268272 40.976586,2.53073192 40.8439024,2.48780488 C40.7112188,2.44878029 40.5804884,2.40097589 40.4517073,2.34439024 C40.3229262,2.2878046 40.2078054,2.2156102 40.1063414,2.12780488 C40.0048775,2.03999956 39.9229271,1.93170796 39.8604878,1.80292683 C39.7980485,1.6741457 39.7668293,1.5141473 39.7668293,1.32292683 C39.7668293,1.11609653 39.8087801,0.938537327 39.8926829,0.790243902 C39.9765858,0.641950478 40.085853,0.519024878 40.2204878,0.421463415 C40.3551226,0.323901951 40.5073162,0.252683151 40.6770732,0.207804878 C40.8468301,0.162926605 41.0175601,0.140487805 41.1892683,0.140487805 C41.4312207,0.140487805 41.6575599,0.183414205 41.8682927,0.269268293 C42.0790254,0.35512238 42.2487798,0.47024318 42.377561,0.614634146 L41.9678049,1.01268293 Z M45.1346341,3.87512195 L47.3004878,3.87512195 L47.3004878,4.3902439 L44.5551219,4.3902439 L44.5551219,0.245853659 L47.2126829,0.245853659 L47.2126829,0.755121951 L45.1346341,0.755121951 L45.1346341,1.99609756 L47.089756,1.99609756 L47.089756,2.49365854 L45.1346341,2.49365854 L45.1346341,3.87512195 Z M49.969756,3.87512195 L51.8195121,3.87512195 L51.8195121,4.3902439 L49.3902438,4.3902439 L49.3902438,0.245853659 L49.969756,0.245853659 L49.969756,3.87512195 Z M54.2780487,3.87512195 L56.4439023,3.87512195 L56.4439023,4.3902439 L53.6985365,4.3902439 L53.6985365,0.245853659 L56.3560974,0.245853659 L56.3560974,0.755121951 L54.2780487,0.755121951 L54.2780487,1.99609756 L56.2331706,1.99609756 L56.2331706,2.49365854 L54.2780487,2.49365854 L54.2780487,3.87512195 Z M62.0868291,3.74634146 C61.9229259,3.9687816 61.7102451,4.1492676 61.4487803,4.28780488 C61.1873156,4.42634216 60.8731724,4.49560976 60.5063413,4.49560976 C60.1902422,4.49560976 59.8985378,4.44195176 59.6312194,4.33463415 C59.3639009,4.22731654 59.1336593,4.07707414 58.9404876,3.88390244 C58.747316,3.69073074 58.596098,3.46048914 58.4868291,3.19317073 C58.3775603,2.92585232 58.3229267,2.63219672 58.3229267,2.31219512 C58.3229267,1.98829106 58.3785359,1.69268426 58.4897559,1.42536585 C58.600976,1.15804744 58.7551208,0.929757044 58.952195,0.740487805 C59.1492691,0.551218566 59.3824375,0.403902966 59.6517072,0.298536585 C59.9209768,0.193170205 60.2136568,0.140487805 60.5297559,0.140487805 C60.6702444,0.140487805 60.812682,0.154146205 60.957073,0.181463415 C61.101464,0.208780624 61.2399992,0.249755824 61.3726828,0.304390244 C61.5053664,0.359024663 61.6263408,0.426341063 61.7356096,0.506341463 C61.8448784,0.586341863 61.938536,0.679023863 62.0165852,0.784390244 L61.5599998,1.13560976 C61.4585359,0.995121249 61.3151227,0.879024849 61.1297559,0.787317073 C60.9443892,0.695609298 60.7443912,0.649756098 60.5297559,0.649756098 C60.2878035,0.649756098 60.0702447,0.693658098 59.877073,0.781463415 C59.6839013,0.869268732 59.5190249,0.989267532 59.3824389,1.14146341 C59.2458528,1.2936593 59.140488,1.4702429 59.0663413,1.67121951 C58.9921946,1.87219613 58.9551218,2.08585253 58.9551218,2.31219512 C58.9551218,2.54634263 58.991219,2.76487703 59.0634145,2.96780488 C59.13561,3.17073272 59.2390236,3.34731632 59.3736584,3.49756098 C59.5082932,3.64780563 59.672194,3.76585323 59.8653657,3.85170732 C60.0585374,3.9375614 60.274145,3.9804878 60.512195,3.9804878 C60.7463425,3.9804878 60.9590233,3.933659 61.1502437,3.84 C61.3414642,3.746341 61.4995114,3.609757 61.6243901,3.4302439 L62.0868291,3.74634146 Z M65.4117071,4.3902439 L64.8321949,4.3902439 L64.8321949,0.755121951 L63.5034144,0.755121951 L63.5034144,0.245853659 L66.7404876,0.245853659 L66.7404876,0.755121951 L65.4117071,0.755121951 L65.4117071,4.3902439 Z M69.1873168,4.3902439 L68.6078047,4.3902439 L68.6078047,0.245853659 L69.1873168,0.245853659 L69.1873168,4.3902439 Z M75.6907314,2.31219512 C75.6907314,2.63219672 75.6351222,2.92585232 75.5239022,3.19317073 C75.4126821,3.46048914 75.2595129,3.69073074 75.06439,3.88390244 C74.8692671,4.07707414 74.6370743,4.22731654 74.3678046,4.33463415 C74.098535,4.44195176 73.805855,4.49560976 73.4897558,4.49560976 C73.1736567,4.49560976 72.8819523,4.44195176 72.6146339,4.33463415 C72.3473155,4.22731654 72.1160983,4.07707414 71.9209753,3.88390244 C71.7258524,3.69073074 71.5736588,3.46048914 71.46439,3.19317073 C71.3551211,2.92585232 71.3004875,2.63219672 71.3004875,2.31219512 C71.3004875,1.98829106 71.3551211,1.69268426 71.46439,1.42536585 C71.5736588,1.15804744 71.7258524,0.929757044 71.9209753,0.740487805 C72.1160983,0.551218566 72.3473155,0.403902966 72.6146339,0.298536585 C72.8819523,0.193170205 73.1736567,0.140487805 73.4897558,0.140487805 C73.805855,0.140487805 74.098535,0.193170205 74.3678046,0.298536585 C74.6370743,0.403902966 74.8692671,0.551218566 75.06439,0.740487805 C75.2595129,0.929757044 75.4126821,1.15804744 75.5239022,1.42536585 C75.6351222,1.69268426 75.6907314,1.98829106 75.6907314,2.31219512 Z M75.06439,2.31219512 C75.06439,2.08585253 75.0273172,1.87219613 74.9531705,1.67121951 C74.8790238,1.4702429 74.773659,1.2936593 74.6370729,1.14146341 C74.5004869,0.989267532 74.3356105,0.869268732 74.1424388,0.781463415 C73.9492671,0.693658098 73.7317083,0.649756098 73.4897558,0.649756098 C73.2517059,0.649756098 73.0360983,0.693658098 72.8429266,0.781463415 C72.6497549,0.869268732 72.4858541,0.989267532 72.3512193,1.14146341 C72.2165844,1.2936593 72.1121952,1.4702429 72.0380485,1.67121951 C71.9639018,1.87219613 71.926829,2.08585253 71.926829,2.31219512 C71.926829,2.54244018 71.9639018,2.75902338 72.0380485,2.96195122 C72.1121952,3.16487906 72.21756,3.34146266 72.3541461,3.49170732 C72.4907321,3.64195197 72.6546329,3.75999957 72.8458534,3.84585366 C73.0370739,3.93170775 73.2517059,3.97463415 73.4897558,3.97463415 C73.7278058,3.97463415 73.944389,3.93170775 74.1395119,3.84585366 C74.3346349,3.75999957 74.5004869,3.64195197 74.6370729,3.49170732 C74.773659,3.34146266 74.8790238,3.16487906 74.9531705,2.96195122 C75.0273172,2.75902338 75.06439,2.54244018 75.06439,2.31219512 Z M80.7190241,3.55902439 L80.7307314,3.55902439 L80.7307314,0.245853659 L81.3102436,0.245853659 L81.3102436,4.3902439 L80.5785363,4.3902439 L78.389268,1.00682927 L78.3775607,1.00682927 L78.3775607,4.3902439 L77.7980485,4.3902439 L77.7980485,0.245853659 L78.5531704,0.245853659 L80.7190241,3.55902439 Z" id="OFFICIAL-SELECTION"></path>
                    <path d="M35.5170732,60.7317073 L32.9817074,60.7317073 L32.9817074,60.2213415 L34.5292683,58.6847561 C34.6463421,58.5640238 34.7469509,58.4378055 34.8310976,58.3060976 C34.9152444,58.1743896 34.9573171,58.0262203 34.9573171,57.8615854 C34.9573171,57.7591458 34.9390246,57.6667687 34.9024391,57.5844512 C34.8658535,57.5021337 34.8164638,57.4317076 34.7542683,57.3731707 C34.6920729,57.3146339 34.6189029,57.2698172 34.5347561,57.2387195 C34.4506094,57.2076218 34.3609761,57.1920732 34.2658537,57.1920732 C34.0682917,57.1920732 33.9054885,57.2551823 33.7774391,57.3814024 C33.6493897,57.5076226 33.5689027,57.6695112 33.5359757,57.8670732 L33.0146342,57.7792683 C33.0365855,57.6329261 33.0832314,57.496647 33.1545732,57.3704268 C33.225915,57.2442067 33.3164629,57.1344517 33.4262196,57.0411585 C33.5359762,56.9478654 33.6631091,56.87561 33.807622,56.8243902 C33.9521349,56.7731705 34.1067065,56.747561 34.2713415,56.747561 C34.4323179,56.747561 34.5868896,56.7713412 34.735061,56.8189024 C34.8832325,56.8664637 35.0140239,56.9359752 35.1274391,57.027439 C35.2408543,57.1189029 35.3314022,57.2341456 35.3990854,57.3731707 C35.4667687,57.5121958 35.5006098,57.6713406 35.5006098,57.8506098 C35.5006098,57.9750006 35.4841466,58.0902434 35.4512196,58.1963415 C35.4182926,58.3024396 35.3734759,58.4030483 35.3167683,58.4981707 C35.2600607,58.5932932 35.1932931,58.683841 35.1164635,58.7698171 C35.0396338,58.8557931 34.9591468,58.9408532 34.8750001,59.025 L33.6128049,60.2542683 L35.5170732,60.2542683 L35.5170732,60.7317073 Z M38.870122,56.747561 C39.1006109,56.747561 39.2990846,56.8006092 39.4655488,56.9067073 C39.632013,57.0128054 39.7692068,57.1582308 39.8771342,57.3429878 C39.9850615,57.5277448 40.0646339,57.744511 40.1158537,57.9932927 C40.1670734,58.2420744 40.1926829,58.5073157 40.1926829,58.7890244 C40.1926829,59.0743917 40.1670734,59.3405475 40.1158537,59.5875 C40.0646339,59.8344525 39.9850615,60.050304 39.8771342,60.235061 C39.7692068,60.419818 39.632013,60.5652434 39.4655488,60.6713415 C39.2990846,60.7774396 39.1006109,60.8304878 38.870122,60.8304878 C38.639633,60.8304878 38.4402448,60.7774396 38.2719512,60.6713415 C38.1036577,60.5652434 37.9655493,60.419818 37.857622,60.235061 C37.7496946,60.050304 37.6701222,59.8344525 37.6189025,59.5875 C37.5676827,59.3405475 37.5420732,59.0743917 37.5420732,58.7890244 C37.5420732,58.5073157 37.5676827,58.2420744 37.6189025,57.9932927 C37.6701222,57.744511 37.7496946,57.5277448 37.857622,57.3429878 C37.9655493,57.1582308 38.1036577,57.0128054 38.2719512,56.9067073 C38.4402448,56.8006092 38.639633,56.747561 38.870122,56.747561 Z M38.870122,57.1920732 C38.7091456,57.1920732 38.5774396,57.2442068 38.475,57.3484756 C38.3725605,57.4527444 38.2929881,57.5844504 38.2362805,57.7435976 C38.1795729,57.9027447 38.140244,58.0756088 38.1182927,58.2621951 C38.0963414,58.4487814 38.0853659,58.6243894 38.0853659,58.7890244 C38.0853659,58.9536594 38.0963414,59.1292674 38.1182927,59.3158537 C38.140244,59.50244 38.1795729,59.6743895 38.2362805,59.8317073 C38.2929881,59.9890252 38.3725605,60.1198166 38.475,60.2240854 C38.5774396,60.3283542 38.7091456,60.3804878 38.870122,60.3804878 C39.0274398,60.3804878 39.156402,60.3283542 39.2570122,60.2240854 C39.3576225,60.1198166 39.4371948,59.9890252 39.4957317,59.8317073 C39.5542686,59.6743895 39.5945121,59.50244 39.6164634,59.3158537 C39.6384148,59.1292674 39.6493903,58.9536594 39.6493903,58.7890244 C39.6493903,58.6243894 39.6384148,58.4487814 39.6164634,58.2621951 C39.5945121,58.0756088 39.5542686,57.9027447 39.4957317,57.7435976 C39.4371948,57.5844504 39.3576225,57.4527444 39.2570122,57.3484756 C39.156402,57.2442068 39.0274398,57.1920732 38.870122,57.1920732 Z M43.8969512,60.7317073 L43.3646341,60.7317073 L43.3646341,57.4939024 L42.6292683,58.1085366 L42.3164634,57.7408537 L43.4195122,56.8463415 L43.8969512,56.8463415 L43.8969512,60.7317073 Z M49.2256097,57.3292683 L47.6670731,60.7317073 L47.0579268,60.7317073 L48.6768292,57.3182927 L46.7506097,57.3182927 L46.7506097,56.8463415 L49.2256097,56.8463415 L49.2256097,57.3292683 Z" id="2017"></path>
                </g>
            </g>
        </g>
    </g>
</svg>