<?xml version="1.0" encoding="UTF-8"?>
<svg width="146px" height="74px" viewBox="0 0 146 74" version="1.1" xmlns="http://www.w3.org/2000/svg" xmlns:xlink="http://www.w3.org/1999/xlink">
    <!-- Generator: Sketch 42 (36781) - http://www.bohemiancoding.com/sketch -->
    <title>Romania</title>
    <desc>Created with Sketch.</desc>
    <defs></defs>
    <g id="Cloud-v2" stroke="none" stroke-width="1" fill="none" fill-rule="evenodd">
        <g id="Home" transform="translate(-635.000000, -313.000000)" fill="#227EA8">
            <g id="Romania" transform="translate(633.000000, 313.000000)">
                <g id="Leaves">
                    <path d="M31.5047424,1.09756098 C31.3156422,2.06748935 30.9003611,2.9557303 30.3834256,3.79994348 C29.4045404,5.39866739 28.0625874,6.61815963 26.1919163,7.22214152 C25.6575378,7.39473914 25.0779925,7.45029537 24.5142729,7.5274812 C24.2789662,7.55976091 24.0848988,7.60949801 23.8945279,7.75881911 C22.2473808,9.050776 20.8386594,10.5574918 19.4993633,12.1281082 C19.4827289,12.1475419 19.4731411,12.1724653 19.4314397,12.24493 C19.6696343,12.2163833 19.8730586,12.1989259 20.0729018,12.1631328 C20.120379,12.1545688 20.1742096,12.0918759 20.1940784,12.0426877 C20.7993839,10.5429988 22.078496,9.90585888 23.6297645,9.63554377 C24.6636355,9.4553703 25.6912686,9.60622853 26.7139345,9.75862389 C27.4609785,9.86984615 28.2055966,9.99556134 28.9793249,10.1193002 C28.9356597,10.1863849 28.9053944,10.245235 28.863693,10.2955211 C27.5667914,11.8621849 25.9462131,12.9167651 23.8144751,13.1360256 C22.6019004,13.2607526 21.4381891,13.1124197 20.3743994,12.4902118 C20.2854518,12.438169 20.152608,12.4298246 20.0433296,12.4382788 C19.7964712,12.4573832 19.5493819,12.4896629 19.3071442,12.537753 C19.2135759,12.5563084 19.1070699,12.6137311 19.0495428,12.6848782 C17.6335438,14.4353387 16.3982124,16.2960333 15.3149005,18.2485165 C15.1992686,18.4569073 15.0874488,18.6672744 14.9348518,18.948569 C15.2215633,18.8611722 15.4449718,18.8019927 15.658908,18.7206347 C15.7069628,18.7024087 15.7394229,18.6086439 15.7497038,18.545402 C15.9632935,17.2258866 16.7824197,16.3430256 17.9966116,15.7599047 C18.7874363,15.3801241 19.6413328,15.177772 20.5191413,15.1024527 C21.7868173,14.9937557 23.0577277,14.9205225 24.3639862,14.8296123 C24.3339519,14.9209617 24.327021,14.9803608 24.2973333,15.0266942 C23.2531813,16.6595643 21.9330609,18.0097125 20.0352435,18.7621372 C18.7053042,19.2894822 17.3539944,19.4616406 15.9643332,18.9708573 C15.8944458,18.9461535 15.8007621,18.9446163 15.7299506,18.9665753 C15.425334,19.0612185 15.1236054,19.1650845 14.8245337,19.2748795 C14.7740531,19.293325 14.7291172,19.3511869 14.7033571,19.400924 C13.3385319,22.0376492 12.2852542,24.784279 11.5018226,27.6254423 C11.4954692,27.6486091 11.505288,27.6757284 11.5075984,27.7012008 C11.5214603,27.6993343 11.5315102,27.6999931 11.5395964,27.6964797 C11.9220709,27.5305795 12.1524104,27.3420616 12.1513708,26.8480943 C12.1474432,24.9778475 13.2344517,23.7097161 14.8247647,22.7541709 C15.8615236,22.1313043 16.9956628,21.7124366 18.1326898,21.2975216 C18.7941362,21.0561923 19.4553516,20.8142043 20.173632,20.5515749 C20.0223056,20.9768106 19.897086,21.3774523 19.7384821,21.7656872 C18.976883,23.6292364 17.847018,25.2333403 16.1029527,26.4040836 C15.0020823,27.1431132 13.8085678,27.594041 12.4349633,27.5325558 C12.340702,27.5283836 12.2318856,27.5952487 12.1474432,27.6526715 C11.9080934,27.8156071 11.6724401,27.9846913 11.4471833,28.1648648 C11.3787977,28.2196525 11.3231188,28.3135271 11.3060224,28.39763 C11.0118024,29.8436292 10.6501208,31.2819427 10.4553603,32.7402389 C10.2324138,34.4085728 10.159061,36.0951327 10.0217121,37.7737873 C10.0203259,37.7897076 10.0314154,37.806616 10.0369602,37.8229754 C10.4538586,37.586587 10.5659094,37.3332901 10.4956755,36.8768726 C10.2374965,35.1988767 10.7211633,33.6987486 11.7296207,32.331143 C12.3439365,31.4979094 13.0965252,30.7864382 13.9258168,30.1491885 C14.9075899,29.3946778 15.9011457,28.654111 16.9414856,27.8683087 C16.9136462,28.2768556 16.9037118,28.6485115 16.8607397,29.0166538 C16.629245,31.0009775 16.0196655,32.8590371 14.7899943,34.5029965 C13.9378305,35.6422286 12.9546712,36.6510244 11.5375171,37.1511403 C11.0330574,37.3291179 10.669643,37.5820854 10.3586731,38.008968 C10.1120458,38.3475756 10.0061174,38.6545622 10.0095828,39.056192 C10.0345344,41.9445671 10.3654886,44.7994548 10.9974783,47.6238195 C11.0124955,47.6907944 11.0372159,47.755793 11.0725639,47.8710776 C11.2017112,47.5824268 11.317343,47.3363764 11.4189974,47.0852754 C11.4367869,47.0413574 11.4134526,46.963403 11.3800684,46.9227789 C10.9720647,46.4281527 10.8648656,45.842836 10.8258211,45.2420381 C10.7377977,43.8861806 11.1397944,42.6428629 11.8002012,41.457956 C12.5482848,40.1158229 13.5387217,38.9346491 14.5067483,37.7377746 C14.9276898,37.2174564 15.3392744,36.6902212 15.8007621,36.1085277 C15.8605995,36.521137 15.9282921,36.8772019 15.9615608,37.2362314 C16.1607109,39.3807458 15.8818545,41.4527957 14.9325415,43.428226 C14.2370178,44.8755427 13.3290596,46.1522381 11.8922677,47.0326836 C11.809558,47.083299 11.7566515,47.1908981 11.7117157,47.2818083 C11.551148,47.6064719 11.3945079,47.9332216 11.2490729,48.2642533 C11.2134938,48.3450623 11.1991698,48.4513438 11.2206558,48.5355565 C12.0087081,51.6255151 13.1537058,54.588441 14.7255362,57.3986421 C14.7452895,57.4338863 14.7741686,57.4644093 14.8433629,57.556637 C14.8772092,57.261618 14.9077055,57.0312683 14.9266501,56.80015 C14.9303467,56.756232 14.9020452,56.6939783 14.8662351,56.6655414 C14.3070206,56.2207621 14.0712519,55.6044832 13.8570846,54.9738212 C13.3651006,53.5248575 13.5027961,52.0845677 13.8973998,50.6419722 C14.323424,49.084092 14.9852169,47.6078992 15.6070412,46.1175429 C15.7597538,45.751267 15.9053043,45.3823561 16.0702616,44.9752365 C16.1259405,45.0666956 16.175728,45.1336706 16.2102674,45.2072332 C17.705395,48.3986423 17.8844453,51.6295775 16.4726049,54.8853265 C16.2259776,55.454174 15.8154326,55.9579131 15.4927956,56.4983237 C15.3962239,56.6600516 15.3239107,56.8396761 15.2718129,57.0193006 C15.2231805,57.1870673 15.2489406,57.3777811 15.183905,57.5369837 C15.0360441,57.8983188 15.1671551,58.1819191 15.357526,58.4915408 C16.7625509,60.7757144 18.4087738,62.8842162 20.3626167,64.7723595 C20.4185266,64.8263786 20.4795192,64.8755667 20.5933028,64.9753703 C20.5695064,64.6902329 20.5579548,64.4675688 20.5276895,64.2472104 C20.5200654,64.1914346 20.4647331,64.1183111 20.4111335,64.094815 C19.7079858,63.7870598 19.2558549,63.2384146 18.8475048,62.6448632 C18.1674602,61.6563795 17.9454379,60.5498663 17.8910297,59.392518 C17.8268026,58.0262299 17.9929151,56.6760817 18.1645723,55.3254943 C18.2761611,54.4475741 18.3946808,53.5705322 18.516204,52.6475961 C18.6073463,52.7331263 18.6869371,52.7980151 18.7545141,52.8726757 C20.2933069,54.5753754 21.2318769,56.531921 21.5312952,58.764491 C21.7689123,60.5368007 21.6512011,62.2642042 20.9177881,63.9342948 C20.8333457,64.1267653 20.9265673,64.3834659 20.899652,64.6063496 C20.8399301,65.1005365 21.041506,65.4379363 21.4348391,65.7733598 C23.4837519,67.5207461 25.7194546,68.9934254 28.2223465,70.0915943 C28.3049406,70.1279364 28.3894986,70.1604357 28.537475,70.2210425 C28.4685117,69.9692827 28.4129484,69.7666013 28.3593488,69.5711663 C27.3795395,69.5853299 26.7364602,69.0358063 26.0991567,68.4821105 C25.1387541,67.647669 24.6517373,66.5534528 24.3668741,65.3913833 C24.0471249,64.0866902 23.8307629,62.7589402 23.5762805,61.4400835 C23.4769364,60.9249257 23.396075,60.4064741 23.3067809,59.8895596 C23.3266497,59.866832 23.3465185,59.8441045 23.3663873,59.8213769 C23.9319552,60.1761243 24.5337952,60.4886007 25.0569685,60.8928656 C27.4918213,62.7744212 28.7117891,65.2203228 28.7211459,68.2065252 C28.7214925,68.3203825 28.7228786,68.4373141 28.6985047,68.547658 C28.5736316,69.1154076 28.697003,69.6609786 28.8625379,70.2001815 C28.8911859,70.2935071 28.9814042,70.4041804 29.072431,70.4408519 C30.9395211,71.1926178 32.864947,71.7624534 34.8667292,72.0861289 C35.3661062,72.166938 35.5147757,72.3420609 35.4839328,72.8943293 C34.9750835,72.8096774 34.4696996,72.7331504 33.9675502,72.6408129 C32.496681,72.3701684 31.0677442,71.9620606 29.6645676,71.4638113 C29.5022672,71.4061689 29.2930672,71.4669953 29.1055842,71.4739124 C28.580447,71.4932363 28.2571169,71.7190845 27.9764122,72.1762705 C27.3946721,73.1234713 26.4293023,73.6533417 25.3372111,73.9223392 C22.6814911,74.5763876 20.1193393,74.2586411 17.6636936,73.131706 C17.3143723,72.9714054 17.0178419,72.7073486 16.6337502,72.4487815 C17.1539201,72.0780041 17.5940373,71.7351145 18.0641887,71.4346058 C19.6526534,70.4194419 21.3945239,69.8176559 23.3194877,69.7468382 C24.6330237,69.6986382 25.8580741,70.0296699 27.0272147,70.5728254 C27.3419967,70.7190723 27.65932,70.8661975 27.9523849,71.0467003 C28.2025932,71.2008524 28.4405568,71.2268738 28.7415923,71.1058798 C28.4147966,70.9580958 28.1098336,70.8208522 27.8056791,70.682291 C25.6355897,69.6935877 23.6412006,68.4462075 21.8503513,66.9222539 C21.4096565,66.5471945 20.913745,66.5769489 20.4207214,66.4887836 C20.3741683,66.4804392 20.3006999,66.5278706 20.2626951,66.5687143 C19.3088769,67.5954066 18.0733144,67.8776894 16.7015582,67.7719569 C14.8956918,67.6328467 13.261598,67.0213988 11.7381689,66.1104303 C10.9052963,65.6124005 10.1116993,65.0733074 9.50535415,64.3219807 C9.42137379,64.2178951 9.34906058,64.1049162 9.27616979,63.9932547 C9.24301661,63.9425295 9.22129954,63.8849969 9.18733775,63.8161555 C9.24602003,63.7798134 9.2939593,63.7397382 9.34975368,63.7170107 C11.5233086,62.8329419 13.7543906,62.5849152 16.058941,63.1779176 C17.6092854,63.5768026 18.8374548,64.4510996 19.9125651,65.5487194 C20.0007041,65.6386415 20.0992395,65.7220856 20.1715527,65.822548 C20.3265756,66.0380754 20.5319636,66.1377692 20.8423559,66.1061483 C20.7833271,66.0409301 20.7395464,65.9842759 20.687102,65.9359661 C18.6310272,64.0444192 16.891236,61.9151662 15.3824775,59.6078258 C15.258413,59.4181002 14.9847548,59.3190651 14.7875685,59.1696343 C14.4598487,58.9211683 14.1692097,58.8705529 13.7348684,59.0523733 C12.6320341,59.5139511 11.5102552,59.3200533 10.4195502,58.9341241 C9.44794254,58.5903562 8.65295929,57.9907661 7.91665833,57.3186016 C6.72961272,56.2349257 5.6869625,55.0436507 5.01823857,53.596883 C4.84600375,53.224239 4.7457356,52.8214014 4.60145572,52.4007771 C5.19058891,52.4007771 5.71549503,52.360153 6.23150639,52.4073648 C9.39249471,52.6972234 11.6831832,54.2941906 13.3672955,56.7691878 C13.6821929,57.2319734 13.9458011,57.7270387 14.2214231,58.2131009 C14.4167611,58.5575275 14.4079819,58.5620291 14.8341216,58.7573543 C14.7977339,58.6720436 14.7800599,58.6125348 14.748986,58.5602724 C13.1175492,55.8241829 11.8728609,52.9343804 10.9162704,49.9265484 C10.8305573,49.6568921 10.5604801,49.4448781 10.4112331,49.1876286 C10.2379586,48.8887668 10.0443533,48.78534 9.65263745,48.8299167 C8.50810184,48.9601335 7.5694163,48.4727538 6.73792989,47.7841201 C5.74414307,46.9609875 4.98600952,45.9550464 4.36372316,44.8597322 C3.61725676,43.5455967 2.94656906,42.1991816 2.6438008,40.7167305 C2.61942686,40.5972736 2.58869952,40.4790245 2.56097561,40.3602264 L2.56097561,39.5697029 C2.78242038,39.6286628 3.01068061,39.670824 3.22438578,39.748998 C5.25007981,40.4905529 6.8314981,41.7759221 8.13590829,43.3957267 C9.30320061,44.8451295 9.90365439,46.5177454 10.272729,48.2839066 C10.3128132,48.4756085 10.4339898,48.6519391 10.5173925,48.8352967 C10.5433837,48.8255249 10.5693749,48.8157532 10.5953661,48.8059814 C10.5906299,48.7640398 10.5907454,48.7208904 10.5802334,48.6802662 C9.93738515,46.1811141 9.61775152,43.6422163 9.53781423,41.0732346 C9.5269557,40.7232084 9.55467962,40.3609949 9.46792687,40.0269988 C9.37897931,39.684768 9.17948264,39.3664725 9.00955814,39.0466399 C8.97005157,38.9723087 8.86077314,38.8990755 8.77321177,38.8854609 C8.26147452,38.8059694 7.79825411,38.6232706 7.3803161,38.3352786 C6.80227248,37.9371622 6.35892088,37.4229925 5.99643069,36.8453614 C5.29986734,35.7354445 4.86032778,34.5275905 4.53607349,33.2803202 C4.16954024,31.8706631 3.92499221,30.4434389 3.96149536,28.9855819 C3.9723539,28.5515625 4.03196031,28.1186411 4.07354618,27.6347749 C4.21112611,27.7201954 4.28852204,27.7638937 4.36095076,27.8139602 C6.47917336,29.2789539 7.8881258,31.2318763 8.71626223,33.5749 C9.27570772,35.1573742 9.3392417,36.7937578 9.22476503,38.4418894 C9.20535829,38.7223057 9.29118691,38.9427739 9.5014266,39.1463337 C9.53908491,38.654672 9.5262626,38.1654258 9.54139524,37.677058 C9.59949994,35.7986864 9.76272449,33.9288788 10.0190552,32.0647806 C10.0949494,31.5130611 10.3631783,30.9655138 10.1008407,30.3849182 C9.99017611,30.1398559 9.98647958,29.852852 9.90550265,29.5929674 C9.87431325,29.4928344 9.77820368,29.3969835 9.68671476,29.3302281 C9.40242912,29.1229353 9.07667312,28.9597801 8.81976485,28.726905 C7.9674855,27.9542781 7.59540747,26.9493252 7.38574536,25.8801422 C7.06357037,24.2376101 7.04913083,22.5809145 7.17758497,20.921474 C7.25913949,19.8684308 7.45216724,18.8331745 7.83140729,17.8355778 C7.87241558,17.7276494 7.92543757,17.6236736 7.98723879,17.4856614 C8.13717897,17.6599059 8.24784359,17.7884758 8.35850822,17.9170456 C10.1395387,19.9850331 10.981075,22.3590189 10.9259737,25.0263769 C10.8974412,26.4036444 10.6382226,27.7466559 10.2615239,29.0715513 C10.1770815,29.3687662 10.3094632,29.6175615 10.375423,29.9373941 C10.4129658,29.8700898 10.4195502,29.8628433 10.421283,29.8546087 C10.9692924,27.2507123 11.7736324,24.720598 12.8354584,22.2643757 C12.8627202,22.2013534 12.8846683,22.1311945 12.8862855,22.0638902 C12.8947182,21.7143031 12.9081181,21.3640573 12.8921769,21.015129 C12.8869786,20.9008325 12.8213654,20.7727018 12.7442005,20.6806937 C12.5376573,20.4348629 12.2791318,20.2248252 12.0958074,19.9657091 C11.3858442,18.9615248 11.2185766,17.8207555 11.2446832,16.6448518 C11.275064,15.2786736 11.5218069,13.9407126 11.8803695,12.6200992 C12.2042772,11.427397 12.602924,10.2622532 13.2818134,9.20141464 C13.3749195,9.05582657 13.4863928,8.9209984 13.6043349,8.7609174 C14.3526496,10.0768096 14.7925357,11.4324475 14.9449017,12.8738353 C15.2235271,15.5101213 14.7980805,18.0179472 13.4140796,20.3427449 C13.2356069,20.6425949 13.2674894,20.9367355 13.2388413,21.2813817 C13.286203,21.2329622 13.3088442,21.2187986 13.318201,21.1990355 C14.5204948,18.643888 15.9847795,16.2322425 17.7038933,13.9598169 C17.7399344,13.9122757 17.7728565,13.854304 17.7812892,13.7976498 C17.8306147,13.468814 17.8667713,13.1382215 17.9186381,12.8098249 C17.9418569,12.6619311 17.9120537,12.5599316 17.8021977,12.4359731 C17.6084768,12.217591 17.4261921,11.9753834 17.3061706,11.7151695 C16.8694034,10.768298 16.8426037,9.76938379 17.0002834,8.76761489 C17.386801,6.31303953 18.5746552,4.22221476 20.2853363,2.38161263 C20.5662719,2.0793472 20.9011537,1.82231728 21.2264477,1.53048237 C21.268149,1.6076682 21.2857075,1.62907821 21.2915989,1.6530135 C21.317128,1.75545217 21.3436967,1.85778104 21.3620638,1.96142745 C21.6170083,3.40391318 21.5710328,4.84563035 21.3569811,6.28811608 C21.0132045,8.60588696 20.1215341,10.6872694 18.4116617,12.4062187 C18.1173262,12.702116 18.1626085,13.0403942 18.1168641,13.3787822 C18.197379,13.3196027 18.254444,13.2522984 18.3098918,13.1836766 C19.9904231,11.1052586 21.8052999,9.14498005 23.8977623,7.42734823 C23.9532102,7.38178334 23.9935254,7.27912508 23.9847461,7.2094053 C23.8979934,6.51341527 24.0526697,5.86353911 24.3956376,5.25329891 C25.031786,4.12175241 25.9998127,3.29422805 27.1915944,2.74503383 C28.2171482,2.27258627 29.306236,1.92464615 30.3654051,1.51730698 C30.7111454,1.38434532 31.0512254,1.23787889 31.3938468,1.09756098 L31.5047424,1.09756098 Z" id="Fill-1" transform="translate(19.024390, 37.678260) rotate(-4.000000) translate(-19.024390, -37.678260) "></path>
                    <path d="M118.599918,1.09756098 C118.700879,1.15162771 118.796532,1.21841604 118.903493,1.25767748 C120.06356,1.68275391 121.242896,2.06549816 122.382194,2.53575815 C123.595338,3.0363964 124.613253,3.8033106 125.354016,4.86369862 C125.847512,5.57018529 126.106663,6.34159591 126.000626,7.20315432 C125.992087,7.27301337 126.033279,7.37544407 126.08901,7.42117597 C128.1793,9.13716432 129.991747,11.0958498 131.670694,13.1721003 C131.725847,13.2403143 131.783309,13.306993 131.862231,13.3654465 C131.821962,13.0153835 131.848039,12.6744231 131.547349,12.3708597 C129.934055,10.7423871 129.047908,8.78041158 128.678219,6.58846047 C128.418029,5.04574889 128.348222,3.50281798 128.620873,1.95528098 C128.639104,1.85175359 128.665758,1.74943256 128.691719,1.6472212 C128.697719,1.62375207 128.717103,1.603244 128.758411,1.53492031 C129.062331,1.80547334 129.374329,2.0474028 129.642134,2.32749702 C131.176275,3.93217149 132.266535,5.77131794 132.804915,7.88628152 C133.092221,9.01499323 133.183605,10.1543428 132.835954,11.2925957 C132.700378,11.7365352 132.488533,12.1389101 132.141921,12.4729614 C132.087344,12.5254928 132.048345,12.6246334 132.055499,12.6974535 C132.092191,13.0708759 132.14319,13.4432017 132.197767,13.8147597 C132.205959,13.8706908 132.255112,13.9235512 132.292497,13.9729022 C134.004213,16.2359187 135.462086,18.6377759 136.656306,21.1836284 C136.66346,21.198982 136.67696,21.2114843 136.758998,21.2195998 C136.718037,20.9665938 136.749306,20.6745456 136.624807,20.4668329 C135.419047,18.454629 134.89959,16.2875727 134.950013,13.9869398 C134.990166,12.1537154 135.407048,10.4094325 136.368424,8.76121953 C136.458308,8.87670082 136.544615,8.97474476 136.616268,9.08156221 C137.293801,10.0905155 137.699605,11.2058476 138.021757,12.3526547 C138.441868,13.8479893 138.733789,15.3630644 138.727443,16.9168525 C138.72352,17.8829253 138.573752,18.8293674 138.043564,19.6727208 C137.819951,20.0284865 137.49353,20.3250311 137.227225,20.658205 C137.152225,20.7520815 137.08738,20.8785297 137.082188,20.9928046 C137.06638,21.3413322 137.080111,21.6911758 137.086803,22.0404711 C137.087957,22.0994729 137.101341,22.1619841 137.124995,22.2165992 C138.195871,24.6852448 139.005518,27.2291232 139.578859,29.8509762 C139.661243,29.5849196 139.791626,29.3339973 139.706935,29.0370141 C139.32963,27.7134208 139.072209,26.3714032 139.044287,24.995498 C138.990402,22.3313128 139.829242,19.9592855 141.611227,17.8948792 C141.710687,17.7797269 141.80911,17.6636973 141.908917,17.5487644 C141.920224,17.5357138 141.937878,17.5275983 141.993954,17.4880078 C142.083492,17.7140353 142.178568,17.9255865 142.251837,18.1437178 C142.684987,19.4339717 142.818371,20.7669965 142.851601,22.1113171 C142.888639,23.6056647 142.816986,25.0936516 142.40922,26.547312 C142.180414,27.3629192 141.802071,28.110751 141.146231,28.7014274 C140.946963,28.8809553 140.731196,29.0643216 140.487159,29.1738808 C140.178854,29.3122828 140.041894,29.5063967 139.989394,29.8185142 C139.939779,30.1127557 139.815396,30.3953723 139.729435,30.684569 C139.718012,30.7230628 139.736819,30.7703301 139.74455,30.8131009 C140.229854,33.5247727 140.423237,36.2598039 140.467429,39.0065696 C140.46789,39.0382639 140.476775,39.0697389 140.488775,39.1456297 C140.670504,38.8939397 140.768003,38.6778921 140.743195,38.3939595 C140.489351,35.4818131 141.118654,32.7837403 142.917947,30.3714645 C143.67221,29.3602081 144.57001,28.4871345 145.628886,27.7637588 C145.688193,27.723291 145.751885,27.6884163 145.862653,27.6210797 C145.89773,27.8506165 145.937883,28.0499945 145.957614,28.2512368 C146.123305,29.941124 145.849961,31.59164 145.432156,33.224609 C145.113121,34.4711051 144.689663,35.6885389 143.968976,36.7820469 C143.664133,37.2446301 143.277367,37.6681711 142.874562,38.0599082 C142.420297,38.5016543 141.836802,38.7474222 141.187076,38.8422857 C141.105731,38.8542396 141.001193,38.9186152 140.965771,38.9862809 C140.793849,39.3145197 140.623196,39.6457196 140.491082,39.9894218 C140.430506,40.1469062 140.45289,40.335427 140.448967,40.5101294 C140.388506,43.2703845 140.070047,46.0000419 139.37763,48.6855028 C139.373592,48.7012951 139.380053,48.7195001 139.450552,48.7659997 C139.533859,48.5919553 139.655358,48.4252586 139.694473,48.2425504 C139.994471,46.8439436 140.399814,45.4790053 141.196192,44.254772 C142.537181,42.1931075 144.328627,40.6142052 146.725838,39.7087792 C146.929375,39.6317917 147.144796,39.5832084 147.439024,39.49657 C147.383871,39.9743972 147.388486,40.4158142 147.276103,40.8282787 C146.593031,43.3369535 145.432272,45.6115949 143.509403,47.4853967 C142.856101,48.1220243 142.082454,48.6067606 141.134923,48.7485624 C140.786118,48.8007648 140.420352,48.7688511 140.064047,48.7477947 C139.917395,48.7391309 139.830626,48.7553619 139.744319,48.8759976 C139.542975,49.1574078 139.321092,49.4254385 139.111209,49.7013653 C139.079825,49.7427104 139.064017,49.7964482 139.048556,49.8465668 C138.107025,52.8923995 136.83342,55.8052039 135.183665,58.5675427 C135.167396,58.5948502 135.160934,58.6273122 135.139588,58.6855463 C135.415817,58.5871734 135.596623,58.4554611 135.720314,58.215067 C136.409616,56.8756815 137.238417,55.626334 138.414869,54.6160647 C140.351583,52.9529367 142.614949,52.1609084 145.232081,52.3223409 C145.249504,52.3234376 145.266235,52.3336368 145.346196,52.3614927 C145.22885,52.7205484 145.138159,53.0942999 144.986545,53.4441435 C144.462588,54.6531327 143.638056,55.6742593 142.70841,56.6215788 C141.900032,57.4455208 141.039847,58.216383 139.950394,58.7014483 C138.871788,59.1817978 137.749451,59.3992711 136.565615,59.1101841 C136.38827,59.0668649 136.200079,59.0192686 136.05135,58.9247341 C135.825083,58.7808486 135.651084,58.7951055 135.438086,58.9491902 C135.212857,59.1120485 134.954167,59.2326842 134.714861,59.3786534 C134.664669,59.409251 134.629131,59.4668272 134.596477,59.5174942 C133.094182,61.8460926 131.339658,63.9837577 129.270945,65.8840993 C129.226753,65.9247865 129.190061,65.9728214 129.134792,66.0340166 C129.413097,66.0492606 129.603711,65.9813756 129.780479,65.7874811 C130.821124,64.6456091 132.010037,63.6876518 133.554217,63.2154178 C135.777314,62.5355806 137.971795,62.6792468 140.136624,63.4619533 C140.34916,63.5387215 140.557659,63.6259082 140.847272,63.7393058 C140.57612,64.0716024 140.370968,64.3984156 140.092201,64.6519699 C138.419369,66.1739541 136.447,67.1622897 134.167943,67.5833083 C133.262065,67.7505533 132.357573,67.7923372 131.457119,67.5449243 C130.80324,67.365177 130.239129,67.0473567 129.78994,66.5593304 C129.681249,66.441217 129.573942,66.3799122 129.410328,66.4238894 C129.357598,66.4380366 129.300829,66.4457135 129.246137,66.4449458 C128.714334,66.4367206 128.329991,66.6931264 127.939879,67.0134691 C125.994972,68.6107957 123.846875,69.9117972 121.497202,70.9081386 C121.423702,70.9392845 121.353549,70.9773396 121.257435,71.0239489 C121.544971,71.1431589 121.770315,71.1142063 122.022774,70.9733915 C123.069535,70.389076 124.166257,69.9142099 125.381131,69.7434555 C126.957503,69.5219244 128.466952,69.7900648 129.928862,70.3452084 C131.16566,70.8148104 132.261689,71.501447 133.320103,72.3896549 C132.940376,72.6382742 132.613725,72.9228648 132.23042,73.0916452 C129.681134,74.2149831 127.042886,74.5378482 124.323871,73.7354013 C123.181803,73.3983889 122.290695,72.7243642 121.736392,71.6863487 C121.691393,71.6019037 121.570817,71.5265612 121.470317,71.5013373 C121.185666,71.4299429 120.894668,71.3774115 120.603209,71.3374921 C120.502133,71.3236738 120.385596,71.3530651 120.287058,71.3893654 C118.482804,72.0528619 116.620973,72.5060136 114.709643,72.780076 C114.648143,72.7888495 114.584913,72.7876432 114.524683,72.7909332 C114.46203,72.2963268 114.631528,72.0835692 115.11487,72.0060333 C117.115161,71.685581 119.039068,71.1182641 120.903668,70.3658262 C121.001629,70.3263454 121.096821,70.2097674 121.131089,70.1097494 C121.321357,69.5554831 121.34628,68.9923336 121.295857,68.406044 C121.006591,65.0415136 123.231764,61.3687042 126.419584,59.9008964 C126.49366,59.8667894 126.570967,59.8389335 126.682774,59.7935306 C126.60639,60.2284772 126.538891,60.6376517 126.46216,61.0451811 C126.205547,62.4069391 125.97628,63.7743999 125.672936,65.1267263 C125.537822,65.7291373 125.283516,66.3140012 125.025634,66.8832921 C124.561215,67.9083668 123.76426,68.6691395 122.753268,69.2135357 C122.468963,69.3666334 122.110812,69.3945989 121.788776,69.4870497 C121.721508,69.5063515 121.629316,69.5444065 121.608662,69.5956219 C121.544509,69.7550804 121.509086,69.9250671 121.44251,70.1620615 C121.926775,69.938995 122.34331,69.7585898 122.74923,69.5584442 C125.024826,68.4368609 127.081425,67.0237779 128.928025,65.3350971 C129.002678,65.2668831 129.053908,65.1471247 129.062447,65.0472164 C129.090254,64.7243514 129.095562,64.3995122 129.103292,64.0754408 C129.105139,63.9991113 129.099715,63.9153243 129.068677,63.8467813 C128.266184,62.0701461 128.199954,60.2270516 128.506874,58.3479856 C128.84841,56.2571492 129.773441,54.4260086 131.213198,52.8212244 C131.28289,52.7434692 131.329735,52.6470703 131.387312,52.5593352 C131.415004,52.582585 131.442811,52.6058348 131.470503,52.628975 C131.553234,53.2688926 131.645771,53.9077136 131.716386,54.5488377 C131.848731,55.7514662 132.01696,56.9531077 132.080306,58.1594649 C132.151729,59.5201262 132.10119,60.8822132 131.394119,62.1303543 C130.951392,62.9119641 130.438281,63.6321594 129.553866,64.0289412 C129.507251,64.049888 129.460636,64.1155796 129.454174,64.1651499 C129.425559,64.3877777 129.411367,64.6121601 129.453136,64.8669208 C129.804248,64.5142259 130.16286,64.168111 130.505088,63.8078489 C132.155998,62.0695977 133.579024,60.1749589 134.780514,58.1311703 C134.843629,58.0238046 134.845591,57.8719132 134.840283,57.7420653 C134.808899,56.972519 134.435863,56.3449939 133.993829,55.7142884 C133.218797,54.6084975 132.881069,53.3371067 132.681109,52.0357762 C132.317996,49.6720837 132.710762,47.4100542 133.726485,45.2366371 C133.773792,45.1355224 133.836676,45.0409879 133.907291,44.9170621 C134.694554,46.9771913 135.681661,48.9244712 136.193272,51.0366931 C136.575653,52.6149374 136.526038,54.1529332 135.823006,55.639275 C135.664699,55.9739843 135.380279,56.2547365 135.156665,56.5621382 C135.113165,56.6219078 135.048781,56.6915475 135.051781,56.7540587 C135.062627,56.9780025 135.098281,57.2008496 135.192319,57.4410243 C135.415124,57.0266955 135.646238,56.616205 135.859467,56.1974894 C137.104687,53.7525322 138.056256,51.2074475 138.731366,48.5681571 C138.775212,48.3968544 138.789866,48.2509949 138.662021,48.1037096 C138.593598,48.024748 138.541445,47.9223173 138.515483,47.8226284 C138.365254,47.246867 137.962103,46.8857275 137.473338,46.5386256 C136.318809,45.718851 135.609661,44.5683152 135.025358,43.3413402 C133.923329,41.0274374 133.737677,38.6169163 134.167827,36.1136153 C134.216288,36.1413615 134.252519,36.1512317 134.270519,36.1740428 C135.23328,37.3947667 136.207349,38.6079234 137.151648,39.8413689 C137.843027,40.7444918 138.420984,41.7149513 138.79725,42.7780811 C139.161978,43.8085295 139.289361,44.8679305 139.024556,45.9376403 C138.946557,46.2531576 138.74902,46.5415866 138.611136,46.844492 C138.581367,46.9097449 138.539022,46.995506 138.560598,47.0517661 C138.65429,47.2963276 138.769443,47.5334316 138.93398,47.7698777 C139.059748,47.1550741 139.196939,46.542135 139.308977,45.9250284 C139.71755,43.6747335 139.939433,41.4078786 139.952471,39.1234766 C139.952817,39.0709453 139.955125,39.0180849 139.960894,38.9658825 C139.99724,38.6367663 139.910241,38.3769608 139.700704,38.0793196 C139.338861,37.5656307 138.890711,37.2675508 138.291524,37.0474455 C136.941996,36.551852 136.00762,35.5647228 135.190472,34.4717631 C133.951483,32.8146669 133.335449,30.9431682 133.11299,28.9405055 C133.073875,28.5882492 133.061644,28.2332511 133.033375,27.8274764 C134.178558,28.7012081 135.277356,29.5229567 136.355847,30.3679551 C137.171494,31.0069954 137.886181,31.7424347 138.453407,32.5936842 C139.299515,33.8633204 139.737973,35.2451478 139.467629,36.7464045 C139.378091,37.2437527 139.555667,37.5183635 139.932048,37.8108503 C139.932048,37.6086209 139.937125,37.4241579 139.931356,37.2399143 C139.837434,34.2685467 139.414091,31.338963 138.69802,28.4461183 C138.652905,28.2641777 138.586906,28.1196342 138.390638,28.0525169 C138.348639,28.0380406 138.305254,28.0113911 138.276985,27.9789291 C137.911681,27.5582394 137.426608,27.4943025 136.882343,27.4729171 C135.395625,27.4143539 134.201288,26.7022741 133.120028,25.8073764 C131.451465,24.4266457 130.472666,22.6413466 129.859171,20.6525022 C129.849478,20.6209176 129.853748,20.5854945 129.849825,20.5276991 C131.594079,21.2533778 133.432949,21.717277 135.050166,22.6712862 C136.121272,23.3031981 137.026111,24.0783374 137.510953,25.2226221 C137.752682,25.7930098 137.862066,26.3880729 137.83322,26.9962963 C137.821335,27.2465606 137.886296,27.3924201 138.11441,27.4946315 C138.229793,27.5463952 138.335254,27.6182283 138.504291,27.7146272 C138.357408,27.2098215 138.232332,26.7576569 138.094218,26.309221 C137.370762,23.9591274 136.4515,21.6807573 135.327317,19.4770716 C135.254049,19.3334054 135.181703,19.2240656 134.992359,19.2293297 C134.931321,19.2309747 134.861168,19.2083829 134.808783,19.176579 C134.372056,18.9118384 133.94006,18.9604217 133.456256,19.093121 C132.176998,19.4439516 130.949662,19.1685731 129.772287,18.6707863 C127.947379,17.899266 126.668351,16.5684346 125.664513,14.9681469 C125.64686,14.9400717 125.64109,14.905197 125.613514,14.8280998 C125.958165,14.8500335 126.273854,14.8645098 126.588506,14.89094 C127.818265,14.9943577 129.055524,15.0506178 130.274783,15.2221399 C131.38235,15.3779793 132.400265,15.7902245 133.207951,16.5798402 C133.731908,17.092213 134.080712,17.6904565 134.198404,18.3928854 C134.238442,18.6320732 134.327634,18.7535862 134.571208,18.7949314 C134.7039,18.8174135 134.831283,18.8674225 135.021205,18.9224763 C134.957051,18.7906543 134.920475,18.7078543 134.877437,18.6281251 C133.7506,16.5409077 132.448841,14.5584241 130.954854,12.6898864 C130.855162,12.5650833 130.759048,12.4919341 130.591742,12.518474 C130.538088,12.5269185 130.474858,12.53306 130.426974,12.5144163 C129.933247,12.3226054 129.53252,12.53306 129.087946,12.7209227 C127.454575,13.4111784 125.811627,13.273544 124.203641,12.6268268 C122.953228,12.1239952 121.951698,11.3044399 121.12509,10.2873711 C121.086667,10.2401038 121.053667,10.1888885 120.997014,10.1103656 C121.556855,10.0216435 122.086351,9.92579295 122.619539,9.85604356 C123.459185,9.74626505 124.298717,9.60490192 125.142864,9.56542114 C126.57316,9.49841348 127.900418,9.82489761 128.952255,10.8073111 C129.265753,11.1001269 129.504135,11.4864902 129.69798,11.8662734 C129.819248,12.1039258 129.955055,12.1978023 130.205091,12.2024084 C130.305129,12.2042728 130.405166,12.2140333 130.542934,12.2225875 C130.487896,12.1436259 130.45432,12.0863788 130.411858,12.0358214 C129.259176,10.6621095 128.008878,9.37415868 126.644236,8.18819984 C126.413353,7.98750586 126.166201,7.80249453 125.915819,7.62384399 C125.841858,7.57109328 125.731897,7.5438954 125.637052,7.54027633 C123.447647,7.45791503 121.759584,6.46979878 120.408095,4.90109569 C119.495757,3.84213337 118.889185,2.62809931 118.523534,1.30538343 C118.504842,1.23793709 118.500227,1.16687168 118.48915,1.09756098 L118.599918,1.09756098 Z" id="Fill-4" transform="translate(130.975610, 37.639059) rotate(4.000000) translate(-130.975610, -37.639059) "></path>
                </g>
                <g id="Text" transform="translate(34.390244, 8.780488)">
                    <path d="M23.6268293,16.3595122 L25.9492683,16.3595122 C26.1736597,16.3595122 26.3952428,16.3861583 26.6140244,16.4394512 C26.832806,16.4927442 27.027743,16.5796945 27.1988415,16.7003049 C27.3699399,16.8209152 27.50878,16.9765844 27.6153659,17.1673171 C27.7219518,17.3580497 27.7752439,17.5880474 27.7752439,17.8573171 C27.7752439,18.1939041 27.679879,18.4715843 27.4891463,18.6903659 C27.2984137,18.9091474 27.048782,19.066219 26.7402439,19.1615854 L26.7402439,19.1784146 C27.1160994,19.2289027 27.4246329,19.3747549 27.6658537,19.6159756 C27.9070744,19.8571963 28.0276829,20.1797541 28.0276829,20.5836585 C28.0276829,20.909026 27.9631714,21.1824989 27.8341463,21.4040854 C27.7051213,21.6256718 27.5354279,21.8037798 27.325061,21.9384146 C27.1146941,22.0730495 26.873477,22.1698168 26.6014024,22.2287195 C26.3293279,22.2876222 26.0530502,22.3170732 25.772561,22.3170732 L23.6268293,22.3170732 L23.6268293,16.3595122 Z M24.6870732,18.7829268 L25.6295122,18.7829268 C25.9829286,18.7829268 26.2521942,18.7128056 26.4373171,18.572561 C26.6224399,18.4323164 26.715,18.233172 26.715,17.975122 C26.715,17.7058523 26.6196351,17.5151225 26.4289024,17.4029268 C26.2381698,17.2907311 25.9408557,17.2346341 25.5369512,17.2346341 L24.6870732,17.2346341 L24.6870732,18.7829268 Z M24.6870732,21.425122 L25.6379268,21.425122 C25.7725616,21.425122 25.9184138,21.415305 26.0754878,21.3956707 C26.2325618,21.3760365 26.3770115,21.3353662 26.5088415,21.2736585 C26.6406714,21.2119509 26.7500605,21.1221957 26.8370122,21.0043902 C26.9239638,20.8865848 26.967439,20.7295132 26.967439,20.5331707 C26.967439,20.2190228 26.8608547,20.0002445 26.6476829,19.8768293 C26.4345111,19.753414 26.1119534,19.6917073 25.68,19.6917073 L24.6870732,19.6917073 L24.6870732,21.425122 Z M31.8647561,19.8936585 C31.8647561,19.7646335 31.8465246,19.6412201 31.810061,19.5234146 C31.7735974,19.4056092 31.716098,19.3018297 31.637561,19.2120732 C31.559024,19.1223166 31.4594518,19.0507929 31.3388415,18.9975 C31.2182311,18.9442071 31.0765862,18.917561 30.9139024,18.917561 C30.6109741,18.917561 30.3543303,19.0087186 30.1439634,19.1910366 C29.9335965,19.3733546 29.8171952,19.6075595 29.7947561,19.8936585 L31.8647561,19.8936585 Z M32.8745122,20.3480488 L32.8745122,20.4826829 C32.8745122,20.5275612 32.8717073,20.5724388 32.8660976,20.6173171 L29.7947561,20.6173171 C29.8059757,20.7631715 29.8438411,20.8964018 29.9083537,21.0170122 C29.9728662,21.1376226 30.0584141,21.241402 30.165,21.3283537 C30.2715859,21.4153053 30.3921944,21.4840241 30.5268293,21.5345122 C30.6614641,21.5850003 30.8017066,21.6102439 30.947561,21.6102439 C31.2000013,21.6102439 31.4131699,21.5639639 31.5870732,21.4714024 C31.7609765,21.378841 31.9040238,21.2512203 32.0162195,21.0885366 L32.6893902,21.6270732 C32.2910956,22.1656124 31.7132965,22.434878 30.9559756,22.434878 C30.6418277,22.434878 30.3529281,22.3857932 30.0892683,22.287622 C29.8256084,22.1894507 29.5970132,22.0506107 29.4034756,21.8710976 C29.2099381,21.6915845 29.0584762,21.4714037 28.9490854,21.2105488 C28.8396946,20.9496938 28.785,20.6537821 28.785,20.3228049 C28.785,19.9974374 28.8396946,19.7015257 28.9490854,19.435061 C29.0584762,19.1685962 29.2085356,18.9414034 29.3992683,18.7534756 C29.590001,18.5655478 29.8157914,18.4196956 30.0766463,18.3159146 C30.3375013,18.2121336 30.6193887,18.1602439 30.9223171,18.1602439 C31.2028063,18.1602439 31.4622549,18.2065239 31.7006707,18.2990854 C31.9390866,18.3916468 32.145243,18.5290845 32.3191463,18.7114024 C32.4930496,18.8937204 32.6290849,19.1209133 32.7272561,19.3929878 C32.8254273,19.6650623 32.8745122,19.9834128 32.8745122,20.3480488 Z M36.0636585,19.355122 C35.973902,19.2373165 35.8504886,19.1349395 35.6934146,19.0479878 C35.5363407,18.9610362 35.3652448,18.917561 35.180122,18.917561 C35.0174382,18.917561 34.8687812,18.9512192 34.7341463,19.0185366 C34.5995115,19.085854 34.5321951,19.198048 34.5321951,19.355122 C34.5321951,19.5121959 34.6065236,19.6229875 34.7551829,19.6875 C34.9038422,19.7520125 35.1212181,19.8179265 35.4073171,19.8852439 C35.5587812,19.9189026 35.7116456,19.9637802 35.8659146,20.019878 C36.0201837,20.0759759 36.1604262,20.1503044 36.2866463,20.2428659 C36.4128665,20.3354273 36.5152435,20.4504261 36.5937805,20.5878659 C36.6723175,20.7253056 36.7115854,20.8921941 36.7115854,21.0885366 C36.7115854,21.3353671 36.6653053,21.5443284 36.5727439,21.7154268 C36.4801825,21.8865252 36.3567691,22.0253653 36.2025,22.1319512 C36.0482309,22.2385371 35.8687205,22.3156705 35.6639634,22.3633537 C35.4592063,22.4110368 35.2474401,22.434878 35.0286585,22.434878 C34.7145106,22.434878 34.408782,22.3773786 34.1114634,22.262378 C33.8141449,22.1473775 33.5673181,21.9832937 33.3709756,21.770122 L34.0357317,21.147439 C34.1479274,21.2932934 34.2937796,21.413902 34.4732927,21.5092683 C34.6528058,21.6046346 34.8519501,21.6523171 35.0707317,21.6523171 C35.1436589,21.6523171 35.2179874,21.6439025 35.2937195,21.6270732 C35.3694516,21.6102438 35.4395728,21.5835977 35.5040854,21.5471341 C35.5685979,21.5106705 35.6204876,21.4615857 35.6597561,21.399878 C35.6990246,21.3381704 35.7186585,21.2624395 35.7186585,21.1726829 C35.7186585,21.0043894 35.6415252,20.8837809 35.4872561,20.8108537 C35.332987,20.7379265 35.1015869,20.6650004 34.7930488,20.5920732 C34.6415846,20.5584145 34.49433,20.5149393 34.3512805,20.4616463 C34.208231,20.4083534 34.0806103,20.3382321 33.9684146,20.2512805 C33.856219,20.1643288 33.7664638,20.0563421 33.6991463,19.9273171 C33.6318289,19.798292 33.5981707,19.6384156 33.5981707,19.4476829 C33.5981707,19.2232916 33.6444508,19.0297569 33.7370122,18.8670732 C33.8295736,18.7043894 33.9515846,18.5711591 34.1030488,18.467378 C34.254513,18.363597 34.4256088,18.2864637 34.6163415,18.2359756 C34.8070741,18.1854876 35.0034136,18.1602439 35.2053659,18.1602439 C35.4970746,18.1602439 35.7817669,18.2107312 36.0594512,18.3117073 C36.3371355,18.4126834 36.5573163,18.5669502 36.72,18.7745122 L36.0636585,19.355122 Z M37.0060976,19.0858537 L37.0060976,18.2780488 L37.7129268,18.2780488 L37.7129268,17.1084146 L38.7058537,17.1084146 L38.7058537,18.2780488 L39.7156098,18.2780488 L39.7156098,19.0858537 L38.7058537,19.0858537 L38.7058537,20.9623171 C38.7058537,21.1418302 38.7381094,21.2904872 38.802622,21.4082927 C38.8671345,21.5260982 39.0115842,21.585 39.2359756,21.585 C39.303293,21.585 39.3762191,21.5779879 39.4547561,21.5639634 C39.5332931,21.549939 39.6034143,21.5289026 39.665122,21.5008537 L39.6987805,22.2918293 C39.6090239,22.325488 39.5024396,22.352134 39.3790244,22.3717683 C39.2556091,22.3914025 39.1378054,22.4012195 39.0256098,22.4012195 C38.7563401,22.4012195 38.5375618,22.363354 38.3692683,22.287622 C38.2009748,22.2118899 38.0677444,22.1081104 37.9695732,21.9762805 C37.8714019,21.8444506 37.8040855,21.6929887 37.767622,21.5218902 C37.7311584,21.3507918 37.7129268,21.1670742 37.7129268,20.9707317 L37.7129268,19.0858537 L37.0060976,19.0858537 Z M42.6018293,16.3595122 L46.4473171,16.3595122 L46.4473171,17.285122 L43.6620732,17.285122 L43.6620732,18.917561 L46.287439,18.917561 L46.287439,19.8095122 L43.6620732,19.8095122 L43.6620732,22.3170732 L42.6018293,22.3170732 L42.6018293,16.3595122 Z M47.2382927,18.2780488 L48.2480488,18.2780488 L48.2480488,22.3170732 L47.2382927,22.3170732 L47.2382927,18.2780488 Z M47.0952439,16.9064634 C47.0952439,16.7437797 47.1555482,16.6021347 47.2761585,16.4815244 C47.3967689,16.360914 47.5496332,16.3006098 47.7347561,16.3006098 C47.919879,16.3006098 48.0755481,16.3581092 48.2017683,16.4731098 C48.3279884,16.5881103 48.3910976,16.7325601 48.3910976,16.9064634 C48.3910976,17.0803667 48.3279884,17.2248165 48.2017683,17.3398171 C48.0755481,17.4548176 47.919879,17.5123171 47.7347561,17.5123171 C47.5496332,17.5123171 47.3967689,17.4520128 47.2761585,17.3314024 C47.1555482,17.2107921 47.0952439,17.0691472 47.0952439,16.9064634 Z M49.4934146,15.9556098 L50.5031707,15.9556098 L50.5031707,22.3170732 L49.4934146,22.3170732 L49.4934146,15.9556098 Z M56.5532927,18.1602439 C56.8169525,18.1602439 57.042743,18.2065239 57.2306707,18.2990854 C57.4185985,18.3916468 57.5728653,18.5136578 57.6934756,18.665122 C57.814086,18.8165861 57.9024387,18.9904868 57.9585366,19.1868293 C58.0146344,19.3831717 58.0426829,19.5851209 58.0426829,19.7926829 L58.0426829,22.3170732 L57.0329268,22.3170732 L57.0329268,20.0787805 C57.0329268,19.960975 57.0245123,19.8375616 57.0076829,19.7085366 C56.9908536,19.5795116 56.9543905,19.4631103 56.8982927,19.3593293 C56.8421948,19.2555483 56.7650615,19.1700003 56.6668902,19.1026829 C56.568719,19.0353655 56.4382935,19.0017073 56.2756098,19.0017073 C56.1185358,19.0017073 55.983903,19.0353655 55.8717073,19.1026829 C55.7595116,19.1700003 55.6669516,19.2569507 55.5940244,19.3635366 C55.5210972,19.4701225 55.467805,19.5893286 55.4341463,19.7211585 C55.4004876,19.8529885 55.3836585,19.983414 55.3836585,20.112439 L55.3836585,22.3170732 L54.3739024,22.3170732 L54.3739024,19.8768293 C54.3739024,19.624389 54.3135982,19.4154277 54.1929878,19.249939 C54.0723774,19.0844504 53.8830501,19.0017073 53.625,19.0017073 C53.4735358,19.0017073 53.3417079,19.0339631 53.2295122,19.0984756 C53.1173165,19.1629881 53.0261589,19.2457312 52.9560366,19.3467073 C52.8859143,19.4476834 52.8326221,19.5640847 52.7961585,19.6959146 C52.7596949,19.8277446 52.7414634,19.9609749 52.7414634,20.0956098 L52.7414634,22.3170732 L51.7317073,22.3170732 L51.7317073,18.2780488 L52.6909756,18.2780488 L52.6909756,18.9259756 L52.7078049,18.9259756 C52.7526832,18.8249995 52.8129874,18.7296346 52.8887195,18.639878 C52.9644516,18.5501215 53.0542068,18.4687809 53.1579878,18.3958537 C53.2617688,18.3229265 53.3809749,18.265427 53.5156098,18.2233537 C53.6502446,18.1812803 53.7989016,18.1602439 53.9615854,18.1602439 C54.2757333,18.1602439 54.5365843,18.2303652 54.7441463,18.3706098 C54.9517084,18.5108544 55.1115848,18.6959745 55.2237805,18.9259756 C55.3584153,18.6791451 55.5379257,18.4898177 55.7623171,18.3579878 C55.9867084,18.2261579 56.2503643,18.1602439 56.5532927,18.1602439 Z M12.0146341,27.7009756 L12.9318293,27.7009756 L15.4982927,33.6585366 L14.2865854,33.6585366 L13.7312195,32.2953659 L11.1479268,32.2953659 L10.6093902,33.6585366 L9.42292683,33.6585366 L12.0146341,27.7009756 Z M13.3609756,31.3865854 L12.4437805,28.9631707 L11.5097561,31.3865854 L13.3609756,31.3865854 Z M15.4141463,29.6195122 L16.5080488,29.6195122 L17.3495122,32.5141463 L17.3663415,32.5141463 L18.2330488,29.6195122 L19.310122,29.6195122 L20.1852439,32.5141463 L20.2020732,32.5141463 L21.0603659,29.6195122 L22.1121951,29.6195122 L20.7153659,33.6585366 L19.6887805,33.6585366 L18.7715854,30.8312195 L18.7547561,30.8312195 L17.8459756,33.6585366 L16.8193902,33.6585366 L15.4141463,29.6195122 Z M25.2592683,33.1452439 L25.2340244,33.1452439 C25.1330483,33.324757 24.970367,33.4720116 24.7459756,33.5870122 C24.5215842,33.7020128 24.2663429,33.7595122 23.9802439,33.7595122 C23.8175602,33.7595122 23.6478667,33.7384758 23.4711585,33.6964024 C23.2944503,33.6543291 23.131769,33.5842078 22.9831098,33.4860366 C22.8344505,33.3878654 22.7110371,33.2588423 22.6128659,33.0989634 C22.5146946,32.9390846 22.4656098,32.7413426 22.4656098,32.5057317 C22.4656098,32.2028034 22.5511577,31.9615863 22.7222561,31.7820732 C22.8933545,31.6025601 23.1135352,31.4651224 23.3828049,31.3697561 C23.6520745,31.2743898 23.950791,31.2112806 24.2789634,31.1804268 C24.6071358,31.149573 24.9282911,31.1341463 25.242439,31.1341463 L25.242439,31.0331707 C25.242439,30.7807304 25.1512814,30.5942079 24.9689634,30.4735976 C24.7866454,30.3529872 24.5692696,30.2926829 24.3168293,30.2926829 C24.1036575,30.2926829 23.8989034,30.3375605 23.702561,30.4273171 C23.5062185,30.5170736 23.3435372,30.6264628 23.2145122,30.7554878 L22.6928049,30.1412195 C22.922806,29.9280477 23.1878644,29.7681713 23.4879878,29.6615854 C23.7881113,29.5549995 24.0924375,29.5017073 24.4009756,29.5017073 C24.7600018,29.5017073 25.0559135,29.5521946 25.2887195,29.6531707 C25.5215256,29.7541468 25.7052432,29.8859748 25.839878,30.0486585 C25.9745129,30.2113423 26.0684753,30.3936575 26.1217683,30.5956098 C26.1750612,30.797562 26.2017073,30.9995112 26.2017073,31.2014634 L26.2017073,33.6585366 L25.2592683,33.6585366 L25.2592683,33.1452439 Z M25.242439,31.8157317 L25.0152439,31.8157317 C24.8525602,31.8157317 24.6814643,31.8227438 24.5019512,31.8367683 C24.3224381,31.8507928 24.156952,31.8816461 24.0054878,31.9293293 C23.8540236,31.9770124 23.7278054,32.0443288 23.6268293,32.1312805 C23.5258532,32.2182321 23.4753659,32.3374383 23.4753659,32.4889024 C23.4753659,32.5842688 23.4964022,32.664207 23.5384756,32.7287195 C23.580549,32.793232 23.6352436,32.8451218 23.702561,32.8843902 C23.7698784,32.9236587 23.8456093,32.9517072 23.9297561,32.9685366 C24.0139029,32.9853659 24.0980484,32.9937805 24.1821951,32.9937805 C24.5300017,32.9937805 24.7936576,32.9012204 24.9731707,32.7160976 C25.1526838,32.5309747 25.242439,32.2785382 25.242439,31.9587805 L25.242439,31.8157317 Z M27.3797561,29.6195122 L28.347439,29.6195122 L28.347439,30.2926829 L28.3642683,30.2926829 C28.476464,30.057072 28.6335356,29.8663422 28.8354878,29.7204878 C29.03744,29.5746334 29.2730474,29.5017073 29.5423171,29.5017073 C29.5815856,29.5017073 29.6236583,29.5031097 29.6685366,29.5059146 C29.7134149,29.5087195 29.7526828,29.5157317 29.7863415,29.5269512 L29.7863415,30.452561 C29.7190241,30.4357316 29.6615246,30.4245122 29.6138415,30.4189024 C29.5661583,30.4132927 29.5198783,30.4104878 29.475,30.4104878 C29.2449988,30.4104878 29.0598787,30.4525606 28.9196341,30.5367073 C28.7793895,30.6208541 28.6700004,30.7218287 28.5914634,30.8396341 C28.5129264,30.9574396 28.4596343,31.0780482 28.4315854,31.2014634 C28.4035364,31.3248787 28.3895122,31.4230484 28.3895122,31.4959756 L28.3895122,33.6585366 L27.3797561,33.6585366 L27.3797561,29.6195122 Z M34.397561,33.6585366 L33.4382927,33.6585366 L33.4382927,33.0526829 L33.4214634,33.0526829 C33.2812188,33.2882939 33.0862817,33.4678043 32.8366463,33.5912195 C32.5870109,33.7146348 32.3191478,33.7763415 32.0330488,33.7763415 C31.7245107,33.7763415 31.4482329,33.718842 31.2042073,33.6038415 C30.9601817,33.4888409 30.7526228,33.3345741 30.5815244,33.1410366 C30.410426,32.947499 30.278598,32.7203062 30.1860366,32.4594512 C30.0934751,32.1985963 30.0471951,31.9195137 30.0471951,31.6221951 C30.0471951,31.3248766 30.0948776,31.0471964 30.1902439,30.7891463 C30.2856102,30.5310963 30.420243,30.3067083 30.5941463,30.1159756 C30.7680496,29.9252429 30.9756085,29.7751835 31.2168293,29.6657927 C31.45805,29.5564019 31.7217059,29.5017073 32.0078049,29.5017073 C32.1929278,29.5017073 32.3584139,29.5227437 32.5042683,29.5648171 C32.6501227,29.6068905 32.7777434,29.6587802 32.8871341,29.7204878 C32.9965249,29.7821954 33.0904874,29.8495118 33.1690244,29.922439 C33.2475614,29.9953662 33.3120729,30.0654875 33.362561,30.1328049 L33.3878049,30.1328049 L33.3878049,27.2970732 L34.397561,27.2970732 L34.397561,33.6585366 Z M31.0737805,31.6221951 C31.0737805,31.7792691 31.0976217,31.9363407 31.1453049,32.0934146 C31.192988,32.2504886 31.2645117,32.3907311 31.359878,32.5141463 C31.4552444,32.6375616 31.5758529,32.7385362 31.7217073,32.8170732 C31.8675617,32.8956101 32.0386576,32.934878 32.235,32.934878 C32.4201229,32.934878 32.585609,32.8970126 32.7314634,32.8212805 C32.8773178,32.7455484 33.0021336,32.6459762 33.1059146,32.522561 C33.2096956,32.3991457 33.2882314,32.2603056 33.3415244,32.1060366 C33.3948173,31.9517675 33.4214634,31.7960983 33.4214634,31.6390244 C33.4214634,31.4819504 33.3948173,31.3248788 33.3415244,31.1678049 C33.2882314,31.0107309 33.2096956,30.8704884 33.1059146,30.7470732 C33.0021336,30.6236579 32.8773178,30.5226833 32.7314634,30.4441463 C32.585609,30.3656094 32.4201229,30.3263415 32.235,30.3263415 C32.0386576,30.3263415 31.8675617,30.3642069 31.7217073,30.439939 C31.5758529,30.5156711 31.4552444,30.6152433 31.359878,30.7386585 C31.2645117,30.8620738 31.192988,31.0009139 31.1453049,31.1551829 C31.0976217,31.309452 31.0737805,31.4651212 31.0737805,31.6221951 Z M37.8391463,30.6965854 C37.7493898,30.5787799 37.6259764,30.4764029 37.4689024,30.3894512 C37.3118285,30.3024996 37.1407326,30.2590244 36.9556098,30.2590244 C36.792926,30.2590244 36.644269,30.2926826 36.5096341,30.36 C36.3749993,30.4273174 36.3076829,30.5395114 36.3076829,30.6965854 C36.3076829,30.8536593 36.3820115,30.9644509 36.5306707,31.0289634 C36.67933,31.0934759 36.8967059,31.1593899 37.1828049,31.2267073 C37.334269,31.260366 37.4871334,31.3052436 37.6414024,31.3613415 C37.7956715,31.4174393 37.935914,31.4917678 38.0621341,31.5843293 C38.1883543,31.6768907 38.2907313,31.7918896 38.3692683,31.9293293 C38.4478053,32.066769 38.4870732,32.2336576 38.4870732,32.43 C38.4870732,32.6768305 38.4407931,32.8857918 38.3482317,33.0568902 C38.2556703,33.2279887 38.1322569,33.3668287 37.9779878,33.4734146 C37.8237187,33.5800005 37.6442083,33.6571339 37.4394512,33.7048171 C37.2346941,33.7525002 37.0229279,33.7763415 36.8041463,33.7763415 C36.4899984,33.7763415 36.1842698,33.718842 35.8869512,33.6038415 C35.5896327,33.4888409 35.3428059,33.3247572 35.1464634,33.1115854 L35.8112195,32.4889024 C35.9234152,32.6347568 36.0692674,32.7553654 36.2487805,32.8507317 C36.4282936,32.946098 36.6274379,32.9937805 36.8462195,32.9937805 C36.9191467,32.9937805 36.9934752,32.9853659 37.0692073,32.9685366 C37.1449394,32.9517072 37.2150607,32.9250612 37.2795732,32.8885976 C37.3440857,32.852134 37.3959754,32.8030491 37.4352439,32.7413415 C37.4745124,32.6796338 37.4941463,32.6039029 37.4941463,32.5141463 C37.4941463,32.3458528 37.417013,32.2252443 37.2627439,32.1523171 C37.1084748,32.0793899 36.8770747,32.0064638 36.5685366,31.9335366 C36.4170724,31.8998779 36.2698178,31.8564027 36.1267683,31.8031098 C35.9837188,31.7498168 35.8560981,31.6796956 35.7439024,31.5927439 C35.6317068,31.5057922 35.5419516,31.3978055 35.4746341,31.2687805 C35.4073167,31.1397555 35.3736585,30.979879 35.3736585,30.7891463 C35.3736585,30.564755 35.4199386,30.3712203 35.5125,30.2085366 C35.6050614,30.0458528 35.7270724,29.9126225 35.8785366,29.8088415 C36.0300008,29.7050605 36.2010966,29.6279271 36.3918293,29.577439 C36.5825619,29.526951 36.7789014,29.5017073 36.9808537,29.5017073 C37.2725624,29.5017073 37.5572547,29.5521946 37.834939,29.6531707 C38.1126233,29.7541468 38.3328041,29.9084136 38.4954878,30.1159756 L37.8391463,30.6965854 Z M41.5163415,27.7009756 L45.3618293,27.7009756 L45.3618293,28.6265854 L42.5765854,28.6265854 L42.5765854,30.2590244 L45.2019512,30.2590244 L45.2019512,31.1509756 L42.5765854,31.1509756 L42.5765854,33.6585366 L41.5163415,33.6585366 L41.5163415,27.7009756 Z M48.7276829,31.235122 C48.7276829,31.1060969 48.7094514,30.9826835 48.6729878,30.864878 C48.6365242,30.7470726 48.5790248,30.6432931 48.5004878,30.5535366 C48.4219508,30.46378 48.3223787,30.3922564 48.2017683,30.3389634 C48.0811579,30.2856705 47.939513,30.2590244 47.7768293,30.2590244 C47.4739009,30.2590244 47.2172571,30.350182 47.0068902,30.5325 C46.7965233,30.714818 46.6801221,30.949023 46.6576829,31.235122 L48.7276829,31.235122 Z M49.737439,31.6895122 L49.737439,31.8241463 C49.737439,31.8690246 49.7346342,31.9139022 49.7290244,31.9587805 L46.6576829,31.9587805 C46.6689025,32.1046349 46.706768,32.2378653 46.7712805,32.3584756 C46.835793,32.479086 46.9213409,32.5828654 47.0279268,32.6698171 C47.1345127,32.7567687 47.2551213,32.8254876 47.3897561,32.8759756 C47.5243909,32.9264637 47.6646334,32.9517073 47.8104878,32.9517073 C48.0629281,32.9517073 48.2760967,32.9054273 48.45,32.8128659 C48.6239033,32.7203044 48.7669507,32.5926837 48.8791463,32.43 L49.5523171,32.9685366 C49.1540224,33.5070759 48.5762233,33.7763415 47.8189024,33.7763415 C47.5047545,33.7763415 47.215855,33.7272566 46.9521951,33.6290854 C46.6885353,33.5309141 46.45994,33.3920741 46.2664024,33.212561 C46.0728649,33.0330479 45.921403,32.8128672 45.8120122,32.5520122 C45.7026214,32.2911572 45.6479268,31.9952456 45.6479268,31.6642683 C45.6479268,31.3389008 45.7026214,31.0429891 45.8120122,30.7765244 C45.921403,30.5100596 46.0714625,30.2828668 46.2621951,30.094939 C46.4529278,29.9070113 46.6787182,29.7611591 46.9395732,29.657378 C47.2004281,29.553597 47.4823156,29.5017073 47.7852439,29.5017073 C48.0657331,29.5017073 48.3251817,29.5479873 48.5635976,29.6405488 C48.8020134,29.7331102 49.0081699,29.8705479 49.1820732,30.0528659 C49.3559765,30.2351838 49.4920117,30.4623767 49.5901829,30.7344512 C49.6883541,31.0065258 49.737439,31.3248762 49.737439,31.6895122 Z M52.9265854,30.6965854 C52.8368288,30.5787799 52.7134154,30.4764029 52.5563415,30.3894512 C52.3992675,30.3024996 52.2281717,30.2590244 52.0430488,30.2590244 C51.880365,30.2590244 51.731708,30.2926826 51.5970732,30.36 C51.4624384,30.4273174 51.395122,30.5395114 51.395122,30.6965854 C51.395122,30.8536593 51.4694505,30.9644509 51.6181098,31.0289634 C51.766769,31.0934759 51.9841449,31.1593899 52.2702439,31.2267073 C52.4217081,31.260366 52.5745724,31.3052436 52.7288415,31.3613415 C52.8831105,31.4174393 53.023353,31.4917678 53.1495732,31.5843293 C53.2757933,31.6768907 53.3781703,31.7918896 53.4567073,31.9293293 C53.5352443,32.066769 53.5745122,32.2336576 53.5745122,32.43 C53.5745122,32.6768305 53.5282322,32.8857918 53.4356707,33.0568902 C53.3431093,33.2279887 53.2196959,33.3668287 53.0654268,33.4734146 C52.9111578,33.5800005 52.7316474,33.6571339 52.5268902,33.7048171 C52.3221331,33.7525002 52.1103669,33.7763415 51.8915854,33.7763415 C51.5774375,33.7763415 51.2717088,33.718842 50.9743902,33.6038415 C50.6770717,33.4888409 50.4302449,33.3247572 50.2339024,33.1115854 L50.8986585,32.4889024 C51.0108542,32.6347568 51.1567064,32.7553654 51.3362195,32.8507317 C51.5157326,32.946098 51.714877,32.9937805 51.9336585,32.9937805 C52.0065857,32.9937805 52.0809143,32.9853659 52.1566463,32.9685366 C52.2323784,32.9517072 52.3024997,32.9250612 52.3670122,32.8885976 C52.4315247,32.852134 52.4834144,32.8030491 52.5226829,32.7413415 C52.5619514,32.6796338 52.5815854,32.6039029 52.5815854,32.5141463 C52.5815854,32.3458528 52.504452,32.2252443 52.3501829,32.1523171 C52.1959139,32.0793899 51.9645137,32.0064638 51.6559756,31.9335366 C51.5045114,31.8998779 51.3572568,31.8564027 51.2142073,31.8031098 C51.0711578,31.7498168 50.9435371,31.6796956 50.8313415,31.5927439 C50.7191458,31.5057922 50.6293906,31.3978055 50.5620732,31.2687805 C50.4947558,31.1397555 50.4610976,30.979879 50.4610976,30.7891463 C50.4610976,30.564755 50.5073776,30.3712203 50.599939,30.2085366 C50.6925005,30.0458528 50.8145114,29.9126225 50.9659756,29.8088415 C51.1174398,29.7050605 51.2885356,29.6279271 51.4792683,29.577439 C51.670001,29.526951 51.8663405,29.5017073 52.0682927,29.5017073 C52.3600015,29.5017073 52.6446937,29.5521946 52.922378,29.6531707 C53.2000624,29.7541468 53.4202431,29.9084136 53.5829268,30.1159756 L52.9265854,30.6965854 Z M53.8690244,30.4273171 L53.8690244,29.6195122 L54.5758537,29.6195122 L54.5758537,28.449878 L55.5687805,28.449878 L55.5687805,29.6195122 L56.5785366,29.6195122 L56.5785366,30.4273171 L55.5687805,30.4273171 L55.5687805,32.3037805 C55.5687805,32.4832936 55.6010363,32.6319506 55.6655488,32.7497561 C55.7300613,32.8675616 55.8745111,32.9264634 56.0989024,32.9264634 C56.1662198,32.9264634 56.2391459,32.9194513 56.3176829,32.9054268 C56.3962199,32.8914024 56.4663412,32.870366 56.5280488,32.8423171 L56.5617073,33.6332927 C56.4719508,33.6669514 56.3653665,33.6935975 56.2419512,33.7132317 C56.118536,33.732866 56.0007323,33.7426829 55.8885366,33.7426829 C55.6192669,33.7426829 55.4004886,33.7048175 55.2321951,33.6290854 C55.0639016,33.5533533 54.9306712,33.4495738 54.8325,33.3177439 C54.7343288,33.185914 54.6670124,33.0344521 54.6305488,32.8633537 C54.5940852,32.6922552 54.5758537,32.5085376 54.5758537,32.3121951 L54.5758537,30.4273171 L53.8690244,30.4273171 Z M57.327439,29.6195122 L58.3371951,29.6195122 L58.3371951,33.6585366 L57.327439,33.6585366 L57.327439,29.6195122 Z M57.1843902,28.2479268 C57.1843902,28.0852431 57.2446945,27.9435982 57.3653049,27.8229878 C57.4859152,27.7023774 57.6387796,27.6420732 57.8239024,27.6420732 C58.0090253,27.6420732 58.1646945,27.6995726 58.2909146,27.8145732 C58.4171348,27.9295737 58.4802439,28.0740235 58.4802439,28.2479268 C58.4802439,28.4218301 58.4171348,28.5662799 58.2909146,28.6812805 C58.1646945,28.7962811 58.0090253,28.8537805 57.8239024,28.8537805 C57.6387796,28.8537805 57.4859152,28.7934762 57.3653049,28.6728659 C57.2446945,28.5522555 57.1843902,28.4106106 57.1843902,28.2479268 Z M58.959878,29.6195122 L60.0621951,29.6195122 L61.122439,32.5646341 L61.1392683,32.5646341 L62.2079268,29.6195122 L63.2765854,29.6195122 L61.6693902,33.6585366 L60.5923171,33.6585366 L58.959878,29.6195122 Z M66.39,33.1452439 L66.3647561,33.1452439 C66.26378,33.324757 66.1010987,33.4720116 65.8767073,33.5870122 C65.652316,33.7020128 65.3970746,33.7595122 65.1109756,33.7595122 C64.9482919,33.7595122 64.7785984,33.7384758 64.6018902,33.6964024 C64.425182,33.6543291 64.2625007,33.5842078 64.1138415,33.4860366 C63.9651822,33.3878654 63.8417688,33.2588423 63.7435976,33.0989634 C63.6454263,32.9390846 63.5963415,32.7413426 63.5963415,32.5057317 C63.5963415,32.2028034 63.6818894,31.9615863 63.8529878,31.7820732 C64.0240862,31.6025601 64.2442669,31.4651224 64.5135366,31.3697561 C64.7828062,31.2743898 65.0815227,31.2112806 65.4096951,31.1804268 C65.7378675,31.149573 66.0590228,31.1341463 66.3731707,31.1341463 L66.3731707,31.0331707 C66.3731707,30.7807304 66.2820131,30.5942079 66.0996951,30.4735976 C65.9173771,30.3529872 65.7000013,30.2926829 65.447561,30.2926829 C65.2343892,30.2926829 65.0296351,30.3375605 64.8332927,30.4273171 C64.6369502,30.5170736 64.4742689,30.6264628 64.3452439,30.7554878 L63.8235366,30.1412195 C64.0535377,29.9280477 64.3185961,29.7681713 64.6187195,29.6615854 C64.918843,29.5549995 65.2231692,29.5017073 65.5317073,29.5017073 C65.8907335,29.5017073 66.1866452,29.5521946 66.4194512,29.6531707 C66.6522573,29.7541468 66.8359749,29.8859748 66.9706098,30.0486585 C67.1052446,30.2113423 67.1992071,30.3936575 67.2525,30.5956098 C67.3057929,30.797562 67.332439,30.9995112 67.332439,31.2014634 L67.332439,33.6585366 L66.39,33.6585366 L66.39,33.1452439 Z M66.3731707,31.8157317 L66.1459756,31.8157317 C65.9832919,31.8157317 65.812196,31.8227438 65.6326829,31.8367683 C65.4531698,31.8507928 65.2876837,31.8816461 65.1362195,31.9293293 C64.9847553,31.9770124 64.8585371,32.0443288 64.757561,32.1312805 C64.6565849,32.2182321 64.6060976,32.3374383 64.6060976,32.4889024 C64.6060976,32.5842688 64.6271339,32.664207 64.6692073,32.7287195 C64.7112807,32.793232 64.7659753,32.8451218 64.8332927,32.8843902 C64.9006101,32.9236587 64.976341,32.9517072 65.0604878,32.9685366 C65.1446346,32.9853659 65.2287801,32.9937805 65.3129268,32.9937805 C65.6607334,32.9937805 65.9243893,32.9012204 66.1039024,32.7160976 C66.2834155,32.5309747 66.3731707,32.2785382 66.3731707,31.9587805 L66.3731707,31.8157317 Z M68.5273171,27.2970732 L69.5370732,27.2970732 L69.5370732,33.6585366 L68.5273171,33.6585366 L68.5273171,27.2970732 Z M70.9507317,32.4973171 L71.9268293,32.4973171 L71.2115854,34.7187805 L70.3617073,34.7187805 L70.9507317,32.4973171 Z M24.3378659,39.042439 L26.4078659,39.042439 C26.6883551,39.042439 26.9604255,39.0718899 27.2240854,39.1307927 C27.4877452,39.1896954 27.7219502,39.2864627 27.9267073,39.4210976 C28.1314644,39.5557324 28.2955482,39.7324379 28.4189634,39.9512195 C28.5423787,40.1700011 28.6040854,40.4364618 28.6040854,40.7506098 C28.6040854,41.1825631 28.4820744,41.5345718 28.2380488,41.8066463 C27.9940232,42.0787209 27.6616484,42.2624385 27.2409146,42.3578049 L28.8312805,45 L27.5522561,45 L26.1722561,42.4756098 L25.3981098,42.4756098 L25.3981098,45 L24.3378659,45 L24.3378659,39.042439 Z M26.2648171,41.6089024 C26.4162812,41.6089024 26.5677431,41.597683 26.7192073,41.5752439 C26.8706715,41.5528048 27.0067067,41.510732 27.1273171,41.4490244 C27.2479274,41.3873168 27.3474996,41.298964 27.4260366,41.1839634 C27.5045736,41.0689628 27.5438415,40.9217082 27.5438415,40.7421951 C27.5438415,40.5795114 27.5073784,40.446281 27.4344512,40.3425 C27.361524,40.238719 27.268964,40.1559759 27.1567683,40.0942683 C27.0445726,40.0325607 26.9169519,39.9904879 26.7739024,39.9680488 C26.6308529,39.9456096 26.4920129,39.9343902 26.357378,39.9343902 L25.3981098,39.9343902 L25.3981098,41.6089024 L26.2648171,41.6089024 Z M29.2435976,42.9636585 C29.2435976,42.6439008 29.301097,42.3535989 29.4160976,42.0927439 C29.5310981,41.8318889 29.6867673,41.6089034 29.8831098,41.4237805 C30.0794522,41.2386576 30.3122548,41.0956103 30.5815244,40.9946341 C30.850794,40.893658 31.1368887,40.8431707 31.4398171,40.8431707 C31.7427454,40.8431707 32.0288401,40.893658 32.2981098,40.9946341 C32.5673794,41.0956103 32.8001819,41.2386576 32.9965244,41.4237805 C33.1928668,41.6089034 33.348536,41.8318889 33.4635366,42.0927439 C33.5785372,42.3535989 33.6360366,42.6439008 33.6360366,42.9636585 C33.6360366,43.2834162 33.5785372,43.5751206 33.4635366,43.8387805 C33.348536,44.1024403 33.1928668,44.3282308 32.9965244,44.5161585 C32.8001819,44.7040863 32.5673794,44.8513409 32.2981098,44.9579268 C32.0288401,45.0645127 31.7427454,45.1178049 31.4398171,45.1178049 C31.1368887,45.1178049 30.850794,45.0645127 30.5815244,44.9579268 C30.3122548,44.8513409 30.0794522,44.7040863 29.8831098,44.5161585 C29.6867673,44.3282308 29.5310981,44.1024403 29.4160976,43.8387805 C29.301097,43.5751206 29.2435976,43.2834162 29.2435976,42.9636585 Z M30.2701829,42.9636585 C30.2701829,43.1207325 30.2940242,43.2778041 30.3417073,43.434878 C30.3893905,43.591952 30.4609142,43.7321945 30.5562805,43.8556098 C30.6516468,43.979025 30.7722554,44.0799996 30.9181098,44.1585366 C31.0639641,44.2370736 31.2378648,44.2763415 31.4398171,44.2763415 C31.6417693,44.2763415 31.81567,44.2370736 31.9615244,44.1585366 C32.1073788,44.0799996 32.2279873,43.979025 32.3233537,43.8556098 C32.41872,43.7321945 32.4902437,43.591952 32.5379268,43.434878 C32.58561,43.2778041 32.6094512,43.1207325 32.6094512,42.9636585 C32.6094512,42.8065846 32.58561,42.6509154 32.5379268,42.4966463 C32.4902437,42.3423773 32.41872,42.2035372 32.3233537,42.080122 C32.2279873,41.9567067 32.1073788,41.8571345 31.9615244,41.7814024 C31.81567,41.7056704 31.6417693,41.6678049 31.4398171,41.6678049 C31.2378648,41.6678049 31.0639641,41.7056704 30.9181098,41.7814024 C30.7722554,41.8571345 30.6516468,41.9567067 30.5562805,42.080122 C30.4609142,42.2035372 30.3893905,42.3423773 30.3417073,42.4966463 C30.2940242,42.6509154 30.2701829,42.8065846 30.2701829,42.9636585 Z M39.4337195,40.8431707 C39.6973794,40.8431707 39.9231698,40.8894508 40.1110976,40.9820122 C40.2990253,41.0745736 40.4532921,41.1965846 40.5739024,41.3480488 C40.6945128,41.499513 40.7828656,41.6734137 40.8389634,41.8697561 C40.8950613,42.0660985 40.9231098,42.2680477 40.9231098,42.4756098 L40.9231098,45 L39.9133537,45 L39.9133537,42.7617073 C39.9133537,42.6439019 39.9049391,42.5204885 39.8881098,42.3914634 C39.8712804,42.2624384 39.8348174,42.1460371 39.7787195,42.0422561 C39.7226217,41.9384751 39.6454883,41.8529272 39.5473171,41.7856098 C39.4491459,41.7182923 39.3187203,41.6846341 39.1560366,41.6846341 C38.9989626,41.6846341 38.8643298,41.7182923 38.7521341,41.7856098 C38.6399385,41.8529272 38.5473784,41.9398775 38.4744512,42.0464634 C38.401524,42.1530493 38.3482319,42.2722554 38.3145732,42.4040854 C38.2809145,42.5359153 38.2640854,42.6663408 38.2640854,42.7953659 L38.2640854,45 L37.2543293,45 L37.2543293,42.5597561 C37.2543293,42.3073158 37.194025,42.0983545 37.0734146,41.9328659 C36.9528043,41.7673772 36.7634769,41.6846341 36.5054268,41.6846341 C36.3539627,41.6846341 36.2221347,41.7168899 36.109939,41.7814024 C35.9977433,41.845915 35.9065857,41.928658 35.8364634,42.0296341 C35.7663411,42.1306103 35.713049,42.2470115 35.6765854,42.3788415 C35.6401218,42.5106714 35.6218902,42.6439018 35.6218902,42.7785366 L35.6218902,45 L34.6121341,45 L34.6121341,40.9609756 L35.5714024,40.9609756 L35.5714024,41.6089024 L35.5882317,41.6089024 C35.63311,41.5079263 35.6934143,41.4125614 35.7691463,41.3228049 C35.8448784,41.2330483 35.9346336,41.1517077 36.0384146,41.0787805 C36.1421956,41.0058533 36.2614018,40.9483539 36.3960366,40.9062805 C36.5306714,40.8642071 36.6793285,40.8431707 36.8420122,40.8431707 C37.1561601,40.8431707 37.4170112,40.913292 37.6245732,41.0535366 C37.8321352,41.1937812 37.9920116,41.3789013 38.1042073,41.6089024 C38.2388421,41.3620719 38.4183525,41.1727446 38.6427439,41.0409146 C38.8671353,40.9090847 39.1307912,40.8431707 39.4337195,40.8431707 Z M44.6087195,44.4867073 L44.5834756,44.4867073 C44.4824995,44.6662204 44.3198182,44.813475 44.0954268,44.9284756 C43.8710355,45.0434762 43.6157941,45.1009756 43.3296951,45.1009756 C43.1670114,45.1009756 42.997318,45.0799392 42.8206098,45.0378659 C42.6439016,44.9957925 42.4812203,44.9256712 42.332561,44.8275 C42.1839017,44.7293288 42.0604883,44.6003057 41.9623171,44.4404268 C41.8641459,44.280548 41.815061,44.0828061 41.815061,43.8471951 C41.815061,43.5442668 41.9006089,43.3030497 42.0717073,43.1235366 C42.2428057,42.9440235 42.4629865,42.8065858 42.7322561,42.7112195 C43.0015257,42.6158532 43.3002423,42.5527441 43.6284146,42.5218902 C43.956587,42.4910364 44.2777423,42.4756098 44.5918902,42.4756098 L44.5918902,42.3746341 C44.5918902,42.1221939 44.5007326,41.9356713 44.3184146,41.815061 C44.1360966,41.6944506 43.9187208,41.6341463 43.6662805,41.6341463 C43.4531087,41.6341463 43.2483546,41.6790239 43.0520122,41.7687805 C42.8556697,41.858537 42.6929884,41.9679262 42.5639634,42.0969512 L42.0422561,41.4826829 C42.2722572,41.2695111 42.5373156,41.1096347 42.837439,41.0030488 C43.1375625,40.8964629 43.4418887,40.8431707 43.7504268,40.8431707 C44.109453,40.8431707 44.4053647,40.893658 44.6381707,40.9946341 C44.8709768,41.0956103 45.0546944,41.2274382 45.1893293,41.390122 C45.3239641,41.5528057 45.4179266,41.7351209 45.4712195,41.9370732 C45.5245125,42.1390254 45.5511585,42.3409746 45.5511585,42.5429268 L45.5511585,45 L44.6087195,45 L44.6087195,44.4867073 Z M44.5918902,43.1571951 L44.3646951,43.1571951 C44.2020114,43.1571951 44.0309155,43.1642072 43.8514024,43.1782317 C43.6718893,43.1922562 43.5064032,43.2231095 43.354939,43.2707927 C43.2034749,43.3184758 43.0772566,43.3857922 42.9762805,43.4727439 C42.8753044,43.5596956 42.8248171,43.6789017 42.8248171,43.8303659 C42.8248171,43.9257322 42.8458534,44.0056704 42.8879268,44.0701829 C42.9300002,44.1346954 42.9846948,44.1865852 43.0520122,44.2258537 C43.1193296,44.2651221 43.1950606,44.2931706 43.2792073,44.31 C43.3633541,44.3268294 43.4474996,44.3352439 43.5316463,44.3352439 C43.879453,44.3352439 44.1431089,44.2426839 44.322622,44.057561 C44.502135,43.8724381 44.5918902,43.6200016 44.5918902,43.3002439 L44.5918902,43.1571951 Z M46.7292073,40.9609756 L47.6884756,40.9609756 L47.6884756,41.6089024 L47.7053049,41.6089024 C47.7950614,41.4069502 47.9507306,41.2288422 48.1723171,41.0745732 C48.3939035,40.9203041 48.656157,40.8431707 48.9590854,40.8431707 C49.2227452,40.8431707 49.4485356,40.8894508 49.6364634,40.9820122 C49.8243912,41.0745736 49.9786579,41.1965846 50.0992683,41.3480488 C50.2198787,41.499513 50.3082314,41.6734137 50.3643293,41.8697561 C50.4204271,42.0660985 50.4484756,42.2680477 50.4484756,42.4756098 L50.4484756,45 L49.4387195,45 L49.4387195,42.7617073 C49.4387195,42.6439019 49.430305,42.5204885 49.4134756,42.3914634 C49.3966463,42.2624384 49.3601832,42.1460371 49.3040854,42.0422561 C49.2479875,41.9384751 49.1708541,41.8529272 49.0726829,41.7856098 C48.9745117,41.7182923 48.8440862,41.6846341 48.6814024,41.6846341 C48.5187187,41.6846341 48.3784762,41.7168899 48.2606707,41.7814024 C48.1428653,41.845915 48.0460979,41.928658 47.9703659,42.0296341 C47.8946338,42.1306103 47.8371343,42.2470115 47.7978659,42.3788415 C47.7585974,42.5106714 47.7389634,42.6439018 47.7389634,42.7785366 L47.7389634,45 L46.7292073,45 L46.7292073,40.9609756 Z M51.6433537,40.9609756 L52.6531098,40.9609756 L52.6531098,45 L51.6433537,45 L51.6433537,40.9609756 Z M51.5003049,39.5893902 C51.5003049,39.4267065 51.5606092,39.2850616 51.6812195,39.1644512 C51.8018299,39.0438409 51.9546942,38.9835366 52.1398171,38.9835366 C52.3249399,38.9835366 52.4806091,39.041036 52.6068293,39.1560366 C52.7330494,39.2710372 52.7961585,39.4154869 52.7961585,39.5893902 C52.7961585,39.7632936 52.7330494,39.9077433 52.6068293,40.0227439 C52.4806091,40.1377445 52.3249399,40.1952439 52.1398171,40.1952439 C51.9546942,40.1952439 51.8018299,40.1349396 51.6812195,40.0143293 C51.5606092,39.8937189 51.5003049,39.752074 51.5003049,39.5893902 Z M56.3892073,44.4867073 L56.3639634,44.4867073 C56.2629873,44.6662204 56.100306,44.813475 55.8759146,44.9284756 C55.6515233,45.0434762 55.3962819,45.1009756 55.1101829,45.1009756 C54.9474992,45.1009756 54.7778058,45.0799392 54.6010976,45.0378659 C54.4243894,44.9957925 54.2617081,44.9256712 54.1130488,44.8275 C53.9643895,44.7293288 53.8409761,44.6003057 53.7428049,44.4404268 C53.6446337,44.280548 53.5955488,44.0828061 53.5955488,43.8471951 C53.5955488,43.5442668 53.6810967,43.3030497 53.8521951,43.1235366 C54.0232935,42.9440235 54.2434743,42.8065858 54.5127439,42.7112195 C54.7820135,42.6158532 55.0807301,42.5527441 55.4089024,42.5218902 C55.7370748,42.4910364 56.0582301,42.4756098 56.372378,42.4756098 L56.372378,42.3746341 C56.372378,42.1221939 56.2812204,41.9356713 56.0989024,41.815061 C55.9165845,41.6944506 55.6992086,41.6341463 55.4467683,41.6341463 C55.2335965,41.6341463 55.0288424,41.6790239 54.8325,41.7687805 C54.6361576,41.858537 54.4734763,41.9679262 54.3444512,42.0969512 L53.8227439,41.4826829 C54.0527451,41.2695111 54.3178034,41.1096347 54.6179268,41.0030488 C54.9180503,40.8964629 55.2223765,40.8431707 55.5309146,40.8431707 C55.8899408,40.8431707 56.1858525,40.893658 56.4186585,40.9946341 C56.6514646,41.0956103 56.8351823,41.2274382 56.9698171,41.390122 C57.1044519,41.5528057 57.1984144,41.7351209 57.2517073,41.9370732 C57.3050003,42.1390254 57.3316463,42.3409746 57.3316463,42.5429268 L57.3316463,45 L56.3892073,45 L56.3892073,44.4867073 Z M56.372378,43.1571951 L56.1451829,43.1571951 C55.9824992,43.1571951 55.8114033,43.1642072 55.6318902,43.1782317 C55.4523772,43.1922562 55.286891,43.2231095 55.1354268,43.2707927 C54.9839627,43.3184758 54.8577444,43.3857922 54.7567683,43.4727439 C54.6557922,43.5596956 54.6053049,43.6789017 54.6053049,43.8303659 C54.6053049,43.9257322 54.6263413,44.0056704 54.6684146,44.0701829 C54.710488,44.1346954 54.7651826,44.1865852 54.8325,44.2258537 C54.8998174,44.2651221 54.9755484,44.2931706 55.0596951,44.31 C55.1438419,44.3268294 55.2279874,44.3352439 55.3121341,44.3352439 C55.6599408,44.3352439 55.9235967,44.2426839 56.1031098,44.057561 C56.2826228,43.8724381 56.372378,43.6200016 56.372378,43.3002439 L56.372378,43.1571951 Z" id="Best-Film-Awards-Fes"></path>
                    <path d="M4.45463444,2.31219512 C4.45463444,2.63219672 4.39902524,2.92585232 4.28780517,3.19317073 C4.17658511,3.46048914 4.02341591,3.69073074 3.82829298,3.88390244 C3.63317005,4.07707414 3.40097725,4.22731654 3.13170761,4.33463415 C2.86243797,4.44195176 2.56975797,4.49560976 2.25365883,4.49560976 C1.93755969,4.49560976 1.64585529,4.44195176 1.37853688,4.33463415 C1.11121847,4.22731654 0.880001272,4.07707414 0.684878345,3.88390244 C0.489755419,3.69073074 0.337561819,3.46048914 0.228292979,3.19317073 C0.11902414,2.92585232 0.0643905405,2.63219672 0.0643905405,2.31219512 C0.0643905405,1.98829106 0.11902414,1.69268426 0.228292979,1.42536585 C0.337561819,1.15804744 0.489755419,0.929757044 0.684878345,0.740487805 C0.880001272,0.551218566 1.11121847,0.403902966 1.37853688,0.298536585 C1.64585529,0.193170205 1.93755969,0.140487805 2.25365883,0.140487805 C2.56975797,0.140487805 2.86243797,0.193170205 3.13170761,0.298536585 C3.40097725,0.403902966 3.63317005,0.551218566 3.82829298,0.740487805 C4.02341591,0.929757044 4.17658511,1.15804744 4.28780517,1.42536585 C4.39902524,1.69268426 4.45463444,1.98829106 4.45463444,2.31219512 Z M3.82829298,2.31219512 C3.82829298,2.08585253 3.79122018,1.87219613 3.71707347,1.67121951 C3.64292676,1.4702429 3.53756196,1.2936593 3.40097591,1.14146341 C3.26438986,0.989267532 3.09951346,0.869268732 2.90634176,0.781463415 C2.71317006,0.693658098 2.49561126,0.649756098 2.25365883,0.649756098 C2.01560886,0.649756098 1.80000126,0.693658098 1.60682956,0.781463415 C1.41365787,0.869268732 1.24975707,0.989267532 1.11512225,1.14146341 C0.980487428,1.2936593 0.876098228,1.4702429 0.801951516,1.67121951 C0.727804804,1.87219613 0.690732004,2.08585253 0.690732004,2.31219512 C0.690732004,2.54244018 0.727804804,2.75902338 0.801951516,2.96195122 C0.876098228,3.16487906 0.981463028,3.34146266 1.11804908,3.49170732 C1.25463513,3.64195197 1.41853593,3.75999957 1.60975639,3.84585366 C1.80097686,3.93170775 2.01560886,3.97463415 2.25365883,3.97463415 C2.4917088,3.97463415 2.708292,3.93170775 2.90341493,3.84585366 C3.09853786,3.75999957 3.26438986,3.64195197 3.40097591,3.49170732 C3.53756196,3.34146266 3.64292676,3.16487906 3.71707347,2.96195122 C3.79122018,2.75902338 3.82829298,2.54244018 3.82829298,2.31219512 Z M7.14146368,4.3902439 L6.56195148,4.3902439 L6.56195148,0.245853659 L9.14926855,0.245853659 L9.14926855,0.755121951 L7.14146368,0.755121951 L7.14146368,2.04292683 L9.02048807,2.04292683 L9.02048807,2.5404878 L7.14146368,2.5404878 L7.14146368,4.3902439 Z M11.7834149,4.3902439 L11.2039027,4.3902439 L11.2039027,0.245853659 L13.7912197,0.245853659 L13.7912197,0.755121951 L11.7834149,0.755121951 L11.7834149,2.04292683 L13.6624393,2.04292683 L13.6624393,2.5404878 L11.7834149,2.5404878 L11.7834149,4.3902439 Z M16.425366,4.3902439 L15.8458539,4.3902439 L15.8458539,0.245853659 L16.425366,0.245853659 L16.425366,4.3902439 Z M22.3024392,3.74634146 C22.1385359,3.9687816 21.9258551,4.1492676 21.6643904,4.28780488 C21.4029257,4.42634216 21.0887825,4.49560976 20.7219514,4.49560976 C20.4058522,4.49560976 20.1141478,4.44195176 19.8468294,4.33463415 C19.579511,4.22731654 19.3492694,4.07707414 19.1560977,3.88390244 C18.962926,3.69073074 18.811708,3.46048914 18.7024392,3.19317073 C18.5931703,2.92585232 18.5385367,2.63219672 18.5385367,2.31219512 C18.5385367,1.98829106 18.5941459,1.69268426 18.705366,1.42536585 C18.8165861,1.15804744 18.9707309,0.929757044 19.167805,0.740487805 C19.3648792,0.551218566 19.5980476,0.403902966 19.8673172,0.298536585 C20.1365869,0.193170205 20.4292669,0.140487805 20.745366,0.140487805 C20.8858545,0.140487805 21.0282921,0.154146205 21.1726831,0.181463415 C21.317074,0.208780624 21.4556092,0.249755824 21.5882928,0.304390244 C21.7209764,0.359024663 21.8419508,0.426341063 21.9512197,0.506341463 C22.0604885,0.586341863 22.1541461,0.679023863 22.2321953,0.784390244 L21.7756099,1.13560976 C21.674146,0.995121249 21.5307328,0.879024849 21.345366,0.787317073 C21.1599992,0.695609298 20.9600012,0.649756098 20.745366,0.649756098 C20.5034136,0.649756098 20.2858548,0.693658098 20.0926831,0.781463415 C19.8995114,0.869268732 19.734635,0.989267532 19.5980489,1.14146341 C19.4614629,1.2936593 19.3560981,1.4702429 19.2819514,1.67121951 C19.2078047,1.87219613 19.1707319,2.08585253 19.1707319,2.31219512 C19.1707319,2.54634263 19.2068291,2.76487703 19.2790245,2.96780488 C19.35122,3.17073272 19.4546336,3.34731632 19.5892684,3.49756098 C19.7239033,3.64780563 19.8878041,3.76585323 20.0809758,3.85170732 C20.2741475,3.9375614 20.4897551,3.9804878 20.727805,3.9804878 C20.9619525,3.9804878 21.1746333,3.933659 21.3658538,3.84 C21.5570743,3.746341 21.7151215,3.609757 21.8400002,3.4302439 L22.3024392,3.74634146 Z M24.790244,4.3902439 L24.2107318,4.3902439 L24.2107318,0.245853659 L24.790244,0.245853659 L24.790244,4.3902439 Z M27.2839025,4.3902439 L26.6400001,4.3902439 L28.4370733,0.245853659 L28.9639025,0.245853659 L30.7434147,4.3902439 L30.087805,4.3902439 L29.6663416,3.37170732 L27.6995123,3.37170732 L27.2839025,4.3902439 Z M27.9043903,2.86243902 L29.4556098,2.86243902 L28.6829269,0.91902439 L27.9043903,2.86243902 Z M33.172683,3.87512195 L35.0224391,3.87512195 L35.0224391,4.3902439 L32.5931708,4.3902439 L32.5931708,0.245853659 L33.172683,0.245853659 L33.172683,3.87512195 Z M41.6019512,1.01268293 C41.5199996,0.899511629 41.4087812,0.806829629 41.2682927,0.734634146 C41.1278042,0.662438663 40.969757,0.626341463 40.7941463,0.626341463 C40.7004873,0.626341463 40.6058541,0.639024263 40.5102439,0.664390244 C40.4146337,0.689756224 40.3278053,0.730731424 40.2497561,0.787317073 C40.1717069,0.843902722 40.1082929,0.914145922 40.0595122,0.99804878 C40.0107314,1.08195164 39.9863414,1.18243844 39.9863414,1.2995122 C39.9863414,1.41268349 40.0087802,1.50731669 40.0536585,1.58341463 C40.0985368,1.65951258 40.159024,1.72390218 40.2351219,1.77658537 C40.3112199,1.82926856 40.4009751,1.87414616 40.5043902,1.91121951 C40.6078054,1.94829287 40.7180482,1.98634127 40.8351219,2.02536585 C40.9756104,2.0682929 41.118048,2.1170729 41.262439,2.17170732 C41.40683,2.22634174 41.5375604,2.29853614 41.6546341,2.38829268 C41.7717079,2.47804923 41.8673167,2.59024323 41.9414634,2.72487805 C42.0156101,2.85951287 42.0526829,3.03024287 42.0526829,3.23707317 C42.0526829,3.45170839 42.0126833,3.63804799 41.9326829,3.79609756 C41.8526825,3.95414713 41.7463421,4.08487753 41.6136585,4.18829268 C41.4809749,4.29170783 41.3278057,4.36878023 41.1541463,4.4195122 C40.9804869,4.47024416 40.8019521,4.49560976 40.6185366,4.49560976 C40.3570718,4.49560976 40.1043914,4.44487856 39.8604878,4.34341463 C39.6165841,4.24195071 39.4146349,4.09170831 39.2546341,3.89268293 L39.7053658,3.51219512 C39.8029273,3.65658609 39.9336577,3.77365809 40.097561,3.86341463 C40.2614642,3.95317118 40.4390234,3.99804878 40.6302439,3.99804878 C40.7278053,3.99804878 40.8253653,3.98439038 40.9229268,3.95707317 C41.0204883,3.92975596 41.1092679,3.88682956 41.1892683,3.82829268 C41.2692687,3.7697558 41.3346339,3.6965858 41.3853658,3.60878049 C41.4360978,3.52097517 41.4614634,3.41463477 41.4614634,3.2897561 C41.4614634,3.16487742 41.4351222,3.06048822 41.382439,2.97658537 C41.3297558,2.89268251 41.258537,2.82146371 41.1687805,2.76292683 C41.0790239,2.70438995 40.9746347,2.65463435 40.8556097,2.61365854 C40.7365848,2.57268272 40.6107324,2.53073192 40.4780488,2.48780488 C40.3453652,2.44878029 40.2146348,2.40097589 40.0858536,2.34439024 C39.9570725,2.2878046 39.8419517,2.2156102 39.7404878,2.12780488 C39.6390239,2.03999956 39.5570735,1.93170796 39.4946341,1.80292683 C39.4321948,1.6741457 39.4009756,1.5141473 39.4009756,1.32292683 C39.4009756,1.11609653 39.4429264,0.938537327 39.5268293,0.790243902 C39.6107321,0.641950478 39.7199993,0.519024878 39.8546341,0.421463415 C39.9892689,0.323901951 40.1414625,0.252683151 40.3112195,0.207804878 C40.4809764,0.162926605 40.6517064,0.140487805 40.8234146,0.140487805 C41.065367,0.140487805 41.2917062,0.183414205 41.502439,0.269268293 C41.7131718,0.35512238 41.8829262,0.47024318 42.0117073,0.614634146 L41.6019512,1.01268293 Z M44.7687804,3.87512195 L46.9346341,3.87512195 L46.9346341,4.3902439 L44.1892682,4.3902439 L44.1892682,0.245853659 L46.8468292,0.245853659 L46.8468292,0.755121951 L44.7687804,0.755121951 L44.7687804,1.99609756 L46.7239024,1.99609756 L46.7239024,2.49365854 L44.7687804,2.49365854 L44.7687804,3.87512195 Z M49.6039024,3.87512195 L51.4536584,3.87512195 L51.4536584,4.3902439 L49.0243902,4.3902439 L49.0243902,0.245853659 L49.6039024,0.245853659 L49.6039024,3.87512195 Z M53.912195,3.87512195 L56.0780487,3.87512195 L56.0780487,4.3902439 L53.3326828,4.3902439 L53.3326828,0.245853659 L55.9902438,0.245853659 L55.9902438,0.755121951 L53.912195,0.755121951 L53.912195,1.99609756 L55.867317,1.99609756 L55.867317,2.49365854 L53.912195,2.49365854 L53.912195,3.87512195 Z M61.7209755,3.74634146 C61.5570722,3.9687816 61.3443914,4.1492676 61.0829267,4.28780488 C60.821462,4.42634216 60.5073188,4.49560976 60.1404876,4.49560976 C59.8243885,4.49560976 59.5326841,4.44195176 59.2653657,4.33463415 C58.9980473,4.22731654 58.7678057,4.07707414 58.574634,3.88390244 C58.3814623,3.69073074 58.2302443,3.46048914 58.1209755,3.19317073 C58.0117066,2.92585232 57.957073,2.63219672 57.957073,2.31219512 C57.957073,1.98829106 58.0126822,1.69268426 58.1239023,1.42536585 C58.2351224,1.15804744 58.3892672,0.929757044 58.5863413,0.740487805 C58.7834155,0.551218566 59.0165839,0.403902966 59.2858535,0.298536585 C59.5551231,0.193170205 59.8478031,0.140487805 60.1639023,0.140487805 C60.3043908,0.140487805 60.4468284,0.154146205 60.5912194,0.181463415 C60.7356103,0.208780624 60.8741455,0.249755824 61.0068291,0.304390244 C61.1395127,0.359024663 61.2604871,0.426341063 61.3697559,0.506341463 C61.4790248,0.586341863 61.5726824,0.679023863 61.6507316,0.784390244 L61.1941462,1.13560976 C61.0926823,0.995121249 60.9492691,0.879024849 60.7639023,0.787317073 C60.5785355,0.695609298 60.3785375,0.649756098 60.1639023,0.649756098 C59.9219499,0.649756098 59.7043911,0.693658098 59.5112194,0.781463415 C59.3180477,0.869268732 59.1531713,0.989267532 59.0165852,1.14146341 C58.8799992,1.2936593 58.7746344,1.4702429 58.7004876,1.67121951 C58.6263409,1.87219613 58.5892681,2.08585253 58.5892681,2.31219512 C58.5892681,2.54634263 58.6253653,2.76487703 58.6975608,2.96780488 C58.7697563,3.17073272 58.8731699,3.34731632 59.0078047,3.49756098 C59.1424395,3.64780563 59.3063403,3.76585323 59.499512,3.85170732 C59.6926837,3.9375614 59.9082913,3.9804878 60.1463413,3.9804878 C60.3804888,3.9804878 60.5931696,3.933659 60.7843901,3.84 C60.9756106,3.746341 61.1336578,3.609757 61.2585364,3.4302439 L61.7209755,3.74634146 Z M65.0458535,4.3902439 L64.4663413,4.3902439 L64.4663413,0.755121951 L63.1375608,0.755121951 L63.1375608,0.245853659 L66.374634,0.245853659 L66.374634,0.755121951 L65.0458535,0.755121951 L65.0458535,4.3902439 Z M68.8214632,4.3902439 L68.241951,4.3902439 L68.241951,0.245853659 L68.8214632,0.245853659 L68.8214632,4.3902439 Z M75.3248778,2.31219512 C75.3248778,2.63219672 75.2692686,2.92585232 75.1580485,3.19317073 C75.0468285,3.46048914 74.8936593,3.69073074 74.6985363,3.88390244 C74.5034134,4.07707414 74.2712206,4.22731654 74.001951,4.33463415 C73.7326813,4.44195176 73.4400013,4.49560976 73.1239022,4.49560976 C72.807803,4.49560976 72.5160986,4.44195176 72.2487802,4.33463415 C71.9814618,4.22731654 71.7502446,4.07707414 71.5551217,3.88390244 C71.3599988,3.69073074 71.2078052,3.46048914 71.0985363,3.19317073 C70.9892675,2.92585232 70.9346339,2.63219672 70.9346339,2.31219512 C70.9346339,1.98829106 70.9892675,1.69268426 71.0985363,1.42536585 C71.2078052,1.15804744 71.3599988,0.929757044 71.5551217,0.740487805 C71.7502446,0.551218566 71.9814618,0.403902966 72.2487802,0.298536585 C72.5160986,0.193170205 72.807803,0.140487805 73.1239022,0.140487805 C73.4400013,0.140487805 73.7326813,0.193170205 74.001951,0.298536585 C74.2712206,0.403902966 74.5034134,0.551218566 74.6985363,0.740487805 C74.8936593,0.929757044 75.0468285,1.15804744 75.1580485,1.42536585 C75.2692686,1.69268426 75.3248778,1.98829106 75.3248778,2.31219512 Z M74.6985363,2.31219512 C74.6985363,2.08585253 74.6614635,1.87219613 74.5873168,1.67121951 C74.5131701,1.4702429 74.4078053,1.2936593 74.2712193,1.14146341 C74.1346332,0.989267532 73.9697568,0.869268732 73.7765851,0.781463415 C73.5834134,0.693658098 73.3658546,0.649756098 73.1239022,0.649756098 C72.8858522,0.649756098 72.6702446,0.693658098 72.4770729,0.781463415 C72.2839012,0.869268732 72.1200004,0.989267532 71.9853656,1.14146341 C71.8507308,1.2936593 71.7463416,1.4702429 71.6721949,1.67121951 C71.5980481,1.87219613 71.5609753,2.08585253 71.5609753,2.31219512 C71.5609753,2.54244018 71.5980481,2.75902338 71.6721949,2.96195122 C71.7463416,3.16487906 71.8517064,3.34146266 71.9882924,3.49170732 C72.1248785,3.64195197 72.2887793,3.75999957 72.4799997,3.84585366 C72.6712202,3.93170775 72.8858522,3.97463415 73.1239022,3.97463415 C73.3619521,3.97463415 73.5785353,3.93170775 73.7736583,3.84585366 C73.9687812,3.75999957 74.1346332,3.64195197 74.2712193,3.49170732 C74.4078053,3.34146266 74.5131701,3.16487906 74.5873168,2.96195122 C74.6614635,2.75902338 74.6985363,2.54244018 74.6985363,2.31219512 Z M80.3531704,3.55902439 L80.3648778,3.55902439 L80.3648778,0.245853659 L80.9443899,0.245853659 L80.9443899,4.3902439 L80.2126826,4.3902439 L78.0234143,1.00682927 L78.011707,1.00682927 L78.011707,4.3902439 L77.4321948,4.3902439 L77.4321948,0.245853659 L78.1873168,0.245853659 L80.3531704,3.55902439 Z" id="OFFICIAL-SELECTION"></path>
                    <path d="M35.1512196,60.7317073 L32.6158537,60.7317073 L32.6158537,60.2213415 L34.1634147,58.6847561 C34.2804884,58.5640238 34.3810972,58.4378055 34.465244,58.3060976 C34.5493907,58.1743896 34.5914635,58.0262203 34.5914635,57.8615854 C34.5914635,57.7591458 34.573171,57.6667687 34.5365854,57.5844512 C34.4999999,57.5021337 34.4506101,57.4317076 34.3884147,57.3731707 C34.3262193,57.3146339 34.2530493,57.2698172 34.1689025,57.2387195 C34.0847557,57.2076218 33.9951225,57.1920732 33.9000001,57.1920732 C33.7024381,57.1920732 33.5396348,57.2551823 33.4115854,57.3814024 C33.283536,57.5076226 33.203049,57.6695112 33.170122,57.8670732 L32.6487805,57.7792683 C32.6707319,57.6329261 32.7173777,57.496647 32.7887196,57.3704268 C32.8600614,57.2442067 32.9506093,57.1344517 33.0603659,57.0411585 C33.1701226,56.9478654 33.2972554,56.87561 33.4417683,56.8243902 C33.5862813,56.7731705 33.7408529,56.747561 33.9054879,56.747561 C34.0664643,56.747561 34.2210359,56.7713412 34.3692074,56.8189024 C34.5173788,56.8664637 34.6481702,56.9359752 34.7615854,57.027439 C34.8750006,57.1189029 34.9655485,57.2341456 35.0332318,57.3731707 C35.100915,57.5121958 35.1347561,57.6713406 35.1347561,57.8506098 C35.1347561,57.9750006 35.1182929,58.0902434 35.0853659,58.1963415 C35.0524389,58.3024396 35.0076223,58.4030483 34.9509147,58.4981707 C34.8942071,58.5932932 34.8274395,58.683841 34.7506098,58.7698171 C34.6737802,58.8557931 34.5932932,58.9408532 34.5091464,59.025 L33.2469513,60.2542683 L35.1512196,60.2542683 L35.1512196,60.7317073 Z M38.5042683,56.747561 C38.7347573,56.747561 38.9332309,56.8006092 39.0996951,56.9067073 C39.2661594,57.0128054 39.4033531,57.1582308 39.5112805,57.3429878 C39.6192079,57.5277448 39.6987802,57.744511 39.75,57.9932927 C39.8012198,58.2420744 39.8268293,58.5073157 39.8268293,58.7890244 C39.8268293,59.0743917 39.8012198,59.3405475 39.75,59.5875 C39.6987802,59.8344525 39.6192079,60.050304 39.5112805,60.235061 C39.4033531,60.419818 39.2661594,60.5652434 39.0996951,60.6713415 C38.9332309,60.7774396 38.7347573,60.8304878 38.5042683,60.8304878 C38.2737794,60.8304878 38.0743911,60.7774396 37.9060976,60.6713415 C37.7378041,60.5652434 37.5996957,60.419818 37.4917683,60.235061 C37.3838409,60.050304 37.3042686,59.8344525 37.2530488,59.5875 C37.201829,59.3405475 37.1762195,59.0743917 37.1762195,58.7890244 C37.1762195,58.5073157 37.201829,58.2420744 37.2530488,57.9932927 C37.3042686,57.744511 37.3838409,57.5277448 37.4917683,57.3429878 C37.5996957,57.1582308 37.7378041,57.0128054 37.9060976,56.9067073 C38.0743911,56.8006092 38.2737794,56.747561 38.5042683,56.747561 Z M38.5042683,57.1920732 C38.3432919,57.1920732 38.2115859,57.2442068 38.1091464,57.3484756 C38.0067068,57.4527444 37.9271344,57.5844504 37.8704268,57.7435976 C37.8137192,57.9027447 37.7743904,58.0756088 37.752439,58.2621951 C37.7304877,58.4487814 37.7195122,58.6243894 37.7195122,58.7890244 C37.7195122,58.9536594 37.7304877,59.1292674 37.752439,59.3158537 C37.7743904,59.50244 37.8137192,59.6743895 37.8704268,59.8317073 C37.9271344,59.9890252 38.0067068,60.1198166 38.1091464,60.2240854 C38.2115859,60.3283542 38.3432919,60.3804878 38.5042683,60.3804878 C38.6615862,60.3804878 38.7905483,60.3283542 38.8911586,60.2240854 C38.9917688,60.1198166 39.0713412,59.9890252 39.1298781,59.8317073 C39.1884149,59.6743895 39.2286584,59.50244 39.2506098,59.3158537 C39.2725611,59.1292674 39.2835366,58.9536594 39.2835366,58.7890244 C39.2835366,58.6243894 39.2725611,58.4487814 39.2506098,58.2621951 C39.2286584,58.0756088 39.1884149,57.9027447 39.1298781,57.7435976 C39.0713412,57.5844504 38.9917688,57.4527444 38.8911586,57.3484756 C38.7905483,57.2442068 38.6615862,57.1920732 38.5042683,57.1920732 Z M43.5310975,60.7317073 L42.9987805,60.7317073 L42.9987805,57.4939024 L42.2634146,58.1085366 L41.9506097,57.7408537 L43.0536585,56.8463415 L43.5310975,56.8463415 L43.5310975,60.7317073 Z M48.859756,57.3292683 L47.3012195,60.7317073 L46.6920731,60.7317073 L48.3109756,57.3182927 L46.384756,57.3182927 L46.384756,56.8463415 L48.859756,56.8463415 L48.859756,57.3292683 Z" id="2017"></path>
                </g>
            </g>
        </g>
    </g>
</svg>