<?xml version="1.0" encoding="UTF-8"?>
<svg width="146px" height="74px" viewBox="0 0 146 74" version="1.1" xmlns="http://www.w3.org/2000/svg" xmlns:xlink="http://www.w3.org/1999/xlink">
    <!-- Generator: Sketch 42 (36781) - http://www.bohemiancoding.com/sketch -->
    <title>Seattle</title>
    <desc>Created with Sketch.</desc>
    <defs></defs>
    <g id="Cloud-v2" stroke="none" stroke-width="1" fill="none" fill-rule="evenodd">
        <g id="Home" transform="translate(-22.000000, -204.000000)" fill="#227EA8">
            <g id="Seattle" transform="translate(20.000000, 204.000000)">
                <g id="Leaves">
                    <path d="M31.5047424,1.09756098 C31.3156422,2.06748935 30.9003611,2.9557303 30.3834256,3.79994348 C29.4045404,5.39866739 28.0625874,6.61815963 26.1919163,7.22214152 C25.6575378,7.39473914 25.0779925,7.45029537 24.5142729,7.5274812 C24.2789662,7.55976091 24.0848988,7.60949801 23.8945279,7.75881911 C22.2473808,9.050776 20.8386594,10.5574918 19.4993633,12.1281082 C19.4827289,12.1475419 19.4731411,12.1724653 19.4314397,12.24493 C19.6696343,12.2163833 19.8730586,12.1989259 20.0729018,12.1631328 C20.120379,12.1545688 20.1742096,12.0918759 20.1940784,12.0426877 C20.7993839,10.5429988 22.078496,9.90585888 23.6297645,9.63554377 C24.6636355,9.4553703 25.6912686,9.60622853 26.7139345,9.75862389 C27.4609785,9.86984615 28.2055966,9.99556134 28.9793249,10.1193002 C28.9356597,10.1863849 28.9053944,10.245235 28.863693,10.2955211 C27.5667914,11.8621849 25.9462131,12.9167651 23.8144751,13.1360256 C22.6019004,13.2607526 21.4381891,13.1124197 20.3743994,12.4902118 C20.2854518,12.438169 20.152608,12.4298246 20.0433296,12.4382788 C19.7964712,12.4573832 19.5493819,12.4896629 19.3071442,12.537753 C19.2135759,12.5563084 19.1070699,12.6137311 19.0495428,12.6848782 C17.6335438,14.4353387 16.3982124,16.2960333 15.3149005,18.2485165 C15.1992686,18.4569073 15.0874488,18.6672744 14.9348518,18.948569 C15.2215633,18.8611722 15.4449718,18.8019927 15.658908,18.7206347 C15.7069628,18.7024087 15.7394229,18.6086439 15.7497038,18.545402 C15.9632935,17.2258866 16.7824197,16.3430256 17.9966116,15.7599047 C18.7874363,15.3801241 19.6413328,15.177772 20.5191413,15.1024527 C21.7868173,14.9937557 23.0577277,14.9205225 24.3639862,14.8296123 C24.3339519,14.9209617 24.327021,14.9803608 24.2973333,15.0266942 C23.2531813,16.6595643 21.9330609,18.0097125 20.0352435,18.7621372 C18.7053042,19.2894822 17.3539944,19.4616406 15.9643332,18.9708573 C15.8944458,18.9461535 15.8007621,18.9446163 15.7299506,18.9665753 C15.425334,19.0612185 15.1236054,19.1650845 14.8245337,19.2748795 C14.7740531,19.293325 14.7291172,19.3511869 14.7033571,19.400924 C13.3385319,22.0376492 12.2852542,24.784279 11.5018226,27.6254423 C11.4954692,27.6486091 11.505288,27.6757284 11.5075984,27.7012008 C11.5214603,27.6993343 11.5315102,27.6999931 11.5395964,27.6964797 C11.9220709,27.5305795 12.1524104,27.3420616 12.1513708,26.8480943 C12.1474432,24.9778475 13.2344517,23.7097161 14.8247647,22.7541709 C15.8615236,22.1313043 16.9956628,21.7124366 18.1326898,21.2975216 C18.7941362,21.0561923 19.4553516,20.8142043 20.173632,20.5515749 C20.0223056,20.9768106 19.897086,21.3774523 19.7384821,21.7656872 C18.976883,23.6292364 17.847018,25.2333403 16.1029527,26.4040836 C15.0020823,27.1431132 13.8085678,27.594041 12.4349633,27.5325558 C12.340702,27.5283836 12.2318856,27.5952487 12.1474432,27.6526715 C11.9080934,27.8156071 11.6724401,27.9846913 11.4471833,28.1648648 C11.3787977,28.2196525 11.3231188,28.3135271 11.3060224,28.39763 C11.0118024,29.8436292 10.6501208,31.2819427 10.4553603,32.7402389 C10.2324138,34.4085728 10.159061,36.0951327 10.0217121,37.7737873 C10.0203259,37.7897076 10.0314154,37.806616 10.0369602,37.8229754 C10.4538586,37.586587 10.5659094,37.3332901 10.4956755,36.8768726 C10.2374965,35.1988767 10.7211633,33.6987486 11.7296207,32.331143 C12.3439365,31.4979094 13.0965252,30.7864382 13.9258168,30.1491885 C14.9075899,29.3946778 15.9011457,28.654111 16.9414856,27.8683087 C16.9136462,28.2768556 16.9037118,28.6485115 16.8607397,29.0166538 C16.629245,31.0009775 16.0196655,32.8590371 14.7899943,34.5029965 C13.9378305,35.6422286 12.9546712,36.6510244 11.5375171,37.1511403 C11.0330574,37.3291179 10.669643,37.5820854 10.3586731,38.008968 C10.1120458,38.3475756 10.0061174,38.6545622 10.0095828,39.056192 C10.0345344,41.9445671 10.3654886,44.7994548 10.9974783,47.6238195 C11.0124955,47.6907944 11.0372159,47.755793 11.0725639,47.8710776 C11.2017112,47.5824268 11.317343,47.3363764 11.4189974,47.0852754 C11.4367869,47.0413574 11.4134526,46.963403 11.3800684,46.9227789 C10.9720647,46.4281527 10.8648656,45.842836 10.8258211,45.2420381 C10.7377977,43.8861806 11.1397944,42.6428629 11.8002012,41.457956 C12.5482848,40.1158229 13.5387217,38.9346491 14.5067483,37.7377746 C14.9276898,37.2174564 15.3392744,36.6902212 15.8007621,36.1085277 C15.8605995,36.521137 15.9282921,36.8772019 15.9615608,37.2362314 C16.1607109,39.3807458 15.8818545,41.4527957 14.9325415,43.428226 C14.2370178,44.8755427 13.3290596,46.1522381 11.8922677,47.0326836 C11.809558,47.083299 11.7566515,47.1908981 11.7117157,47.2818083 C11.551148,47.6064719 11.3945079,47.9332216 11.2490729,48.2642533 C11.2134938,48.3450623 11.1991698,48.4513438 11.2206558,48.5355565 C12.0087081,51.6255151 13.1537058,54.588441 14.7255362,57.3986421 C14.7452895,57.4338863 14.7741686,57.4644093 14.8433629,57.556637 C14.8772092,57.261618 14.9077055,57.0312683 14.9266501,56.80015 C14.9303467,56.756232 14.9020452,56.6939783 14.8662351,56.6655414 C14.3070206,56.2207621 14.0712519,55.6044832 13.8570846,54.9738212 C13.3651006,53.5248575 13.5027961,52.0845677 13.8973998,50.6419722 C14.323424,49.084092 14.9852169,47.6078992 15.6070412,46.1175429 C15.7597538,45.751267 15.9053043,45.3823561 16.0702616,44.9752365 C16.1259405,45.0666956 16.175728,45.1336706 16.2102674,45.2072332 C17.705395,48.3986423 17.8844453,51.6295775 16.4726049,54.8853265 C16.2259776,55.454174 15.8154326,55.9579131 15.4927956,56.4983237 C15.3962239,56.6600516 15.3239107,56.8396761 15.2718129,57.0193006 C15.2231805,57.1870673 15.2489406,57.3777811 15.183905,57.5369837 C15.0360441,57.8983188 15.1671551,58.1819191 15.357526,58.4915408 C16.7625509,60.7757144 18.4087738,62.8842162 20.3626167,64.7723595 C20.4185266,64.8263786 20.4795192,64.8755667 20.5933028,64.9753703 C20.5695064,64.6902329 20.5579548,64.4675688 20.5276895,64.2472104 C20.5200654,64.1914346 20.4647331,64.1183111 20.4111335,64.094815 C19.7079858,63.7870598 19.2558549,63.2384146 18.8475048,62.6448632 C18.1674602,61.6563795 17.9454379,60.5498663 17.8910297,59.392518 C17.8268026,58.0262299 17.9929151,56.6760817 18.1645723,55.3254943 C18.2761611,54.4475741 18.3946808,53.5705322 18.516204,52.6475961 C18.6073463,52.7331263 18.6869371,52.7980151 18.7545141,52.8726757 C20.2933069,54.5753754 21.2318769,56.531921 21.5312952,58.764491 C21.7689123,60.5368007 21.6512011,62.2642042 20.9177881,63.9342948 C20.8333457,64.1267653 20.9265673,64.3834659 20.899652,64.6063496 C20.8399301,65.1005365 21.041506,65.4379363 21.4348391,65.7733598 C23.4837519,67.5207461 25.7194546,68.9934254 28.2223465,70.0915943 C28.3049406,70.1279364 28.3894986,70.1604357 28.537475,70.2210425 C28.4685117,69.9692827 28.4129484,69.7666013 28.3593488,69.5711663 C27.3795395,69.5853299 26.7364602,69.0358063 26.0991567,68.4821105 C25.1387541,67.647669 24.6517373,66.5534528 24.3668741,65.3913833 C24.0471249,64.0866902 23.8307629,62.7589402 23.5762805,61.4400835 C23.4769364,60.9249257 23.396075,60.4064741 23.3067809,59.8895596 C23.3266497,59.866832 23.3465185,59.8441045 23.3663873,59.8213769 C23.9319552,60.1761243 24.5337952,60.4886007 25.0569685,60.8928656 C27.4918213,62.7744212 28.7117891,65.2203228 28.7211459,68.2065252 C28.7214925,68.3203825 28.7228786,68.4373141 28.6985047,68.547658 C28.5736316,69.1154076 28.697003,69.6609786 28.8625379,70.2001815 C28.8911859,70.2935071 28.9814042,70.4041804 29.072431,70.4408519 C30.9395211,71.1926178 32.864947,71.7624534 34.8667292,72.0861289 C35.3661062,72.166938 35.5147757,72.3420609 35.4839328,72.8943293 C34.9750835,72.8096774 34.4696996,72.7331504 33.9675502,72.6408129 C32.496681,72.3701684 31.0677442,71.9620606 29.6645676,71.4638113 C29.5022672,71.4061689 29.2930672,71.4669953 29.1055842,71.4739124 C28.580447,71.4932363 28.2571169,71.7190845 27.9764122,72.1762705 C27.3946721,73.1234713 26.4293023,73.6533417 25.3372111,73.9223392 C22.6814911,74.5763876 20.1193393,74.2586411 17.6636936,73.131706 C17.3143723,72.9714054 17.0178419,72.7073486 16.6337502,72.4487815 C17.1539201,72.0780041 17.5940373,71.7351145 18.0641887,71.4346058 C19.6526534,70.4194419 21.3945239,69.8176559 23.3194877,69.7468382 C24.6330237,69.6986382 25.8580741,70.0296699 27.0272147,70.5728254 C27.3419967,70.7190723 27.65932,70.8661975 27.9523849,71.0467003 C28.2025932,71.2008524 28.4405568,71.2268738 28.7415923,71.1058798 C28.4147966,70.9580958 28.1098336,70.8208522 27.8056791,70.682291 C25.6355897,69.6935877 23.6412006,68.4462075 21.8503513,66.9222539 C21.4096565,66.5471945 20.913745,66.5769489 20.4207214,66.4887836 C20.3741683,66.4804392 20.3006999,66.5278706 20.2626951,66.5687143 C19.3088769,67.5954066 18.0733144,67.8776894 16.7015582,67.7719569 C14.8956918,67.6328467 13.261598,67.0213988 11.7381689,66.1104303 C10.9052963,65.6124005 10.1116993,65.0733074 9.50535415,64.3219807 C9.42137379,64.2178951 9.34906058,64.1049162 9.27616979,63.9932547 C9.24301661,63.9425295 9.22129954,63.8849969 9.18733775,63.8161555 C9.24602003,63.7798134 9.2939593,63.7397382 9.34975368,63.7170107 C11.5233086,62.8329419 13.7543906,62.5849152 16.058941,63.1779176 C17.6092854,63.5768026 18.8374548,64.4510996 19.9125651,65.5487194 C20.0007041,65.6386415 20.0992395,65.7220856 20.1715527,65.822548 C20.3265756,66.0380754 20.5319636,66.1377692 20.8423559,66.1061483 C20.7833271,66.0409301 20.7395464,65.9842759 20.687102,65.9359661 C18.6310272,64.0444192 16.891236,61.9151662 15.3824775,59.6078258 C15.258413,59.4181002 14.9847548,59.3190651 14.7875685,59.1696343 C14.4598487,58.9211683 14.1692097,58.8705529 13.7348684,59.0523733 C12.6320341,59.5139511 11.5102552,59.3200533 10.4195502,58.9341241 C9.44794254,58.5903562 8.65295929,57.9907661 7.91665833,57.3186016 C6.72961272,56.2349257 5.6869625,55.0436507 5.01823857,53.596883 C4.84600375,53.224239 4.7457356,52.8214014 4.60145572,52.4007771 C5.19058891,52.4007771 5.71549503,52.360153 6.23150639,52.4073648 C9.39249471,52.6972234 11.6831832,54.2941906 13.3672955,56.7691878 C13.6821929,57.2319734 13.9458011,57.7270387 14.2214231,58.2131009 C14.4167611,58.5575275 14.4079819,58.5620291 14.8341216,58.7573543 C14.7977339,58.6720436 14.7800599,58.6125348 14.748986,58.5602724 C13.1175492,55.8241829 11.8728609,52.9343804 10.9162704,49.9265484 C10.8305573,49.6568921 10.5604801,49.4448781 10.4112331,49.1876286 C10.2379586,48.8887668 10.0443533,48.78534 9.65263745,48.8299167 C8.50810184,48.9601335 7.5694163,48.4727538 6.73792989,47.7841201 C5.74414307,46.9609875 4.98600952,45.9550464 4.36372316,44.8597322 C3.61725676,43.5455967 2.94656906,42.1991816 2.6438008,40.7167305 C2.61942686,40.5972736 2.58869952,40.4790245 2.56097561,40.3602264 L2.56097561,39.5697029 C2.78242038,39.6286628 3.01068061,39.670824 3.22438578,39.748998 C5.25007981,40.4905529 6.8314981,41.7759221 8.13590829,43.3957267 C9.30320061,44.8451295 9.90365439,46.5177454 10.272729,48.2839066 C10.3128132,48.4756085 10.4339898,48.6519391 10.5173925,48.8352967 C10.5433837,48.8255249 10.5693749,48.8157532 10.5953661,48.8059814 C10.5906299,48.7640398 10.5907454,48.7208904 10.5802334,48.6802662 C9.93738515,46.1811141 9.61775152,43.6422163 9.53781423,41.0732346 C9.5269557,40.7232084 9.55467962,40.3609949 9.46792687,40.0269988 C9.37897931,39.684768 9.17948264,39.3664725 9.00955814,39.0466399 C8.97005157,38.9723087 8.86077314,38.8990755 8.77321177,38.8854609 C8.26147452,38.8059694 7.79825411,38.6232706 7.3803161,38.3352786 C6.80227248,37.9371622 6.35892088,37.4229925 5.99643069,36.8453614 C5.29986734,35.7354445 4.86032778,34.5275905 4.53607349,33.2803202 C4.16954024,31.8706631 3.92499221,30.4434389 3.96149536,28.9855819 C3.9723539,28.5515625 4.03196031,28.1186411 4.07354618,27.6347749 C4.21112611,27.7201954 4.28852204,27.7638937 4.36095076,27.8139602 C6.47917336,29.2789539 7.8881258,31.2318763 8.71626223,33.5749 C9.27570772,35.1573742 9.3392417,36.7937578 9.22476503,38.4418894 C9.20535829,38.7223057 9.29118691,38.9427739 9.5014266,39.1463337 C9.53908491,38.654672 9.5262626,38.1654258 9.54139524,37.677058 C9.59949994,35.7986864 9.76272449,33.9288788 10.0190552,32.0647806 C10.0949494,31.5130611 10.3631783,30.9655138 10.1008407,30.3849182 C9.99017611,30.1398559 9.98647958,29.852852 9.90550265,29.5929674 C9.87431325,29.4928344 9.77820368,29.3969835 9.68671476,29.3302281 C9.40242912,29.1229353 9.07667312,28.9597801 8.81976485,28.726905 C7.9674855,27.9542781 7.59540747,26.9493252 7.38574536,25.8801422 C7.06357037,24.2376101 7.04913083,22.5809145 7.17758497,20.921474 C7.25913949,19.8684308 7.45216724,18.8331745 7.83140729,17.8355778 C7.87241558,17.7276494 7.92543757,17.6236736 7.98723879,17.4856614 C8.13717897,17.6599059 8.24784359,17.7884758 8.35850822,17.9170456 C10.1395387,19.9850331 10.981075,22.3590189 10.9259737,25.0263769 C10.8974412,26.4036444 10.6382226,27.7466559 10.2615239,29.0715513 C10.1770815,29.3687662 10.3094632,29.6175615 10.375423,29.9373941 C10.4129658,29.8700898 10.4195502,29.8628433 10.421283,29.8546087 C10.9692924,27.2507123 11.7736324,24.720598 12.8354584,22.2643757 C12.8627202,22.2013534 12.8846683,22.1311945 12.8862855,22.0638902 C12.8947182,21.7143031 12.9081181,21.3640573 12.8921769,21.015129 C12.8869786,20.9008325 12.8213654,20.7727018 12.7442005,20.6806937 C12.5376573,20.4348629 12.2791318,20.2248252 12.0958074,19.9657091 C11.3858442,18.9615248 11.2185766,17.8207555 11.2446832,16.6448518 C11.275064,15.2786736 11.5218069,13.9407126 11.8803695,12.6200992 C12.2042772,11.427397 12.602924,10.2622532 13.2818134,9.20141464 C13.3749195,9.05582657 13.4863928,8.9209984 13.6043349,8.7609174 C14.3526496,10.0768096 14.7925357,11.4324475 14.9449017,12.8738353 C15.2235271,15.5101213 14.7980805,18.0179472 13.4140796,20.3427449 C13.2356069,20.6425949 13.2674894,20.9367355 13.2388413,21.2813817 C13.286203,21.2329622 13.3088442,21.2187986 13.318201,21.1990355 C14.5204948,18.643888 15.9847795,16.2322425 17.7038933,13.9598169 C17.7399344,13.9122757 17.7728565,13.854304 17.7812892,13.7976498 C17.8306147,13.468814 17.8667713,13.1382215 17.9186381,12.8098249 C17.9418569,12.6619311 17.9120537,12.5599316 17.8021977,12.4359731 C17.6084768,12.217591 17.4261921,11.9753834 17.3061706,11.7151695 C16.8694034,10.768298 16.8426037,9.76938379 17.0002834,8.76761489 C17.386801,6.31303953 18.5746552,4.22221476 20.2853363,2.38161263 C20.5662719,2.0793472 20.9011537,1.82231728 21.2264477,1.53048237 C21.268149,1.6076682 21.2857075,1.62907821 21.2915989,1.6530135 C21.317128,1.75545217 21.3436967,1.85778104 21.3620638,1.96142745 C21.6170083,3.40391318 21.5710328,4.84563035 21.3569811,6.28811608 C21.0132045,8.60588696 20.1215341,10.6872694 18.4116617,12.4062187 C18.1173262,12.702116 18.1626085,13.0403942 18.1168641,13.3787822 C18.197379,13.3196027 18.254444,13.2522984 18.3098918,13.1836766 C19.9904231,11.1052586 21.8052999,9.14498005 23.8977623,7.42734823 C23.9532102,7.38178334 23.9935254,7.27912508 23.9847461,7.2094053 C23.8979934,6.51341527 24.0526697,5.86353911 24.3956376,5.25329891 C25.031786,4.12175241 25.9998127,3.29422805 27.1915944,2.74503383 C28.2171482,2.27258627 29.306236,1.92464615 30.3654051,1.51730698 C30.7111454,1.38434532 31.0512254,1.23787889 31.3938468,1.09756098 L31.5047424,1.09756098 Z" id="Fill-1" transform="translate(19.024390, 37.678260) rotate(-4.000000) translate(-19.024390, -37.678260) "></path>
                    <path d="M118.599918,1.09756098 C118.700879,1.15162771 118.796532,1.21841604 118.903493,1.25767748 C120.06356,1.68275391 121.242896,2.06549816 122.382194,2.53575815 C123.595338,3.0363964 124.613253,3.8033106 125.354016,4.86369862 C125.847512,5.57018529 126.106663,6.34159591 126.000626,7.20315432 C125.992087,7.27301337 126.033279,7.37544407 126.08901,7.42117597 C128.1793,9.13716432 129.991747,11.0958498 131.670694,13.1721003 C131.725847,13.2403143 131.783309,13.306993 131.862231,13.3654465 C131.821962,13.0153835 131.848039,12.6744231 131.547349,12.3708597 C129.934055,10.7423871 129.047908,8.78041158 128.678219,6.58846047 C128.418029,5.04574889 128.348222,3.50281798 128.620873,1.95528098 C128.639104,1.85175359 128.665758,1.74943256 128.691719,1.6472212 C128.697719,1.62375207 128.717103,1.603244 128.758411,1.53492031 C129.062331,1.80547334 129.374329,2.0474028 129.642134,2.32749702 C131.176275,3.93217149 132.266535,5.77131794 132.804915,7.88628152 C133.092221,9.01499323 133.183605,10.1543428 132.835954,11.2925957 C132.700378,11.7365352 132.488533,12.1389101 132.141921,12.4729614 C132.087344,12.5254928 132.048345,12.6246334 132.055499,12.6974535 C132.092191,13.0708759 132.14319,13.4432017 132.197767,13.8147597 C132.205959,13.8706908 132.255112,13.9235512 132.292497,13.9729022 C134.004213,16.2359187 135.462086,18.6377759 136.656306,21.1836284 C136.66346,21.198982 136.67696,21.2114843 136.758998,21.2195998 C136.718037,20.9665938 136.749306,20.6745456 136.624807,20.4668329 C135.419047,18.454629 134.89959,16.2875727 134.950013,13.9869398 C134.990166,12.1537154 135.407048,10.4094325 136.368424,8.76121953 C136.458308,8.87670082 136.544615,8.97474476 136.616268,9.08156221 C137.293801,10.0905155 137.699605,11.2058476 138.021757,12.3526547 C138.441868,13.8479893 138.733789,15.3630644 138.727443,16.9168525 C138.72352,17.8829253 138.573752,18.8293674 138.043564,19.6727208 C137.819951,20.0284865 137.49353,20.3250311 137.227225,20.658205 C137.152225,20.7520815 137.08738,20.8785297 137.082188,20.9928046 C137.06638,21.3413322 137.080111,21.6911758 137.086803,22.0404711 C137.087957,22.0994729 137.101341,22.1619841 137.124995,22.2165992 C138.195871,24.6852448 139.005518,27.2291232 139.578859,29.8509762 C139.661243,29.5849196 139.791626,29.3339973 139.706935,29.0370141 C139.32963,27.7134208 139.072209,26.3714032 139.044287,24.995498 C138.990402,22.3313128 139.829242,19.9592855 141.611227,17.8948792 C141.710687,17.7797269 141.80911,17.6636973 141.908917,17.5487644 C141.920224,17.5357138 141.937878,17.5275983 141.993954,17.4880078 C142.083492,17.7140353 142.178568,17.9255865 142.251837,18.1437178 C142.684987,19.4339717 142.818371,20.7669965 142.851601,22.1113171 C142.888639,23.6056647 142.816986,25.0936516 142.40922,26.547312 C142.180414,27.3629192 141.802071,28.110751 141.146231,28.7014274 C140.946963,28.8809553 140.731196,29.0643216 140.487159,29.1738808 C140.178854,29.3122828 140.041894,29.5063967 139.989394,29.8185142 C139.939779,30.1127557 139.815396,30.3953723 139.729435,30.684569 C139.718012,30.7230628 139.736819,30.7703301 139.74455,30.8131009 C140.229854,33.5247727 140.423237,36.2598039 140.467429,39.0065696 C140.46789,39.0382639 140.476775,39.0697389 140.488775,39.1456297 C140.670504,38.8939397 140.768003,38.6778921 140.743195,38.3939595 C140.489351,35.4818131 141.118654,32.7837403 142.917947,30.3714645 C143.67221,29.3602081 144.57001,28.4871345 145.628886,27.7637588 C145.688193,27.723291 145.751885,27.6884163 145.862653,27.6210797 C145.89773,27.8506165 145.937883,28.0499945 145.957614,28.2512368 C146.123305,29.941124 145.849961,31.59164 145.432156,33.224609 C145.113121,34.4711051 144.689663,35.6885389 143.968976,36.7820469 C143.664133,37.2446301 143.277367,37.6681711 142.874562,38.0599082 C142.420297,38.5016543 141.836802,38.7474222 141.187076,38.8422857 C141.105731,38.8542396 141.001193,38.9186152 140.965771,38.9862809 C140.793849,39.3145197 140.623196,39.6457196 140.491082,39.9894218 C140.430506,40.1469062 140.45289,40.335427 140.448967,40.5101294 C140.388506,43.2703845 140.070047,46.0000419 139.37763,48.6855028 C139.373592,48.7012951 139.380053,48.7195001 139.450552,48.7659997 C139.533859,48.5919553 139.655358,48.4252586 139.694473,48.2425504 C139.994471,46.8439436 140.399814,45.4790053 141.196192,44.254772 C142.537181,42.1931075 144.328627,40.6142052 146.725838,39.7087792 C146.929375,39.6317917 147.144796,39.5832084 147.439024,39.49657 C147.383871,39.9743972 147.388486,40.4158142 147.276103,40.8282787 C146.593031,43.3369535 145.432272,45.6115949 143.509403,47.4853967 C142.856101,48.1220243 142.082454,48.6067606 141.134923,48.7485624 C140.786118,48.8007648 140.420352,48.7688511 140.064047,48.7477947 C139.917395,48.7391309 139.830626,48.7553619 139.744319,48.8759976 C139.542975,49.1574078 139.321092,49.4254385 139.111209,49.7013653 C139.079825,49.7427104 139.064017,49.7964482 139.048556,49.8465668 C138.107025,52.8923995 136.83342,55.8052039 135.183665,58.5675427 C135.167396,58.5948502 135.160934,58.6273122 135.139588,58.6855463 C135.415817,58.5871734 135.596623,58.4554611 135.720314,58.215067 C136.409616,56.8756815 137.238417,55.626334 138.414869,54.6160647 C140.351583,52.9529367 142.614949,52.1609084 145.232081,52.3223409 C145.249504,52.3234376 145.266235,52.3336368 145.346196,52.3614927 C145.22885,52.7205484 145.138159,53.0942999 144.986545,53.4441435 C144.462588,54.6531327 143.638056,55.6742593 142.70841,56.6215788 C141.900032,57.4455208 141.039847,58.216383 139.950394,58.7014483 C138.871788,59.1817978 137.749451,59.3992711 136.565615,59.1101841 C136.38827,59.0668649 136.200079,59.0192686 136.05135,58.9247341 C135.825083,58.7808486 135.651084,58.7951055 135.438086,58.9491902 C135.212857,59.1120485 134.954167,59.2326842 134.714861,59.3786534 C134.664669,59.409251 134.629131,59.4668272 134.596477,59.5174942 C133.094182,61.8460926 131.339658,63.9837577 129.270945,65.8840993 C129.226753,65.9247865 129.190061,65.9728214 129.134792,66.0340166 C129.413097,66.0492606 129.603711,65.9813756 129.780479,65.7874811 C130.821124,64.6456091 132.010037,63.6876518 133.554217,63.2154178 C135.777314,62.5355806 137.971795,62.6792468 140.136624,63.4619533 C140.34916,63.5387215 140.557659,63.6259082 140.847272,63.7393058 C140.57612,64.0716024 140.370968,64.3984156 140.092201,64.6519699 C138.419369,66.1739541 136.447,67.1622897 134.167943,67.5833083 C133.262065,67.7505533 132.357573,67.7923372 131.457119,67.5449243 C130.80324,67.365177 130.239129,67.0473567 129.78994,66.5593304 C129.681249,66.441217 129.573942,66.3799122 129.410328,66.4238894 C129.357598,66.4380366 129.300829,66.4457135 129.246137,66.4449458 C128.714334,66.4367206 128.329991,66.6931264 127.939879,67.0134691 C125.994972,68.6107957 123.846875,69.9117972 121.497202,70.9081386 C121.423702,70.9392845 121.353549,70.9773396 121.257435,71.0239489 C121.544971,71.1431589 121.770315,71.1142063 122.022774,70.9733915 C123.069535,70.389076 124.166257,69.9142099 125.381131,69.7434555 C126.957503,69.5219244 128.466952,69.7900648 129.928862,70.3452084 C131.16566,70.8148104 132.261689,71.501447 133.320103,72.3896549 C132.940376,72.6382742 132.613725,72.9228648 132.23042,73.0916452 C129.681134,74.2149831 127.042886,74.5378482 124.323871,73.7354013 C123.181803,73.3983889 122.290695,72.7243642 121.736392,71.6863487 C121.691393,71.6019037 121.570817,71.5265612 121.470317,71.5013373 C121.185666,71.4299429 120.894668,71.3774115 120.603209,71.3374921 C120.502133,71.3236738 120.385596,71.3530651 120.287058,71.3893654 C118.482804,72.0528619 116.620973,72.5060136 114.709643,72.780076 C114.648143,72.7888495 114.584913,72.7876432 114.524683,72.7909332 C114.46203,72.2963268 114.631528,72.0835692 115.11487,72.0060333 C117.115161,71.685581 119.039068,71.1182641 120.903668,70.3658262 C121.001629,70.3263454 121.096821,70.2097674 121.131089,70.1097494 C121.321357,69.5554831 121.34628,68.9923336 121.295857,68.406044 C121.006591,65.0415136 123.231764,61.3687042 126.419584,59.9008964 C126.49366,59.8667894 126.570967,59.8389335 126.682774,59.7935306 C126.60639,60.2284772 126.538891,60.6376517 126.46216,61.0451811 C126.205547,62.4069391 125.97628,63.7743999 125.672936,65.1267263 C125.537822,65.7291373 125.283516,66.3140012 125.025634,66.8832921 C124.561215,67.9083668 123.76426,68.6691395 122.753268,69.2135357 C122.468963,69.3666334 122.110812,69.3945989 121.788776,69.4870497 C121.721508,69.5063515 121.629316,69.5444065 121.608662,69.5956219 C121.544509,69.7550804 121.509086,69.9250671 121.44251,70.1620615 C121.926775,69.938995 122.34331,69.7585898 122.74923,69.5584442 C125.024826,68.4368609 127.081425,67.0237779 128.928025,65.3350971 C129.002678,65.2668831 129.053908,65.1471247 129.062447,65.0472164 C129.090254,64.7243514 129.095562,64.3995122 129.103292,64.0754408 C129.105139,63.9991113 129.099715,63.9153243 129.068677,63.8467813 C128.266184,62.0701461 128.199954,60.2270516 128.506874,58.3479856 C128.84841,56.2571492 129.773441,54.4260086 131.213198,52.8212244 C131.28289,52.7434692 131.329735,52.6470703 131.387312,52.5593352 C131.415004,52.582585 131.442811,52.6058348 131.470503,52.628975 C131.553234,53.2688926 131.645771,53.9077136 131.716386,54.5488377 C131.848731,55.7514662 132.01696,56.9531077 132.080306,58.1594649 C132.151729,59.5201262 132.10119,60.8822132 131.394119,62.1303543 C130.951392,62.9119641 130.438281,63.6321594 129.553866,64.0289412 C129.507251,64.049888 129.460636,64.1155796 129.454174,64.1651499 C129.425559,64.3877777 129.411367,64.6121601 129.453136,64.8669208 C129.804248,64.5142259 130.16286,64.168111 130.505088,63.8078489 C132.155998,62.0695977 133.579024,60.1749589 134.780514,58.1311703 C134.843629,58.0238046 134.845591,57.8719132 134.840283,57.7420653 C134.808899,56.972519 134.435863,56.3449939 133.993829,55.7142884 C133.218797,54.6084975 132.881069,53.3371067 132.681109,52.0357762 C132.317996,49.6720837 132.710762,47.4100542 133.726485,45.2366371 C133.773792,45.1355224 133.836676,45.0409879 133.907291,44.9170621 C134.694554,46.9771913 135.681661,48.9244712 136.193272,51.0366931 C136.575653,52.6149374 136.526038,54.1529332 135.823006,55.639275 C135.664699,55.9739843 135.380279,56.2547365 135.156665,56.5621382 C135.113165,56.6219078 135.048781,56.6915475 135.051781,56.7540587 C135.062627,56.9780025 135.098281,57.2008496 135.192319,57.4410243 C135.415124,57.0266955 135.646238,56.616205 135.859467,56.1974894 C137.104687,53.7525322 138.056256,51.2074475 138.731366,48.5681571 C138.775212,48.3968544 138.789866,48.2509949 138.662021,48.1037096 C138.593598,48.024748 138.541445,47.9223173 138.515483,47.8226284 C138.365254,47.246867 137.962103,46.8857275 137.473338,46.5386256 C136.318809,45.718851 135.609661,44.5683152 135.025358,43.3413402 C133.923329,41.0274374 133.737677,38.6169163 134.167827,36.1136153 C134.216288,36.1413615 134.252519,36.1512317 134.270519,36.1740428 C135.23328,37.3947667 136.207349,38.6079234 137.151648,39.8413689 C137.843027,40.7444918 138.420984,41.7149513 138.79725,42.7780811 C139.161978,43.8085295 139.289361,44.8679305 139.024556,45.9376403 C138.946557,46.2531576 138.74902,46.5415866 138.611136,46.844492 C138.581367,46.9097449 138.539022,46.995506 138.560598,47.0517661 C138.65429,47.2963276 138.769443,47.5334316 138.93398,47.7698777 C139.059748,47.1550741 139.196939,46.542135 139.308977,45.9250284 C139.71755,43.6747335 139.939433,41.4078786 139.952471,39.1234766 C139.952817,39.0709453 139.955125,39.0180849 139.960894,38.9658825 C139.99724,38.6367663 139.910241,38.3769608 139.700704,38.0793196 C139.338861,37.5656307 138.890711,37.2675508 138.291524,37.0474455 C136.941996,36.551852 136.00762,35.5647228 135.190472,34.4717631 C133.951483,32.8146669 133.335449,30.9431682 133.11299,28.9405055 C133.073875,28.5882492 133.061644,28.2332511 133.033375,27.8274764 C134.178558,28.7012081 135.277356,29.5229567 136.355847,30.3679551 C137.171494,31.0069954 137.886181,31.7424347 138.453407,32.5936842 C139.299515,33.8633204 139.737973,35.2451478 139.467629,36.7464045 C139.378091,37.2437527 139.555667,37.5183635 139.932048,37.8108503 C139.932048,37.6086209 139.937125,37.4241579 139.931356,37.2399143 C139.837434,34.2685467 139.414091,31.338963 138.69802,28.4461183 C138.652905,28.2641777 138.586906,28.1196342 138.390638,28.0525169 C138.348639,28.0380406 138.305254,28.0113911 138.276985,27.9789291 C137.911681,27.5582394 137.426608,27.4943025 136.882343,27.4729171 C135.395625,27.4143539 134.201288,26.7022741 133.120028,25.8073764 C131.451465,24.4266457 130.472666,22.6413466 129.859171,20.6525022 C129.849478,20.6209176 129.853748,20.5854945 129.849825,20.5276991 C131.594079,21.2533778 133.432949,21.717277 135.050166,22.6712862 C136.121272,23.3031981 137.026111,24.0783374 137.510953,25.2226221 C137.752682,25.7930098 137.862066,26.3880729 137.83322,26.9962963 C137.821335,27.2465606 137.886296,27.3924201 138.11441,27.4946315 C138.229793,27.5463952 138.335254,27.6182283 138.504291,27.7146272 C138.357408,27.2098215 138.232332,26.7576569 138.094218,26.309221 C137.370762,23.9591274 136.4515,21.6807573 135.327317,19.4770716 C135.254049,19.3334054 135.181703,19.2240656 134.992359,19.2293297 C134.931321,19.2309747 134.861168,19.2083829 134.808783,19.176579 C134.372056,18.9118384 133.94006,18.9604217 133.456256,19.093121 C132.176998,19.4439516 130.949662,19.1685731 129.772287,18.6707863 C127.947379,17.899266 126.668351,16.5684346 125.664513,14.9681469 C125.64686,14.9400717 125.64109,14.905197 125.613514,14.8280998 C125.958165,14.8500335 126.273854,14.8645098 126.588506,14.89094 C127.818265,14.9943577 129.055524,15.0506178 130.274783,15.2221399 C131.38235,15.3779793 132.400265,15.7902245 133.207951,16.5798402 C133.731908,17.092213 134.080712,17.6904565 134.198404,18.3928854 C134.238442,18.6320732 134.327634,18.7535862 134.571208,18.7949314 C134.7039,18.8174135 134.831283,18.8674225 135.021205,18.9224763 C134.957051,18.7906543 134.920475,18.7078543 134.877437,18.6281251 C133.7506,16.5409077 132.448841,14.5584241 130.954854,12.6898864 C130.855162,12.5650833 130.759048,12.4919341 130.591742,12.518474 C130.538088,12.5269185 130.474858,12.53306 130.426974,12.5144163 C129.933247,12.3226054 129.53252,12.53306 129.087946,12.7209227 C127.454575,13.4111784 125.811627,13.273544 124.203641,12.6268268 C122.953228,12.1239952 121.951698,11.3044399 121.12509,10.2873711 C121.086667,10.2401038 121.053667,10.1888885 120.997014,10.1103656 C121.556855,10.0216435 122.086351,9.92579295 122.619539,9.85604356 C123.459185,9.74626505 124.298717,9.60490192 125.142864,9.56542114 C126.57316,9.49841348 127.900418,9.82489761 128.952255,10.8073111 C129.265753,11.1001269 129.504135,11.4864902 129.69798,11.8662734 C129.819248,12.1039258 129.955055,12.1978023 130.205091,12.2024084 C130.305129,12.2042728 130.405166,12.2140333 130.542934,12.2225875 C130.487896,12.1436259 130.45432,12.0863788 130.411858,12.0358214 C129.259176,10.6621095 128.008878,9.37415868 126.644236,8.18819984 C126.413353,7.98750586 126.166201,7.80249453 125.915819,7.62384399 C125.841858,7.57109328 125.731897,7.5438954 125.637052,7.54027633 C123.447647,7.45791503 121.759584,6.46979878 120.408095,4.90109569 C119.495757,3.84213337 118.889185,2.62809931 118.523534,1.30538343 C118.504842,1.23793709 118.500227,1.16687168 118.48915,1.09756098 L118.599918,1.09756098 Z" id="Fill-4" transform="translate(130.975610, 37.639059) rotate(4.000000) translate(-130.975610, -37.639059) "></path>
                </g>
                <g id="Text" transform="translate(34.390244, 8.780488)">
                    <path d="M16.9329878,23.2441463 C16.7759138,23.0309745 16.5711598,22.8753054 16.3187195,22.7771341 C16.0662792,22.6789629 15.8194524,22.629878 15.5782317,22.629878 C15.2696936,22.629878 14.9892086,22.685975 14.7367683,22.7981707 C14.484328,22.9103664 14.2669521,23.0646332 14.0846341,23.2609756 C13.9023162,23.4573181 13.7620737,23.6873158 13.6639024,23.9509756 C13.5657312,24.2146355 13.5166463,24.5007302 13.5166463,24.8092683 C13.5166463,25.1346358 13.5643288,25.4319499 13.6596951,25.7012195 C13.7550615,25.9704892 13.8910967,26.2018893 14.0678049,26.3954268 C14.2445131,26.5889644 14.4562793,26.7390239 14.7031098,26.8456098 C14.9499403,26.9521957 15.2276204,27.0054878 15.5361585,27.0054878 C15.8559162,27.0054878 16.1392061,26.9423787 16.3860366,26.8161585 C16.6328671,26.6899384 16.8320114,26.5230498 16.9834756,26.3154878 L17.8333537,26.9129268 C17.5696938,27.2439041 17.2471361,27.5005479 16.8656707,27.6828659 C16.4842054,27.8651838 16.0382343,27.9563415 15.5277439,27.9563415 C15.0621318,27.9563415 14.6343922,27.8792081 14.2445122,27.724939 C13.8546322,27.57067 13.5194526,27.3546965 13.2389634,27.0770122 C12.9584742,26.7993279 12.7396959,26.4683556 12.582622,26.0840854 C12.425548,25.6998152 12.3470122,25.2748804 12.3470122,24.8092683 C12.3470122,24.3324366 12.4297553,23.9018922 12.5952439,23.517622 C12.7607325,23.1333517 12.9879254,22.8065867 13.2768293,22.5373171 C13.5657332,22.2680474 13.9065224,22.0604885 14.2992073,21.9146341 C14.6918922,21.7687798 15.1182294,21.6958537 15.5782317,21.6958537 C15.7689644,21.6958537 15.9681087,21.7140852 16.1756707,21.7505488 C16.3832327,21.7870124 16.5823771,21.8431094 16.7731098,21.9188415 C16.9638424,21.9945735 17.1433528,22.088536 17.3116463,22.2007317 C17.4799399,22.3129274 17.6229872,22.4475602 17.7407927,22.6046341 L16.9329878,23.2441463 Z M20.6859146,23.6480488 C20.9495745,23.6480488 21.1753649,23.6943288 21.3632927,23.7868902 C21.5512205,23.8794517 21.7054872,24.0014627 21.8260976,24.1529268 C21.9467079,24.304391 22.0350607,24.4782917 22.0911585,24.6746341 C22.1472564,24.8709766 22.1753049,25.0729258 22.1753049,25.2804878 L22.1753049,27.804878 L21.1655488,27.804878 L21.1655488,25.5834146 C21.1655488,25.4656092 21.1571342,25.3435982 21.1403049,25.217378 C21.1234755,25.0911579 21.0884149,24.9761591 21.035122,24.872378 C20.981829,24.768597 20.9060981,24.6830491 20.8079268,24.6157317 C20.7097556,24.5484143 20.5793301,24.5147561 20.4166463,24.5147561 C20.2539626,24.5147561 20.1137201,24.5456094 19.9959146,24.6073171 C19.8781092,24.6690247 19.7799394,24.7517678 19.7014024,24.8555488 C19.6228655,24.9593298 19.5639636,25.0757311 19.5246951,25.2047561 C19.4854266,25.3337811 19.4657927,25.4656091 19.4657927,25.6002439 L19.4657927,27.804878 L18.4560366,27.804878 L18.4560366,21.4434146 L19.4657927,21.4434146 L19.4657927,24.3296341 L19.482622,24.3296341 C19.5218904,24.2454874 19.5793899,24.1627443 19.655122,24.0814024 C19.730854,24.0000606 19.8192068,23.9271345 19.9201829,23.862622 C20.021159,23.7981094 20.1361579,23.7462197 20.2651829,23.7069512 C20.394208,23.6676827 20.5344505,23.6480488 20.6859146,23.6480488 Z M23.3701829,23.7658537 L24.379939,23.7658537 L24.379939,27.804878 L23.3701829,27.804878 L23.3701829,23.7658537 Z M23.2271341,22.3942683 C23.2271341,22.2315846 23.2874384,22.0899396 23.4080488,21.9693293 C23.5286591,21.8487189 23.6815235,21.7884146 23.8666463,21.7884146 C24.0517692,21.7884146 24.2074384,21.8459141 24.3336585,21.9609146 C24.4598787,22.0759152 24.5229878,22.220365 24.5229878,22.3942683 C24.5229878,22.5681716 24.4598787,22.7126214 24.3336585,22.827622 C24.2074384,22.9426225 24.0517692,23.000122 23.8666463,23.000122 C23.6815235,23.000122 23.5286591,22.9398177 23.4080488,22.8192073 C23.2874384,22.698597 23.2271341,22.556952 23.2271341,22.3942683 Z M25.6253049,21.4434146 L26.635061,21.4434146 L26.635061,27.804878 L25.6253049,27.804878 L25.6253049,21.4434146 Z M31.969939,27.804878 L31.0106707,27.804878 L31.0106707,27.1990244 L30.9938415,27.1990244 C30.8535969,27.4346353 30.6586598,27.6141457 30.4090244,27.737561 C30.159389,27.8609762 29.8915258,27.9226829 29.6054268,27.9226829 C29.2968887,27.9226829 29.020611,27.8651835 28.7765854,27.7501829 C28.5325598,27.6351824 28.3250009,27.4809156 28.1539024,27.287378 C27.982804,27.0938405 27.8509761,26.8666476 27.7584146,26.6057927 C27.6658532,26.3449377 27.6195732,26.0658551 27.6195732,25.7685366 C27.6195732,25.471218 27.6672556,25.1935379 27.762622,24.9354878 C27.8579883,24.6774377 27.9926211,24.4530497 28.1665244,24.2623171 C28.3404277,24.0715844 28.5479866,23.9215249 28.7892073,23.8121341 C29.030428,23.7027434 29.2940839,23.6480488 29.5801829,23.6480488 C29.7653058,23.6480488 29.930792,23.6690852 30.0766463,23.7111585 C30.2225007,23.7532319 30.3501214,23.8051216 30.4595122,23.8668293 C30.568903,23.9285369 30.6628655,23.9958533 30.7414024,24.0687805 C30.8199394,24.1417077 30.884451,24.2118289 30.934939,24.2791463 L30.9601829,24.2791463 L30.9601829,21.4434146 L31.969939,21.4434146 L31.969939,27.804878 Z M28.6461585,25.7685366 C28.6461585,25.9256105 28.6699998,26.0826821 28.7176829,26.2397561 C28.7653661,26.3968301 28.8368898,26.5370726 28.9322561,26.6604878 C29.0276224,26.7839031 29.148231,26.8848777 29.2940854,26.9634146 C29.4399398,27.0419516 29.6110356,27.0812195 29.807378,27.0812195 C29.9925009,27.0812195 30.1579871,27.043354 30.3038415,26.967622 C30.4496959,26.8918899 30.5745117,26.7923177 30.6782927,26.6689024 C30.7820737,26.5454872 30.8606095,26.4066471 30.9139024,26.252378 C30.9671954,26.098109 30.9938415,25.9424398 30.9938415,25.7853659 C30.9938415,25.6282919 30.9671954,25.4712203 30.9139024,25.3141463 C30.8606095,25.1570724 30.7820737,25.0168299 30.6782927,24.8934146 C30.5745117,24.7699994 30.4496959,24.6690248 30.3038415,24.5904878 C30.1579871,24.5119508 29.9925009,24.4726829 29.807378,24.4726829 C29.6110356,24.4726829 29.4399398,24.5105484 29.2940854,24.5862805 C29.148231,24.6620126 29.0276224,24.7615847 28.9322561,24.885 C28.8368898,25.0084153 28.7653661,25.1472553 28.7176829,25.3015244 C28.6699998,25.4557935 28.6461585,25.6114626 28.6461585,25.7685366 Z M33.1984756,23.7658537 L34.1661585,23.7658537 L34.1661585,24.4390244 L34.1829878,24.4390244 C34.2951835,24.2034135 34.4522551,24.0126837 34.6542073,23.8668293 C34.8561595,23.7209749 35.0917669,23.6480488 35.3610366,23.6480488 C35.4003051,23.6480488 35.4423778,23.6494512 35.4872561,23.6522561 C35.5321344,23.655061 35.5714023,23.6620731 35.605061,23.6732927 L35.605061,24.5989024 C35.5377436,24.5820731 35.4802441,24.5708537 35.432561,24.5652439 C35.3848778,24.5596341 35.3385978,24.5568293 35.2937195,24.5568293 C35.0637184,24.5568293 34.8785983,24.598902 34.7383537,24.6830488 C34.5981091,24.7671955 34.4887199,24.8681701 34.4101829,24.9859756 C34.3316459,25.1037811 34.2783538,25.2243896 34.2503049,25.3478049 C34.222256,25.4712201 34.2082317,25.5693899 34.2082317,25.6423171 L34.2082317,27.804878 L33.1984756,27.804878 L33.1984756,23.7658537 Z M38.9540854,25.3814634 C38.9540854,25.2524384 38.9358538,25.129025 38.8993902,25.0112195 C38.8629266,24.893414 38.8054272,24.7896346 38.7268902,24.699878 C38.6483533,24.6101215 38.5487811,24.5385978 38.4281707,24.4853049 C38.3075604,24.4320119 38.1659154,24.4053659 38.0032317,24.4053659 C37.7003034,24.4053659 37.4436596,24.4965235 37.2332927,24.6788415 C37.0229258,24.8611594 36.9065245,25.0953644 36.8840854,25.3814634 L38.9540854,25.3814634 Z M39.9638415,25.8358537 L39.9638415,25.9704878 C39.9638415,26.0153661 39.9610366,26.0602437 39.9554268,26.105122 L36.8840854,26.105122 C36.8953049,26.2509763 36.9331704,26.3842067 36.9976829,26.5048171 C37.0621954,26.6254274 37.1477434,26.7292069 37.2543293,26.8161585 C37.3609152,26.9031102 37.4815237,26.971829 37.6161585,27.0223171 C37.7507934,27.0728051 37.8910359,27.0980488 38.0368902,27.0980488 C38.2893305,27.0980488 38.5024991,27.0517688 38.6764024,26.9592073 C38.8503057,26.8666459 38.9933531,26.7390252 39.1055488,26.5763415 L39.7787195,27.114878 C39.3804248,27.6534173 38.8026257,27.9226829 38.0453049,27.9226829 C37.731157,27.9226829 37.4422574,27.8735981 37.1785976,27.7754268 C36.9149377,27.6772556 36.6863424,27.5384155 36.4928049,27.3589024 C36.2992673,27.1793893 36.1478054,26.9592086 36.0384146,26.6983537 C35.9290238,26.4374987 35.8743293,26.141587 35.8743293,25.8106098 C35.8743293,25.4852423 35.9290238,25.1893306 36.0384146,24.9228659 C36.1478054,24.6564011 36.2978649,24.4292083 36.4885976,24.2412805 C36.6793302,24.0533527 36.9051206,23.9075005 37.1659756,23.8037195 C37.4268306,23.6999385 37.708718,23.6480488 38.0116463,23.6480488 C38.2921355,23.6480488 38.5515842,23.6943288 38.79,23.7868902 C39.0284158,23.8794517 39.2345723,24.0168893 39.4084756,24.1992073 C39.5823789,24.3815253 39.7184141,24.6087182 39.8165854,24.8807927 C39.9147566,25.1528672 39.9638415,25.4712177 39.9638415,25.8358537 Z M40.939939,23.7658537 L41.8992073,23.7658537 L41.8992073,24.4137805 L41.9160366,24.4137805 C42.0057931,24.2118283 42.1614623,24.0337203 42.3830488,23.8794512 C42.6046353,23.7251822 42.8668887,23.6480488 43.1698171,23.6480488 C43.4334769,23.6480488 43.6592674,23.6943288 43.8471951,23.7868902 C44.0351229,23.8794517 44.1893896,24.0014627 44.31,24.1529268 C44.4306104,24.304391 44.5189631,24.4782917 44.575061,24.6746341 C44.6311588,24.8709766 44.6592073,25.0729258 44.6592073,25.2804878 L44.6592073,27.804878 L43.6494512,27.804878 L43.6494512,25.5665854 C43.6494512,25.4487799 43.6410367,25.3253665 43.6242073,25.1963415 C43.607378,25.0673164 43.5709149,24.9509152 43.5148171,24.8471341 C43.4587192,24.7433531 43.3815859,24.6578052 43.2834146,24.5904878 C43.1852434,24.5231704 43.0548179,24.4895122 42.8921341,24.4895122 C42.7294504,24.4895122 42.5892079,24.521768 42.4714024,24.5862805 C42.353597,24.650793 42.2568296,24.7335361 42.1810976,24.8345122 C42.1053655,24.9354883 42.047866,25.0518896 42.0085976,25.1837195 C41.9693291,25.3155494 41.9496951,25.4487798 41.9496951,25.5834146 L41.9496951,27.804878 L40.939939,27.804878 L40.939939,23.7658537 Z M46.1738415,21.8473171 L47.149939,21.8473171 L46.4346951,24.0687805 L45.5848171,24.0687805 L46.1738415,21.8473171 Z M49.9183537,24.8429268 C49.8285971,24.7251214 49.7051837,24.6227443 49.5481098,24.5357927 C49.3910358,24.448841 49.2199399,24.4053659 49.0348171,24.4053659 C48.8721333,24.4053659 48.7234763,24.4390241 48.5888415,24.5063415 C48.4542066,24.5736589 48.3868902,24.6858529 48.3868902,24.8429268 C48.3868902,25.0000008 48.4612188,25.1107924 48.609878,25.1753049 C48.7585373,25.2398174 48.9759132,25.3057314 49.2620122,25.3730488 C49.4134764,25.4067075 49.5663407,25.4515851 49.7206098,25.5076829 C49.8748788,25.5637808 50.0151213,25.6381093 50.1413415,25.7306707 C50.2675616,25.8232322 50.3699386,25.938231 50.4484756,26.0756707 C50.5270126,26.2131104 50.5662805,26.379999 50.5662805,26.5763415 C50.5662805,26.823172 50.5200005,27.0321333 50.427439,27.2032317 C50.3348776,27.3743301 50.2114642,27.5131702 50.0571951,27.6197561 C49.9029261,27.726342 49.7234157,27.8034754 49.5186585,27.8511585 C49.3139014,27.8988417 49.1021352,27.9226829 48.8833537,27.9226829 C48.5692057,27.9226829 48.2634771,27.8651835 47.9661585,27.7501829 C47.66884,27.6351824 47.4220132,27.4710986 47.2256707,27.2579268 L47.8904268,26.6352439 C48.0026225,26.7810983 48.1484747,26.9017068 48.3279878,26.9970732 C48.5075009,27.0924395 48.7066452,27.140122 48.9254268,27.140122 C48.998354,27.140122 49.0726825,27.1317074 49.1484146,27.114878 C49.2241467,27.0980487 49.294268,27.0714026 49.3587805,27.034939 C49.423293,26.9984754 49.4751827,26.9493906 49.5144512,26.8876829 C49.5537197,26.8259753 49.5733537,26.7502444 49.5733537,26.6604878 C49.5733537,26.4921943 49.4962203,26.3715857 49.3419512,26.2986585 C49.1876822,26.2257313 48.956282,26.1528052 48.6477439,26.079878 C48.4962797,26.0462193 48.3490251,26.0027442 48.2059756,25.9494512 C48.0629261,25.8961583 47.9353054,25.826037 47.8231098,25.7390854 C47.7109141,25.6521337 47.6211589,25.544147 47.5538415,25.415122 C47.4865241,25.2860969 47.4528659,25.1262205 47.4528659,24.9354878 C47.4528659,24.7110964 47.4991459,24.5175618 47.5917073,24.354878 C47.6842688,24.1921943 47.8062797,24.0589639 47.9577439,23.9551829 C48.1092081,23.8514019 48.2803039,23.7742685 48.4710366,23.7237805 C48.6617692,23.6732924 48.8581087,23.6480488 49.060061,23.6480488 C49.3517698,23.6480488 49.636462,23.6985361 49.9141463,23.7995122 C50.1918307,23.9004883 50.4120114,24.0547551 50.5746951,24.2623171 L49.9183537,24.8429268 Z M53.5955488,21.8473171 L57.4410366,21.8473171 L57.4410366,22.7729268 L54.6557927,22.7729268 L54.6557927,24.4053659 L57.2811585,24.4053659 L57.2811585,25.2973171 L54.6557927,25.2973171 L54.6557927,27.804878 L53.5955488,27.804878 L53.5955488,21.8473171 Z M58.2320122,23.7658537 L59.2417683,23.7658537 L59.2417683,27.804878 L58.2320122,27.804878 L58.2320122,23.7658537 Z M58.0889634,22.3942683 C58.0889634,22.2315846 58.1492677,22.0899396 58.269878,21.9693293 C58.3904884,21.8487189 58.5433527,21.7884146 58.7284756,21.7884146 C58.9135985,21.7884146 59.0692677,21.8459141 59.1954878,21.9609146 C59.3217079,22.0759152 59.3848171,22.220365 59.3848171,22.3942683 C59.3848171,22.5681716 59.3217079,22.7126214 59.1954878,22.827622 C59.0692677,22.9426225 58.9135985,23.000122 58.7284756,23.000122 C58.5433527,23.000122 58.3904884,22.9398177 58.269878,22.8192073 C58.1492677,22.698597 58.0889634,22.556952 58.0889634,22.3942683 Z M60.4871341,21.4434146 L61.4968902,21.4434146 L61.4968902,27.804878 L60.4871341,27.804878 L60.4871341,21.4434146 Z M67.5470122,23.6480488 C67.810672,23.6480488 68.0364625,23.6943288 68.2243902,23.7868902 C68.412318,23.8794517 68.5665848,24.0014627 68.6871951,24.1529268 C68.8078055,24.304391 68.8961583,24.4782917 68.9522561,24.6746341 C69.0083539,24.8709766 69.0364024,25.0729258 69.0364024,25.2804878 L69.0364024,27.804878 L68.0266463,27.804878 L68.0266463,25.5665854 C68.0266463,25.4487799 68.0182318,25.3253665 68.0014024,25.1963415 C67.9845731,25.0673164 67.94811,24.9509152 67.8920122,24.8471341 C67.8359144,24.7433531 67.758781,24.6578052 67.6606098,24.5904878 C67.5624385,24.5231704 67.432013,24.4895122 67.2693293,24.4895122 C67.1122553,24.4895122 66.9776225,24.5231704 66.8654268,24.5904878 C66.7532311,24.6578052 66.6606711,24.7447556 66.5877439,24.8513415 C66.5148167,24.9579274 66.4615246,25.0771335 66.4278659,25.2089634 C66.3942071,25.3407933 66.377378,25.4712189 66.377378,25.6002439 L66.377378,27.804878 L65.367622,27.804878 L65.367622,25.3646341 C65.367622,25.1121939 65.3073177,24.9032325 65.1867073,24.7377439 C65.066097,24.5722553 64.8767696,24.4895122 64.6187195,24.4895122 C64.4672553,24.4895122 64.3354274,24.521768 64.2232317,24.5862805 C64.111036,24.650793 64.0198784,24.7335361 63.9497561,24.8345122 C63.8796338,24.9354883 63.8263416,25.0518896 63.789878,25.1837195 C63.7534145,25.3155494 63.7351829,25.4487798 63.7351829,25.5834146 L63.7351829,27.804878 L62.7254268,27.804878 L62.7254268,23.7658537 L63.6846951,23.7658537 L63.6846951,24.4137805 L63.7015244,24.4137805 C63.7464027,24.3128044 63.8067069,24.2174395 63.882439,24.1276829 C63.9581711,24.0379264 64.0479263,23.9565857 64.1517073,23.8836585 C64.2554883,23.8107313 64.3746944,23.7532319 64.5093293,23.7111585 C64.6439641,23.6690852 64.7926211,23.6480488 64.9553049,23.6480488 C65.2694528,23.6480488 65.5303038,23.71817 65.7378659,23.8584146 C65.9454279,23.9986592 66.1053043,24.1837793 66.2175,24.4137805 C66.3521348,24.16695 66.5316452,23.9776226 66.7560366,23.8457927 C66.980428,23.7139628 67.2440839,23.6480488 67.5470122,23.6480488 Z M12.3301829,33.1887805 L16.1756707,33.1887805 L16.1756707,34.1143902 L13.3904268,34.1143902 L13.3904268,35.7468293 L16.0157927,35.7468293 L16.0157927,36.6387805 L13.3904268,36.6387805 L13.3904268,39.1463415 L12.3301829,39.1463415 L12.3301829,33.1887805 Z M19.5415244,36.7229268 C19.5415244,36.5939018 19.5232929,36.4704884 19.4868293,36.3526829 C19.4503657,36.2348775 19.3928662,36.131098 19.3143293,36.0413415 C19.2357923,35.9515849 19.1362201,35.8800612 19.0156098,35.8267683 C18.8949994,35.7734753 18.7533545,35.7468293 18.5906707,35.7468293 C18.2877424,35.7468293 18.0310986,35.8379869 17.8207317,36.0203049 C17.6103648,36.2026229 17.4939635,36.4368278 17.4715244,36.7229268 L19.5415244,36.7229268 Z M20.5512805,37.1773171 L20.5512805,37.3119512 C20.5512805,37.3568295 20.5484756,37.4017071 20.5428659,37.4465854 L17.4715244,37.4465854 C17.482744,37.5924398 17.5206094,37.7256701 17.585122,37.8462805 C17.6496345,37.9668908 17.7351824,38.0706703 17.8417683,38.157622 C17.9483542,38.2445736 18.0689627,38.3132924 18.2035976,38.3637805 C18.3382324,38.4142685 18.4784749,38.4395122 18.6243293,38.4395122 C18.8767696,38.4395122 19.0899382,38.3932322 19.2638415,38.3006707 C19.4377448,38.2081093 19.5807921,38.0804886 19.6929878,37.9178049 L20.3661585,38.4563415 C19.9678639,38.9948807 19.3900648,39.2641463 18.6327439,39.2641463 C18.318596,39.2641463 18.0296964,39.2150615 17.7660366,39.1168902 C17.5023767,39.018719 17.2737815,38.8798789 17.0802439,38.7003659 C16.8867063,38.5208528 16.7352444,38.300672 16.6258537,38.0398171 C16.5164629,37.7789621 16.4617683,37.4830504 16.4617683,37.1520732 C16.4617683,36.8267057 16.5164629,36.530794 16.6258537,36.2643293 C16.7352444,35.9978645 16.8853039,35.7706717 17.0760366,35.5827439 C17.2667692,35.3948161 17.4925597,35.2489639 17.7534146,35.1451829 C18.0142696,35.0414019 18.296157,34.9895122 18.5990854,34.9895122 C18.8795746,34.9895122 19.1390232,35.0357922 19.377439,35.1283537 C19.6158549,35.2209151 19.8220113,35.3583527 19.9959146,35.5406707 C20.1698179,35.7229887 20.3058532,35.9501816 20.4040244,36.2222561 C20.5021956,36.4943306 20.5512805,36.8126811 20.5512805,37.1773171 Z M23.7404268,36.1843902 C23.6506703,36.0665848 23.5272569,35.9642078 23.3701829,35.8772561 C23.213109,35.7903044 23.0420131,35.7468293 22.8568902,35.7468293 C22.6942065,35.7468293 22.5455495,35.7804875 22.4109146,35.8478049 C22.2762798,35.9151223 22.2089634,36.0273163 22.2089634,36.1843902 C22.2089634,36.3414642 22.2832919,36.4522558 22.4319512,36.5167683 C22.5806105,36.5812808 22.7979864,36.6471948 23.0840854,36.7145122 C23.2355495,36.7481709 23.3884139,36.7930485 23.5426829,36.8491463 C23.696952,36.9052442 23.8371945,36.9795727 23.9634146,37.0721341 C24.0896348,37.1646956 24.1920118,37.2796944 24.2705488,37.4171341 C24.3490858,37.5545739 24.3883537,37.7214624 24.3883537,37.9178049 C24.3883537,38.1646354 24.3420736,38.3735967 24.2495122,38.5446951 C24.1569508,38.7157935 24.0335374,38.8546336 23.8792683,38.9612195 C23.7249992,39.0678054 23.5454888,39.1449388 23.3407317,39.192622 C23.1359746,39.2403051 22.9242084,39.2641463 22.7054268,39.2641463 C22.3912789,39.2641463 22.0855503,39.2066469 21.7882317,39.0916463 C21.4909131,38.9766458 21.2440863,38.812562 21.0477439,38.5993902 L21.7125,37.9767073 C21.8246957,38.1225617 21.9705479,38.2431703 22.150061,38.3385366 C22.3295741,38.4339029 22.5287184,38.4815854 22.7475,38.4815854 C22.8204272,38.4815854 22.8947557,38.4731708 22.9704878,38.4563415 C23.0462199,38.4395121 23.1163411,38.412866 23.1808537,38.3764024 C23.2453662,38.3399388 23.2972559,38.290854 23.3365244,38.2291463 C23.3757929,38.1674387 23.3954268,38.0917078 23.3954268,38.0019512 C23.3954268,37.8336577 23.3182935,37.7130491 23.1640244,37.640122 C23.0097553,37.5671948 22.7783552,37.4942687 22.4698171,37.4213415 C22.3183529,37.3876828 22.1710983,37.3442076 22.0280488,37.2909146 C21.8849993,37.2376217 21.7573786,37.1675004 21.6451829,37.0805488 C21.5329872,36.9935971 21.443232,36.8856104 21.3759146,36.7565854 C21.3085972,36.6275603 21.274939,36.4676839 21.274939,36.2769512 C21.274939,36.0525599 21.321219,35.8590252 21.4137805,35.6963415 C21.5063419,35.5336577 21.6283529,35.4004273 21.7798171,35.2966463 C21.9312812,35.1928653 22.1023771,35.115732 22.2931098,35.0652439 C22.4838424,35.0147558 22.6801819,34.9895122 22.8821341,34.9895122 C23.1738429,34.9895122 23.4585352,35.0399995 23.7362195,35.1409756 C24.0139038,35.2419517 24.2340846,35.3962185 24.3967683,35.6037805 L23.7404268,36.1843902 Z M24.6828659,35.915122 L24.6828659,35.1073171 L25.3896951,35.1073171 L25.3896951,33.9376829 L26.382622,33.9376829 L26.382622,35.1073171 L27.392378,35.1073171 L27.392378,35.915122 L26.382622,35.915122 L26.382622,37.7915854 C26.382622,37.9710985 26.4148777,38.1197555 26.4793902,38.237561 C26.5439028,38.3553664 26.6883525,38.4142683 26.9127439,38.4142683 C26.9800613,38.4142683 27.0529874,38.4072562 27.1315244,38.3932317 C27.2100614,38.3792072 27.2801826,38.3581709 27.3418902,38.330122 L27.3755488,39.1210976 C27.2857922,39.1547563 27.1792079,39.1814023 27.0557927,39.2010366 C26.9323774,39.2206708 26.8145737,39.2304878 26.702378,39.2304878 C26.4331084,39.2304878 26.2143301,39.1926223 26.0460366,39.1168902 C25.8777431,39.0411582 25.7445127,38.9373787 25.6463415,38.8055488 C25.5481702,38.6737189 25.4808538,38.522257 25.4443902,38.3511585 C25.4079266,38.1800601 25.3896951,37.9963424 25.3896951,37.8 L25.3896951,35.915122 L24.6828659,35.915122 Z M28.1412805,35.1073171 L29.1510366,35.1073171 L29.1510366,39.1463415 L28.1412805,39.1463415 L28.1412805,35.1073171 Z M27.9982317,33.7357317 C27.9982317,33.573048 28.058536,33.431403 28.1791463,33.3107927 C28.2997567,33.1901823 28.452621,33.129878 28.6377439,33.129878 C28.8228668,33.129878 28.978536,33.1873775 29.1047561,33.302378 C29.2309762,33.4173786 29.2940854,33.5618284 29.2940854,33.7357317 C29.2940854,33.909635 29.2309762,34.0540848 29.1047561,34.1690854 C28.978536,34.2840859 28.8228668,34.3415854 28.6377439,34.3415854 C28.452621,34.3415854 28.2997567,34.2812811 28.1791463,34.1606707 C28.058536,34.0400604 27.9982317,33.8984154 27.9982317,33.7357317 Z M29.7737195,35.1073171 L30.8760366,35.1073171 L31.9362805,38.052439 L31.9531098,38.052439 L33.0217683,35.1073171 L34.0904268,35.1073171 L32.4832317,39.1463415 L31.4061585,39.1463415 L29.7737195,35.1073171 Z M37.2038415,38.6330488 L37.1785976,38.6330488 C37.0776214,38.8125619 36.9149401,38.9598165 36.6905488,39.0748171 C36.4661574,39.1898176 36.2109161,39.2473171 35.9248171,39.2473171 C35.7621333,39.2473171 35.5924399,39.2262807 35.4157317,39.1842073 C35.2390235,39.1421339 35.0763422,39.0720127 34.9276829,38.9738415 C34.7790236,38.8756702 34.6556102,38.7466471 34.557439,38.5867683 C34.4592678,38.4268894 34.4101829,38.2291475 34.4101829,37.9935366 C34.4101829,37.6906082 34.4957309,37.4493911 34.6668293,37.269878 C34.8379277,37.090365 35.0581084,36.9529273 35.327378,36.857561 C35.5966477,36.7621946 35.8953642,36.6990855 36.2235366,36.6682317 C36.551709,36.6373779 36.8728643,36.6219512 37.1870122,36.6219512 L37.1870122,36.5209756 C37.1870122,36.2685353 37.0958546,36.0820128 36.9135366,35.9614024 C36.7312186,35.8407921 36.5138427,35.7804878 36.2614024,35.7804878 C36.0482306,35.7804878 35.8434766,35.8253654 35.6471341,35.915122 C35.4507917,36.0048785 35.2881104,36.1142676 35.1590854,36.2432927 L34.637378,35.6290244 C34.8673792,35.4158526 35.1324375,35.2559761 35.432561,35.1493902 C35.7326844,35.0428043 36.0370107,34.9895122 36.3455488,34.9895122 C36.704575,34.9895122 37.0004866,35.0399995 37.2332927,35.1409756 C37.4660987,35.2419517 37.6498164,35.3737797 37.7844512,35.5364634 C37.919086,35.6991472 38.0130485,35.8814624 38.0663415,36.0834146 C38.1196344,36.2853669 38.1462805,36.4873161 38.1462805,36.6892683 L38.1462805,39.1463415 L37.2038415,39.1463415 L37.2038415,38.6330488 Z M37.1870122,37.3035366 L36.9598171,37.3035366 C36.7971333,37.3035366 36.6260375,37.3105487 36.4465244,37.3245732 C36.2670113,37.3385976 36.1015251,37.369451 35.950061,37.4171341 C35.7985968,37.4648173 35.6723786,37.5321337 35.5714024,37.6190854 C35.4704263,37.706037 35.419939,37.8252431 35.419939,37.9767073 C35.419939,38.0720736 35.4409754,38.1520119 35.4830488,38.2165244 C35.5251222,38.2810369 35.5798167,38.3329266 35.6471341,38.3721951 C35.7144516,38.4114636 35.7901825,38.4395121 35.8743293,38.4563415 C35.958476,38.4731708 36.0426215,38.4815854 36.1267683,38.4815854 C36.4745749,38.4815854 36.7382308,38.3890253 36.9177439,38.2039024 C37.097257,38.0187796 37.1870122,37.7663431 37.1870122,37.4465854 L37.1870122,37.3035366 Z M39.3411585,32.784878 L40.3509146,32.784878 L40.3509146,39.1463415 L39.3411585,39.1463415 L39.3411585,32.784878 Z M46.7712805,34.4341463 C46.6590848,34.288292 46.5006108,34.166281 46.2958537,34.0681098 C46.0910965,33.9699385 45.8849401,33.9208537 45.677378,33.9208537 C45.5539628,33.9208537 45.4305494,33.9362803 45.3071341,33.9671341 C45.1837189,33.997988 45.0715249,34.0456704 44.9705488,34.1101829 C44.8695727,34.1746954 44.7868296,34.2588409 44.7223171,34.362622 C44.6578046,34.466403 44.6255488,34.5912188 44.6255488,34.7370732 C44.6255488,34.871708 44.6535973,34.9867068 44.7096951,35.0820732 C44.765793,35.1774395 44.8429263,35.2587802 44.9410976,35.3260976 C45.0392688,35.393415 45.1584749,35.4523168 45.2987195,35.5028049 C45.4389641,35.5532929 45.5932309,35.6037802 45.7615244,35.6542683 C45.9522571,35.7159759 46.149999,35.7860972 46.3547561,35.8646341 C46.5595132,35.9431711 46.7474382,36.0469506 46.9185366,36.1759756 C47.089635,36.3050006 47.2298775,36.4676819 47.3392683,36.6640244 C47.4486591,36.8603668 47.5033537,37.1043888 47.5033537,37.3960976 C47.5033537,37.7158553 47.4444518,37.9949378 47.3266463,38.2333537 C47.2088409,38.4717695 47.0517693,38.6695114 46.8554268,38.8265854 C46.6590844,38.9836593 46.4290867,39.101463 46.1654268,39.18 C45.901767,39.258537 45.6240868,39.2978049 45.332378,39.2978049 C44.9453029,39.2978049 44.5666482,39.2262812 44.1964024,39.0832317 C43.8261567,38.9401822 43.5232329,38.728416 43.287622,38.4479268 L44.044939,37.7410976 C44.1907934,37.9430498 44.3857305,38.1029262 44.6297561,38.2207317 C44.8737817,38.3385372 45.1135964,38.397439 45.3492073,38.397439 C45.4726226,38.397439 45.5988408,38.3820123 45.7278659,38.3511585 C45.8568909,38.3203047 45.9732922,38.268415 46.0770732,38.1954878 C46.1808542,38.1225606 46.2649997,38.031403 46.3295122,37.9220122 C46.3940247,37.8126214 46.4262805,37.6765862 46.4262805,37.5139024 C46.4262805,37.3568285 46.3898174,37.226403 46.3168902,37.122622 C46.243963,37.0188409 46.1457933,36.9290857 46.022378,36.8533537 C45.8989628,36.7776216 45.7531106,36.7117076 45.5848171,36.6556098 L45.0546951,36.4789024 C44.875182,36.4228046 44.6956716,36.3554882 44.5161585,36.2769512 C44.3366454,36.1984142 44.1753666,36.0946348 44.0323171,35.9656098 C43.8892676,35.8365847 43.7728663,35.6781107 43.6831098,35.4901829 C43.5933532,35.3022552 43.5484756,35.0680502 43.5484756,34.787561 C43.5484756,34.4846326 43.6115847,34.2237816 43.7378049,34.005 C43.864025,33.7862184 44.0295112,33.6053056 44.2342683,33.4622561 C44.4390254,33.3192066 44.671828,33.2126223 44.9326829,33.1425 C45.1935379,33.0723777 45.4585962,33.0373171 45.7278659,33.0373171 C46.0307942,33.0373171 46.3379253,33.0906092 46.6492683,33.1971951 C46.9606113,33.303781 47.2312793,33.4636575 47.4612805,33.6768293 L46.7712805,34.4341463 Z M51.3572561,36.7229268 C51.3572561,36.5939018 51.3390246,36.4704884 51.302561,36.3526829 C51.2660974,36.2348775 51.208598,36.131098 51.130061,36.0413415 C51.051524,35.9515849 50.9519518,35.8800612 50.8313415,35.8267683 C50.7107311,35.7734753 50.5690862,35.7468293 50.4064024,35.7468293 C50.1034741,35.7468293 49.8468303,35.8379869 49.6364634,36.0203049 C49.4260965,36.2026229 49.3096952,36.4368278 49.2872561,36.7229268 L51.3572561,36.7229268 Z M52.3670122,37.1773171 L52.3670122,37.3119512 C52.3670122,37.3568295 52.3642073,37.4017071 52.3585976,37.4465854 L49.2872561,37.4465854 C49.2984757,37.5924398 49.3363411,37.7256701 49.4008537,37.8462805 C49.4653662,37.9668908 49.5509141,38.0706703 49.6575,38.157622 C49.7640859,38.2445736 49.8846944,38.3132924 50.0193293,38.3637805 C50.1539641,38.4142685 50.2942066,38.4395122 50.440061,38.4395122 C50.6925013,38.4395122 50.9056699,38.3932322 51.0795732,38.3006707 C51.2534765,38.2081093 51.3965238,38.0804886 51.5087195,37.9178049 L52.1818902,38.4563415 C51.7835956,38.9948807 51.2057965,39.2641463 50.4484756,39.2641463 C50.1343277,39.2641463 49.8454281,39.2150615 49.5817683,39.1168902 C49.3181084,39.018719 49.0895132,38.8798789 48.8959756,38.7003659 C48.7024381,38.5208528 48.5509762,38.300672 48.4415854,38.0398171 C48.3321946,37.7789621 48.2775,37.4830504 48.2775,37.1520732 C48.2775,36.8267057 48.3321946,36.530794 48.4415854,36.2643293 C48.5509762,35.9978645 48.7010356,35.7706717 48.8917683,35.5827439 C49.082501,35.3948161 49.3082914,35.2489639 49.5691463,35.1451829 C49.8300013,35.0414019 50.1118887,34.9895122 50.4148171,34.9895122 C50.6953063,34.9895122 50.9547549,35.0357922 51.1931707,35.1283537 C51.4315866,35.2209151 51.637743,35.3583527 51.8116463,35.5406707 C51.9855496,35.7229887 52.1215849,35.9501816 52.2197561,36.2222561 C52.3179273,36.4943306 52.3670122,36.8126811 52.3670122,37.1773171 Z M55.8001829,38.6330488 L55.774939,38.6330488 C55.6739629,38.8125619 55.5112816,38.9598165 55.2868902,39.0748171 C55.0624989,39.1898176 54.8072575,39.2473171 54.5211585,39.2473171 C54.3584748,39.2473171 54.1887814,39.2262807 54.0120732,39.1842073 C53.835365,39.1421339 53.6726837,39.0720127 53.5240244,38.9738415 C53.3753651,38.8756702 53.2519517,38.7466471 53.1537805,38.5867683 C53.0556093,38.4268894 53.0065244,38.2291475 53.0065244,37.9935366 C53.0065244,37.6906082 53.0920723,37.4493911 53.2631707,37.269878 C53.4342691,37.090365 53.6544499,36.9529273 53.9237195,36.857561 C54.1929892,36.7621946 54.4917057,36.6990855 54.819878,36.6682317 C55.1480504,36.6373779 55.4692057,36.6219512 55.7833537,36.6219512 L55.7833537,36.5209756 C55.7833537,36.2685353 55.692196,36.0820128 55.509878,35.9614024 C55.3275601,35.8407921 55.1101842,35.7804878 54.8577439,35.7804878 C54.6445721,35.7804878 54.4398181,35.8253654 54.2434756,35.915122 C54.0471332,36.0048785 53.8844519,36.1142676 53.7554268,36.2432927 L53.2337195,35.6290244 C53.4637207,35.4158526 53.728779,35.2559761 54.0289024,35.1493902 C54.3290259,35.0428043 54.6333521,34.9895122 54.9418902,34.9895122 C55.3009164,34.9895122 55.5968281,35.0399995 55.8296341,35.1409756 C56.0624402,35.2419517 56.2461579,35.3737797 56.3807927,35.5364634 C56.5154275,35.6991472 56.60939,35.8814624 56.6626829,36.0834146 C56.7159759,36.2853669 56.742622,36.4873161 56.742622,36.6892683 L56.742622,39.1463415 L55.8001829,39.1463415 L55.8001829,38.6330488 Z M55.7833537,37.3035366 L55.5561585,37.3035366 C55.3934748,37.3035366 55.2223789,37.3105487 55.0428659,37.3245732 C54.8633528,37.3385976 54.6978666,37.369451 54.5464024,37.4171341 C54.3949383,37.4648173 54.26872,37.5321337 54.1677439,37.6190854 C54.0667678,37.706037 54.0162805,37.8252431 54.0162805,37.9767073 C54.0162805,38.0720736 54.0373169,38.1520119 54.0793902,38.2165244 C54.1214636,38.2810369 54.1761582,38.3329266 54.2434756,38.3721951 C54.310793,38.4114636 54.386524,38.4395121 54.4706707,38.4563415 C54.5548175,38.4731708 54.638963,38.4815854 54.7231098,38.4815854 C55.0709164,38.4815854 55.3345723,38.3890253 55.5140854,38.2039024 C55.6935985,38.0187796 55.7833537,37.7663431 55.7833537,37.4465854 L55.7833537,37.3035366 Z M57.2559146,35.915122 L57.2559146,35.1073171 L57.9627439,35.1073171 L57.9627439,33.9376829 L58.9556707,33.9376829 L58.9556707,35.1073171 L59.9654268,35.1073171 L59.9654268,35.915122 L58.9556707,35.915122 L58.9556707,37.7915854 C58.9556707,37.9710985 58.9879265,38.1197555 59.052439,38.237561 C59.1169515,38.3553664 59.2614013,38.4142683 59.4857927,38.4142683 C59.5531101,38.4142683 59.6260362,38.4072562 59.7045732,38.3932317 C59.7831101,38.3792072 59.8532314,38.3581709 59.914939,38.330122 L59.9485976,39.1210976 C59.858841,39.1547563 59.7522567,39.1814023 59.6288415,39.2010366 C59.5054262,39.2206708 59.3876225,39.2304878 59.2754268,39.2304878 C59.0061572,39.2304878 58.7873789,39.1926223 58.6190854,39.1168902 C58.4507918,39.0411582 58.3175615,38.9373787 58.2193902,38.8055488 C58.121219,38.6737189 58.0539026,38.522257 58.017439,38.3511585 C57.9809754,38.1800601 57.9627439,37.9963424 57.9627439,37.8 L57.9627439,35.915122 L57.2559146,35.915122 Z M59.9906707,35.915122 L59.9906707,35.1073171 L60.6975,35.1073171 L60.6975,33.9376829 L61.6904268,33.9376829 L61.6904268,35.1073171 L62.7001829,35.1073171 L62.7001829,35.915122 L61.6904268,35.915122 L61.6904268,37.7915854 C61.6904268,37.9710985 61.7226826,38.1197555 61.7871951,38.237561 C61.8517076,38.3553664 61.9961574,38.4142683 62.2205488,38.4142683 C62.2878662,38.4142683 62.3607923,38.4072562 62.4393293,38.3932317 C62.5178662,38.3792072 62.5879875,38.3581709 62.6496951,38.330122 L62.6833537,39.1210976 C62.5935971,39.1547563 62.4870128,39.1814023 62.3635976,39.2010366 C62.2401823,39.2206708 62.1223786,39.2304878 62.0101829,39.2304878 C61.7409133,39.2304878 61.522135,39.1926223 61.3538415,39.1168902 C61.1855479,39.0411582 61.0523176,38.9373787 60.9541463,38.8055488 C60.8559751,38.6737189 60.7886587,38.522257 60.7521951,38.3511585 C60.7157315,38.1800601 60.6975,37.9963424 60.6975,37.8 L60.6975,35.915122 L59.9906707,35.915122 Z M63.4490854,32.784878 L64.4588415,32.784878 L64.4588415,39.1463415 L63.4490854,39.1463415 L63.4490854,32.784878 Z M68.5315244,36.7229268 C68.5315244,36.5939018 68.5132929,36.4704884 68.4768293,36.3526829 C68.4403657,36.2348775 68.3828662,36.131098 68.3043293,36.0413415 C68.2257923,35.9515849 68.1262201,35.8800612 68.0056098,35.8267683 C67.8849994,35.7734753 67.7433545,35.7468293 67.5806707,35.7468293 C67.2777424,35.7468293 67.0210986,35.8379869 66.8107317,36.0203049 C66.6003648,36.2026229 66.4839635,36.4368278 66.4615244,36.7229268 L68.5315244,36.7229268 Z M69.5412805,37.1773171 L69.5412805,37.3119512 C69.5412805,37.3568295 69.5384756,37.4017071 69.5328659,37.4465854 L66.4615244,37.4465854 C66.472744,37.5924398 66.5106094,37.7256701 66.575122,37.8462805 C66.6396345,37.9668908 66.7251824,38.0706703 66.8317683,38.157622 C66.9383542,38.2445736 67.0589627,38.3132924 67.1935976,38.3637805 C67.3282324,38.4142685 67.4684749,38.4395122 67.6143293,38.4395122 C67.8667696,38.4395122 68.0799382,38.3932322 68.2538415,38.3006707 C68.4277448,38.2081093 68.5707921,38.0804886 68.6829878,37.9178049 L69.3561585,38.4563415 C68.9578639,38.9948807 68.3800648,39.2641463 67.6227439,39.2641463 C67.308596,39.2641463 67.0196964,39.2150615 66.7560366,39.1168902 C66.4923767,39.018719 66.2637815,38.8798789 66.0702439,38.7003659 C65.8767063,38.5208528 65.7252444,38.300672 65.6158537,38.0398171 C65.5064629,37.7789621 65.4517683,37.4830504 65.4517683,37.1520732 C65.4517683,36.8267057 65.5064629,36.530794 65.6158537,36.2643293 C65.7252444,35.9978645 65.8753039,35.7706717 66.0660366,35.5827439 C66.2567692,35.3948161 66.4825597,35.2489639 66.7434146,35.1451829 C67.0042696,35.0414019 67.286157,34.9895122 67.5890854,34.9895122 C67.8695746,34.9895122 68.1290232,35.0357922 68.367439,35.1283537 C68.6058549,35.2209151 68.8120113,35.3583527 68.9859146,35.5406707 C69.1598179,35.7229887 69.2958532,35.9501816 69.3940244,36.2222561 C69.4921956,36.4943306 69.5412805,36.8126811 69.5412805,37.1773171 Z" id="Childrens-Film-Fest"></path>
                    <path d="M4.45463444,2.31219512 C4.45463444,2.63219672 4.39902524,2.92585232 4.28780517,3.19317073 C4.17658511,3.46048914 4.02341591,3.69073074 3.82829298,3.88390244 C3.63317005,4.07707414 3.40097725,4.22731654 3.13170761,4.33463415 C2.86243797,4.44195176 2.56975797,4.49560976 2.25365883,4.49560976 C1.93755969,4.49560976 1.64585529,4.44195176 1.37853688,4.33463415 C1.11121847,4.22731654 0.880001272,4.07707414 0.684878345,3.88390244 C0.489755419,3.69073074 0.337561819,3.46048914 0.228292979,3.19317073 C0.11902414,2.92585232 0.0643905405,2.63219672 0.0643905405,2.31219512 C0.0643905405,1.98829106 0.11902414,1.69268426 0.228292979,1.42536585 C0.337561819,1.15804744 0.489755419,0.929757044 0.684878345,0.740487805 C0.880001272,0.551218566 1.11121847,0.403902966 1.37853688,0.298536585 C1.64585529,0.193170205 1.93755969,0.140487805 2.25365883,0.140487805 C2.56975797,0.140487805 2.86243797,0.193170205 3.13170761,0.298536585 C3.40097725,0.403902966 3.63317005,0.551218566 3.82829298,0.740487805 C4.02341591,0.929757044 4.17658511,1.15804744 4.28780517,1.42536585 C4.39902524,1.69268426 4.45463444,1.98829106 4.45463444,2.31219512 Z M3.82829298,2.31219512 C3.82829298,2.08585253 3.79122018,1.87219613 3.71707347,1.67121951 C3.64292676,1.4702429 3.53756196,1.2936593 3.40097591,1.14146341 C3.26438986,0.989267532 3.09951346,0.869268732 2.90634176,0.781463415 C2.71317006,0.693658098 2.49561126,0.649756098 2.25365883,0.649756098 C2.01560886,0.649756098 1.80000126,0.693658098 1.60682956,0.781463415 C1.41365787,0.869268732 1.24975707,0.989267532 1.11512225,1.14146341 C0.980487428,1.2936593 0.876098228,1.4702429 0.801951516,1.67121951 C0.727804804,1.87219613 0.690732004,2.08585253 0.690732004,2.31219512 C0.690732004,2.54244018 0.727804804,2.75902338 0.801951516,2.96195122 C0.876098228,3.16487906 0.981463028,3.34146266 1.11804908,3.49170732 C1.25463513,3.64195197 1.41853593,3.75999957 1.60975639,3.84585366 C1.80097686,3.93170775 2.01560886,3.97463415 2.25365883,3.97463415 C2.4917088,3.97463415 2.708292,3.93170775 2.90341493,3.84585366 C3.09853786,3.75999957 3.26438986,3.64195197 3.40097591,3.49170732 C3.53756196,3.34146266 3.64292676,3.16487906 3.71707347,2.96195122 C3.79122018,2.75902338 3.82829298,2.54244018 3.82829298,2.31219512 Z M7.14146368,4.3902439 L6.56195148,4.3902439 L6.56195148,0.245853659 L9.14926855,0.245853659 L9.14926855,0.755121951 L7.14146368,0.755121951 L7.14146368,2.04292683 L9.02048807,2.04292683 L9.02048807,2.5404878 L7.14146368,2.5404878 L7.14146368,4.3902439 Z M11.7834149,4.3902439 L11.2039027,4.3902439 L11.2039027,0.245853659 L13.7912197,0.245853659 L13.7912197,0.755121951 L11.7834149,0.755121951 L11.7834149,2.04292683 L13.6624393,2.04292683 L13.6624393,2.5404878 L11.7834149,2.5404878 L11.7834149,4.3902439 Z M16.425366,4.3902439 L15.8458539,4.3902439 L15.8458539,0.245853659 L16.425366,0.245853659 L16.425366,4.3902439 Z M22.3024392,3.74634146 C22.1385359,3.9687816 21.9258551,4.1492676 21.6643904,4.28780488 C21.4029257,4.42634216 21.0887825,4.49560976 20.7219514,4.49560976 C20.4058522,4.49560976 20.1141478,4.44195176 19.8468294,4.33463415 C19.579511,4.22731654 19.3492694,4.07707414 19.1560977,3.88390244 C18.962926,3.69073074 18.811708,3.46048914 18.7024392,3.19317073 C18.5931703,2.92585232 18.5385367,2.63219672 18.5385367,2.31219512 C18.5385367,1.98829106 18.5941459,1.69268426 18.705366,1.42536585 C18.8165861,1.15804744 18.9707309,0.929757044 19.167805,0.740487805 C19.3648792,0.551218566 19.5980476,0.403902966 19.8673172,0.298536585 C20.1365869,0.193170205 20.4292669,0.140487805 20.745366,0.140487805 C20.8858545,0.140487805 21.0282921,0.154146205 21.1726831,0.181463415 C21.317074,0.208780624 21.4556092,0.249755824 21.5882928,0.304390244 C21.7209764,0.359024663 21.8419508,0.426341063 21.9512197,0.506341463 C22.0604885,0.586341863 22.1541461,0.679023863 22.2321953,0.784390244 L21.7756099,1.13560976 C21.674146,0.995121249 21.5307328,0.879024849 21.345366,0.787317073 C21.1599992,0.695609298 20.9600012,0.649756098 20.745366,0.649756098 C20.5034136,0.649756098 20.2858548,0.693658098 20.0926831,0.781463415 C19.8995114,0.869268732 19.734635,0.989267532 19.5980489,1.14146341 C19.4614629,1.2936593 19.3560981,1.4702429 19.2819514,1.67121951 C19.2078047,1.87219613 19.1707319,2.08585253 19.1707319,2.31219512 C19.1707319,2.54634263 19.2068291,2.76487703 19.2790245,2.96780488 C19.35122,3.17073272 19.4546336,3.34731632 19.5892684,3.49756098 C19.7239033,3.64780563 19.8878041,3.76585323 20.0809758,3.85170732 C20.2741475,3.9375614 20.4897551,3.9804878 20.727805,3.9804878 C20.9619525,3.9804878 21.1746333,3.933659 21.3658538,3.84 C21.5570743,3.746341 21.7151215,3.609757 21.8400002,3.4302439 L22.3024392,3.74634146 Z M24.790244,4.3902439 L24.2107318,4.3902439 L24.2107318,0.245853659 L24.790244,0.245853659 L24.790244,4.3902439 Z M27.2839025,4.3902439 L26.6400001,4.3902439 L28.4370733,0.245853659 L28.9639025,0.245853659 L30.7434147,4.3902439 L30.087805,4.3902439 L29.6663416,3.37170732 L27.6995123,3.37170732 L27.2839025,4.3902439 Z M27.9043903,2.86243902 L29.4556098,2.86243902 L28.6829269,0.91902439 L27.9043903,2.86243902 Z M33.172683,3.87512195 L35.0224391,3.87512195 L35.0224391,4.3902439 L32.5931708,4.3902439 L32.5931708,0.245853659 L33.172683,0.245853659 L33.172683,3.87512195 Z M41.6019512,1.01268293 C41.5199996,0.899511629 41.4087812,0.806829629 41.2682927,0.734634146 C41.1278042,0.662438663 40.969757,0.626341463 40.7941463,0.626341463 C40.7004873,0.626341463 40.6058541,0.639024263 40.5102439,0.664390244 C40.4146337,0.689756224 40.3278053,0.730731424 40.2497561,0.787317073 C40.1717069,0.843902722 40.1082929,0.914145922 40.0595122,0.99804878 C40.0107314,1.08195164 39.9863414,1.18243844 39.9863414,1.2995122 C39.9863414,1.41268349 40.0087802,1.50731669 40.0536585,1.58341463 C40.0985368,1.65951258 40.159024,1.72390218 40.2351219,1.77658537 C40.3112199,1.82926856 40.4009751,1.87414616 40.5043902,1.91121951 C40.6078054,1.94829287 40.7180482,1.98634127 40.8351219,2.02536585 C40.9756104,2.0682929 41.118048,2.1170729 41.262439,2.17170732 C41.40683,2.22634174 41.5375604,2.29853614 41.6546341,2.38829268 C41.7717079,2.47804923 41.8673167,2.59024323 41.9414634,2.72487805 C42.0156101,2.85951287 42.0526829,3.03024287 42.0526829,3.23707317 C42.0526829,3.45170839 42.0126833,3.63804799 41.9326829,3.79609756 C41.8526825,3.95414713 41.7463421,4.08487753 41.6136585,4.18829268 C41.4809749,4.29170783 41.3278057,4.36878023 41.1541463,4.4195122 C40.9804869,4.47024416 40.8019521,4.49560976 40.6185366,4.49560976 C40.3570718,4.49560976 40.1043914,4.44487856 39.8604878,4.34341463 C39.6165841,4.24195071 39.4146349,4.09170831 39.2546341,3.89268293 L39.7053658,3.51219512 C39.8029273,3.65658609 39.9336577,3.77365809 40.097561,3.86341463 C40.2614642,3.95317118 40.4390234,3.99804878 40.6302439,3.99804878 C40.7278053,3.99804878 40.8253653,3.98439038 40.9229268,3.95707317 C41.0204883,3.92975596 41.1092679,3.88682956 41.1892683,3.82829268 C41.2692687,3.7697558 41.3346339,3.6965858 41.3853658,3.60878049 C41.4360978,3.52097517 41.4614634,3.41463477 41.4614634,3.2897561 C41.4614634,3.16487742 41.4351222,3.06048822 41.382439,2.97658537 C41.3297558,2.89268251 41.258537,2.82146371 41.1687805,2.76292683 C41.0790239,2.70438995 40.9746347,2.65463435 40.8556097,2.61365854 C40.7365848,2.57268272 40.6107324,2.53073192 40.4780488,2.48780488 C40.3453652,2.44878029 40.2146348,2.40097589 40.0858536,2.34439024 C39.9570725,2.2878046 39.8419517,2.2156102 39.7404878,2.12780488 C39.6390239,2.03999956 39.5570735,1.93170796 39.4946341,1.80292683 C39.4321948,1.6741457 39.4009756,1.5141473 39.4009756,1.32292683 C39.4009756,1.11609653 39.4429264,0.938537327 39.5268293,0.790243902 C39.6107321,0.641950478 39.7199993,0.519024878 39.8546341,0.421463415 C39.9892689,0.323901951 40.1414625,0.252683151 40.3112195,0.207804878 C40.4809764,0.162926605 40.6517064,0.140487805 40.8234146,0.140487805 C41.065367,0.140487805 41.2917062,0.183414205 41.502439,0.269268293 C41.7131718,0.35512238 41.8829262,0.47024318 42.0117073,0.614634146 L41.6019512,1.01268293 Z M44.7687804,3.87512195 L46.9346341,3.87512195 L46.9346341,4.3902439 L44.1892682,4.3902439 L44.1892682,0.245853659 L46.8468292,0.245853659 L46.8468292,0.755121951 L44.7687804,0.755121951 L44.7687804,1.99609756 L46.7239024,1.99609756 L46.7239024,2.49365854 L44.7687804,2.49365854 L44.7687804,3.87512195 Z M49.6039024,3.87512195 L51.4536584,3.87512195 L51.4536584,4.3902439 L49.0243902,4.3902439 L49.0243902,0.245853659 L49.6039024,0.245853659 L49.6039024,3.87512195 Z M53.912195,3.87512195 L56.0780487,3.87512195 L56.0780487,4.3902439 L53.3326828,4.3902439 L53.3326828,0.245853659 L55.9902438,0.245853659 L55.9902438,0.755121951 L53.912195,0.755121951 L53.912195,1.99609756 L55.867317,1.99609756 L55.867317,2.49365854 L53.912195,2.49365854 L53.912195,3.87512195 Z M61.7209755,3.74634146 C61.5570722,3.9687816 61.3443914,4.1492676 61.0829267,4.28780488 C60.821462,4.42634216 60.5073188,4.49560976 60.1404876,4.49560976 C59.8243885,4.49560976 59.5326841,4.44195176 59.2653657,4.33463415 C58.9980473,4.22731654 58.7678057,4.07707414 58.574634,3.88390244 C58.3814623,3.69073074 58.2302443,3.46048914 58.1209755,3.19317073 C58.0117066,2.92585232 57.957073,2.63219672 57.957073,2.31219512 C57.957073,1.98829106 58.0126822,1.69268426 58.1239023,1.42536585 C58.2351224,1.15804744 58.3892672,0.929757044 58.5863413,0.740487805 C58.7834155,0.551218566 59.0165839,0.403902966 59.2858535,0.298536585 C59.5551231,0.193170205 59.8478031,0.140487805 60.1639023,0.140487805 C60.3043908,0.140487805 60.4468284,0.154146205 60.5912194,0.181463415 C60.7356103,0.208780624 60.8741455,0.249755824 61.0068291,0.304390244 C61.1395127,0.359024663 61.2604871,0.426341063 61.3697559,0.506341463 C61.4790248,0.586341863 61.5726824,0.679023863 61.6507316,0.784390244 L61.1941462,1.13560976 C61.0926823,0.995121249 60.9492691,0.879024849 60.7639023,0.787317073 C60.5785355,0.695609298 60.3785375,0.649756098 60.1639023,0.649756098 C59.9219499,0.649756098 59.7043911,0.693658098 59.5112194,0.781463415 C59.3180477,0.869268732 59.1531713,0.989267532 59.0165852,1.14146341 C58.8799992,1.2936593 58.7746344,1.4702429 58.7004876,1.67121951 C58.6263409,1.87219613 58.5892681,2.08585253 58.5892681,2.31219512 C58.5892681,2.54634263 58.6253653,2.76487703 58.6975608,2.96780488 C58.7697563,3.17073272 58.8731699,3.34731632 59.0078047,3.49756098 C59.1424395,3.64780563 59.3063403,3.76585323 59.499512,3.85170732 C59.6926837,3.9375614 59.9082913,3.9804878 60.1463413,3.9804878 C60.3804888,3.9804878 60.5931696,3.933659 60.7843901,3.84 C60.9756106,3.746341 61.1336578,3.609757 61.2585364,3.4302439 L61.7209755,3.74634146 Z M65.0458535,4.3902439 L64.4663413,4.3902439 L64.4663413,0.755121951 L63.1375608,0.755121951 L63.1375608,0.245853659 L66.374634,0.245853659 L66.374634,0.755121951 L65.0458535,0.755121951 L65.0458535,4.3902439 Z M68.8214632,4.3902439 L68.241951,4.3902439 L68.241951,0.245853659 L68.8214632,0.245853659 L68.8214632,4.3902439 Z M75.3248778,2.31219512 C75.3248778,2.63219672 75.2692686,2.92585232 75.1580485,3.19317073 C75.0468285,3.46048914 74.8936593,3.69073074 74.6985363,3.88390244 C74.5034134,4.07707414 74.2712206,4.22731654 74.001951,4.33463415 C73.7326813,4.44195176 73.4400013,4.49560976 73.1239022,4.49560976 C72.807803,4.49560976 72.5160986,4.44195176 72.2487802,4.33463415 C71.9814618,4.22731654 71.7502446,4.07707414 71.5551217,3.88390244 C71.3599988,3.69073074 71.2078052,3.46048914 71.0985363,3.19317073 C70.9892675,2.92585232 70.9346339,2.63219672 70.9346339,2.31219512 C70.9346339,1.98829106 70.9892675,1.69268426 71.0985363,1.42536585 C71.2078052,1.15804744 71.3599988,0.929757044 71.5551217,0.740487805 C71.7502446,0.551218566 71.9814618,0.403902966 72.2487802,0.298536585 C72.5160986,0.193170205 72.807803,0.140487805 73.1239022,0.140487805 C73.4400013,0.140487805 73.7326813,0.193170205 74.001951,0.298536585 C74.2712206,0.403902966 74.5034134,0.551218566 74.6985363,0.740487805 C74.8936593,0.929757044 75.0468285,1.15804744 75.1580485,1.42536585 C75.2692686,1.69268426 75.3248778,1.98829106 75.3248778,2.31219512 Z M74.6985363,2.31219512 C74.6985363,2.08585253 74.6614635,1.87219613 74.5873168,1.67121951 C74.5131701,1.4702429 74.4078053,1.2936593 74.2712193,1.14146341 C74.1346332,0.989267532 73.9697568,0.869268732 73.7765851,0.781463415 C73.5834134,0.693658098 73.3658546,0.649756098 73.1239022,0.649756098 C72.8858522,0.649756098 72.6702446,0.693658098 72.4770729,0.781463415 C72.2839012,0.869268732 72.1200004,0.989267532 71.9853656,1.14146341 C71.8507308,1.2936593 71.7463416,1.4702429 71.6721949,1.67121951 C71.5980481,1.87219613 71.5609753,2.08585253 71.5609753,2.31219512 C71.5609753,2.54244018 71.5980481,2.75902338 71.6721949,2.96195122 C71.7463416,3.16487906 71.8517064,3.34146266 71.9882924,3.49170732 C72.1248785,3.64195197 72.2887793,3.75999957 72.4799997,3.84585366 C72.6712202,3.93170775 72.8858522,3.97463415 73.1239022,3.97463415 C73.3619521,3.97463415 73.5785353,3.93170775 73.7736583,3.84585366 C73.9687812,3.75999957 74.1346332,3.64195197 74.2712193,3.49170732 C74.4078053,3.34146266 74.5131701,3.16487906 74.5873168,2.96195122 C74.6614635,2.75902338 74.6985363,2.54244018 74.6985363,2.31219512 Z M80.3531704,3.55902439 L80.3648778,3.55902439 L80.3648778,0.245853659 L80.9443899,0.245853659 L80.9443899,4.3902439 L80.2126826,4.3902439 L78.0234143,1.00682927 L78.011707,1.00682927 L78.011707,4.3902439 L77.4321948,4.3902439 L77.4321948,0.245853659 L78.1873168,0.245853659 L80.3531704,3.55902439 Z" id="OFFICIAL-SELECTION"></path>
                    <path d="M35.1512196,60.7317073 L32.6158537,60.7317073 L32.6158537,60.2213415 L34.1634147,58.6847561 C34.2804884,58.5640238 34.3810972,58.4378055 34.465244,58.3060976 C34.5493907,58.1743896 34.5914635,58.0262203 34.5914635,57.8615854 C34.5914635,57.7591458 34.573171,57.6667687 34.5365854,57.5844512 C34.4999999,57.5021337 34.4506101,57.4317076 34.3884147,57.3731707 C34.3262193,57.3146339 34.2530493,57.2698172 34.1689025,57.2387195 C34.0847557,57.2076218 33.9951225,57.1920732 33.9000001,57.1920732 C33.7024381,57.1920732 33.5396348,57.2551823 33.4115854,57.3814024 C33.283536,57.5076226 33.203049,57.6695112 33.170122,57.8670732 L32.6487805,57.7792683 C32.6707319,57.6329261 32.7173777,57.496647 32.7887196,57.3704268 C32.8600614,57.2442067 32.9506093,57.1344517 33.0603659,57.0411585 C33.1701226,56.9478654 33.2972554,56.87561 33.4417683,56.8243902 C33.5862813,56.7731705 33.7408529,56.747561 33.9054879,56.747561 C34.0664643,56.747561 34.2210359,56.7713412 34.3692074,56.8189024 C34.5173788,56.8664637 34.6481702,56.9359752 34.7615854,57.027439 C34.8750006,57.1189029 34.9655485,57.2341456 35.0332318,57.3731707 C35.100915,57.5121958 35.1347561,57.6713406 35.1347561,57.8506098 C35.1347561,57.9750006 35.1182929,58.0902434 35.0853659,58.1963415 C35.0524389,58.3024396 35.0076223,58.4030483 34.9509147,58.4981707 C34.8942071,58.5932932 34.8274395,58.683841 34.7506098,58.7698171 C34.6737802,58.8557931 34.5932932,58.9408532 34.5091464,59.025 L33.2469513,60.2542683 L35.1512196,60.2542683 L35.1512196,60.7317073 Z M38.5042683,56.747561 C38.7347573,56.747561 38.9332309,56.8006092 39.0996951,56.9067073 C39.2661594,57.0128054 39.4033531,57.1582308 39.5112805,57.3429878 C39.6192079,57.5277448 39.6987802,57.744511 39.75,57.9932927 C39.8012198,58.2420744 39.8268293,58.5073157 39.8268293,58.7890244 C39.8268293,59.0743917 39.8012198,59.3405475 39.75,59.5875 C39.6987802,59.8344525 39.6192079,60.050304 39.5112805,60.235061 C39.4033531,60.419818 39.2661594,60.5652434 39.0996951,60.6713415 C38.9332309,60.7774396 38.7347573,60.8304878 38.5042683,60.8304878 C38.2737794,60.8304878 38.0743911,60.7774396 37.9060976,60.6713415 C37.7378041,60.5652434 37.5996957,60.419818 37.4917683,60.235061 C37.3838409,60.050304 37.3042686,59.8344525 37.2530488,59.5875 C37.201829,59.3405475 37.1762195,59.0743917 37.1762195,58.7890244 C37.1762195,58.5073157 37.201829,58.2420744 37.2530488,57.9932927 C37.3042686,57.744511 37.3838409,57.5277448 37.4917683,57.3429878 C37.5996957,57.1582308 37.7378041,57.0128054 37.9060976,56.9067073 C38.0743911,56.8006092 38.2737794,56.747561 38.5042683,56.747561 Z M38.5042683,57.1920732 C38.3432919,57.1920732 38.2115859,57.2442068 38.1091464,57.3484756 C38.0067068,57.4527444 37.9271344,57.5844504 37.8704268,57.7435976 C37.8137192,57.9027447 37.7743904,58.0756088 37.752439,58.2621951 C37.7304877,58.4487814 37.7195122,58.6243894 37.7195122,58.7890244 C37.7195122,58.9536594 37.7304877,59.1292674 37.752439,59.3158537 C37.7743904,59.50244 37.8137192,59.6743895 37.8704268,59.8317073 C37.9271344,59.9890252 38.0067068,60.1198166 38.1091464,60.2240854 C38.2115859,60.3283542 38.3432919,60.3804878 38.5042683,60.3804878 C38.6615862,60.3804878 38.7905483,60.3283542 38.8911586,60.2240854 C38.9917688,60.1198166 39.0713412,59.9890252 39.1298781,59.8317073 C39.1884149,59.6743895 39.2286584,59.50244 39.2506098,59.3158537 C39.2725611,59.1292674 39.2835366,58.9536594 39.2835366,58.7890244 C39.2835366,58.6243894 39.2725611,58.4487814 39.2506098,58.2621951 C39.2286584,58.0756088 39.1884149,57.9027447 39.1298781,57.7435976 C39.0713412,57.5844504 38.9917688,57.4527444 38.8911586,57.3484756 C38.7905483,57.2442068 38.6615862,57.1920732 38.5042683,57.1920732 Z M43.5310975,60.7317073 L42.9987805,60.7317073 L42.9987805,57.4939024 L42.2634146,58.1085366 L41.9506097,57.7408537 L43.0536585,56.8463415 L43.5310975,56.8463415 L43.5310975,60.7317073 Z M48.859756,57.3292683 L47.3012195,60.7317073 L46.6920731,60.7317073 L48.3109756,57.3182927 L46.384756,57.3182927 L46.384756,56.8463415 L48.859756,56.8463415 L48.859756,57.3292683 Z" id="2017"></path>
                </g>
            </g>
        </g>
    </g>
</svg>