<?xml version="1.0" encoding="UTF-8"?>
<svg width="146px" height="74px" viewBox="0 0 146 74" version="1.1" xmlns="http://www.w3.org/2000/svg" xmlns:xlink="http://www.w3.org/1999/xlink">
    <!-- Generator: Sketch 42 (36781) - http://www.bohemiancoding.com/sketch -->
    <title>Sloan</title>
    <desc>Created with Sketch.</desc>
    <defs></defs>
    <g id="Cloud-v2" stroke="none" stroke-width="1" fill="none" fill-rule="evenodd">
        <g id="Home" transform="translate(-92.000000, -95.000000)" fill="#227EA8">
            <g id="Sloan" transform="translate(90.000000, 95.000000)">
                <g id="Leaves">
                    <path d="M31.5047424,1.09756098 C31.3156422,2.06748935 30.9003611,2.9557303 30.3834256,3.79994348 C29.4045404,5.39866739 28.0625874,6.61815963 26.1919163,7.22214152 C25.6575378,7.39473914 25.0779925,7.45029537 24.5142729,7.5274812 C24.2789662,7.55976091 24.0848988,7.60949801 23.8945279,7.75881911 C22.2473808,9.050776 20.8386594,10.5574918 19.4993633,12.1281082 C19.4827289,12.1475419 19.4731411,12.1724653 19.4314397,12.24493 C19.6696343,12.2163833 19.8730586,12.1989259 20.0729018,12.1631328 C20.120379,12.1545688 20.1742096,12.0918759 20.1940784,12.0426877 C20.7993839,10.5429988 22.078496,9.90585888 23.6297645,9.63554377 C24.6636355,9.4553703 25.6912686,9.60622853 26.7139345,9.75862389 C27.4609785,9.86984615 28.2055966,9.99556134 28.9793249,10.1193002 C28.9356597,10.1863849 28.9053944,10.245235 28.863693,10.2955211 C27.5667914,11.8621849 25.9462131,12.9167651 23.8144751,13.1360256 C22.6019004,13.2607526 21.4381891,13.1124197 20.3743994,12.4902118 C20.2854518,12.438169 20.152608,12.4298246 20.0433296,12.4382788 C19.7964712,12.4573832 19.5493819,12.4896629 19.3071442,12.537753 C19.2135759,12.5563084 19.1070699,12.6137311 19.0495428,12.6848782 C17.6335438,14.4353387 16.3982124,16.2960333 15.3149005,18.2485165 C15.1992686,18.4569073 15.0874488,18.6672744 14.9348518,18.948569 C15.2215633,18.8611722 15.4449718,18.8019927 15.658908,18.7206347 C15.7069628,18.7024087 15.7394229,18.6086439 15.7497038,18.545402 C15.9632935,17.2258866 16.7824197,16.3430256 17.9966116,15.7599047 C18.7874363,15.3801241 19.6413328,15.177772 20.5191413,15.1024527 C21.7868173,14.9937557 23.0577277,14.9205225 24.3639862,14.8296123 C24.3339519,14.9209617 24.327021,14.9803608 24.2973333,15.0266942 C23.2531813,16.6595643 21.9330609,18.0097125 20.0352435,18.7621372 C18.7053042,19.2894822 17.3539944,19.4616406 15.9643332,18.9708573 C15.8944458,18.9461535 15.8007621,18.9446163 15.7299506,18.9665753 C15.425334,19.0612185 15.1236054,19.1650845 14.8245337,19.2748795 C14.7740531,19.293325 14.7291172,19.3511869 14.7033571,19.400924 C13.3385319,22.0376492 12.2852542,24.784279 11.5018226,27.6254423 C11.4954692,27.6486091 11.505288,27.6757284 11.5075984,27.7012008 C11.5214603,27.6993343 11.5315102,27.6999931 11.5395964,27.6964797 C11.9220709,27.5305795 12.1524104,27.3420616 12.1513708,26.8480943 C12.1474432,24.9778475 13.2344517,23.7097161 14.8247647,22.7541709 C15.8615236,22.1313043 16.9956628,21.7124366 18.1326898,21.2975216 C18.7941362,21.0561923 19.4553516,20.8142043 20.173632,20.5515749 C20.0223056,20.9768106 19.897086,21.3774523 19.7384821,21.7656872 C18.976883,23.6292364 17.847018,25.2333403 16.1029527,26.4040836 C15.0020823,27.1431132 13.8085678,27.594041 12.4349633,27.5325558 C12.340702,27.5283836 12.2318856,27.5952487 12.1474432,27.6526715 C11.9080934,27.8156071 11.6724401,27.9846913 11.4471833,28.1648648 C11.3787977,28.2196525 11.3231188,28.3135271 11.3060224,28.39763 C11.0118024,29.8436292 10.6501208,31.2819427 10.4553603,32.7402389 C10.2324138,34.4085728 10.159061,36.0951327 10.0217121,37.7737873 C10.0203259,37.7897076 10.0314154,37.806616 10.0369602,37.8229754 C10.4538586,37.586587 10.5659094,37.3332901 10.4956755,36.8768726 C10.2374965,35.1988767 10.7211633,33.6987486 11.7296207,32.331143 C12.3439365,31.4979094 13.0965252,30.7864382 13.9258168,30.1491885 C14.9075899,29.3946778 15.9011457,28.654111 16.9414856,27.8683087 C16.9136462,28.2768556 16.9037118,28.6485115 16.8607397,29.0166538 C16.629245,31.0009775 16.0196655,32.8590371 14.7899943,34.5029965 C13.9378305,35.6422286 12.9546712,36.6510244 11.5375171,37.1511403 C11.0330574,37.3291179 10.669643,37.5820854 10.3586731,38.008968 C10.1120458,38.3475756 10.0061174,38.6545622 10.0095828,39.056192 C10.0345344,41.9445671 10.3654886,44.7994548 10.9974783,47.6238195 C11.0124955,47.6907944 11.0372159,47.755793 11.0725639,47.8710776 C11.2017112,47.5824268 11.317343,47.3363764 11.4189974,47.0852754 C11.4367869,47.0413574 11.4134526,46.963403 11.3800684,46.9227789 C10.9720647,46.4281527 10.8648656,45.842836 10.8258211,45.2420381 C10.7377977,43.8861806 11.1397944,42.6428629 11.8002012,41.457956 C12.5482848,40.1158229 13.5387217,38.9346491 14.5067483,37.7377746 C14.9276898,37.2174564 15.3392744,36.6902212 15.8007621,36.1085277 C15.8605995,36.521137 15.9282921,36.8772019 15.9615608,37.2362314 C16.1607109,39.3807458 15.8818545,41.4527957 14.9325415,43.428226 C14.2370178,44.8755427 13.3290596,46.1522381 11.8922677,47.0326836 C11.809558,47.083299 11.7566515,47.1908981 11.7117157,47.2818083 C11.551148,47.6064719 11.3945079,47.9332216 11.2490729,48.2642533 C11.2134938,48.3450623 11.1991698,48.4513438 11.2206558,48.5355565 C12.0087081,51.6255151 13.1537058,54.588441 14.7255362,57.3986421 C14.7452895,57.4338863 14.7741686,57.4644093 14.8433629,57.556637 C14.8772092,57.261618 14.9077055,57.0312683 14.9266501,56.80015 C14.9303467,56.756232 14.9020452,56.6939783 14.8662351,56.6655414 C14.3070206,56.2207621 14.0712519,55.6044832 13.8570846,54.9738212 C13.3651006,53.5248575 13.5027961,52.0845677 13.8973998,50.6419722 C14.323424,49.084092 14.9852169,47.6078992 15.6070412,46.1175429 C15.7597538,45.751267 15.9053043,45.3823561 16.0702616,44.9752365 C16.1259405,45.0666956 16.175728,45.1336706 16.2102674,45.2072332 C17.705395,48.3986423 17.8844453,51.6295775 16.4726049,54.8853265 C16.2259776,55.454174 15.8154326,55.9579131 15.4927956,56.4983237 C15.3962239,56.6600516 15.3239107,56.8396761 15.2718129,57.0193006 C15.2231805,57.1870673 15.2489406,57.3777811 15.183905,57.5369837 C15.0360441,57.8983188 15.1671551,58.1819191 15.357526,58.4915408 C16.7625509,60.7757144 18.4087738,62.8842162 20.3626167,64.7723595 C20.4185266,64.8263786 20.4795192,64.8755667 20.5933028,64.9753703 C20.5695064,64.6902329 20.5579548,64.4675688 20.5276895,64.2472104 C20.5200654,64.1914346 20.4647331,64.1183111 20.4111335,64.094815 C19.7079858,63.7870598 19.2558549,63.2384146 18.8475048,62.6448632 C18.1674602,61.6563795 17.9454379,60.5498663 17.8910297,59.392518 C17.8268026,58.0262299 17.9929151,56.6760817 18.1645723,55.3254943 C18.2761611,54.4475741 18.3946808,53.5705322 18.516204,52.6475961 C18.6073463,52.7331263 18.6869371,52.7980151 18.7545141,52.8726757 C20.2933069,54.5753754 21.2318769,56.531921 21.5312952,58.764491 C21.7689123,60.5368007 21.6512011,62.2642042 20.9177881,63.9342948 C20.8333457,64.1267653 20.9265673,64.3834659 20.899652,64.6063496 C20.8399301,65.1005365 21.041506,65.4379363 21.4348391,65.7733598 C23.4837519,67.5207461 25.7194546,68.9934254 28.2223465,70.0915943 C28.3049406,70.1279364 28.3894986,70.1604357 28.537475,70.2210425 C28.4685117,69.9692827 28.4129484,69.7666013 28.3593488,69.5711663 C27.3795395,69.5853299 26.7364602,69.0358063 26.0991567,68.4821105 C25.1387541,67.647669 24.6517373,66.5534528 24.3668741,65.3913833 C24.0471249,64.0866902 23.8307629,62.7589402 23.5762805,61.4400835 C23.4769364,60.9249257 23.396075,60.4064741 23.3067809,59.8895596 C23.3266497,59.866832 23.3465185,59.8441045 23.3663873,59.8213769 C23.9319552,60.1761243 24.5337952,60.4886007 25.0569685,60.8928656 C27.4918213,62.7744212 28.7117891,65.2203228 28.7211459,68.2065252 C28.7214925,68.3203825 28.7228786,68.4373141 28.6985047,68.547658 C28.5736316,69.1154076 28.697003,69.6609786 28.8625379,70.2001815 C28.8911859,70.2935071 28.9814042,70.4041804 29.072431,70.4408519 C30.9395211,71.1926178 32.864947,71.7624534 34.8667292,72.0861289 C35.3661062,72.166938 35.5147757,72.3420609 35.4839328,72.8943293 C34.9750835,72.8096774 34.4696996,72.7331504 33.9675502,72.6408129 C32.496681,72.3701684 31.0677442,71.9620606 29.6645676,71.4638113 C29.5022672,71.4061689 29.2930672,71.4669953 29.1055842,71.4739124 C28.580447,71.4932363 28.2571169,71.7190845 27.9764122,72.1762705 C27.3946721,73.1234713 26.4293023,73.6533417 25.3372111,73.9223392 C22.6814911,74.5763876 20.1193393,74.2586411 17.6636936,73.131706 C17.3143723,72.9714054 17.0178419,72.7073486 16.6337502,72.4487815 C17.1539201,72.0780041 17.5940373,71.7351145 18.0641887,71.4346058 C19.6526534,70.4194419 21.3945239,69.8176559 23.3194877,69.7468382 C24.6330237,69.6986382 25.8580741,70.0296699 27.0272147,70.5728254 C27.3419967,70.7190723 27.65932,70.8661975 27.9523849,71.0467003 C28.2025932,71.2008524 28.4405568,71.2268738 28.7415923,71.1058798 C28.4147966,70.9580958 28.1098336,70.8208522 27.8056791,70.682291 C25.6355897,69.6935877 23.6412006,68.4462075 21.8503513,66.9222539 C21.4096565,66.5471945 20.913745,66.5769489 20.4207214,66.4887836 C20.3741683,66.4804392 20.3006999,66.5278706 20.2626951,66.5687143 C19.3088769,67.5954066 18.0733144,67.8776894 16.7015582,67.7719569 C14.8956918,67.6328467 13.261598,67.0213988 11.7381689,66.1104303 C10.9052963,65.6124005 10.1116993,65.0733074 9.50535415,64.3219807 C9.42137379,64.2178951 9.34906058,64.1049162 9.27616979,63.9932547 C9.24301661,63.9425295 9.22129954,63.8849969 9.18733775,63.8161555 C9.24602003,63.7798134 9.2939593,63.7397382 9.34975368,63.7170107 C11.5233086,62.8329419 13.7543906,62.5849152 16.058941,63.1779176 C17.6092854,63.5768026 18.8374548,64.4510996 19.9125651,65.5487194 C20.0007041,65.6386415 20.0992395,65.7220856 20.1715527,65.822548 C20.3265756,66.0380754 20.5319636,66.1377692 20.8423559,66.1061483 C20.7833271,66.0409301 20.7395464,65.9842759 20.687102,65.9359661 C18.6310272,64.0444192 16.891236,61.9151662 15.3824775,59.6078258 C15.258413,59.4181002 14.9847548,59.3190651 14.7875685,59.1696343 C14.4598487,58.9211683 14.1692097,58.8705529 13.7348684,59.0523733 C12.6320341,59.5139511 11.5102552,59.3200533 10.4195502,58.9341241 C9.44794254,58.5903562 8.65295929,57.9907661 7.91665833,57.3186016 C6.72961272,56.2349257 5.6869625,55.0436507 5.01823857,53.596883 C4.84600375,53.224239 4.7457356,52.8214014 4.60145572,52.4007771 C5.19058891,52.4007771 5.71549503,52.360153 6.23150639,52.4073648 C9.39249471,52.6972234 11.6831832,54.2941906 13.3672955,56.7691878 C13.6821929,57.2319734 13.9458011,57.7270387 14.2214231,58.2131009 C14.4167611,58.5575275 14.4079819,58.5620291 14.8341216,58.7573543 C14.7977339,58.6720436 14.7800599,58.6125348 14.748986,58.5602724 C13.1175492,55.8241829 11.8728609,52.9343804 10.9162704,49.9265484 C10.8305573,49.6568921 10.5604801,49.4448781 10.4112331,49.1876286 C10.2379586,48.8887668 10.0443533,48.78534 9.65263745,48.8299167 C8.50810184,48.9601335 7.5694163,48.4727538 6.73792989,47.7841201 C5.74414307,46.9609875 4.98600952,45.9550464 4.36372316,44.8597322 C3.61725676,43.5455967 2.94656906,42.1991816 2.6438008,40.7167305 C2.61942686,40.5972736 2.58869952,40.4790245 2.56097561,40.3602264 L2.56097561,39.5697029 C2.78242038,39.6286628 3.01068061,39.670824 3.22438578,39.748998 C5.25007981,40.4905529 6.8314981,41.7759221 8.13590829,43.3957267 C9.30320061,44.8451295 9.90365439,46.5177454 10.272729,48.2839066 C10.3128132,48.4756085 10.4339898,48.6519391 10.5173925,48.8352967 C10.5433837,48.8255249 10.5693749,48.8157532 10.5953661,48.8059814 C10.5906299,48.7640398 10.5907454,48.7208904 10.5802334,48.6802662 C9.93738515,46.1811141 9.61775152,43.6422163 9.53781423,41.0732346 C9.5269557,40.7232084 9.55467962,40.3609949 9.46792687,40.0269988 C9.37897931,39.684768 9.17948264,39.3664725 9.00955814,39.0466399 C8.97005157,38.9723087 8.86077314,38.8990755 8.77321177,38.8854609 C8.26147452,38.8059694 7.79825411,38.6232706 7.3803161,38.3352786 C6.80227248,37.9371622 6.35892088,37.4229925 5.99643069,36.8453614 C5.29986734,35.7354445 4.86032778,34.5275905 4.53607349,33.2803202 C4.16954024,31.8706631 3.92499221,30.4434389 3.96149536,28.9855819 C3.9723539,28.5515625 4.03196031,28.1186411 4.07354618,27.6347749 C4.21112611,27.7201954 4.28852204,27.7638937 4.36095076,27.8139602 C6.47917336,29.2789539 7.8881258,31.2318763 8.71626223,33.5749 C9.27570772,35.1573742 9.3392417,36.7937578 9.22476503,38.4418894 C9.20535829,38.7223057 9.29118691,38.9427739 9.5014266,39.1463337 C9.53908491,38.654672 9.5262626,38.1654258 9.54139524,37.677058 C9.59949994,35.7986864 9.76272449,33.9288788 10.0190552,32.0647806 C10.0949494,31.5130611 10.3631783,30.9655138 10.1008407,30.3849182 C9.99017611,30.1398559 9.98647958,29.852852 9.90550265,29.5929674 C9.87431325,29.4928344 9.77820368,29.3969835 9.68671476,29.3302281 C9.40242912,29.1229353 9.07667312,28.9597801 8.81976485,28.726905 C7.9674855,27.9542781 7.59540747,26.9493252 7.38574536,25.8801422 C7.06357037,24.2376101 7.04913083,22.5809145 7.17758497,20.921474 C7.25913949,19.8684308 7.45216724,18.8331745 7.83140729,17.8355778 C7.87241558,17.7276494 7.92543757,17.6236736 7.98723879,17.4856614 C8.13717897,17.6599059 8.24784359,17.7884758 8.35850822,17.9170456 C10.1395387,19.9850331 10.981075,22.3590189 10.9259737,25.0263769 C10.8974412,26.4036444 10.6382226,27.7466559 10.2615239,29.0715513 C10.1770815,29.3687662 10.3094632,29.6175615 10.375423,29.9373941 C10.4129658,29.8700898 10.4195502,29.8628433 10.421283,29.8546087 C10.9692924,27.2507123 11.7736324,24.720598 12.8354584,22.2643757 C12.8627202,22.2013534 12.8846683,22.1311945 12.8862855,22.0638902 C12.8947182,21.7143031 12.9081181,21.3640573 12.8921769,21.015129 C12.8869786,20.9008325 12.8213654,20.7727018 12.7442005,20.6806937 C12.5376573,20.4348629 12.2791318,20.2248252 12.0958074,19.9657091 C11.3858442,18.9615248 11.2185766,17.8207555 11.2446832,16.6448518 C11.275064,15.2786736 11.5218069,13.9407126 11.8803695,12.6200992 C12.2042772,11.427397 12.602924,10.2622532 13.2818134,9.20141464 C13.3749195,9.05582657 13.4863928,8.9209984 13.6043349,8.7609174 C14.3526496,10.0768096 14.7925357,11.4324475 14.9449017,12.8738353 C15.2235271,15.5101213 14.7980805,18.0179472 13.4140796,20.3427449 C13.2356069,20.6425949 13.2674894,20.9367355 13.2388413,21.2813817 C13.286203,21.2329622 13.3088442,21.2187986 13.318201,21.1990355 C14.5204948,18.643888 15.9847795,16.2322425 17.7038933,13.9598169 C17.7399344,13.9122757 17.7728565,13.854304 17.7812892,13.7976498 C17.8306147,13.468814 17.8667713,13.1382215 17.9186381,12.8098249 C17.9418569,12.6619311 17.9120537,12.5599316 17.8021977,12.4359731 C17.6084768,12.217591 17.4261921,11.9753834 17.3061706,11.7151695 C16.8694034,10.768298 16.8426037,9.76938379 17.0002834,8.76761489 C17.386801,6.31303953 18.5746552,4.22221476 20.2853363,2.38161263 C20.5662719,2.0793472 20.9011537,1.82231728 21.2264477,1.53048237 C21.268149,1.6076682 21.2857075,1.62907821 21.2915989,1.6530135 C21.317128,1.75545217 21.3436967,1.85778104 21.3620638,1.96142745 C21.6170083,3.40391318 21.5710328,4.84563035 21.3569811,6.28811608 C21.0132045,8.60588696 20.1215341,10.6872694 18.4116617,12.4062187 C18.1173262,12.702116 18.1626085,13.0403942 18.1168641,13.3787822 C18.197379,13.3196027 18.254444,13.2522984 18.3098918,13.1836766 C19.9904231,11.1052586 21.8052999,9.14498005 23.8977623,7.42734823 C23.9532102,7.38178334 23.9935254,7.27912508 23.9847461,7.2094053 C23.8979934,6.51341527 24.0526697,5.86353911 24.3956376,5.25329891 C25.031786,4.12175241 25.9998127,3.29422805 27.1915944,2.74503383 C28.2171482,2.27258627 29.306236,1.92464615 30.3654051,1.51730698 C30.7111454,1.38434532 31.0512254,1.23787889 31.3938468,1.09756098 L31.5047424,1.09756098 Z" id="Fill-1" transform="translate(19.024390, 37.678260) rotate(-4.000000) translate(-19.024390, -37.678260) "></path>
                    <path d="M118.599918,1.09756098 C118.700879,1.15162771 118.796532,1.21841604 118.903493,1.25767748 C120.06356,1.68275391 121.242896,2.06549816 122.382194,2.53575815 C123.595338,3.0363964 124.613253,3.8033106 125.354016,4.86369862 C125.847512,5.57018529 126.106663,6.34159591 126.000626,7.20315432 C125.992087,7.27301337 126.033279,7.37544407 126.08901,7.42117597 C128.1793,9.13716432 129.991747,11.0958498 131.670694,13.1721003 C131.725847,13.2403143 131.783309,13.306993 131.862231,13.3654465 C131.821962,13.0153835 131.848039,12.6744231 131.547349,12.3708597 C129.934055,10.7423871 129.047908,8.78041158 128.678219,6.58846047 C128.418029,5.04574889 128.348222,3.50281798 128.620873,1.95528098 C128.639104,1.85175359 128.665758,1.74943256 128.691719,1.6472212 C128.697719,1.62375207 128.717103,1.603244 128.758411,1.53492031 C129.062331,1.80547334 129.374329,2.0474028 129.642134,2.32749702 C131.176275,3.93217149 132.266535,5.77131794 132.804915,7.88628152 C133.092221,9.01499323 133.183605,10.1543428 132.835954,11.2925957 C132.700378,11.7365352 132.488533,12.1389101 132.141921,12.4729614 C132.087344,12.5254928 132.048345,12.6246334 132.055499,12.6974535 C132.092191,13.0708759 132.14319,13.4432017 132.197767,13.8147597 C132.205959,13.8706908 132.255112,13.9235512 132.292497,13.9729022 C134.004213,16.2359187 135.462086,18.6377759 136.656306,21.1836284 C136.66346,21.198982 136.67696,21.2114843 136.758998,21.2195998 C136.718037,20.9665938 136.749306,20.6745456 136.624807,20.4668329 C135.419047,18.454629 134.89959,16.2875727 134.950013,13.9869398 C134.990166,12.1537154 135.407048,10.4094325 136.368424,8.76121953 C136.458308,8.87670082 136.544615,8.97474476 136.616268,9.08156221 C137.293801,10.0905155 137.699605,11.2058476 138.021757,12.3526547 C138.441868,13.8479893 138.733789,15.3630644 138.727443,16.9168525 C138.72352,17.8829253 138.573752,18.8293674 138.043564,19.6727208 C137.819951,20.0284865 137.49353,20.3250311 137.227225,20.658205 C137.152225,20.7520815 137.08738,20.8785297 137.082188,20.9928046 C137.06638,21.3413322 137.080111,21.6911758 137.086803,22.0404711 C137.087957,22.0994729 137.101341,22.1619841 137.124995,22.2165992 C138.195871,24.6852448 139.005518,27.2291232 139.578859,29.8509762 C139.661243,29.5849196 139.791626,29.3339973 139.706935,29.0370141 C139.32963,27.7134208 139.072209,26.3714032 139.044287,24.995498 C138.990402,22.3313128 139.829242,19.9592855 141.611227,17.8948792 C141.710687,17.7797269 141.80911,17.6636973 141.908917,17.5487644 C141.920224,17.5357138 141.937878,17.5275983 141.993954,17.4880078 C142.083492,17.7140353 142.178568,17.9255865 142.251837,18.1437178 C142.684987,19.4339717 142.818371,20.7669965 142.851601,22.1113171 C142.888639,23.6056647 142.816986,25.0936516 142.40922,26.547312 C142.180414,27.3629192 141.802071,28.110751 141.146231,28.7014274 C140.946963,28.8809553 140.731196,29.0643216 140.487159,29.1738808 C140.178854,29.3122828 140.041894,29.5063967 139.989394,29.8185142 C139.939779,30.1127557 139.815396,30.3953723 139.729435,30.684569 C139.718012,30.7230628 139.736819,30.7703301 139.74455,30.8131009 C140.229854,33.5247727 140.423237,36.2598039 140.467429,39.0065696 C140.46789,39.0382639 140.476775,39.0697389 140.488775,39.1456297 C140.670504,38.8939397 140.768003,38.6778921 140.743195,38.3939595 C140.489351,35.4818131 141.118654,32.7837403 142.917947,30.3714645 C143.67221,29.3602081 144.57001,28.4871345 145.628886,27.7637588 C145.688193,27.723291 145.751885,27.6884163 145.862653,27.6210797 C145.89773,27.8506165 145.937883,28.0499945 145.957614,28.2512368 C146.123305,29.941124 145.849961,31.59164 145.432156,33.224609 C145.113121,34.4711051 144.689663,35.6885389 143.968976,36.7820469 C143.664133,37.2446301 143.277367,37.6681711 142.874562,38.0599082 C142.420297,38.5016543 141.836802,38.7474222 141.187076,38.8422857 C141.105731,38.8542396 141.001193,38.9186152 140.965771,38.9862809 C140.793849,39.3145197 140.623196,39.6457196 140.491082,39.9894218 C140.430506,40.1469062 140.45289,40.335427 140.448967,40.5101294 C140.388506,43.2703845 140.070047,46.0000419 139.37763,48.6855028 C139.373592,48.7012951 139.380053,48.7195001 139.450552,48.7659997 C139.533859,48.5919553 139.655358,48.4252586 139.694473,48.2425504 C139.994471,46.8439436 140.399814,45.4790053 141.196192,44.254772 C142.537181,42.1931075 144.328627,40.6142052 146.725838,39.7087792 C146.929375,39.6317917 147.144796,39.5832084 147.439024,39.49657 C147.383871,39.9743972 147.388486,40.4158142 147.276103,40.8282787 C146.593031,43.3369535 145.432272,45.6115949 143.509403,47.4853967 C142.856101,48.1220243 142.082454,48.6067606 141.134923,48.7485624 C140.786118,48.8007648 140.420352,48.7688511 140.064047,48.7477947 C139.917395,48.7391309 139.830626,48.7553619 139.744319,48.8759976 C139.542975,49.1574078 139.321092,49.4254385 139.111209,49.7013653 C139.079825,49.7427104 139.064017,49.7964482 139.048556,49.8465668 C138.107025,52.8923995 136.83342,55.8052039 135.183665,58.5675427 C135.167396,58.5948502 135.160934,58.6273122 135.139588,58.6855463 C135.415817,58.5871734 135.596623,58.4554611 135.720314,58.215067 C136.409616,56.8756815 137.238417,55.626334 138.414869,54.6160647 C140.351583,52.9529367 142.614949,52.1609084 145.232081,52.3223409 C145.249504,52.3234376 145.266235,52.3336368 145.346196,52.3614927 C145.22885,52.7205484 145.138159,53.0942999 144.986545,53.4441435 C144.462588,54.6531327 143.638056,55.6742593 142.70841,56.6215788 C141.900032,57.4455208 141.039847,58.216383 139.950394,58.7014483 C138.871788,59.1817978 137.749451,59.3992711 136.565615,59.1101841 C136.38827,59.0668649 136.200079,59.0192686 136.05135,58.9247341 C135.825083,58.7808486 135.651084,58.7951055 135.438086,58.9491902 C135.212857,59.1120485 134.954167,59.2326842 134.714861,59.3786534 C134.664669,59.409251 134.629131,59.4668272 134.596477,59.5174942 C133.094182,61.8460926 131.339658,63.9837577 129.270945,65.8840993 C129.226753,65.9247865 129.190061,65.9728214 129.134792,66.0340166 C129.413097,66.0492606 129.603711,65.9813756 129.780479,65.7874811 C130.821124,64.6456091 132.010037,63.6876518 133.554217,63.2154178 C135.777314,62.5355806 137.971795,62.6792468 140.136624,63.4619533 C140.34916,63.5387215 140.557659,63.6259082 140.847272,63.7393058 C140.57612,64.0716024 140.370968,64.3984156 140.092201,64.6519699 C138.419369,66.1739541 136.447,67.1622897 134.167943,67.5833083 C133.262065,67.7505533 132.357573,67.7923372 131.457119,67.5449243 C130.80324,67.365177 130.239129,67.0473567 129.78994,66.5593304 C129.681249,66.441217 129.573942,66.3799122 129.410328,66.4238894 C129.357598,66.4380366 129.300829,66.4457135 129.246137,66.4449458 C128.714334,66.4367206 128.329991,66.6931264 127.939879,67.0134691 C125.994972,68.6107957 123.846875,69.9117972 121.497202,70.9081386 C121.423702,70.9392845 121.353549,70.9773396 121.257435,71.0239489 C121.544971,71.1431589 121.770315,71.1142063 122.022774,70.9733915 C123.069535,70.389076 124.166257,69.9142099 125.381131,69.7434555 C126.957503,69.5219244 128.466952,69.7900648 129.928862,70.3452084 C131.16566,70.8148104 132.261689,71.501447 133.320103,72.3896549 C132.940376,72.6382742 132.613725,72.9228648 132.23042,73.0916452 C129.681134,74.2149831 127.042886,74.5378482 124.323871,73.7354013 C123.181803,73.3983889 122.290695,72.7243642 121.736392,71.6863487 C121.691393,71.6019037 121.570817,71.5265612 121.470317,71.5013373 C121.185666,71.4299429 120.894668,71.3774115 120.603209,71.3374921 C120.502133,71.3236738 120.385596,71.3530651 120.287058,71.3893654 C118.482804,72.0528619 116.620973,72.5060136 114.709643,72.780076 C114.648143,72.7888495 114.584913,72.7876432 114.524683,72.7909332 C114.46203,72.2963268 114.631528,72.0835692 115.11487,72.0060333 C117.115161,71.685581 119.039068,71.1182641 120.903668,70.3658262 C121.001629,70.3263454 121.096821,70.2097674 121.131089,70.1097494 C121.321357,69.5554831 121.34628,68.9923336 121.295857,68.406044 C121.006591,65.0415136 123.231764,61.3687042 126.419584,59.9008964 C126.49366,59.8667894 126.570967,59.8389335 126.682774,59.7935306 C126.60639,60.2284772 126.538891,60.6376517 126.46216,61.0451811 C126.205547,62.4069391 125.97628,63.7743999 125.672936,65.1267263 C125.537822,65.7291373 125.283516,66.3140012 125.025634,66.8832921 C124.561215,67.9083668 123.76426,68.6691395 122.753268,69.2135357 C122.468963,69.3666334 122.110812,69.3945989 121.788776,69.4870497 C121.721508,69.5063515 121.629316,69.5444065 121.608662,69.5956219 C121.544509,69.7550804 121.509086,69.9250671 121.44251,70.1620615 C121.926775,69.938995 122.34331,69.7585898 122.74923,69.5584442 C125.024826,68.4368609 127.081425,67.0237779 128.928025,65.3350971 C129.002678,65.2668831 129.053908,65.1471247 129.062447,65.0472164 C129.090254,64.7243514 129.095562,64.3995122 129.103292,64.0754408 C129.105139,63.9991113 129.099715,63.9153243 129.068677,63.8467813 C128.266184,62.0701461 128.199954,60.2270516 128.506874,58.3479856 C128.84841,56.2571492 129.773441,54.4260086 131.213198,52.8212244 C131.28289,52.7434692 131.329735,52.6470703 131.387312,52.5593352 C131.415004,52.582585 131.442811,52.6058348 131.470503,52.628975 C131.553234,53.2688926 131.645771,53.9077136 131.716386,54.5488377 C131.848731,55.7514662 132.01696,56.9531077 132.080306,58.1594649 C132.151729,59.5201262 132.10119,60.8822132 131.394119,62.1303543 C130.951392,62.9119641 130.438281,63.6321594 129.553866,64.0289412 C129.507251,64.049888 129.460636,64.1155796 129.454174,64.1651499 C129.425559,64.3877777 129.411367,64.6121601 129.453136,64.8669208 C129.804248,64.5142259 130.16286,64.168111 130.505088,63.8078489 C132.155998,62.0695977 133.579024,60.1749589 134.780514,58.1311703 C134.843629,58.0238046 134.845591,57.8719132 134.840283,57.7420653 C134.808899,56.972519 134.435863,56.3449939 133.993829,55.7142884 C133.218797,54.6084975 132.881069,53.3371067 132.681109,52.0357762 C132.317996,49.6720837 132.710762,47.4100542 133.726485,45.2366371 C133.773792,45.1355224 133.836676,45.0409879 133.907291,44.9170621 C134.694554,46.9771913 135.681661,48.9244712 136.193272,51.0366931 C136.575653,52.6149374 136.526038,54.1529332 135.823006,55.639275 C135.664699,55.9739843 135.380279,56.2547365 135.156665,56.5621382 C135.113165,56.6219078 135.048781,56.6915475 135.051781,56.7540587 C135.062627,56.9780025 135.098281,57.2008496 135.192319,57.4410243 C135.415124,57.0266955 135.646238,56.616205 135.859467,56.1974894 C137.104687,53.7525322 138.056256,51.2074475 138.731366,48.5681571 C138.775212,48.3968544 138.789866,48.2509949 138.662021,48.1037096 C138.593598,48.024748 138.541445,47.9223173 138.515483,47.8226284 C138.365254,47.246867 137.962103,46.8857275 137.473338,46.5386256 C136.318809,45.718851 135.609661,44.5683152 135.025358,43.3413402 C133.923329,41.0274374 133.737677,38.6169163 134.167827,36.1136153 C134.216288,36.1413615 134.252519,36.1512317 134.270519,36.1740428 C135.23328,37.3947667 136.207349,38.6079234 137.151648,39.8413689 C137.843027,40.7444918 138.420984,41.7149513 138.79725,42.7780811 C139.161978,43.8085295 139.289361,44.8679305 139.024556,45.9376403 C138.946557,46.2531576 138.74902,46.5415866 138.611136,46.844492 C138.581367,46.9097449 138.539022,46.995506 138.560598,47.0517661 C138.65429,47.2963276 138.769443,47.5334316 138.93398,47.7698777 C139.059748,47.1550741 139.196939,46.542135 139.308977,45.9250284 C139.71755,43.6747335 139.939433,41.4078786 139.952471,39.1234766 C139.952817,39.0709453 139.955125,39.0180849 139.960894,38.9658825 C139.99724,38.6367663 139.910241,38.3769608 139.700704,38.0793196 C139.338861,37.5656307 138.890711,37.2675508 138.291524,37.0474455 C136.941996,36.551852 136.00762,35.5647228 135.190472,34.4717631 C133.951483,32.8146669 133.335449,30.9431682 133.11299,28.9405055 C133.073875,28.5882492 133.061644,28.2332511 133.033375,27.8274764 C134.178558,28.7012081 135.277356,29.5229567 136.355847,30.3679551 C137.171494,31.0069954 137.886181,31.7424347 138.453407,32.5936842 C139.299515,33.8633204 139.737973,35.2451478 139.467629,36.7464045 C139.378091,37.2437527 139.555667,37.5183635 139.932048,37.8108503 C139.932048,37.6086209 139.937125,37.4241579 139.931356,37.2399143 C139.837434,34.2685467 139.414091,31.338963 138.69802,28.4461183 C138.652905,28.2641777 138.586906,28.1196342 138.390638,28.0525169 C138.348639,28.0380406 138.305254,28.0113911 138.276985,27.9789291 C137.911681,27.5582394 137.426608,27.4943025 136.882343,27.4729171 C135.395625,27.4143539 134.201288,26.7022741 133.120028,25.8073764 C131.451465,24.4266457 130.472666,22.6413466 129.859171,20.6525022 C129.849478,20.6209176 129.853748,20.5854945 129.849825,20.5276991 C131.594079,21.2533778 133.432949,21.717277 135.050166,22.6712862 C136.121272,23.3031981 137.026111,24.0783374 137.510953,25.2226221 C137.752682,25.7930098 137.862066,26.3880729 137.83322,26.9962963 C137.821335,27.2465606 137.886296,27.3924201 138.11441,27.4946315 C138.229793,27.5463952 138.335254,27.6182283 138.504291,27.7146272 C138.357408,27.2098215 138.232332,26.7576569 138.094218,26.309221 C137.370762,23.9591274 136.4515,21.6807573 135.327317,19.4770716 C135.254049,19.3334054 135.181703,19.2240656 134.992359,19.2293297 C134.931321,19.2309747 134.861168,19.2083829 134.808783,19.176579 C134.372056,18.9118384 133.94006,18.9604217 133.456256,19.093121 C132.176998,19.4439516 130.949662,19.1685731 129.772287,18.6707863 C127.947379,17.899266 126.668351,16.5684346 125.664513,14.9681469 C125.64686,14.9400717 125.64109,14.905197 125.613514,14.8280998 C125.958165,14.8500335 126.273854,14.8645098 126.588506,14.89094 C127.818265,14.9943577 129.055524,15.0506178 130.274783,15.2221399 C131.38235,15.3779793 132.400265,15.7902245 133.207951,16.5798402 C133.731908,17.092213 134.080712,17.6904565 134.198404,18.3928854 C134.238442,18.6320732 134.327634,18.7535862 134.571208,18.7949314 C134.7039,18.8174135 134.831283,18.8674225 135.021205,18.9224763 C134.957051,18.7906543 134.920475,18.7078543 134.877437,18.6281251 C133.7506,16.5409077 132.448841,14.5584241 130.954854,12.6898864 C130.855162,12.5650833 130.759048,12.4919341 130.591742,12.518474 C130.538088,12.5269185 130.474858,12.53306 130.426974,12.5144163 C129.933247,12.3226054 129.53252,12.53306 129.087946,12.7209227 C127.454575,13.4111784 125.811627,13.273544 124.203641,12.6268268 C122.953228,12.1239952 121.951698,11.3044399 121.12509,10.2873711 C121.086667,10.2401038 121.053667,10.1888885 120.997014,10.1103656 C121.556855,10.0216435 122.086351,9.92579295 122.619539,9.85604356 C123.459185,9.74626505 124.298717,9.60490192 125.142864,9.56542114 C126.57316,9.49841348 127.900418,9.82489761 128.952255,10.8073111 C129.265753,11.1001269 129.504135,11.4864902 129.69798,11.8662734 C129.819248,12.1039258 129.955055,12.1978023 130.205091,12.2024084 C130.305129,12.2042728 130.405166,12.2140333 130.542934,12.2225875 C130.487896,12.1436259 130.45432,12.0863788 130.411858,12.0358214 C129.259176,10.6621095 128.008878,9.37415868 126.644236,8.18819984 C126.413353,7.98750586 126.166201,7.80249453 125.915819,7.62384399 C125.841858,7.57109328 125.731897,7.5438954 125.637052,7.54027633 C123.447647,7.45791503 121.759584,6.46979878 120.408095,4.90109569 C119.495757,3.84213337 118.889185,2.62809931 118.523534,1.30538343 C118.504842,1.23793709 118.500227,1.16687168 118.48915,1.09756098 L118.599918,1.09756098 Z" id="Fill-4" transform="translate(130.975610, 37.639059) rotate(4.000000) translate(-130.975610, -37.639059) "></path>
                </g>
                <g id="Text" transform="translate(46.463415, 7.682927)">
                    <path d="M5.3795122,25.6536585 C5.26731651,25.5078041 5.10884249,25.3857932 4.90408537,25.287622 C4.69932824,25.1894507 4.49317177,25.1403659 4.28560976,25.1403659 C4.1621945,25.1403659 4.0387811,25.1557925 3.91536585,25.1866463 C3.7919506,25.2175002 3.6797566,25.2651826 3.57878049,25.3296951 C3.47780437,25.3942076 3.3950613,25.4783531 3.33054878,25.5821341 C3.26603626,25.6859152 3.23378049,25.810731 3.23378049,25.9565854 C3.23378049,26.0912202 3.26182899,26.206219 3.31792683,26.3015854 C3.37402467,26.3969517 3.45115805,26.4782923 3.54932927,26.5456098 C3.64750049,26.6129272 3.76670662,26.671829 3.90695122,26.7223171 C4.04719582,26.7728051 4.20146257,26.8232924 4.3697561,26.8737805 C4.56048876,26.9354881 4.75823068,27.0056094 4.9629878,27.0841463 C5.16774493,27.1626833 5.35566988,27.2664628 5.52676829,27.3954878 C5.69786671,27.5245128 5.83810921,27.6871941 5.9475,27.8835366 C6.05689079,28.079879 6.11158537,28.323901 6.11158537,28.6156098 C6.11158537,28.9353675 6.05268352,29.21445 5.93487805,29.4528659 C5.81707258,29.6912817 5.66000098,29.8890236 5.46365854,30.0460976 C5.26731609,30.2031715 5.03731839,30.3209752 4.77365854,30.3995122 C4.50999868,30.4780492 4.23231853,30.5173171 3.94060976,30.5173171 C3.55353465,30.5173171 3.1748799,30.4457934 2.80463415,30.3027439 C2.43438839,30.1596944 2.13146459,29.9479282 1.89585366,29.667439 L2.65317073,28.9606098 C2.79902512,29.162562 2.99396219,29.3224384 3.2379878,29.4402439 C3.48201342,29.5580494 3.72182809,29.6169512 3.95743902,29.6169512 C4.08085428,29.6169512 4.20707253,29.6015245 4.33609756,29.5706707 C4.4651226,29.5398169 4.58152387,29.4879272 4.68530488,29.415 C4.78908588,29.3420728 4.87323138,29.2509152 4.9377439,29.1415244 C5.00225642,29.0321336 5.0345122,28.8960984 5.0345122,28.7334146 C5.0345122,28.5763407 4.99804915,28.4459152 4.92512195,28.3421341 C4.85219476,28.2383531 4.75402501,28.1485979 4.63060976,28.0728659 C4.5071945,27.9971338 4.3613423,27.9312198 4.19304878,27.875122 L3.66292683,27.6984146 C3.48341374,27.6423168 3.30390334,27.5750004 3.12439024,27.4964634 C2.94487715,27.4179264 2.78359828,27.314147 2.64054878,27.185122 C2.49749928,27.0560969 2.38109801,26.8976229 2.29134146,26.7096951 C2.20158492,26.5217674 2.15670732,26.2875624 2.15670732,26.0070732 C2.15670732,25.7041448 2.21981644,25.4432938 2.34603659,25.2245122 C2.47225673,25.0057306 2.63774288,24.8248178 2.8425,24.6817683 C3.04725712,24.5387188 3.28005967,24.4321345 3.54091463,24.3620122 C3.8017696,24.2918899 4.06682792,24.2568293 4.33609756,24.2568293 C4.6390259,24.2568293 4.94615698,24.3101214 5.2575,24.4167073 C5.56884302,24.5232932 5.83951105,24.6831697 6.0695122,24.8963415 L5.3795122,25.6536585 Z M7.13817073,24.0043902 L8.14792683,24.0043902 L8.14792683,30.3658537 L7.13817073,30.3658537 L7.13817073,24.0043902 Z M9.14085366,28.3295122 C9.14085366,28.0097545 9.19835308,27.7194525 9.31335366,27.4585976 C9.42835423,27.1977426 9.58402341,26.974757 9.78036585,26.7896341 C9.9767083,26.6045113 10.2095108,26.4614639 10.4787805,26.3604878 C10.7480501,26.2595117 11.0341448,26.2090244 11.3370732,26.2090244 C11.6400015,26.2090244 11.9260962,26.2595117 12.1953659,26.3604878 C12.4646355,26.4614639 12.697438,26.6045113 12.8937805,26.7896341 C13.0901229,26.974757 13.2457921,27.1977426 13.3607927,27.4585976 C13.4757933,27.7194525 13.5332927,28.0097545 13.5332927,28.3295122 C13.5332927,28.6492699 13.4757933,28.9409743 13.3607927,29.2046341 C13.2457921,29.468294 13.0901229,29.6940844 12.8937805,29.8820122 C12.697438,30.06994 12.4646355,30.2171946 12.1953659,30.3237805 C11.9260962,30.4303664 11.6400015,30.4836585 11.3370732,30.4836585 C11.0341448,30.4836585 10.7480501,30.4303664 10.4787805,30.3237805 C10.2095108,30.2171946 9.9767083,30.06994 9.78036585,29.8820122 C9.58402341,29.6940844 9.42835423,29.468294 9.31335366,29.2046341 C9.19835308,28.9409743 9.14085366,28.6492699 9.14085366,28.3295122 Z M10.167439,28.3295122 C10.167439,28.4865862 10.1912802,28.6436578 10.2389634,28.8007317 C10.2866466,28.9578057 10.3581703,29.0980482 10.4535366,29.2214634 C10.5489029,29.3448787 10.6695115,29.4458533 10.8153659,29.5243902 C10.9612202,29.6029272 11.1351209,29.6421951 11.3370732,29.6421951 C11.5390254,29.6421951 11.7129261,29.6029272 11.8587805,29.5243902 C12.0046349,29.4458533 12.1252434,29.3448787 12.2206098,29.2214634 C12.3159761,29.0980482 12.3874998,28.9578057 12.4351829,28.8007317 C12.4828661,28.6436578 12.5067073,28.4865862 12.5067073,28.3295122 C12.5067073,28.1724382 12.4828661,28.0167691 12.4351829,27.8625 C12.3874998,27.7082309 12.3159761,27.5693909 12.2206098,27.4459756 C12.1252434,27.3225604 12.0046349,27.2229882 11.8587805,27.1472561 C11.7129261,27.071524 11.5390254,27.0336585 11.3370732,27.0336585 C11.1351209,27.0336585 10.9612202,27.071524 10.8153659,27.1472561 C10.6695115,27.2229882 10.5489029,27.3225604 10.4535366,27.4459756 C10.3581703,27.5693909 10.2866466,27.7082309 10.2389634,27.8625 C10.1912802,28.0167691 10.167439,28.1724382 10.167439,28.3295122 Z M17.0169512,29.852561 L16.9917073,29.852561 C16.8907312,30.0320741 16.7280499,30.1793287 16.5036585,30.2943293 C16.2792672,30.4093298 16.0240258,30.4668293 15.7379268,30.4668293 C15.5752431,30.4668293 15.4055497,30.4457929 15.2288415,30.4037195 C15.0521333,30.3616461 14.889452,30.2915249 14.7407927,30.1933537 C14.5921334,30.0951824 14.46872,29.9661593 14.3705488,29.8062805 C14.2723776,29.6464016 14.2232927,29.4486597 14.2232927,29.2130488 C14.2232927,28.9101204 14.3088406,28.6689033 14.479939,28.4893902 C14.6510374,28.3098772 14.8712182,28.1724395 15.1404878,28.0770732 C15.4097574,27.9817068 15.708474,27.9185977 16.0366463,27.8877439 C16.3648187,27.8568901 16.685974,27.8414634 17.000122,27.8414634 L17.000122,27.7404878 C17.000122,27.4880475 16.9089643,27.301525 16.7266463,27.1809146 C16.5443284,27.0603043 16.3269525,27 16.0745122,27 C15.8613404,27 15.6565863,27.0448776 15.4602439,27.1346341 C15.2639015,27.2243907 15.1012202,27.3337798 14.9721951,27.4628049 L14.4504878,26.8485366 C14.680489,26.6353648 14.9455473,26.4754883 15.2456707,26.3689024 C15.5457942,26.2623165 15.8501204,26.2090244 16.1586585,26.2090244 C16.5176847,26.2090244 16.8135964,26.2595117 17.0464024,26.3604878 C17.2792085,26.4614639 17.4629262,26.5932919 17.597561,26.7559756 C17.7321958,26.9186593 17.8261583,27.1009746 17.8794512,27.3029268 C17.9327442,27.5048791 17.9593902,27.7068283 17.9593902,27.9087805 L17.9593902,30.3658537 L17.0169512,30.3658537 L17.0169512,29.852561 Z M17.000122,28.5230488 L16.7729268,28.5230488 C16.6102431,28.5230488 16.4391472,28.5300609 16.2596341,28.5440854 C16.0801211,28.5581098 15.9146349,28.5889632 15.7631707,28.6366463 C15.6117066,28.6843295 15.4854883,28.7516459 15.3845122,28.8385976 C15.2835361,28.9255492 15.2330488,29.0447553 15.2330488,29.1962195 C15.2330488,29.2915858 15.2540852,29.3715241 15.2961585,29.4360366 C15.3382319,29.5005491 15.3929265,29.5524388 15.4602439,29.5917073 C15.5275613,29.6309758 15.6032923,29.6590243 15.687439,29.6758537 C15.7715858,29.692683 15.8557313,29.7010976 15.939878,29.7010976 C16.2876847,29.7010976 16.5513406,29.6085375 16.7308537,29.4234146 C16.9103668,29.2382918 17.000122,28.9858553 17.000122,28.6660976 L17.000122,28.5230488 Z M19.137439,26.3268293 L20.0967073,26.3268293 L20.0967073,26.9747561 L20.1135366,26.9747561 C20.2032931,26.7728039 20.3589623,26.5946959 20.5805488,26.4404268 C20.8021353,26.2861578 21.0643887,26.2090244 21.3673171,26.2090244 C21.6309769,26.2090244 21.8567674,26.2553044 22.0446951,26.3478659 C22.2326229,26.4404273 22.3868896,26.5624383 22.5075,26.7139024 C22.6281104,26.8653666 22.7164631,27.0392673 22.772561,27.2356098 C22.8286588,27.4319522 22.8567073,27.6339014 22.8567073,27.8414634 L22.8567073,30.3658537 L21.8469512,30.3658537 L21.8469512,28.127561 C21.8469512,28.0097555 21.8385367,27.8863421 21.8217073,27.7573171 C21.804878,27.628292 21.7684149,27.5118908 21.7123171,27.4081098 C21.6562192,27.3043287 21.5790859,27.2187808 21.4809146,27.1514634 C21.3827434,27.084146 21.2523179,27.0504878 21.0896341,27.0504878 C20.9269504,27.0504878 20.7867079,27.0827436 20.6689024,27.1472561 C20.551097,27.2117686 20.4543296,27.2945117 20.3785976,27.3954878 C20.3028655,27.4964639 20.245366,27.6128652 20.2060976,27.7446951 C20.1668291,27.876525 20.1471951,28.0097554 20.1471951,28.1443902 L20.1471951,30.3658537 L19.137439,30.3658537 L19.137439,26.3268293 Z M29.2265854,25.6536585 C29.1143897,25.5078041 28.9559157,25.3857932 28.7511585,25.287622 C28.5464014,25.1894507 28.3402449,25.1403659 28.1326829,25.1403659 C28.0092677,25.1403659 27.8858543,25.1557925 27.762439,25.1866463 C27.6390238,25.2175002 27.5268298,25.2651826 27.4258537,25.3296951 C27.3248775,25.3942076 27.2421345,25.4783531 27.177622,25.5821341 C27.1131094,25.6859152 27.0808537,25.810731 27.0808537,25.9565854 C27.0808537,26.0912202 27.1089022,26.206219 27.165,26.3015854 C27.2210978,26.3969517 27.2982312,26.4782923 27.3964024,26.5456098 C27.4945737,26.6129272 27.6137798,26.671829 27.7540244,26.7223171 C27.894269,26.7728051 28.0485357,26.8232924 28.2168293,26.8737805 C28.4075619,26.9354881 28.6053039,27.0056094 28.810061,27.0841463 C29.0148181,27.1626833 29.202743,27.2664628 29.3738415,27.3954878 C29.5449399,27.5245128 29.6851824,27.6871941 29.7945732,27.8835366 C29.903964,28.079879 29.9586585,28.323901 29.9586585,28.6156098 C29.9586585,28.9353675 29.8997567,29.21445 29.7819512,29.4528659 C29.6641458,29.6912817 29.5070742,29.8890236 29.3107317,30.0460976 C29.1143893,30.2031715 28.8843916,30.3209752 28.6207317,30.3995122 C28.3570719,30.4780492 28.0793917,30.5173171 27.7876829,30.5173171 C27.4006078,30.5173171 27.0219531,30.4457934 26.6517073,30.3027439 C26.2814616,30.1596944 25.9785378,29.9479282 25.7429268,29.667439 L26.5002439,28.9606098 C26.6460983,29.162562 26.8410354,29.3224384 27.085061,29.4402439 C27.3290866,29.5580494 27.5689013,29.6169512 27.8045122,29.6169512 C27.9279274,29.6169512 28.0541457,29.6015245 28.1831707,29.5706707 C28.3121958,29.5398169 28.428597,29.4879272 28.532378,29.415 C28.6361591,29.3420728 28.7203046,29.2509152 28.7848171,29.1415244 C28.8493296,29.0321336 28.8815854,28.8960984 28.8815854,28.7334146 C28.8815854,28.5763407 28.8451223,28.4459152 28.7721951,28.3421341 C28.6992679,28.2383531 28.6010982,28.1485979 28.4776829,28.0728659 C28.3542677,27.9971338 28.2084155,27.9312198 28.040122,27.875122 L27.51,27.6984146 C27.3304869,27.6423168 27.1509765,27.5750004 26.9714634,27.4964634 C26.7919503,27.4179264 26.6306714,27.314147 26.487622,27.185122 C26.3445725,27.0560969 26.2281712,26.8976229 26.1384146,26.7096951 C26.0486581,26.5217674 26.0037805,26.2875624 26.0037805,26.0070732 C26.0037805,25.7041448 26.0668896,25.4432938 26.1931098,25.2245122 C26.3193299,25.0057306 26.484816,24.8248178 26.6895732,24.6817683 C26.8943303,24.5387188 27.1271328,24.4321345 27.3879878,24.3620122 C27.6488428,24.2918899 27.9139011,24.2568293 28.1831707,24.2568293 C28.4860991,24.2568293 28.7932302,24.3101214 29.1045732,24.4167073 C29.4159162,24.5232932 29.6865842,24.6831697 29.9165854,24.8963415 L29.2265854,25.6536585 Z M33.7284146,27.4459756 C33.6498777,27.3337799 33.532074,27.2398175 33.375,27.1640854 C33.217926,27.0883533 33.0580496,27.0504878 32.8953659,27.0504878 C32.710243,27.0504878 32.5475617,27.0883533 32.4073171,27.1640854 C32.2670725,27.2398175 32.1506712,27.3393896 32.0581098,27.4628049 C31.9655483,27.5862201 31.8968295,27.7250602 31.8519512,27.8793293 C31.8070729,28.0335983 31.7846341,28.1892675 31.7846341,28.3463415 C31.7846341,28.5034154 31.8084754,28.6590846 31.8561585,28.8133537 C31.9038417,28.9676227 31.9753654,29.1064628 32.0707317,29.229878 C32.166098,29.3532933 32.2853042,29.4528655 32.4283537,29.5285976 C32.5714032,29.6043296 32.7382917,29.6421951 32.9290244,29.6421951 C33.0860983,29.6421951 33.2431699,29.6113418 33.4002439,29.5496341 C33.5573179,29.4879265 33.6835361,29.3981713 33.7789024,29.2803659 L34.41,29.919878 C34.2417065,30.0993911 34.0271355,30.2382312 33.7662805,30.3364024 C33.5054255,30.4345737 33.2235381,30.4836585 32.9206098,30.4836585 C32.6232912,30.4836585 32.3414038,30.4359761 32.074939,30.3406098 C31.8084743,30.2452434 31.5756717,30.1050009 31.3765244,29.919878 C31.1773771,29.7347552 31.0203055,29.5103672 30.9053049,29.2467073 C30.7903043,28.9830475 30.7328049,28.6829285 30.7328049,28.3463415 C30.7328049,28.020974 30.7903043,27.7264647 30.9053049,27.4628049 C31.0203055,27.199145 31.1759746,26.974757 31.3723171,26.7896341 C31.5686595,26.6045113 31.7972548,26.4614639 32.0581098,26.3604878 C32.3189647,26.2595117 32.5980473,26.2090244 32.8953659,26.2090244 C33.1926844,26.2090244 33.4801815,26.2651214 33.7578659,26.3773171 C34.0355502,26.4895128 34.2557309,26.6437795 34.4184146,26.840122 L33.7284146,27.4459756 Z M35.0915854,26.3268293 L36.1013415,26.3268293 L36.1013415,30.3658537 L35.0915854,30.3658537 L35.0915854,26.3268293 Z M34.9485366,24.9552439 C34.9485366,24.7925602 35.0088409,24.6509152 35.1294512,24.5303049 C35.2500616,24.4096945 35.4029259,24.3493902 35.5880488,24.3493902 C35.7731717,24.3493902 35.9288408,24.4068897 36.055061,24.5218902 C36.1812811,24.6368908 36.2443902,24.7813406 36.2443902,24.9552439 C36.2443902,25.1291472 36.1812811,25.273597 36.055061,25.3885976 C35.9288408,25.5035981 35.7731717,25.5610976 35.5880488,25.5610976 C35.4029259,25.5610976 35.2500616,25.5007933 35.1294512,25.3801829 C35.0088409,25.2595726 34.9485366,25.1179276 34.9485366,24.9552439 Z M40.1740244,27.942439 C40.1740244,27.813414 40.1557929,27.6900006 40.1193293,27.5721951 C40.0828657,27.4543897 40.0253662,27.3506102 39.9468293,27.2608537 C39.8682923,27.1710971 39.7687201,27.0995734 39.6481098,27.0462805 C39.5274994,26.9929875 39.3858545,26.9663415 39.2231707,26.9663415 C38.9202424,26.9663415 38.6635986,27.0574991 38.4532317,27.2398171 C38.2428648,27.4221351 38.1264635,27.65634 38.1040244,27.942439 L40.1740244,27.942439 Z M41.1837805,28.3968293 L41.1837805,28.5314634 C41.1837805,28.5763417 41.1809756,28.6212193 41.1753659,28.6660976 L38.1040244,28.6660976 C38.115244,28.8119519 38.1531094,28.9451823 38.217622,29.0657927 C38.2821345,29.186403 38.3676824,29.2901825 38.4742683,29.3771341 C38.5808542,29.4640858 38.7014627,29.5328046 38.8360976,29.5832927 C38.9707324,29.6337807 39.1109749,29.6590244 39.2568293,29.6590244 C39.5092696,29.6590244 39.7224382,29.6127444 39.8963415,29.5201829 C40.0702448,29.4276215 40.2132921,29.3000008 40.3254878,29.1373171 L40.9986585,29.6758537 C40.6003639,30.2143929 40.0225648,30.4836585 39.2652439,30.4836585 C38.951096,30.4836585 38.6621964,30.4345737 38.3985366,30.3364024 C38.1348767,30.2382312 37.9062815,30.0993911 37.7127439,29.919878 C37.5192063,29.740365 37.3677444,29.5201842 37.2583537,29.2593293 C37.1489629,28.9984743 37.0942683,28.7025626 37.0942683,28.3715854 C37.0942683,28.0462179 37.1489629,27.7503062 37.2583537,27.4838415 C37.3677444,27.2173767 37.5178039,26.9901839 37.7085366,26.8022561 C37.8992692,26.6143283 38.1250597,26.4684761 38.3859146,26.3646951 C38.6467696,26.2609141 38.928657,26.2090244 39.2315854,26.2090244 C39.5120746,26.2090244 39.7715232,26.2553044 40.009939,26.3478659 C40.2483549,26.4404273 40.4545113,26.5778649 40.6284146,26.7601829 C40.8023179,26.9425009 40.9383532,27.1696938 41.0365244,27.4417683 C41.1346956,27.7138428 41.1837805,28.0321933 41.1837805,28.3968293 Z M42.159878,26.3268293 L43.1191463,26.3268293 L43.1191463,26.9747561 L43.1359756,26.9747561 C43.2257322,26.7728039 43.3814013,26.5946959 43.6029878,26.4404268 C43.8245743,26.2861578 44.0868278,26.2090244 44.3897561,26.2090244 C44.653416,26.2090244 44.8792064,26.2553044 45.0671341,26.3478659 C45.2550619,26.4404273 45.4093287,26.5624383 45.529939,26.7139024 C45.6505494,26.8653666 45.7389022,27.0392673 45.795,27.2356098 C45.8510978,27.4319522 45.8791463,27.6339014 45.8791463,27.8414634 L45.8791463,30.3658537 L44.8693902,30.3658537 L44.8693902,28.127561 C44.8693902,28.0097555 44.8609757,27.8863421 44.8441463,27.7573171 C44.827317,27.628292 44.7908539,27.5118908 44.7347561,27.4081098 C44.6786583,27.3043287 44.6015249,27.2187808 44.5033537,27.1514634 C44.4051824,27.084146 44.2747569,27.0504878 44.1120732,27.0504878 C43.9493894,27.0504878 43.8091469,27.0827436 43.6913415,27.1472561 C43.573536,27.2117686 43.4767687,27.2945117 43.4010366,27.3954878 C43.3253045,27.4964639 43.2678051,27.6128652 43.2285366,27.7446951 C43.1892681,27.876525 43.1696341,28.0097554 43.1696341,28.1443902 L43.1696341,30.3658537 L42.159878,30.3658537 L42.159878,26.3268293 Z M49.8171951,27.4459756 C49.7386581,27.3337799 49.6208544,27.2398175 49.4637805,27.1640854 C49.3067065,27.0883533 49.1468301,27.0504878 48.9841463,27.0504878 C48.7990235,27.0504878 48.6363422,27.0883533 48.4960976,27.1640854 C48.355853,27.2398175 48.2394517,27.3393896 48.1468902,27.4628049 C48.0543288,27.5862201 47.98561,27.7250602 47.9407317,27.8793293 C47.8958534,28.0335983 47.8734146,28.1892675 47.8734146,28.3463415 C47.8734146,28.5034154 47.8972559,28.6590846 47.944939,28.8133537 C47.9926222,28.9676227 48.0641459,29.1064628 48.1595122,29.229878 C48.2548785,29.3532933 48.3740847,29.4528655 48.5171341,29.5285976 C48.6601836,29.6043296 48.8270722,29.6421951 49.0178049,29.6421951 C49.1748788,29.6421951 49.3319504,29.6113418 49.4890244,29.5496341 C49.6460983,29.4879265 49.7723166,29.3981713 49.8676829,29.2803659 L50.4987805,29.919878 C50.330487,30.0993911 50.1159159,30.2382312 49.855061,30.3364024 C49.594206,30.4345737 49.3123186,30.4836585 49.0093902,30.4836585 C48.7120717,30.4836585 48.4301843,30.4359761 48.1637195,30.3406098 C47.8972548,30.2452434 47.6644522,30.1050009 47.4653049,29.919878 C47.2661575,29.7347552 47.1090859,29.5103672 46.9940854,29.2467073 C46.8790848,28.9830475 46.8215854,28.6829285 46.8215854,28.3463415 C46.8215854,28.020974 46.8790848,27.7264647 46.9940854,27.4628049 C47.1090859,27.199145 47.2647551,26.974757 47.4610976,26.7896341 C47.65744,26.6045113 47.8860353,26.4614639 48.1468902,26.3604878 C48.4077452,26.2595117 48.6868278,26.2090244 48.9841463,26.2090244 C49.2814649,26.2090244 49.568962,26.2651214 49.8466463,26.3773171 C50.1243307,26.4895128 50.3445114,26.6437795 50.5071951,26.840122 L49.8171951,27.4459756 Z M54.0076829,27.942439 C54.0076829,27.813414 53.9894514,27.6900006 53.9529878,27.5721951 C53.9165242,27.4543897 53.8590248,27.3506102 53.7804878,27.2608537 C53.7019508,27.1710971 53.6023787,27.0995734 53.4817683,27.0462805 C53.3611579,26.9929875 53.219513,26.9663415 53.0568293,26.9663415 C52.7539009,26.9663415 52.4972571,27.0574991 52.2868902,27.2398171 C52.0765233,27.4221351 51.9601221,27.65634 51.9376829,27.942439 L54.0076829,27.942439 Z M55.017439,28.3968293 L55.017439,28.5314634 C55.017439,28.5763417 55.0146342,28.6212193 55.0090244,28.6660976 L51.9376829,28.6660976 C51.9489025,28.8119519 51.986768,28.9451823 52.0512805,29.0657927 C52.115793,29.186403 52.2013409,29.2901825 52.3079268,29.3771341 C52.4145127,29.4640858 52.5351213,29.5328046 52.6697561,29.5832927 C52.8043909,29.6337807 52.9446334,29.6590244 53.0904878,29.6590244 C53.3429281,29.6590244 53.5560967,29.6127444 53.73,29.5201829 C53.9039033,29.4276215 54.0469507,29.3000008 54.1591463,29.1373171 L54.8323171,29.6758537 C54.4340224,30.2143929 53.8562233,30.4836585 53.0989024,30.4836585 C52.7847545,30.4836585 52.495855,30.4345737 52.2321951,30.3364024 C51.9685353,30.2382312 51.73994,30.0993911 51.5464024,29.919878 C51.3528649,29.740365 51.201403,29.5201842 51.0920122,29.2593293 C50.9826214,28.9984743 50.9279268,28.7025626 50.9279268,28.3715854 C50.9279268,28.0462179 50.9826214,27.7503062 51.0920122,27.4838415 C51.201403,27.2173767 51.3514625,26.9901839 51.5421951,26.8022561 C51.7329278,26.6143283 51.9587182,26.4684761 52.2195732,26.3646951 C52.4804281,26.2609141 52.7623156,26.2090244 53.0652439,26.2090244 C53.3457331,26.2090244 53.6051817,26.2553044 53.8435976,26.3478659 C54.0820134,26.4404273 54.2881699,26.5778649 54.4620732,26.7601829 C54.6359765,26.9425009 54.7720117,27.1696938 54.8701829,27.4417683 C54.9683541,27.7138428 55.017439,28.0321933 55.017439,28.3968293 Z M2.85932927,41.1940244 L2.83408537,41.1940244 C2.73310925,41.3735375 2.57042795,41.5207921 2.34603659,41.6357927 C2.12164522,41.7507933 1.86640387,41.8082927 1.58030488,41.8082927 C1.41762114,41.8082927 1.24792771,41.7872563 1.07121951,41.7451829 C0.894511312,41.7031095 0.731830012,41.6329883 0.583170732,41.5348171 C0.434511452,41.4366459 0.311098052,41.3076228 0.212926829,41.1477439 C0.114755607,40.9878651 0.0656707317,40.7901231 0.0656707317,40.5545122 C0.0656707317,40.2515839 0.151218657,40.0103668 0.322317073,39.8308537 C0.49341549,39.6513406 0.713596215,39.5139029 0.982865854,39.4185366 C1.25213549,39.3231703 1.55085202,39.2600611 1.87902439,39.2292073 C2.20719676,39.1983535 2.52835209,39.1829268 2.8425,39.1829268 L2.8425,39.0819512 C2.8425,38.8295109 2.75134237,38.6429884 2.56902439,38.522378 C2.38670641,38.4017677 2.16933053,38.3414634 1.91689024,38.3414634 C1.70371845,38.3414634 1.4989644,38.386341 1.30262195,38.4760976 C1.10627951,38.5658541 0.943598206,38.6752433 0.814573171,38.8042683 L0.292865854,38.19 C0.522867004,37.9768282 0.787925329,37.8169518 1.08804878,37.7103659 C1.38817223,37.60378 1.69249846,37.5504878 2.00103659,37.5504878 C2.36006277,37.5504878 2.65597445,37.6009751 2.88878049,37.7019512 C3.12158653,37.8029273 3.3053042,37.9347553 3.43993902,38.097439 C3.57457384,38.2601228 3.66853632,38.442438 3.72182927,38.6443902 C3.77512222,38.8463425 3.80176829,39.0482917 3.80176829,39.2502439 L3.80176829,41.7073171 L2.85932927,41.7073171 L2.85932927,41.1940244 Z M2.8425,39.8645122 L2.61530488,39.8645122 C2.45262114,39.8645122 2.28152529,39.8715243 2.1020122,39.8855488 C1.9224991,39.8995732 1.75701295,39.9304266 1.60554878,39.9781098 C1.45408461,40.0257929 1.32786636,40.0931093 1.22689024,40.180061 C1.12591413,40.2670126 1.07542683,40.3862188 1.07542683,40.5376829 C1.07542683,40.6330493 1.0964632,40.7129875 1.13853659,40.7775 C1.18060997,40.8420125 1.23530454,40.8939022 1.30262195,40.9331707 C1.36993936,40.9724392 1.44567031,41.0004877 1.52981707,41.0173171 C1.61396384,41.0341464 1.69810934,41.042561 1.7822561,41.042561 C2.13006271,41.042561 2.39371861,40.9500009 2.57323171,40.764878 C2.7527448,40.5797552 2.8425,40.3273187 2.8425,40.007561 L2.8425,39.8645122 Z M4.97981707,37.6682927 L5.93908537,37.6682927 L5.93908537,38.3162195 L5.95591463,38.3162195 C6.04567118,38.1142673 6.20134036,37.9361593 6.42292683,37.7818902 C6.6445133,37.6276212 6.90676678,37.5504878 7.20969512,37.5504878 C7.47335498,37.5504878 7.6991454,37.5967678 7.88707317,37.6893293 C8.07500094,37.7818907 8.22926769,37.9039017 8.34987805,38.0553659 C8.47048841,38.20683 8.55884118,38.3807307 8.61493902,38.5770732 C8.67103687,38.7734156 8.69908537,38.9753648 8.69908537,39.1829268 L8.69908537,41.7073171 L7.68932927,41.7073171 L7.68932927,39.4690244 C7.68932927,39.3512189 7.68091472,39.2278055 7.66408537,39.0987805 C7.64725601,38.9697555 7.61079296,38.8533542 7.55469512,38.7495732 C7.49859728,38.6457922 7.42146391,38.5602442 7.32329268,38.4929268 C7.22512146,38.4256094 7.09469594,38.3919512 6.9320122,38.3919512 C6.76932845,38.3919512 6.62908595,38.424207 6.51128049,38.4887195 C6.39347502,38.553232 6.2967077,38.6359751 6.22097561,38.7369512 C6.14524352,38.8379273 6.0877441,38.9543286 6.04847561,39.0861585 C6.00920712,39.2179885 5.98957317,39.3512188 5.98957317,39.4858537 L5.98957317,41.7073171 L4.97981707,41.7073171 L4.97981707,37.6682927 Z M13.9834756,41.7073171 L13.0242073,41.7073171 L13.0242073,41.1014634 L13.007378,41.1014634 C12.8671334,41.3370743 12.6721964,41.5165847 12.422561,41.64 C12.1729256,41.7634153 11.9050624,41.825122 11.6189634,41.825122 C11.3104253,41.825122 11.0341476,41.7676225 10.790122,41.652622 C10.5460963,41.5376214 10.3385374,41.3833546 10.167439,41.1898171 C9.99634061,40.9962795 9.86451266,40.7690867 9.77195122,40.5082317 C9.67938978,40.2473767 9.63310976,39.9682942 9.63310976,39.6709756 C9.63310976,39.373657 9.68079221,39.0959769 9.77615854,38.8379268 C9.87152487,38.5798768 10.0061577,38.3554888 10.180061,38.1647561 C10.3539643,37.9740234 10.5615232,37.823964 10.8027439,37.7145732 C11.0439646,37.6051824 11.3076205,37.5504878 11.5937195,37.5504878 C11.7788424,37.5504878 11.9443285,37.5715242 12.0901829,37.6135976 C12.2360373,37.6556709 12.363658,37.7075607 12.4730488,37.7692683 C12.5824396,37.8309759 12.676402,37.8982923 12.754939,37.9712195 C12.833476,38.0441467 12.8979876,38.114268 12.9484756,38.1815854 L12.9737195,38.1815854 L12.9737195,35.3458537 L13.9834756,35.3458537 L13.9834756,41.7073171 Z M10.6596951,39.6709756 C10.6596951,39.8280496 10.6835363,39.9851212 10.7312195,40.1421951 C10.7789027,40.2992691 10.8504264,40.4395116 10.9457927,40.5629268 C11.041159,40.6863421 11.1617676,40.7873167 11.307622,40.8658537 C11.4534763,40.9443906 11.6245722,40.9836585 11.8209146,40.9836585 C12.0060375,40.9836585 12.1715237,40.9457931 12.317378,40.870061 C12.4632324,40.7943289 12.5880483,40.6947567 12.6918293,40.5713415 C12.7956103,40.4479262 12.8741461,40.3090861 12.927439,40.1548171 C12.980732,40.000548 13.007378,39.8448788 13.007378,39.6878049 C13.007378,39.5307309 12.980732,39.3736593 12.927439,39.2165854 C12.8741461,39.0595114 12.7956103,38.9192689 12.6918293,38.7958537 C12.5880483,38.6724384 12.4632324,38.5714638 12.317378,38.4929268 C12.1715237,38.4143899 12.0060375,38.375122 11.8209146,38.375122 C11.6245722,38.375122 11.4534763,38.4129874 11.307622,38.4887195 C11.1617676,38.5644516 11.041159,38.6640238 10.9457927,38.787439 C10.8504264,38.9108543 10.7789027,39.0496944 10.7312195,39.2039634 C10.6835363,39.3582325 10.6596951,39.5139017 10.6596951,39.6709756 Z M17.3661585,35.7497561 L21.2116463,35.7497561 L21.2116463,36.6753659 L18.4264024,36.6753659 L18.4264024,38.3078049 L21.0517683,38.3078049 L21.0517683,39.1997561 L18.4264024,39.1997561 L18.4264024,41.7073171 L17.3661585,41.7073171 L17.3661585,35.7497561 Z M22.002622,37.6682927 L23.012378,37.6682927 L23.012378,41.7073171 L22.002622,41.7073171 L22.002622,37.6682927 Z M21.8595732,36.2967073 C21.8595732,36.1340236 21.9198774,35.9923787 22.0404878,35.8717683 C22.1610982,35.7511579 22.3139625,35.6908537 22.4990854,35.6908537 C22.6842082,35.6908537 22.8398774,35.7483531 22.9660976,35.8633537 C23.0923177,35.9783542 23.1554268,36.122804 23.1554268,36.2967073 C23.1554268,36.4706106 23.0923177,36.6150604 22.9660976,36.730061 C22.8398774,36.8450616 22.6842082,36.902561 22.4990854,36.902561 C22.3139625,36.902561 22.1610982,36.8422567 22.0404878,36.7216463 C21.9198774,36.601036 21.8595732,36.4593911 21.8595732,36.2967073 Z M24.2577439,35.3458537 L25.2675,35.3458537 L25.2675,41.7073171 L24.2577439,41.7073171 L24.2577439,35.3458537 Z M31.317622,37.5504878 C31.5812818,37.5504878 31.8070722,37.5967678 31.995,37.6893293 C32.1829278,37.7818907 32.3371945,37.9039017 32.4578049,38.0553659 C32.5784152,38.20683 32.666768,38.3807307 32.7228659,38.5770732 C32.7789637,38.7734156 32.8070122,38.9753648 32.8070122,39.1829268 L32.8070122,41.7073171 L31.7972561,41.7073171 L31.7972561,39.4690244 C31.7972561,39.3512189 31.7888415,39.2278055 31.7720122,39.0987805 C31.7551828,38.9697555 31.7187198,38.8533542 31.662622,38.7495732 C31.6065241,38.6457922 31.5293907,38.5602442 31.4312195,38.4929268 C31.3330483,38.4256094 31.2026228,38.3919512 31.039939,38.3919512 C30.8828651,38.3919512 30.7482323,38.4256094 30.6360366,38.4929268 C30.5238409,38.5602442 30.4312809,38.6471946 30.3583537,38.7537805 C30.2854265,38.8603664 30.2321343,38.9795725 30.1984756,39.1114024 C30.1648169,39.2432324 30.1479878,39.3736579 30.1479878,39.5026829 L30.1479878,41.7073171 L29.1382317,41.7073171 L29.1382317,39.2670732 C29.1382317,39.0146329 29.0779274,38.8056716 28.9573171,38.6401829 C28.8367067,38.4746943 28.6473793,38.3919512 28.3893293,38.3919512 C28.2378651,38.3919512 28.1060371,38.424207 27.9938415,38.4887195 C27.8816458,38.553232 27.7904882,38.6359751 27.7203659,38.7369512 C27.6502436,38.8379273 27.5969514,38.9543286 27.5604878,39.0861585 C27.5240242,39.2179885 27.5057927,39.3512188 27.5057927,39.4858537 L27.5057927,41.7073171 L26.4960366,41.7073171 L26.4960366,37.6682927 L27.4553049,37.6682927 L27.4553049,38.3162195 L27.4721341,38.3162195 C27.5170124,38.2152434 27.5773167,38.1198785 27.6530488,38.030122 C27.7287809,37.9403654 27.8185361,37.8590248 27.9223171,37.7860976 C28.0260981,37.7131704 28.1453042,37.6556709 28.279939,37.6135976 C28.4145738,37.5715242 28.5632309,37.5504878 28.7259146,37.5504878 C29.0400625,37.5504878 29.3009136,37.6206091 29.5084756,37.7608537 C29.7160376,37.9010983 29.8759141,38.0862184 29.9881098,38.3162195 C30.1227446,38.069389 30.302255,37.8800616 30.5266463,37.7482317 C30.7510377,37.6164018 31.0146936,37.5504878 31.317622,37.5504878 Z M41.3562805,41.3959756 C41.0533521,41.54183 40.7209774,41.6554264 40.3591463,41.7367683 C39.9973153,41.8181102 39.580795,41.8587805 39.1095732,41.8587805 C38.6271317,41.8587805 38.1867703,41.7816471 37.7884756,41.627378 C37.3901809,41.473109 37.0479892,41.2571355 36.7618902,40.9794512 C36.4757913,40.7017669 36.2528057,40.3707946 36.0929268,39.9865244 C35.933048,39.6022542 35.8531098,39.1773194 35.8531098,38.7117073 C35.8531098,38.2348757 35.9358528,37.8043312 36.1013415,37.420061 C36.2668301,37.0357908 36.4940229,36.7090257 36.7829268,36.4397561 C37.0718307,36.1704865 37.41262,35.9629276 37.8053049,35.8170732 C38.1979898,35.6712188 38.624327,35.5982927 39.0843293,35.5982927 C39.5611609,35.5982927 39.9973151,35.6670115 40.3928049,35.8044512 C40.7882947,35.9418909 41.1066451,36.1228038 41.3478659,36.3471951 L40.6157927,37.1381707 C40.4643285,36.9698772 40.2525623,36.8268299 39.9804878,36.7090244 C39.7084133,36.5912189 39.4125016,36.5323171 39.0927439,36.5323171 C38.778596,36.5323171 38.4939037,36.5884141 38.2386585,36.7006098 C37.9834134,36.8128054 37.7660375,36.9670722 37.5865244,37.1634146 C37.4070113,37.3597571 37.2681712,37.5897548 37.17,37.8534146 C37.0718288,38.1170745 37.0227439,38.4031692 37.0227439,38.7117073 C37.0227439,39.031465 37.0718288,39.3245718 37.17,39.5910366 C37.2681712,39.8575013 37.4084137,40.0889015 37.5907317,40.2852439 C37.7730497,40.4815863 37.9946328,40.6344507 38.2554878,40.7438415 C38.5163428,40.8532323 38.8122544,40.9079268 39.1432317,40.9079268 C39.5976242,40.9079268 39.9931081,40.8378056 40.3296951,40.697561 L40.3296951,39.1829268 L39.0759146,39.1829268 L39.0759146,38.3078049 L41.3562805,38.3078049 L41.3562805,41.3959756 Z M42.5932317,37.6682927 L43.5609146,37.6682927 L43.5609146,38.3414634 L43.5777439,38.3414634 C43.6899396,38.1058525 43.8470112,37.9151227 44.0489634,37.7692683 C44.2509156,37.6234139 44.486523,37.5504878 44.7557927,37.5504878 C44.7950612,37.5504878 44.8371339,37.5518902 44.8820122,37.5546951 C44.9268905,37.5575 44.9661584,37.5645121 44.9998171,37.5757317 L44.9998171,38.5013415 C44.9324997,38.4845121 44.8750002,38.4732927 44.8273171,38.4676829 C44.7796339,38.4620731 44.7333539,38.4592683 44.6884756,38.4592683 C44.4584745,38.4592683 44.2733544,38.501341 44.1331098,38.5854878 C43.9928652,38.6696346 43.883476,38.7706092 43.804939,38.8884146 C43.726402,39.0062201 43.6731099,39.1268287 43.645061,39.2502439 C43.6170121,39.3736592 43.6029878,39.4718289 43.6029878,39.5447561 L43.6029878,41.7073171 L42.5932317,41.7073171 L42.5932317,37.6682927 Z M48.0543293,41.1940244 L48.0290854,41.1940244 C47.9281093,41.3735375 47.765428,41.5207921 47.5410366,41.6357927 C47.3166452,41.7507933 47.0614039,41.8082927 46.7753049,41.8082927 C46.6126211,41.8082927 46.4429277,41.7872563 46.2662195,41.7451829 C46.0895113,41.7031095 45.92683,41.6329883 45.7781707,41.5348171 C45.6295115,41.4366459 45.5060981,41.3076228 45.4079268,41.1477439 C45.3097556,40.9878651 45.2606707,40.7901231 45.2606707,40.5545122 C45.2606707,40.2515839 45.3462187,40.0103668 45.5173171,39.8308537 C45.6884155,39.6513406 45.9085962,39.5139029 46.1778659,39.4185366 C46.4471355,39.3231703 46.745852,39.2600611 47.0740244,39.2292073 C47.4021968,39.1983535 47.7233521,39.1829268 48.0375,39.1829268 L48.0375,39.0819512 C48.0375,38.8295109 47.9463424,38.6429884 47.7640244,38.522378 C47.5817064,38.4017677 47.3643305,38.3414634 47.1118902,38.3414634 C46.8987184,38.3414634 46.6939644,38.386341 46.497622,38.4760976 C46.3012795,38.5658541 46.1385982,38.6752433 46.0095732,38.8042683 L45.4878659,38.19 C45.717867,37.9768282 45.9829253,37.8169518 46.2830488,37.7103659 C46.5831722,37.60378 46.8874985,37.5504878 47.1960366,37.5504878 C47.5550628,37.5504878 47.8509744,37.6009751 48.0837805,37.7019512 C48.3165865,37.8029273 48.5003042,37.9347553 48.634939,38.097439 C48.7695738,38.2601228 48.8635363,38.442438 48.9168293,38.6443902 C48.9701222,38.8463425 48.9967683,39.0482917 48.9967683,39.2502439 L48.9967683,41.7073171 L48.0543293,41.7073171 L48.0543293,41.1940244 Z M48.0375,39.8645122 L47.8103049,39.8645122 C47.6476211,39.8645122 47.4765253,39.8715243 47.2970122,39.8855488 C47.1174991,39.8995732 46.952013,39.9304266 46.8005488,39.9781098 C46.6490846,40.0257929 46.5228664,40.0931093 46.4218902,40.180061 C46.3209141,40.2670126 46.2704268,40.3862188 46.2704268,40.5376829 C46.2704268,40.6330493 46.2914632,40.7129875 46.3335366,40.7775 C46.37561,40.8420125 46.4303045,40.8939022 46.497622,40.9331707 C46.5649394,40.9724392 46.6406703,41.0004877 46.7248171,41.0173171 C46.8089638,41.0341464 46.8931093,41.042561 46.9772561,41.042561 C47.3250627,41.042561 47.5887186,40.9500009 47.7682317,40.764878 C47.9477448,40.5797552 48.0375,40.3273187 48.0375,40.007561 L48.0375,39.8645122 Z M50.1748171,37.6682927 L51.1340854,37.6682927 L51.1340854,38.3162195 L51.1509146,38.3162195 C51.2406712,38.1142673 51.3963404,37.9361593 51.6179268,37.7818902 C51.8395133,37.6276212 52.1017668,37.5504878 52.4046951,37.5504878 C52.668355,37.5504878 52.8941454,37.5967678 53.0820732,37.6893293 C53.2700009,37.7818907 53.4242677,37.9039017 53.544878,38.0553659 C53.6654884,38.20683 53.7538412,38.3807307 53.809939,38.5770732 C53.8660369,38.7734156 53.8940854,38.9753648 53.8940854,39.1829268 L53.8940854,41.7073171 L52.8843293,41.7073171 L52.8843293,39.4690244 C52.8843293,39.3512189 52.8759147,39.2278055 52.8590854,39.0987805 C52.842256,38.9697555 52.805793,38.8533542 52.7496951,38.7495732 C52.6935973,38.6457922 52.6164639,38.5602442 52.5182927,38.4929268 C52.4201215,38.4256094 52.2896959,38.3919512 52.1270122,38.3919512 C51.9643285,38.3919512 51.824086,38.424207 51.7062805,38.4887195 C51.588475,38.553232 51.4917077,38.6359751 51.4159756,38.7369512 C51.3402435,38.8379273 51.2827441,38.9543286 51.2434756,39.0861585 C51.2042071,39.2179885 51.1845732,39.3512188 51.1845732,39.4858537 L51.1845732,41.7073171 L50.1748171,41.7073171 L50.1748171,37.6682927 Z M54.4915244,38.4760976 L54.4915244,37.6682927 L55.1983537,37.6682927 L55.1983537,36.4986585 L56.1912805,36.4986585 L56.1912805,37.6682927 L57.2010366,37.6682927 L57.2010366,38.4760976 L56.1912805,38.4760976 L56.1912805,40.352561 C56.1912805,40.5320741 56.2235363,40.6807311 56.2880488,40.7985366 C56.3525613,40.9163421 56.4970111,40.9752439 56.7214024,40.9752439 C56.7887198,40.9752439 56.8616459,40.9682318 56.9401829,40.9542073 C57.0187199,40.9401829 57.0888412,40.9191465 57.1505488,40.8910976 L57.1842073,41.6820732 C57.0944508,41.7157319 56.9878665,41.742378 56.8644512,41.7620122 C56.741036,41.7816464 56.6232323,41.7914634 56.5110366,41.7914634 C56.2417669,41.7914634 56.0229886,41.7535979 55.8546951,41.6778659 C55.6864016,41.6021338 55.5531712,41.4983543 55.455,41.3665244 C55.3568288,41.2346945 55.2895124,41.0832326 55.2530488,40.9121341 C55.2165852,40.7410357 55.1983537,40.5573181 55.1983537,40.3609756 L55.1983537,38.4760976 L54.4915244,38.4760976 Z" id="Sloan-Science-and-Fi"></path>
                    <path d="M12.032561,6.95121951 L10.425,6.95121951 L9.09329268,2.39487805 L9.0647561,2.39487805 L7.73304878,6.95121951 L6.11597561,6.95121951 L4.20402439,0.216585366 L5.95426829,0.216585366 L7.01963415,4.69682927 L7.04817073,4.69682927 L8.24670732,0.216585366 L9.93987805,0.216585366 L11.1479268,4.69682927 L11.1764634,4.69682927 L12.2608537,0.216585366 L13.9540244,0.216585366 L12.032561,6.95121951 Z M16.4776829,6.95121951 L16.4776829,0.216585366 L18.1137805,0.216585366 L18.1137805,6.95121951 L16.4776829,6.95121951 Z M25.6123171,6.95121951 L22.9013415,2.54707317 L22.8728049,2.54707317 L22.9108537,6.95121951 L21.3318293,6.95121951 L21.3318293,0.216585366 L23.1867073,0.216585366 L25.8881707,4.61121951 L25.9167073,4.61121951 L25.8786585,0.216585366 L27.4576829,0.216585366 L27.4576829,6.95121951 L25.6123171,6.95121951 Z M34.9562195,6.95121951 L32.2452439,2.54707317 L32.2167073,2.54707317 L32.2547561,6.95121951 L30.6757317,6.95121951 L30.6757317,0.216585366 L32.5306098,0.216585366 L35.2320732,4.61121951 L35.2606098,4.61121951 L35.222561,0.216585366 L36.8015854,0.216585366 L36.8015854,6.95121951 L34.9562195,6.95121951 Z M40.0196341,6.95121951 L40.0196341,0.216585366 L44.547439,0.216585366 L44.547439,1.59585366 L41.5891463,1.59585366 L41.5891463,2.86097561 L44.3857317,2.86097561 L44.3857317,4.16414634 L41.5891463,4.16414634 L41.5891463,5.56243902 L44.7186585,5.56243902 L44.7186585,6.95121951 L40.0196341,6.95121951 Z M51.2279268,6.95121951 L49.772561,4.27829268 L49.2208537,4.27829268 L49.2208537,6.95121951 L47.6228049,6.95121951 L47.6228049,0.216585366 L50.1910976,0.216585366 C50.5145138,0.216585366 50.8299985,0.249877716 51.137561,0.316463415 C51.4451235,0.383049113 51.7209744,0.495608963 51.965122,0.654146341 C52.2092695,0.81268372 52.4042676,1.02194992 52.550122,1.28195122 C52.6959763,1.54195252 52.7689024,1.86536392 52.7689024,2.25219512 C52.7689024,2.70878277 52.6452451,3.09243747 52.3979268,3.40317073 C52.1506085,3.71390399 51.8081729,3.93585299 51.3706098,4.06902439 L53.1303659,6.95121951 L51.2279268,6.95121951 Z M51.1613415,2.28073171 C51.1613415,2.12219433 51.1280491,1.99378098 51.0614634,1.8954878 C50.9948777,1.79719463 50.9092688,1.72109783 50.8046341,1.66719512 C50.6999995,1.61329241 50.5826836,1.57682936 50.4526829,1.55780488 C50.3226823,1.53878039 50.1974396,1.52926829 50.0769512,1.52926829 L49.2113415,1.52926829 L49.2113415,3.09878049 L49.9818293,3.09878049 C50.1150007,3.09878049 50.2513408,3.08768304 50.3908537,3.0654878 C50.5303666,3.04329257 50.6571946,3.00365882 50.7713415,2.94658537 C50.8854884,2.88951191 50.979024,2.80707371 51.0519512,2.69926829 C51.1248784,2.59146288 51.1613415,2.45195208 51.1613415,2.28073171 Z" id="WINNER"></path>
                    <path d="M23.0780488,61.8292683 L20.542683,61.8292683 L20.542683,61.3189024 L22.090244,59.7823171 C22.2073177,59.6615848 22.3079265,59.5353665 22.3920732,59.4036585 C22.47622,59.2719506 22.5182927,59.1237813 22.5182927,58.9591463 C22.5182927,58.8567068 22.5000002,58.7643297 22.4634147,58.6820122 C22.4268291,58.5996947 22.3774394,58.5292686 22.315244,58.4707317 C22.2530485,58.4121948 22.1798785,58.3673782 22.0957318,58.3362805 C22.011585,58.3051828 21.9219517,58.2896341 21.8268293,58.2896341 C21.6292674,58.2896341 21.4664641,58.3527433 21.3384147,58.4789634 C21.2103653,58.6051836 21.1298783,58.7670722 21.0969513,58.9646341 L20.5756098,58.8768293 C20.5975611,58.7304871 20.644207,58.5942079 20.7155488,58.4679878 C20.7868907,58.3417677 20.8774385,58.2320127 20.9871952,58.1387195 C21.0969518,58.0454264 21.2240847,57.973171 21.3685976,57.9219512 C21.5131105,57.8707315 21.6676822,57.845122 21.8323171,57.845122 C21.9932935,57.845122 22.1478652,57.8689022 22.2960366,57.9164634 C22.4442081,57.9640246 22.5749995,58.0335361 22.6884147,58.125 C22.8018299,58.2164639 22.8923778,58.3317066 22.960061,58.4707317 C23.0277443,58.6097568 23.0615854,58.7689015 23.0615854,58.9481707 C23.0615854,59.0725616 23.0451222,59.1878043 23.0121952,59.2939024 C22.9792682,59.4000005 22.9344516,59.5006093 22.877744,59.5957317 C22.8210364,59.6908541 22.7542687,59.781402 22.6774391,59.867378 C22.6006094,59.9533541 22.5201224,60.0384142 22.4359757,60.122561 L21.1737805,61.3518293 L23.0780488,61.3518293 L23.0780488,61.8292683 Z M26.4310976,57.845122 C26.6615865,57.845122 26.8600602,57.8981702 27.0265244,58.0042683 C27.1929887,58.1103664 27.3301824,58.2557918 27.4381098,58.4405488 C27.5460371,58.6253058 27.6256095,58.8420719 27.6768293,59.0908537 C27.7280491,59.3396354 27.7536586,59.6048766 27.7536586,59.8865854 C27.7536586,60.1719526 27.7280491,60.4381085 27.6768293,60.685061 C27.6256095,60.9320134 27.5460371,61.1478649 27.4381098,61.332622 C27.3301824,61.517379 27.1929887,61.6628043 27.0265244,61.7689024 C26.8600602,61.8750005 26.6615865,61.9280488 26.4310976,61.9280488 C26.2006086,61.9280488 26.0012204,61.8750005 25.8329268,61.7689024 C25.6646333,61.6628043 25.5265249,61.517379 25.4185976,61.332622 C25.3106702,61.1478649 25.2310978,60.9320134 25.1798781,60.685061 C25.1286583,60.4381085 25.1030488,60.1719526 25.1030488,59.8865854 C25.1030488,59.6048766 25.1286583,59.3396354 25.1798781,59.0908537 C25.2310978,58.8420719 25.3106702,58.6253058 25.4185976,58.4405488 C25.5265249,58.2557918 25.6646333,58.1103664 25.8329268,58.0042683 C26.0012204,57.8981702 26.2006086,57.845122 26.4310976,57.845122 Z M26.4310976,58.2896341 C26.2701212,58.2896341 26.1384152,58.3417678 26.0359756,58.4460366 C25.9335361,58.5503054 25.8539637,58.6820114 25.7972561,58.8411585 C25.7405485,59.0003057 25.7012196,59.1731698 25.6792683,59.3597561 C25.657317,59.5463424 25.6463415,59.7219504 25.6463415,59.8865854 C25.6463415,60.0512203 25.657317,60.2268283 25.6792683,60.4134146 C25.7012196,60.6000009 25.7405485,60.7719504 25.7972561,60.9292683 C25.8539637,61.0865862 25.9335361,61.2173775 26.0359756,61.3216463 C26.1384152,61.4259152 26.2701212,61.4780488 26.4310976,61.4780488 C26.5884154,61.4780488 26.7173776,61.4259152 26.8179878,61.3216463 C26.9185981,61.2173775 26.9981705,61.0865862 27.0567073,60.9292683 C27.1152442,60.7719504 27.1554877,60.6000009 27.177439,60.4134146 C27.1993904,60.2268283 27.2103659,60.0512203 27.2103659,59.8865854 C27.2103659,59.7219504 27.1993904,59.5463424 27.177439,59.3597561 C27.1554877,59.1731698 27.1152442,59.0003057 27.0567073,58.8411585 C26.9981705,58.6820114 26.9185981,58.5503054 26.8179878,58.4460366 C26.7173776,58.3417678 26.5884154,58.2896341 26.4310976,58.2896341 Z M31.4579268,61.8292683 L30.9256097,61.8292683 L30.9256097,58.5914634 L30.1902439,59.2060976 L29.877439,58.8384146 L30.9804878,57.9439024 L31.4579268,57.9439024 L31.4579268,61.8292683 Z M36.6493902,58.4158537 L35.0469512,58.4158537 L35.0140243,59.4365854 C35.0871954,59.4109755 35.1685971,59.392683 35.2582317,59.3817073 C35.3478662,59.3707317 35.4329264,59.3652439 35.5134146,59.3652439 C35.7000009,59.3652439 35.872865,59.3935973 36.0320121,59.4503049 C36.1911593,59.5070125 36.328353,59.5884141 36.4435975,59.6945122 C36.558842,59.8006103 36.6493899,59.9295724 36.7152439,60.0814024 C36.7810978,60.2332325 36.8140243,60.4024381 36.8140243,60.5890244 C36.8140243,60.7939035 36.7792686,60.9786577 36.709756,61.1432927 C36.6402435,61.3079277 36.5451225,61.4478653 36.4243902,61.5631098 C36.3036579,61.6783542 36.1609764,61.7679875 35.9963414,61.8320122 C35.8317064,61.8960369 35.6524399,61.9280488 35.4585365,61.9280488 C35.1548765,61.9280488 34.8987815,61.8576227 34.6902439,61.7167683 C34.4817062,61.5759139 34.3243907,61.3865866 34.2182926,61.1487805 L34.7012195,60.9567073 C34.7634149,61.1140252 34.8612798,61.2402434 34.994817,61.3353659 C35.1283543,61.4304883 35.2829259,61.4780488 35.4585365,61.4780488 C35.5719517,61.4780488 35.6780482,61.457927 35.7768292,61.4176829 C35.8756102,61.3774388 35.9615849,61.3207321 36.034756,61.247561 C36.1079271,61.1743899 36.1655485,61.0865859 36.2076219,60.9841463 C36.2496953,60.8817068 36.2707317,60.7682933 36.2707317,60.6439024 C36.2707317,60.4975602 36.2460368,60.3704274 36.1966463,60.2625 C36.1472558,60.1545726 36.0804882,60.065854 35.9963414,59.9963415 C35.9121946,59.9268289 35.8152444,59.8756099 35.7054878,59.8426829 C35.5957311,59.8097559 35.4804884,59.7932927 35.359756,59.7932927 C35.2134139,59.7932927 35.0634154,59.8134144 34.909756,59.8536585 C34.7560967,59.8939026 34.618903,59.9451216 34.4981707,60.0073171 L34.5530487,57.9439024 L36.6493902,57.9439024 L36.6493902,58.4158537 Z" id="2015"></path>
                </g>
            </g>
        </g>
    </g>
</svg>