<?xml version="1.0" encoding="UTF-8"?>
<svg width="146px" height="74px" viewBox="0 0 146 74" version="1.1" xmlns="http://www.w3.org/2000/svg" xmlns:xlink="http://www.w3.org/1999/xlink">
    <!-- Generator: Sketch 42 (36781) - http://www.bohemiancoding.com/sketch -->
    <title>Womens</title>
    <desc>Created with Sketch.</desc>
    <defs></defs>
    <g id="Cloud-v2" stroke="none" stroke-width="1" fill="none" fill-rule="evenodd">
        <g id="Home" transform="translate(-563.000000, -95.000000)" fill="#227EA8">
            <g id="Womens" transform="translate(561.000000, 95.000000)">
                <g id="Leaves">
                    <path d="M31.5047424,1.09756098 C31.3156422,2.06748935 30.9003611,2.9557303 30.3834256,3.79994348 C29.4045404,5.39866739 28.0625874,6.61815963 26.1919163,7.22214152 C25.6575378,7.39473914 25.0779925,7.45029537 24.5142729,7.5274812 C24.2789662,7.55976091 24.0848988,7.60949801 23.8945279,7.75881911 C22.2473808,9.050776 20.8386594,10.5574918 19.4993633,12.1281082 C19.4827289,12.1475419 19.4731411,12.1724653 19.4314397,12.24493 C19.6696343,12.2163833 19.8730586,12.1989259 20.0729018,12.1631328 C20.120379,12.1545688 20.1742096,12.0918759 20.1940784,12.0426877 C20.7993839,10.5429988 22.078496,9.90585888 23.6297645,9.63554377 C24.6636355,9.4553703 25.6912686,9.60622853 26.7139345,9.75862389 C27.4609785,9.86984615 28.2055966,9.99556134 28.9793249,10.1193002 C28.9356597,10.1863849 28.9053944,10.245235 28.863693,10.2955211 C27.5667914,11.8621849 25.9462131,12.9167651 23.8144751,13.1360256 C22.6019004,13.2607526 21.4381891,13.1124197 20.3743994,12.4902118 C20.2854518,12.438169 20.152608,12.4298246 20.0433296,12.4382788 C19.7964712,12.4573832 19.5493819,12.4896629 19.3071442,12.537753 C19.2135759,12.5563084 19.1070699,12.6137311 19.0495428,12.6848782 C17.6335438,14.4353387 16.3982124,16.2960333 15.3149005,18.2485165 C15.1992686,18.4569073 15.0874488,18.6672744 14.9348518,18.948569 C15.2215633,18.8611722 15.4449718,18.8019927 15.658908,18.7206347 C15.7069628,18.7024087 15.7394229,18.6086439 15.7497038,18.545402 C15.9632935,17.2258866 16.7824197,16.3430256 17.9966116,15.7599047 C18.7874363,15.3801241 19.6413328,15.177772 20.5191413,15.1024527 C21.7868173,14.9937557 23.0577277,14.9205225 24.3639862,14.8296123 C24.3339519,14.9209617 24.327021,14.9803608 24.2973333,15.0266942 C23.2531813,16.6595643 21.9330609,18.0097125 20.0352435,18.7621372 C18.7053042,19.2894822 17.3539944,19.4616406 15.9643332,18.9708573 C15.8944458,18.9461535 15.8007621,18.9446163 15.7299506,18.9665753 C15.425334,19.0612185 15.1236054,19.1650845 14.8245337,19.2748795 C14.7740531,19.293325 14.7291172,19.3511869 14.7033571,19.400924 C13.3385319,22.0376492 12.2852542,24.784279 11.5018226,27.6254423 C11.4954692,27.6486091 11.505288,27.6757284 11.5075984,27.7012008 C11.5214603,27.6993343 11.5315102,27.6999931 11.5395964,27.6964797 C11.9220709,27.5305795 12.1524104,27.3420616 12.1513708,26.8480943 C12.1474432,24.9778475 13.2344517,23.7097161 14.8247647,22.7541709 C15.8615236,22.1313043 16.9956628,21.7124366 18.1326898,21.2975216 C18.7941362,21.0561923 19.4553516,20.8142043 20.173632,20.5515749 C20.0223056,20.9768106 19.897086,21.3774523 19.7384821,21.7656872 C18.976883,23.6292364 17.847018,25.2333403 16.1029527,26.4040836 C15.0020823,27.1431132 13.8085678,27.594041 12.4349633,27.5325558 C12.340702,27.5283836 12.2318856,27.5952487 12.1474432,27.6526715 C11.9080934,27.8156071 11.6724401,27.9846913 11.4471833,28.1648648 C11.3787977,28.2196525 11.3231188,28.3135271 11.3060224,28.39763 C11.0118024,29.8436292 10.6501208,31.2819427 10.4553603,32.7402389 C10.2324138,34.4085728 10.159061,36.0951327 10.0217121,37.7737873 C10.0203259,37.7897076 10.0314154,37.806616 10.0369602,37.8229754 C10.4538586,37.586587 10.5659094,37.3332901 10.4956755,36.8768726 C10.2374965,35.1988767 10.7211633,33.6987486 11.7296207,32.331143 C12.3439365,31.4979094 13.0965252,30.7864382 13.9258168,30.1491885 C14.9075899,29.3946778 15.9011457,28.654111 16.9414856,27.8683087 C16.9136462,28.2768556 16.9037118,28.6485115 16.8607397,29.0166538 C16.629245,31.0009775 16.0196655,32.8590371 14.7899943,34.5029965 C13.9378305,35.6422286 12.9546712,36.6510244 11.5375171,37.1511403 C11.0330574,37.3291179 10.669643,37.5820854 10.3586731,38.008968 C10.1120458,38.3475756 10.0061174,38.6545622 10.0095828,39.056192 C10.0345344,41.9445671 10.3654886,44.7994548 10.9974783,47.6238195 C11.0124955,47.6907944 11.0372159,47.755793 11.0725639,47.8710776 C11.2017112,47.5824268 11.317343,47.3363764 11.4189974,47.0852754 C11.4367869,47.0413574 11.4134526,46.963403 11.3800684,46.9227789 C10.9720647,46.4281527 10.8648656,45.842836 10.8258211,45.2420381 C10.7377977,43.8861806 11.1397944,42.6428629 11.8002012,41.457956 C12.5482848,40.1158229 13.5387217,38.9346491 14.5067483,37.7377746 C14.9276898,37.2174564 15.3392744,36.6902212 15.8007621,36.1085277 C15.8605995,36.521137 15.9282921,36.8772019 15.9615608,37.2362314 C16.1607109,39.3807458 15.8818545,41.4527957 14.9325415,43.428226 C14.2370178,44.8755427 13.3290596,46.1522381 11.8922677,47.0326836 C11.809558,47.083299 11.7566515,47.1908981 11.7117157,47.2818083 C11.551148,47.6064719 11.3945079,47.9332216 11.2490729,48.2642533 C11.2134938,48.3450623 11.1991698,48.4513438 11.2206558,48.5355565 C12.0087081,51.6255151 13.1537058,54.588441 14.7255362,57.3986421 C14.7452895,57.4338863 14.7741686,57.4644093 14.8433629,57.556637 C14.8772092,57.261618 14.9077055,57.0312683 14.9266501,56.80015 C14.9303467,56.756232 14.9020452,56.6939783 14.8662351,56.6655414 C14.3070206,56.2207621 14.0712519,55.6044832 13.8570846,54.9738212 C13.3651006,53.5248575 13.5027961,52.0845677 13.8973998,50.6419722 C14.323424,49.084092 14.9852169,47.6078992 15.6070412,46.1175429 C15.7597538,45.751267 15.9053043,45.3823561 16.0702616,44.9752365 C16.1259405,45.0666956 16.175728,45.1336706 16.2102674,45.2072332 C17.705395,48.3986423 17.8844453,51.6295775 16.4726049,54.8853265 C16.2259776,55.454174 15.8154326,55.9579131 15.4927956,56.4983237 C15.3962239,56.6600516 15.3239107,56.8396761 15.2718129,57.0193006 C15.2231805,57.1870673 15.2489406,57.3777811 15.183905,57.5369837 C15.0360441,57.8983188 15.1671551,58.1819191 15.357526,58.4915408 C16.7625509,60.7757144 18.4087738,62.8842162 20.3626167,64.7723595 C20.4185266,64.8263786 20.4795192,64.8755667 20.5933028,64.9753703 C20.5695064,64.6902329 20.5579548,64.4675688 20.5276895,64.2472104 C20.5200654,64.1914346 20.4647331,64.1183111 20.4111335,64.094815 C19.7079858,63.7870598 19.2558549,63.2384146 18.8475048,62.6448632 C18.1674602,61.6563795 17.9454379,60.5498663 17.8910297,59.392518 C17.8268026,58.0262299 17.9929151,56.6760817 18.1645723,55.3254943 C18.2761611,54.4475741 18.3946808,53.5705322 18.516204,52.6475961 C18.6073463,52.7331263 18.6869371,52.7980151 18.7545141,52.8726757 C20.2933069,54.5753754 21.2318769,56.531921 21.5312952,58.764491 C21.7689123,60.5368007 21.6512011,62.2642042 20.9177881,63.9342948 C20.8333457,64.1267653 20.9265673,64.3834659 20.899652,64.6063496 C20.8399301,65.1005365 21.041506,65.4379363 21.4348391,65.7733598 C23.4837519,67.5207461 25.7194546,68.9934254 28.2223465,70.0915943 C28.3049406,70.1279364 28.3894986,70.1604357 28.537475,70.2210425 C28.4685117,69.9692827 28.4129484,69.7666013 28.3593488,69.5711663 C27.3795395,69.5853299 26.7364602,69.0358063 26.0991567,68.4821105 C25.1387541,67.647669 24.6517373,66.5534528 24.3668741,65.3913833 C24.0471249,64.0866902 23.8307629,62.7589402 23.5762805,61.4400835 C23.4769364,60.9249257 23.396075,60.4064741 23.3067809,59.8895596 C23.3266497,59.866832 23.3465185,59.8441045 23.3663873,59.8213769 C23.9319552,60.1761243 24.5337952,60.4886007 25.0569685,60.8928656 C27.4918213,62.7744212 28.7117891,65.2203228 28.7211459,68.2065252 C28.7214925,68.3203825 28.7228786,68.4373141 28.6985047,68.547658 C28.5736316,69.1154076 28.697003,69.6609786 28.8625379,70.2001815 C28.8911859,70.2935071 28.9814042,70.4041804 29.072431,70.4408519 C30.9395211,71.1926178 32.864947,71.7624534 34.8667292,72.0861289 C35.3661062,72.166938 35.5147757,72.3420609 35.4839328,72.8943293 C34.9750835,72.8096774 34.4696996,72.7331504 33.9675502,72.6408129 C32.496681,72.3701684 31.0677442,71.9620606 29.6645676,71.4638113 C29.5022672,71.4061689 29.2930672,71.4669953 29.1055842,71.4739124 C28.580447,71.4932363 28.2571169,71.7190845 27.9764122,72.1762705 C27.3946721,73.1234713 26.4293023,73.6533417 25.3372111,73.9223392 C22.6814911,74.5763876 20.1193393,74.2586411 17.6636936,73.131706 C17.3143723,72.9714054 17.0178419,72.7073486 16.6337502,72.4487815 C17.1539201,72.0780041 17.5940373,71.7351145 18.0641887,71.4346058 C19.6526534,70.4194419 21.3945239,69.8176559 23.3194877,69.7468382 C24.6330237,69.6986382 25.8580741,70.0296699 27.0272147,70.5728254 C27.3419967,70.7190723 27.65932,70.8661975 27.9523849,71.0467003 C28.2025932,71.2008524 28.4405568,71.2268738 28.7415923,71.1058798 C28.4147966,70.9580958 28.1098336,70.8208522 27.8056791,70.682291 C25.6355897,69.6935877 23.6412006,68.4462075 21.8503513,66.9222539 C21.4096565,66.5471945 20.913745,66.5769489 20.4207214,66.4887836 C20.3741683,66.4804392 20.3006999,66.5278706 20.2626951,66.5687143 C19.3088769,67.5954066 18.0733144,67.8776894 16.7015582,67.7719569 C14.8956918,67.6328467 13.261598,67.0213988 11.7381689,66.1104303 C10.9052963,65.6124005 10.1116993,65.0733074 9.50535415,64.3219807 C9.42137379,64.2178951 9.34906058,64.1049162 9.27616979,63.9932547 C9.24301661,63.9425295 9.22129954,63.8849969 9.18733775,63.8161555 C9.24602003,63.7798134 9.2939593,63.7397382 9.34975368,63.7170107 C11.5233086,62.8329419 13.7543906,62.5849152 16.058941,63.1779176 C17.6092854,63.5768026 18.8374548,64.4510996 19.9125651,65.5487194 C20.0007041,65.6386415 20.0992395,65.7220856 20.1715527,65.822548 C20.3265756,66.0380754 20.5319636,66.1377692 20.8423559,66.1061483 C20.7833271,66.0409301 20.7395464,65.9842759 20.687102,65.9359661 C18.6310272,64.0444192 16.891236,61.9151662 15.3824775,59.6078258 C15.258413,59.4181002 14.9847548,59.3190651 14.7875685,59.1696343 C14.4598487,58.9211683 14.1692097,58.8705529 13.7348684,59.0523733 C12.6320341,59.5139511 11.5102552,59.3200533 10.4195502,58.9341241 C9.44794254,58.5903562 8.65295929,57.9907661 7.91665833,57.3186016 C6.72961272,56.2349257 5.6869625,55.0436507 5.01823857,53.596883 C4.84600375,53.224239 4.7457356,52.8214014 4.60145572,52.4007771 C5.19058891,52.4007771 5.71549503,52.360153 6.23150639,52.4073648 C9.39249471,52.6972234 11.6831832,54.2941906 13.3672955,56.7691878 C13.6821929,57.2319734 13.9458011,57.7270387 14.2214231,58.2131009 C14.4167611,58.5575275 14.4079819,58.5620291 14.8341216,58.7573543 C14.7977339,58.6720436 14.7800599,58.6125348 14.748986,58.5602724 C13.1175492,55.8241829 11.8728609,52.9343804 10.9162704,49.9265484 C10.8305573,49.6568921 10.5604801,49.4448781 10.4112331,49.1876286 C10.2379586,48.8887668 10.0443533,48.78534 9.65263745,48.8299167 C8.50810184,48.9601335 7.5694163,48.4727538 6.73792989,47.7841201 C5.74414307,46.9609875 4.98600952,45.9550464 4.36372316,44.8597322 C3.61725676,43.5455967 2.94656906,42.1991816 2.6438008,40.7167305 C2.61942686,40.5972736 2.58869952,40.4790245 2.56097561,40.3602264 L2.56097561,39.5697029 C2.78242038,39.6286628 3.01068061,39.670824 3.22438578,39.748998 C5.25007981,40.4905529 6.8314981,41.7759221 8.13590829,43.3957267 C9.30320061,44.8451295 9.90365439,46.5177454 10.272729,48.2839066 C10.3128132,48.4756085 10.4339898,48.6519391 10.5173925,48.8352967 C10.5433837,48.8255249 10.5693749,48.8157532 10.5953661,48.8059814 C10.5906299,48.7640398 10.5907454,48.7208904 10.5802334,48.6802662 C9.93738515,46.1811141 9.61775152,43.6422163 9.53781423,41.0732346 C9.5269557,40.7232084 9.55467962,40.3609949 9.46792687,40.0269988 C9.37897931,39.684768 9.17948264,39.3664725 9.00955814,39.0466399 C8.97005157,38.9723087 8.86077314,38.8990755 8.77321177,38.8854609 C8.26147452,38.8059694 7.79825411,38.6232706 7.3803161,38.3352786 C6.80227248,37.9371622 6.35892088,37.4229925 5.99643069,36.8453614 C5.29986734,35.7354445 4.86032778,34.5275905 4.53607349,33.2803202 C4.16954024,31.8706631 3.92499221,30.4434389 3.96149536,28.9855819 C3.9723539,28.5515625 4.03196031,28.1186411 4.07354618,27.6347749 C4.21112611,27.7201954 4.28852204,27.7638937 4.36095076,27.8139602 C6.47917336,29.2789539 7.8881258,31.2318763 8.71626223,33.5749 C9.27570772,35.1573742 9.3392417,36.7937578 9.22476503,38.4418894 C9.20535829,38.7223057 9.29118691,38.9427739 9.5014266,39.1463337 C9.53908491,38.654672 9.5262626,38.1654258 9.54139524,37.677058 C9.59949994,35.7986864 9.76272449,33.9288788 10.0190552,32.0647806 C10.0949494,31.5130611 10.3631783,30.9655138 10.1008407,30.3849182 C9.99017611,30.1398559 9.98647958,29.852852 9.90550265,29.5929674 C9.87431325,29.4928344 9.77820368,29.3969835 9.68671476,29.3302281 C9.40242912,29.1229353 9.07667312,28.9597801 8.81976485,28.726905 C7.9674855,27.9542781 7.59540747,26.9493252 7.38574536,25.8801422 C7.06357037,24.2376101 7.04913083,22.5809145 7.17758497,20.921474 C7.25913949,19.8684308 7.45216724,18.8331745 7.83140729,17.8355778 C7.87241558,17.7276494 7.92543757,17.6236736 7.98723879,17.4856614 C8.13717897,17.6599059 8.24784359,17.7884758 8.35850822,17.9170456 C10.1395387,19.9850331 10.981075,22.3590189 10.9259737,25.0263769 C10.8974412,26.4036444 10.6382226,27.7466559 10.2615239,29.0715513 C10.1770815,29.3687662 10.3094632,29.6175615 10.375423,29.9373941 C10.4129658,29.8700898 10.4195502,29.8628433 10.421283,29.8546087 C10.9692924,27.2507123 11.7736324,24.720598 12.8354584,22.2643757 C12.8627202,22.2013534 12.8846683,22.1311945 12.8862855,22.0638902 C12.8947182,21.7143031 12.9081181,21.3640573 12.8921769,21.015129 C12.8869786,20.9008325 12.8213654,20.7727018 12.7442005,20.6806937 C12.5376573,20.4348629 12.2791318,20.2248252 12.0958074,19.9657091 C11.3858442,18.9615248 11.2185766,17.8207555 11.2446832,16.6448518 C11.275064,15.2786736 11.5218069,13.9407126 11.8803695,12.6200992 C12.2042772,11.427397 12.602924,10.2622532 13.2818134,9.20141464 C13.3749195,9.05582657 13.4863928,8.9209984 13.6043349,8.7609174 C14.3526496,10.0768096 14.7925357,11.4324475 14.9449017,12.8738353 C15.2235271,15.5101213 14.7980805,18.0179472 13.4140796,20.3427449 C13.2356069,20.6425949 13.2674894,20.9367355 13.2388413,21.2813817 C13.286203,21.2329622 13.3088442,21.2187986 13.318201,21.1990355 C14.5204948,18.643888 15.9847795,16.2322425 17.7038933,13.9598169 C17.7399344,13.9122757 17.7728565,13.854304 17.7812892,13.7976498 C17.8306147,13.468814 17.8667713,13.1382215 17.9186381,12.8098249 C17.9418569,12.6619311 17.9120537,12.5599316 17.8021977,12.4359731 C17.6084768,12.217591 17.4261921,11.9753834 17.3061706,11.7151695 C16.8694034,10.768298 16.8426037,9.76938379 17.0002834,8.76761489 C17.386801,6.31303953 18.5746552,4.22221476 20.2853363,2.38161263 C20.5662719,2.0793472 20.9011537,1.82231728 21.2264477,1.53048237 C21.268149,1.6076682 21.2857075,1.62907821 21.2915989,1.6530135 C21.317128,1.75545217 21.3436967,1.85778104 21.3620638,1.96142745 C21.6170083,3.40391318 21.5710328,4.84563035 21.3569811,6.28811608 C21.0132045,8.60588696 20.1215341,10.6872694 18.4116617,12.4062187 C18.1173262,12.702116 18.1626085,13.0403942 18.1168641,13.3787822 C18.197379,13.3196027 18.254444,13.2522984 18.3098918,13.1836766 C19.9904231,11.1052586 21.8052999,9.14498005 23.8977623,7.42734823 C23.9532102,7.38178334 23.9935254,7.27912508 23.9847461,7.2094053 C23.8979934,6.51341527 24.0526697,5.86353911 24.3956376,5.25329891 C25.031786,4.12175241 25.9998127,3.29422805 27.1915944,2.74503383 C28.2171482,2.27258627 29.306236,1.92464615 30.3654051,1.51730698 C30.7111454,1.38434532 31.0512254,1.23787889 31.3938468,1.09756098 L31.5047424,1.09756098 Z" id="Fill-1" transform="translate(19.024390, 37.678260) rotate(-4.000000) translate(-19.024390, -37.678260) "></path>
                    <path d="M118.599918,1.09756098 C118.700879,1.15162771 118.796532,1.21841604 118.903493,1.25767748 C120.06356,1.68275391 121.242896,2.06549816 122.382194,2.53575815 C123.595338,3.0363964 124.613253,3.8033106 125.354016,4.86369862 C125.847512,5.57018529 126.106663,6.34159591 126.000626,7.20315432 C125.992087,7.27301337 126.033279,7.37544407 126.08901,7.42117597 C128.1793,9.13716432 129.991747,11.0958498 131.670694,13.1721003 C131.725847,13.2403143 131.783309,13.306993 131.862231,13.3654465 C131.821962,13.0153835 131.848039,12.6744231 131.547349,12.3708597 C129.934055,10.7423871 129.047908,8.78041158 128.678219,6.58846047 C128.418029,5.04574889 128.348222,3.50281798 128.620873,1.95528098 C128.639104,1.85175359 128.665758,1.74943256 128.691719,1.6472212 C128.697719,1.62375207 128.717103,1.603244 128.758411,1.53492031 C129.062331,1.80547334 129.374329,2.0474028 129.642134,2.32749702 C131.176275,3.93217149 132.266535,5.77131794 132.804915,7.88628152 C133.092221,9.01499323 133.183605,10.1543428 132.835954,11.2925957 C132.700378,11.7365352 132.488533,12.1389101 132.141921,12.4729614 C132.087344,12.5254928 132.048345,12.6246334 132.055499,12.6974535 C132.092191,13.0708759 132.14319,13.4432017 132.197767,13.8147597 C132.205959,13.8706908 132.255112,13.9235512 132.292497,13.9729022 C134.004213,16.2359187 135.462086,18.6377759 136.656306,21.1836284 C136.66346,21.198982 136.67696,21.2114843 136.758998,21.2195998 C136.718037,20.9665938 136.749306,20.6745456 136.624807,20.4668329 C135.419047,18.454629 134.89959,16.2875727 134.950013,13.9869398 C134.990166,12.1537154 135.407048,10.4094325 136.368424,8.76121953 C136.458308,8.87670082 136.544615,8.97474476 136.616268,9.08156221 C137.293801,10.0905155 137.699605,11.2058476 138.021757,12.3526547 C138.441868,13.8479893 138.733789,15.3630644 138.727443,16.9168525 C138.72352,17.8829253 138.573752,18.8293674 138.043564,19.6727208 C137.819951,20.0284865 137.49353,20.3250311 137.227225,20.658205 C137.152225,20.7520815 137.08738,20.8785297 137.082188,20.9928046 C137.06638,21.3413322 137.080111,21.6911758 137.086803,22.0404711 C137.087957,22.0994729 137.101341,22.1619841 137.124995,22.2165992 C138.195871,24.6852448 139.005518,27.2291232 139.578859,29.8509762 C139.661243,29.5849196 139.791626,29.3339973 139.706935,29.0370141 C139.32963,27.7134208 139.072209,26.3714032 139.044287,24.995498 C138.990402,22.3313128 139.829242,19.9592855 141.611227,17.8948792 C141.710687,17.7797269 141.80911,17.6636973 141.908917,17.5487644 C141.920224,17.5357138 141.937878,17.5275983 141.993954,17.4880078 C142.083492,17.7140353 142.178568,17.9255865 142.251837,18.1437178 C142.684987,19.4339717 142.818371,20.7669965 142.851601,22.1113171 C142.888639,23.6056647 142.816986,25.0936516 142.40922,26.547312 C142.180414,27.3629192 141.802071,28.110751 141.146231,28.7014274 C140.946963,28.8809553 140.731196,29.0643216 140.487159,29.1738808 C140.178854,29.3122828 140.041894,29.5063967 139.989394,29.8185142 C139.939779,30.1127557 139.815396,30.3953723 139.729435,30.684569 C139.718012,30.7230628 139.736819,30.7703301 139.74455,30.8131009 C140.229854,33.5247727 140.423237,36.2598039 140.467429,39.0065696 C140.46789,39.0382639 140.476775,39.0697389 140.488775,39.1456297 C140.670504,38.8939397 140.768003,38.6778921 140.743195,38.3939595 C140.489351,35.4818131 141.118654,32.7837403 142.917947,30.3714645 C143.67221,29.3602081 144.57001,28.4871345 145.628886,27.7637588 C145.688193,27.723291 145.751885,27.6884163 145.862653,27.6210797 C145.89773,27.8506165 145.937883,28.0499945 145.957614,28.2512368 C146.123305,29.941124 145.849961,31.59164 145.432156,33.224609 C145.113121,34.4711051 144.689663,35.6885389 143.968976,36.7820469 C143.664133,37.2446301 143.277367,37.6681711 142.874562,38.0599082 C142.420297,38.5016543 141.836802,38.7474222 141.187076,38.8422857 C141.105731,38.8542396 141.001193,38.9186152 140.965771,38.9862809 C140.793849,39.3145197 140.623196,39.6457196 140.491082,39.9894218 C140.430506,40.1469062 140.45289,40.335427 140.448967,40.5101294 C140.388506,43.2703845 140.070047,46.0000419 139.37763,48.6855028 C139.373592,48.7012951 139.380053,48.7195001 139.450552,48.7659997 C139.533859,48.5919553 139.655358,48.4252586 139.694473,48.2425504 C139.994471,46.8439436 140.399814,45.4790053 141.196192,44.254772 C142.537181,42.1931075 144.328627,40.6142052 146.725838,39.7087792 C146.929375,39.6317917 147.144796,39.5832084 147.439024,39.49657 C147.383871,39.9743972 147.388486,40.4158142 147.276103,40.8282787 C146.593031,43.3369535 145.432272,45.6115949 143.509403,47.4853967 C142.856101,48.1220243 142.082454,48.6067606 141.134923,48.7485624 C140.786118,48.8007648 140.420352,48.7688511 140.064047,48.7477947 C139.917395,48.7391309 139.830626,48.7553619 139.744319,48.8759976 C139.542975,49.1574078 139.321092,49.4254385 139.111209,49.7013653 C139.079825,49.7427104 139.064017,49.7964482 139.048556,49.8465668 C138.107025,52.8923995 136.83342,55.8052039 135.183665,58.5675427 C135.167396,58.5948502 135.160934,58.6273122 135.139588,58.6855463 C135.415817,58.5871734 135.596623,58.4554611 135.720314,58.215067 C136.409616,56.8756815 137.238417,55.626334 138.414869,54.6160647 C140.351583,52.9529367 142.614949,52.1609084 145.232081,52.3223409 C145.249504,52.3234376 145.266235,52.3336368 145.346196,52.3614927 C145.22885,52.7205484 145.138159,53.0942999 144.986545,53.4441435 C144.462588,54.6531327 143.638056,55.6742593 142.70841,56.6215788 C141.900032,57.4455208 141.039847,58.216383 139.950394,58.7014483 C138.871788,59.1817978 137.749451,59.3992711 136.565615,59.1101841 C136.38827,59.0668649 136.200079,59.0192686 136.05135,58.9247341 C135.825083,58.7808486 135.651084,58.7951055 135.438086,58.9491902 C135.212857,59.1120485 134.954167,59.2326842 134.714861,59.3786534 C134.664669,59.409251 134.629131,59.4668272 134.596477,59.5174942 C133.094182,61.8460926 131.339658,63.9837577 129.270945,65.8840993 C129.226753,65.9247865 129.190061,65.9728214 129.134792,66.0340166 C129.413097,66.0492606 129.603711,65.9813756 129.780479,65.7874811 C130.821124,64.6456091 132.010037,63.6876518 133.554217,63.2154178 C135.777314,62.5355806 137.971795,62.6792468 140.136624,63.4619533 C140.34916,63.5387215 140.557659,63.6259082 140.847272,63.7393058 C140.57612,64.0716024 140.370968,64.3984156 140.092201,64.6519699 C138.419369,66.1739541 136.447,67.1622897 134.167943,67.5833083 C133.262065,67.7505533 132.357573,67.7923372 131.457119,67.5449243 C130.80324,67.365177 130.239129,67.0473567 129.78994,66.5593304 C129.681249,66.441217 129.573942,66.3799122 129.410328,66.4238894 C129.357598,66.4380366 129.300829,66.4457135 129.246137,66.4449458 C128.714334,66.4367206 128.329991,66.6931264 127.939879,67.0134691 C125.994972,68.6107957 123.846875,69.9117972 121.497202,70.9081386 C121.423702,70.9392845 121.353549,70.9773396 121.257435,71.0239489 C121.544971,71.1431589 121.770315,71.1142063 122.022774,70.9733915 C123.069535,70.389076 124.166257,69.9142099 125.381131,69.7434555 C126.957503,69.5219244 128.466952,69.7900648 129.928862,70.3452084 C131.16566,70.8148104 132.261689,71.501447 133.320103,72.3896549 C132.940376,72.6382742 132.613725,72.9228648 132.23042,73.0916452 C129.681134,74.2149831 127.042886,74.5378482 124.323871,73.7354013 C123.181803,73.3983889 122.290695,72.7243642 121.736392,71.6863487 C121.691393,71.6019037 121.570817,71.5265612 121.470317,71.5013373 C121.185666,71.4299429 120.894668,71.3774115 120.603209,71.3374921 C120.502133,71.3236738 120.385596,71.3530651 120.287058,71.3893654 C118.482804,72.0528619 116.620973,72.5060136 114.709643,72.780076 C114.648143,72.7888495 114.584913,72.7876432 114.524683,72.7909332 C114.46203,72.2963268 114.631528,72.0835692 115.11487,72.0060333 C117.115161,71.685581 119.039068,71.1182641 120.903668,70.3658262 C121.001629,70.3263454 121.096821,70.2097674 121.131089,70.1097494 C121.321357,69.5554831 121.34628,68.9923336 121.295857,68.406044 C121.006591,65.0415136 123.231764,61.3687042 126.419584,59.9008964 C126.49366,59.8667894 126.570967,59.8389335 126.682774,59.7935306 C126.60639,60.2284772 126.538891,60.6376517 126.46216,61.0451811 C126.205547,62.4069391 125.97628,63.7743999 125.672936,65.1267263 C125.537822,65.7291373 125.283516,66.3140012 125.025634,66.8832921 C124.561215,67.9083668 123.76426,68.6691395 122.753268,69.2135357 C122.468963,69.3666334 122.110812,69.3945989 121.788776,69.4870497 C121.721508,69.5063515 121.629316,69.5444065 121.608662,69.5956219 C121.544509,69.7550804 121.509086,69.9250671 121.44251,70.1620615 C121.926775,69.938995 122.34331,69.7585898 122.74923,69.5584442 C125.024826,68.4368609 127.081425,67.0237779 128.928025,65.3350971 C129.002678,65.2668831 129.053908,65.1471247 129.062447,65.0472164 C129.090254,64.7243514 129.095562,64.3995122 129.103292,64.0754408 C129.105139,63.9991113 129.099715,63.9153243 129.068677,63.8467813 C128.266184,62.0701461 128.199954,60.2270516 128.506874,58.3479856 C128.84841,56.2571492 129.773441,54.4260086 131.213198,52.8212244 C131.28289,52.7434692 131.329735,52.6470703 131.387312,52.5593352 C131.415004,52.582585 131.442811,52.6058348 131.470503,52.628975 C131.553234,53.2688926 131.645771,53.9077136 131.716386,54.5488377 C131.848731,55.7514662 132.01696,56.9531077 132.080306,58.1594649 C132.151729,59.5201262 132.10119,60.8822132 131.394119,62.1303543 C130.951392,62.9119641 130.438281,63.6321594 129.553866,64.0289412 C129.507251,64.049888 129.460636,64.1155796 129.454174,64.1651499 C129.425559,64.3877777 129.411367,64.6121601 129.453136,64.8669208 C129.804248,64.5142259 130.16286,64.168111 130.505088,63.8078489 C132.155998,62.0695977 133.579024,60.1749589 134.780514,58.1311703 C134.843629,58.0238046 134.845591,57.8719132 134.840283,57.7420653 C134.808899,56.972519 134.435863,56.3449939 133.993829,55.7142884 C133.218797,54.6084975 132.881069,53.3371067 132.681109,52.0357762 C132.317996,49.6720837 132.710762,47.4100542 133.726485,45.2366371 C133.773792,45.1355224 133.836676,45.0409879 133.907291,44.9170621 C134.694554,46.9771913 135.681661,48.9244712 136.193272,51.0366931 C136.575653,52.6149374 136.526038,54.1529332 135.823006,55.639275 C135.664699,55.9739843 135.380279,56.2547365 135.156665,56.5621382 C135.113165,56.6219078 135.048781,56.6915475 135.051781,56.7540587 C135.062627,56.9780025 135.098281,57.2008496 135.192319,57.4410243 C135.415124,57.0266955 135.646238,56.616205 135.859467,56.1974894 C137.104687,53.7525322 138.056256,51.2074475 138.731366,48.5681571 C138.775212,48.3968544 138.789866,48.2509949 138.662021,48.1037096 C138.593598,48.024748 138.541445,47.9223173 138.515483,47.8226284 C138.365254,47.246867 137.962103,46.8857275 137.473338,46.5386256 C136.318809,45.718851 135.609661,44.5683152 135.025358,43.3413402 C133.923329,41.0274374 133.737677,38.6169163 134.167827,36.1136153 C134.216288,36.1413615 134.252519,36.1512317 134.270519,36.1740428 C135.23328,37.3947667 136.207349,38.6079234 137.151648,39.8413689 C137.843027,40.7444918 138.420984,41.7149513 138.79725,42.7780811 C139.161978,43.8085295 139.289361,44.8679305 139.024556,45.9376403 C138.946557,46.2531576 138.74902,46.5415866 138.611136,46.844492 C138.581367,46.9097449 138.539022,46.995506 138.560598,47.0517661 C138.65429,47.2963276 138.769443,47.5334316 138.93398,47.7698777 C139.059748,47.1550741 139.196939,46.542135 139.308977,45.9250284 C139.71755,43.6747335 139.939433,41.4078786 139.952471,39.1234766 C139.952817,39.0709453 139.955125,39.0180849 139.960894,38.9658825 C139.99724,38.6367663 139.910241,38.3769608 139.700704,38.0793196 C139.338861,37.5656307 138.890711,37.2675508 138.291524,37.0474455 C136.941996,36.551852 136.00762,35.5647228 135.190472,34.4717631 C133.951483,32.8146669 133.335449,30.9431682 133.11299,28.9405055 C133.073875,28.5882492 133.061644,28.2332511 133.033375,27.8274764 C134.178558,28.7012081 135.277356,29.5229567 136.355847,30.3679551 C137.171494,31.0069954 137.886181,31.7424347 138.453407,32.5936842 C139.299515,33.8633204 139.737973,35.2451478 139.467629,36.7464045 C139.378091,37.2437527 139.555667,37.5183635 139.932048,37.8108503 C139.932048,37.6086209 139.937125,37.4241579 139.931356,37.2399143 C139.837434,34.2685467 139.414091,31.338963 138.69802,28.4461183 C138.652905,28.2641777 138.586906,28.1196342 138.390638,28.0525169 C138.348639,28.0380406 138.305254,28.0113911 138.276985,27.9789291 C137.911681,27.5582394 137.426608,27.4943025 136.882343,27.4729171 C135.395625,27.4143539 134.201288,26.7022741 133.120028,25.8073764 C131.451465,24.4266457 130.472666,22.6413466 129.859171,20.6525022 C129.849478,20.6209176 129.853748,20.5854945 129.849825,20.5276991 C131.594079,21.2533778 133.432949,21.717277 135.050166,22.6712862 C136.121272,23.3031981 137.026111,24.0783374 137.510953,25.2226221 C137.752682,25.7930098 137.862066,26.3880729 137.83322,26.9962963 C137.821335,27.2465606 137.886296,27.3924201 138.11441,27.4946315 C138.229793,27.5463952 138.335254,27.6182283 138.504291,27.7146272 C138.357408,27.2098215 138.232332,26.7576569 138.094218,26.309221 C137.370762,23.9591274 136.4515,21.6807573 135.327317,19.4770716 C135.254049,19.3334054 135.181703,19.2240656 134.992359,19.2293297 C134.931321,19.2309747 134.861168,19.2083829 134.808783,19.176579 C134.372056,18.9118384 133.94006,18.9604217 133.456256,19.093121 C132.176998,19.4439516 130.949662,19.1685731 129.772287,18.6707863 C127.947379,17.899266 126.668351,16.5684346 125.664513,14.9681469 C125.64686,14.9400717 125.64109,14.905197 125.613514,14.8280998 C125.958165,14.8500335 126.273854,14.8645098 126.588506,14.89094 C127.818265,14.9943577 129.055524,15.0506178 130.274783,15.2221399 C131.38235,15.3779793 132.400265,15.7902245 133.207951,16.5798402 C133.731908,17.092213 134.080712,17.6904565 134.198404,18.3928854 C134.238442,18.6320732 134.327634,18.7535862 134.571208,18.7949314 C134.7039,18.8174135 134.831283,18.8674225 135.021205,18.9224763 C134.957051,18.7906543 134.920475,18.7078543 134.877437,18.6281251 C133.7506,16.5409077 132.448841,14.5584241 130.954854,12.6898864 C130.855162,12.5650833 130.759048,12.4919341 130.591742,12.518474 C130.538088,12.5269185 130.474858,12.53306 130.426974,12.5144163 C129.933247,12.3226054 129.53252,12.53306 129.087946,12.7209227 C127.454575,13.4111784 125.811627,13.273544 124.203641,12.6268268 C122.953228,12.1239952 121.951698,11.3044399 121.12509,10.2873711 C121.086667,10.2401038 121.053667,10.1888885 120.997014,10.1103656 C121.556855,10.0216435 122.086351,9.92579295 122.619539,9.85604356 C123.459185,9.74626505 124.298717,9.60490192 125.142864,9.56542114 C126.57316,9.49841348 127.900418,9.82489761 128.952255,10.8073111 C129.265753,11.1001269 129.504135,11.4864902 129.69798,11.8662734 C129.819248,12.1039258 129.955055,12.1978023 130.205091,12.2024084 C130.305129,12.2042728 130.405166,12.2140333 130.542934,12.2225875 C130.487896,12.1436259 130.45432,12.0863788 130.411858,12.0358214 C129.259176,10.6621095 128.008878,9.37415868 126.644236,8.18819984 C126.413353,7.98750586 126.166201,7.80249453 125.915819,7.62384399 C125.841858,7.57109328 125.731897,7.5438954 125.637052,7.54027633 C123.447647,7.45791503 121.759584,6.46979878 120.408095,4.90109569 C119.495757,3.84213337 118.889185,2.62809931 118.523534,1.30538343 C118.504842,1.23793709 118.500227,1.16687168 118.48915,1.09756098 L118.599918,1.09756098 Z" id="Fill-4" transform="translate(130.975610, 37.639059) rotate(4.000000) translate(-130.975610, -37.639059) "></path>
                </g>
                <g id="Text" transform="translate(34.390244, 8.780488)">
                    <path d="M7.92512195,17.7563415 C7.768048,17.5431697 7.56329395,17.3875005 7.31085366,17.2893293 C7.05841337,17.191158 6.81158657,17.1420732 6.57036585,17.1420732 C6.26182773,17.1420732 5.98134273,17.1981702 5.72890244,17.3103659 C5.47646215,17.4225615 5.25908628,17.5768283 5.07676829,17.7731707 C4.89445031,17.9695132 4.75420781,18.1995109 4.65603659,18.4631707 C4.55786536,18.7268306 4.50878049,19.0129253 4.50878049,19.3214634 C4.50878049,19.6468309 4.55646294,19.944145 4.65182927,20.2134146 C4.7471956,20.4826843 4.88323082,20.7140844 5.05993902,20.907622 C5.23664723,21.1011595 5.4484134,21.251219 5.6952439,21.3578049 C5.9420744,21.4643908 6.21975455,21.5176829 6.52829268,21.5176829 C6.84805038,21.5176829 7.13134023,21.4545738 7.37817073,21.3283537 C7.62500123,21.2021335 7.82414558,21.0352449 7.97560976,20.8276829 L8.8254878,21.425122 C8.56182795,21.7560992 8.2392702,22.012743 7.85780488,22.195061 C7.47633956,22.377379 7.03036841,22.4685366 6.51987805,22.4685366 C6.05426596,22.4685366 5.62652634,22.3914032 5.23664634,22.2371341 C4.84676634,22.0828651 4.51158677,21.8668916 4.23109756,21.5892073 C3.95060835,21.311523 3.73183005,20.9805507 3.5747561,20.5962805 C3.41768214,20.2120103 3.33914634,19.7870755 3.33914634,19.3214634 C3.33914634,18.8446318 3.42188942,18.4140873 3.58737805,18.0298171 C3.75286668,17.6455469 3.98005953,17.3187818 4.26896341,17.0495122 C4.5578673,16.7802426 4.89865657,16.5726837 5.29134146,16.4268293 C5.68402635,16.2809749 6.11036355,16.2080488 6.57036585,16.2080488 C6.76109851,16.2080488 6.96024286,16.2262803 7.16780488,16.2627439 C7.37536689,16.2992075 7.57451124,16.3553045 7.7652439,16.4310366 C7.95597656,16.5067687 8.13548696,16.6007311 8.30378049,16.7129268 C8.47207401,16.8251225 8.61512136,16.9597553 8.73292683,17.1168293 L7.92512195,17.7563415 Z M11.787439,21.8037805 L11.7621951,21.8037805 C11.661219,21.9832936 11.4985377,22.1305482 11.2741463,22.2455488 C11.049755,22.3605494 10.7945136,22.4180488 10.5084146,22.4180488 C10.3457309,22.4180488 10.1760375,22.3970124 9.99932927,22.354939 C9.82262107,22.3128656 9.65993977,22.2427444 9.51128049,22.1445732 C9.36262121,22.0464019 9.23920781,21.9173788 9.14103659,21.7575 C9.04286536,21.5976212 8.99378049,21.3998792 8.99378049,21.1642683 C8.99378049,20.8613399 9.07932841,20.6201228 9.25042683,20.4406098 C9.42152525,20.2610967 9.64170597,20.123659 9.91097561,20.0282927 C10.1802452,19.9329264 10.4789618,19.8698172 10.8071341,19.8389634 C11.1353065,19.8081096 11.4564618,19.7926829 11.7706098,19.7926829 L11.7706098,19.6917073 C11.7706098,19.439267 11.6794521,19.2527445 11.4971341,19.1321341 C11.3148162,19.0115238 11.0974403,18.9512195 10.845,18.9512195 C10.6318282,18.9512195 10.4270742,18.9960971 10.2307317,19.0858537 C10.0343893,19.1756102 9.87170796,19.2849994 9.74268293,19.4140244 L9.22097561,18.7997561 C9.45097676,18.5865843 9.71603508,18.4267079 10.0161585,18.320122 C10.316282,18.2135361 10.6206082,18.1602439 10.9291463,18.1602439 C11.2881725,18.1602439 11.5840842,18.2107312 11.8168902,18.3117073 C12.0496963,18.4126834 12.233414,18.5445114 12.3680488,18.7071951 C12.5026836,18.8698789 12.5966461,19.0521941 12.649939,19.2541463 C12.703232,19.4560986 12.729878,19.6580478 12.729878,19.86 L12.729878,22.3170732 L11.787439,22.3170732 L11.787439,21.8037805 Z M11.7706098,20.4742683 L11.5434146,20.4742683 C11.3807309,20.4742683 11.209635,20.4812804 11.030122,20.4953049 C10.8506089,20.5093293 10.6851227,20.5401827 10.5336585,20.5878659 C10.3821944,20.635549 10.2559761,20.7028654 10.155,20.7898171 C10.0540239,20.8767687 10.0035366,20.9959749 10.0035366,21.147439 C10.0035366,21.2428054 10.024573,21.3227436 10.0666463,21.3872561 C10.1087197,21.4517686 10.1634143,21.5036583 10.2307317,21.5429268 C10.2980491,21.5821953 10.3737801,21.6102438 10.4579268,21.6270732 C10.5420736,21.6439025 10.6262191,21.6523171 10.7103659,21.6523171 C11.0581725,21.6523171 11.3218284,21.559757 11.5013415,21.3746341 C11.6808546,21.1895113 11.7706098,20.9370748 11.7706098,20.6173171 L11.7706098,20.4742683 Z M13.9247561,15.9556098 L14.9345122,15.9556098 L14.9345122,22.3170732 L13.9247561,22.3170732 L13.9247561,15.9556098 Z M16.179878,18.2780488 L17.1896341,18.2780488 L17.1896341,22.3170732 L16.179878,22.3170732 L16.179878,18.2780488 Z M16.0368293,16.9064634 C16.0368293,16.7437797 16.0971335,16.6021347 16.2177439,16.4815244 C16.3383543,16.360914 16.4912186,16.3006098 16.6763415,16.3006098 C16.8614643,16.3006098 17.0171335,16.3581092 17.1433537,16.4731098 C17.2695738,16.5881103 17.3326829,16.7325601 17.3326829,16.9064634 C17.3326829,17.0803667 17.2695738,17.2248165 17.1433537,17.3398171 C17.0171335,17.4548176 16.8614643,17.5123171 16.6763415,17.5123171 C16.4912186,17.5123171 16.3383543,17.4520128 16.2177439,17.3314024 C16.0971335,17.2107921 16.0368293,17.0691472 16.0368293,16.9064634 Z M18.5780488,19.0858537 L17.8123171,19.0858537 L17.8123171,18.2780488 L18.5780488,18.2780488 L18.5780488,17.6806098 C18.5780488,17.439389 18.6046949,17.2079889 18.6579878,16.9864024 C18.7112808,16.764816 18.801036,16.5698789 18.9272561,16.4015854 C19.0534762,16.2332918 19.2203648,16.1000615 19.4279268,16.0018902 C19.6354888,15.903719 19.8963399,15.8546341 20.2104878,15.8546341 C20.3226835,15.8546341 20.416646,15.8588414 20.492378,15.8672561 C20.5681101,15.8756708 20.6452435,15.8910974 20.7237805,15.9135366 L20.6564634,16.7718293 C20.6003656,16.7549999 20.5400613,16.7409757 20.4755488,16.7297561 C20.4110363,16.7185365 20.3423174,16.7129268 20.2693902,16.7129268 C20.1235359,16.7129268 20.0057322,16.7409753 19.9159756,16.7970732 C19.8262191,16.853171 19.7575002,16.9260971 19.7098171,17.0158537 C19.6621339,17.1056102 19.6298781,17.20378 19.6130488,17.3103659 C19.5962194,17.4169518 19.5878049,17.5207312 19.5878049,17.6217073 L19.5878049,18.2780488 L20.5218293,18.2780488 L20.5218293,19.0858537 L19.5878049,19.0858537 L19.5878049,22.3170732 L18.5780488,22.3170732 L18.5780488,19.0858537 Z M20.9089024,20.2807317 C20.9089024,19.960974 20.9664019,19.670672 21.0814024,19.4098171 C21.196403,19.1489621 21.3520722,18.9259765 21.5484146,18.7408537 C21.7447571,18.5557308 21.9775596,18.4126834 22.2468293,18.3117073 C22.5160989,18.2107312 22.8021936,18.1602439 23.105122,18.1602439 C23.4080503,18.1602439 23.694145,18.2107312 23.9634146,18.3117073 C24.2326843,18.4126834 24.4654868,18.5557308 24.6618293,18.7408537 C24.8581717,18.9259765 25.0138409,19.1489621 25.1288415,19.4098171 C25.243842,19.670672 25.3013415,19.960974 25.3013415,20.2807317 C25.3013415,20.6004894 25.243842,20.8921938 25.1288415,21.1558537 C25.0138409,21.4195135 24.8581717,21.6453039 24.6618293,21.8332317 C24.4654868,22.0211595 24.2326843,22.1684141 23.9634146,22.275 C23.694145,22.3815859 23.4080503,22.434878 23.105122,22.434878 C22.8021936,22.434878 22.5160989,22.3815859 22.2468293,22.275 C21.9775596,22.1684141 21.7447571,22.0211595 21.5484146,21.8332317 C21.3520722,21.6453039 21.196403,21.4195135 21.0814024,21.1558537 C20.9664019,20.8921938 20.9089024,20.6004894 20.9089024,20.2807317 Z M21.9354878,20.2807317 C21.9354878,20.4378057 21.959329,20.5948773 22.0070122,20.7519512 C22.0546954,20.9090252 22.126219,21.0492677 22.2215854,21.1726829 C22.3169517,21.2960982 22.4375602,21.3970728 22.5834146,21.4756098 C22.729269,21.5541467 22.9031697,21.5934146 23.105122,21.5934146 C23.3070742,21.5934146 23.4809749,21.5541467 23.6268293,21.4756098 C23.7726837,21.3970728 23.8932922,21.2960982 23.9886585,21.1726829 C24.0840249,21.0492677 24.1555485,20.9090252 24.2032317,20.7519512 C24.2509149,20.5948773 24.2747561,20.4378057 24.2747561,20.2807317 C24.2747561,20.1236578 24.2509149,19.9679886 24.2032317,19.8137195 C24.1555485,19.6594504 24.0840249,19.5206104 23.9886585,19.3971951 C23.8932922,19.2737799 23.7726837,19.1742077 23.6268293,19.0984756 C23.4809749,19.0227435 23.3070742,18.984878 23.105122,18.984878 C22.9031697,18.984878 22.729269,19.0227435 22.5834146,19.0984756 C22.4375602,19.1742077 22.3169517,19.2737799 22.2215854,19.3971951 C22.126219,19.5206104 22.0546954,19.6594504 22.0070122,19.8137195 C21.959329,19.9679886 21.9354878,20.1236578 21.9354878,20.2807317 Z M26.277439,18.2780488 L27.245122,18.2780488 L27.245122,18.9512195 L27.2619512,18.9512195 C27.3741469,18.7156086 27.5312185,18.5248788 27.7331707,18.3790244 C27.935123,18.23317 28.1707304,18.1602439 28.44,18.1602439 C28.4792685,18.1602439 28.5213412,18.1616463 28.5662195,18.1644512 C28.6110978,18.1672561 28.6503657,18.1742682 28.6840244,18.1854878 L28.6840244,19.1110976 C28.616707,19.0942682 28.5592076,19.0830488 28.5115244,19.077439 C28.4638412,19.0718292 28.4175612,19.0690244 28.3726829,19.0690244 C28.1426818,19.0690244 27.9575617,19.1110971 27.8173171,19.1952439 C27.6770725,19.2793907 27.5676833,19.3803653 27.4891463,19.4981707 C27.4106094,19.6159762 27.3573172,19.7365847 27.3292683,19.86 C27.3012194,19.9834153 27.2871951,20.081585 27.2871951,20.1545122 L27.2871951,22.3170732 L26.277439,22.3170732 L26.277439,18.2780488 Z M29.3403659,18.2780488 L30.2996341,18.2780488 L30.2996341,18.9259756 L30.3164634,18.9259756 C30.40622,18.7240234 30.5618891,18.5459154 30.7834756,18.3916463 C31.0050621,18.2373773 31.2673156,18.1602439 31.5702439,18.1602439 C31.8339038,18.1602439 32.0596942,18.2065239 32.247622,18.2990854 C32.4355497,18.3916468 32.5898165,18.5136578 32.7104268,18.665122 C32.8310372,18.8165861 32.91939,18.9904868 32.9754878,19.1868293 C33.0315856,19.3831717 33.0596341,19.5851209 33.0596341,19.7926829 L33.0596341,22.3170732 L32.049878,22.3170732 L32.049878,20.0787805 C32.049878,19.960975 32.0414635,19.8375616 32.0246341,19.7085366 C32.0078048,19.5795116 31.9713417,19.4631103 31.9152439,19.3593293 C31.8591461,19.2555483 31.7820127,19.1700003 31.6838415,19.1026829 C31.5856702,19.0353655 31.4552447,19.0017073 31.292561,19.0017073 C31.1298772,19.0017073 30.9896347,19.0339631 30.8718293,19.0984756 C30.7540238,19.1629881 30.6572565,19.2457312 30.5815244,19.3467073 C30.5057923,19.4476834 30.4482929,19.5640847 30.4090244,19.6959146 C30.3697559,19.8277446 30.350122,19.9609749 30.350122,20.0956098 L30.350122,22.3170732 L29.3403659,22.3170732 L29.3403659,18.2780488 Z M34.2545122,18.2780488 L35.2642683,18.2780488 L35.2642683,22.3170732 L34.2545122,22.3170732 L34.2545122,18.2780488 Z M34.1114634,16.9064634 C34.1114634,16.7437797 34.1717677,16.6021347 34.292378,16.4815244 C34.4129884,16.360914 34.5658527,16.3006098 34.7509756,16.3006098 C34.9360985,16.3006098 35.0917677,16.3581092 35.2179878,16.4731098 C35.3442079,16.5881103 35.4073171,16.7325601 35.4073171,16.9064634 C35.4073171,17.0803667 35.3442079,17.2248165 35.2179878,17.3398171 C35.0917677,17.4548176 34.9360985,17.5123171 34.7509756,17.5123171 C34.5658527,17.5123171 34.4129884,17.4520128 34.292378,17.3314024 C34.1717677,17.2107921 34.1114634,17.0691472 34.1114634,16.9064634 Z M39.0003659,21.8037805 L38.975122,21.8037805 C38.8741458,21.9832936 38.7114645,22.1305482 38.4870732,22.2455488 C38.2626818,22.3605494 38.0074405,22.4180488 37.7213415,22.4180488 C37.5586577,22.4180488 37.3889643,22.3970124 37.2122561,22.354939 C37.0355479,22.3128656 36.8728666,22.2427444 36.7242073,22.1445732 C36.575548,22.0464019 36.4521346,21.9173788 36.3539634,21.7575 C36.2557922,21.5976212 36.2067073,21.3998792 36.2067073,21.1642683 C36.2067073,20.8613399 36.2922552,20.6201228 36.4633537,20.4406098 C36.6344521,20.2610967 36.8546328,20.123659 37.1239024,20.0282927 C37.3931721,19.9329264 37.6918886,19.8698172 38.020061,19.8389634 C38.3482333,19.8081096 38.6693887,19.7926829 38.9835366,19.7926829 L38.9835366,19.6917073 C38.9835366,19.439267 38.892379,19.2527445 38.710061,19.1321341 C38.527743,19.0115238 38.3103671,18.9512195 38.0579268,18.9512195 C37.844755,18.9512195 37.640001,18.9960971 37.4436585,19.0858537 C37.2473161,19.1756102 37.0846348,19.2849994 36.9556098,19.4140244 L36.4339024,18.7997561 C36.6639036,18.5865843 36.9289619,18.4267079 37.2290854,18.320122 C37.5292088,18.2135361 37.833535,18.1602439 38.1420732,18.1602439 C38.5010994,18.1602439 38.797011,18.2107312 39.0298171,18.3117073 C39.2626231,18.4126834 39.4463408,18.5445114 39.5809756,18.7071951 C39.7156104,18.8698789 39.8095729,19.0521941 39.8628659,19.2541463 C39.9161588,19.4560986 39.9428049,19.6580478 39.9428049,19.86 L39.9428049,22.3170732 L39.0003659,22.3170732 L39.0003659,21.8037805 Z M38.9835366,20.4742683 L38.7563415,20.4742683 C38.5936577,20.4742683 38.4225619,20.4812804 38.2430488,20.4953049 C38.0635357,20.5093293 37.8980495,20.5401827 37.7465854,20.5878659 C37.5951212,20.635549 37.4689029,20.7028654 37.3679268,20.7898171 C37.2669507,20.8767687 37.2164634,20.9959749 37.2164634,21.147439 C37.2164634,21.2428054 37.2374998,21.3227436 37.2795732,21.3872561 C37.3216466,21.4517686 37.3763411,21.5036583 37.4436585,21.5429268 C37.5109759,21.5821953 37.5867069,21.6102438 37.6708537,21.6270732 C37.7550004,21.6439025 37.8391459,21.6523171 37.9232927,21.6523171 C38.2710993,21.6523171 38.5347552,21.559757 38.7142683,21.3746341 C38.8937814,21.1895113 38.9835366,20.9370748 38.9835366,20.6173171 L38.9835366,20.4742683 Z M42.5681707,16.3595122 L43.7293902,16.3595122 L44.8821951,20.735122 L44.8990244,20.735122 L46.2117073,16.3595122 L47.3056098,16.3595122 L48.5930488,20.735122 L48.609878,20.735122 L49.7879268,16.3595122 L50.9154878,16.3595122 L49.1736585,22.3170732 L48.1470732,22.3170732 L46.7502439,17.8489024 L46.7334146,17.8489024 L45.3365854,22.3170732 L44.31,22.3170732 L42.5681707,16.3595122 Z M51.0332927,20.2807317 C51.0332927,19.960974 51.0907921,19.670672 51.2057927,19.4098171 C51.3207933,19.1489621 51.4764624,18.9259765 51.6728049,18.7408537 C51.8691473,18.5557308 52.1019499,18.4126834 52.3712195,18.3117073 C52.6404892,18.2107312 52.9265839,18.1602439 53.2295122,18.1602439 C53.5324405,18.1602439 53.8185352,18.2107312 54.0878049,18.3117073 C54.3570745,18.4126834 54.5898771,18.5557308 54.7862195,18.7408537 C54.982562,18.9259765 55.1382311,19.1489621 55.2532317,19.4098171 C55.3682323,19.670672 55.4257317,19.960974 55.4257317,20.2807317 C55.4257317,20.6004894 55.3682323,20.8921938 55.2532317,21.1558537 C55.1382311,21.4195135 54.982562,21.6453039 54.7862195,21.8332317 C54.5898771,22.0211595 54.3570745,22.1684141 54.0878049,22.275 C53.8185352,22.3815859 53.5324405,22.434878 53.2295122,22.434878 C52.9265839,22.434878 52.6404892,22.3815859 52.3712195,22.275 C52.1019499,22.1684141 51.8691473,22.0211595 51.6728049,21.8332317 C51.4764624,21.6453039 51.3207933,21.4195135 51.2057927,21.1558537 C51.0907921,20.8921938 51.0332927,20.6004894 51.0332927,20.2807317 Z M52.059878,20.2807317 C52.059878,20.4378057 52.0837193,20.5948773 52.1314024,20.7519512 C52.1790856,20.9090252 52.2506093,21.0492677 52.3459756,21.1726829 C52.4413419,21.2960982 52.5619505,21.3970728 52.7078049,21.4756098 C52.8536593,21.5541467 53.02756,21.5934146 53.2295122,21.5934146 C53.4314644,21.5934146 53.6053651,21.5541467 53.7512195,21.4756098 C53.8970739,21.3970728 54.0176825,21.2960982 54.1130488,21.1726829 C54.2084151,21.0492677 54.2799388,20.9090252 54.327622,20.7519512 C54.3753051,20.5948773 54.3991463,20.4378057 54.3991463,20.2807317 C54.3991463,20.1236578 54.3753051,19.9679886 54.327622,19.8137195 C54.2799388,19.6594504 54.2084151,19.5206104 54.1130488,19.3971951 C54.0176825,19.2737799 53.8970739,19.1742077 53.7512195,19.0984756 C53.6053651,19.0227435 53.4314644,18.984878 53.2295122,18.984878 C53.02756,18.984878 52.8536593,19.0227435 52.7078049,19.0984756 C52.5619505,19.1742077 52.4413419,19.2737799 52.3459756,19.3971951 C52.2506093,19.5206104 52.1790856,19.6594504 52.1314024,19.8137195 C52.0837193,19.9679886 52.059878,20.1236578 52.059878,20.2807317 Z M61.2234146,18.1602439 C61.4870745,18.1602439 61.7128649,18.2065239 61.9007927,18.2990854 C62.0887205,18.3916468 62.2429872,18.5136578 62.3635976,18.665122 C62.4842079,18.8165861 62.5725607,18.9904868 62.6286585,19.1868293 C62.6847564,19.3831717 62.7128049,19.5851209 62.7128049,19.7926829 L62.7128049,22.3170732 L61.7030488,22.3170732 L61.7030488,20.0787805 C61.7030488,19.960975 61.6946342,19.8375616 61.6778049,19.7085366 C61.6609755,19.5795116 61.6245125,19.4631103 61.5684146,19.3593293 C61.5123168,19.2555483 61.4351834,19.1700003 61.3370122,19.1026829 C61.238841,19.0353655 61.1084154,19.0017073 60.9457317,19.0017073 C60.7886578,19.0017073 60.654025,19.0353655 60.5418293,19.1026829 C60.4296336,19.1700003 60.3370735,19.2569507 60.2641463,19.3635366 C60.1912191,19.4701225 60.137927,19.5893286 60.1042683,19.7211585 C60.0706096,19.8529885 60.0537805,19.983414 60.0537805,20.112439 L60.0537805,22.3170732 L59.0440244,22.3170732 L59.0440244,19.8768293 C59.0440244,19.624389 58.9837201,19.4154277 58.8631098,19.249939 C58.7424994,19.0844504 58.553172,19.0017073 58.295122,19.0017073 C58.1436578,19.0017073 58.0118298,19.0339631 57.8996341,19.0984756 C57.7874385,19.1629881 57.6962808,19.2457312 57.6261585,19.3467073 C57.5560362,19.4476834 57.5027441,19.5640847 57.4662805,19.6959146 C57.4298169,19.8277446 57.4115854,19.9609749 57.4115854,20.0956098 L57.4115854,22.3170732 L56.4018293,22.3170732 L56.4018293,18.2780488 L57.3610976,18.2780488 L57.3610976,18.9259756 L57.3779268,18.9259756 C57.4228051,18.8249995 57.4831094,18.7296346 57.5588415,18.639878 C57.6345735,18.5501215 57.7243287,18.4687809 57.8281098,18.3958537 C57.9318908,18.3229265 58.0510969,18.265427 58.1857317,18.2233537 C58.3203665,18.1812803 58.4690236,18.1602439 58.6317073,18.1602439 C58.9458552,18.1602439 59.2067063,18.2303652 59.4142683,18.3706098 C59.6218303,18.5108544 59.7817068,18.6959745 59.8939024,18.9259756 C60.0285373,18.6791451 60.2080477,18.4898177 60.432439,18.3579878 C60.6568304,18.2261579 60.9204863,18.1602439 61.2234146,18.1602439 Z M66.735,19.8936585 C66.735,19.7646335 66.7167685,19.6412201 66.6803049,19.5234146 C66.6438413,19.4056092 66.5863419,19.3018297 66.5078049,19.2120732 C66.4292679,19.1223166 66.3296957,19.0507929 66.2090854,18.9975 C66.088475,18.9442071 65.9468301,18.917561 65.7841463,18.917561 C65.481218,18.917561 65.2245742,19.0087186 65.0142073,19.1910366 C64.8038404,19.3733546 64.6874391,19.6075595 64.665,19.8936585 L66.735,19.8936585 Z M67.7447561,20.3480488 L67.7447561,20.4826829 C67.7447561,20.5275612 67.7419512,20.5724388 67.7363415,20.6173171 L64.665,20.6173171 C64.6762196,20.7631715 64.714085,20.8964018 64.7785976,21.0170122 C64.8431101,21.1376226 64.928658,21.241402 65.0352439,21.3283537 C65.1418298,21.4153053 65.2624384,21.4840241 65.3970732,21.5345122 C65.531708,21.5850003 65.6719505,21.6102439 65.8178049,21.6102439 C66.0702452,21.6102439 66.2834138,21.5639639 66.4573171,21.4714024 C66.6312204,21.378841 66.7742677,21.2512203 66.8864634,21.0885366 L67.5596341,21.6270732 C67.1613395,22.1656124 66.5835404,22.434878 65.8262195,22.434878 C65.5120716,22.434878 65.2231721,22.3857932 64.9595122,22.287622 C64.6958523,22.1894507 64.4672571,22.0506107 64.2737195,21.8710976 C64.080182,21.6915845 63.9287201,21.4714037 63.8193293,21.2105488 C63.7099385,20.9496938 63.6552439,20.6537821 63.6552439,20.3228049 C63.6552439,19.9974374 63.7099385,19.7015257 63.8193293,19.435061 C63.9287201,19.1685962 64.0787795,18.9414034 64.2695122,18.7534756 C64.4602449,18.5655478 64.6860353,18.4196956 64.9468902,18.3159146 C65.2077452,18.2121336 65.4896326,18.1602439 65.792561,18.1602439 C66.0730502,18.1602439 66.3324988,18.2065239 66.5709146,18.2990854 C66.8093305,18.3916468 67.0154869,18.5290845 67.1893902,18.7114024 C67.3632936,18.8937204 67.4993288,19.1209133 67.5975,19.3929878 C67.6956712,19.6650623 67.7447561,19.9834128 67.7447561,20.3480488 Z M68.7208537,18.2780488 L69.680122,18.2780488 L69.680122,18.9259756 L69.6969512,18.9259756 C69.7867078,18.7240234 69.9423769,18.5459154 70.1639634,18.3916463 C70.3855499,18.2373773 70.6478034,18.1602439 70.9507317,18.1602439 C71.2143916,18.1602439 71.440182,18.2065239 71.6281098,18.2990854 C71.8160375,18.3916468 71.9703043,18.5136578 72.0909146,18.665122 C72.211525,18.8165861 72.2998778,18.9904868 72.3559756,19.1868293 C72.4120735,19.3831717 72.440122,19.5851209 72.440122,19.7926829 L72.440122,22.3170732 L71.4303659,22.3170732 L71.4303659,20.0787805 C71.4303659,19.960975 71.4219513,19.8375616 71.405122,19.7085366 C71.3882926,19.5795116 71.3518295,19.4631103 71.2957317,19.3593293 C71.2396339,19.2555483 71.1625005,19.1700003 71.0643293,19.1026829 C70.966158,19.0353655 70.8357325,19.0017073 70.6730488,19.0017073 C70.510365,19.0017073 70.3701225,19.0339631 70.2523171,19.0984756 C70.1345116,19.1629881 70.0377443,19.2457312 69.9620122,19.3467073 C69.8862801,19.4476834 69.8287807,19.5640847 69.7895122,19.6959146 C69.7502437,19.8277446 69.7306098,19.9609749 69.7306098,20.0956098 L69.7306098,22.3170732 L68.7208537,22.3170732 L68.7208537,18.2780488 Z M73.9547561,16.3595122 L74.9308537,16.3595122 L74.2156098,18.5809756 L73.3657317,18.5809756 L73.9547561,16.3595122 Z M77.6992683,19.355122 C77.6095117,19.2373165 77.4860983,19.1349395 77.3290244,19.0479878 C77.1719504,18.9610362 77.0008546,18.917561 76.8157317,18.917561 C76.653048,18.917561 76.5043909,18.9512192 76.3697561,19.0185366 C76.2351213,19.085854 76.1678049,19.198048 76.1678049,19.355122 C76.1678049,19.5121959 76.2421334,19.6229875 76.3907927,19.6875 C76.539452,19.7520125 76.7568278,19.8179265 77.0429268,19.8852439 C77.194391,19.9189026 77.3472553,19.9637802 77.5015244,20.019878 C77.6557935,20.0759759 77.796036,20.1503044 77.9222561,20.2428659 C78.0484762,20.3354273 78.1508533,20.4504261 78.2293902,20.5878659 C78.3079272,20.7253056 78.3471951,20.8921941 78.3471951,21.0885366 C78.3471951,21.3353671 78.3009151,21.5443284 78.2083537,21.7154268 C78.1157922,21.8865252 77.9923788,22.0253653 77.8381098,22.1319512 C77.6838407,22.2385371 77.5043303,22.3156705 77.2995732,22.3633537 C77.094816,22.4110368 76.8830499,22.434878 76.6642683,22.434878 C76.3501204,22.434878 76.0443917,22.3773786 75.7470732,22.262378 C75.4497546,22.1473775 75.2029278,21.9832937 75.0065854,21.770122 L75.6713415,21.147439 C75.7835371,21.2932934 75.9293893,21.413902 76.1089024,21.5092683 C76.2884155,21.6046346 76.4875599,21.6523171 76.7063415,21.6523171 C76.7792687,21.6523171 76.8535972,21.6439025 76.9293293,21.6270732 C77.0050614,21.6102438 77.0751826,21.5835977 77.1396951,21.5471341 C77.2042076,21.5106705 77.2560974,21.4615857 77.2953659,21.399878 C77.3346343,21.3381704 77.3542683,21.2624395 77.3542683,21.1726829 C77.3542683,21.0043894 77.2771349,20.8837809 77.1228659,20.8108537 C76.9685968,20.7379265 76.7371967,20.6650004 76.4286585,20.5920732 C76.2771944,20.5584145 76.1299397,20.5149393 75.9868902,20.4616463 C75.8438407,20.4083534 75.7162201,20.3382321 75.6040244,20.2512805 C75.4918287,20.1643288 75.4020735,20.0563421 75.3347561,19.9273171 C75.2674387,19.798292 75.2337805,19.6384156 75.2337805,19.4476829 C75.2337805,19.2232916 75.2800605,19.0297569 75.372622,18.8670732 C75.4651834,18.7043894 75.5871944,18.5711591 75.7386585,18.467378 C75.8901227,18.363597 76.0612186,18.2864637 76.2519512,18.2359756 C76.4426839,18.1854876 76.6390234,18.1602439 76.8409756,18.1602439 C77.1326844,18.1602439 77.4173767,18.2107312 77.695061,18.3117073 C77.9727453,18.4126834 78.192926,18.5669502 78.3556098,18.7745122 L77.6992683,19.355122 Z M16.444939,27.7009756 L20.2904268,27.7009756 L20.2904268,28.6265854 L17.5051829,28.6265854 L17.5051829,30.2590244 L20.1305488,30.2590244 L20.1305488,31.1509756 L17.5051829,31.1509756 L17.5051829,33.6585366 L16.444939,33.6585366 L16.444939,27.7009756 Z M21.0814024,29.6195122 L22.0911585,29.6195122 L22.0911585,33.6585366 L21.0814024,33.6585366 L21.0814024,29.6195122 Z M20.9383537,28.2479268 C20.9383537,28.0852431 20.9986579,27.9435982 21.1192683,27.8229878 C21.2398787,27.7023774 21.392743,27.6420732 21.5778659,27.6420732 C21.7629887,27.6420732 21.9186579,27.6995726 22.044878,27.8145732 C22.1710982,27.9295737 22.2342073,28.0740235 22.2342073,28.2479268 C22.2342073,28.4218301 22.1710982,28.5662799 22.044878,28.6812805 C21.9186579,28.7962811 21.7629887,28.8537805 21.5778659,28.8537805 C21.392743,28.8537805 21.2398787,28.7934762 21.1192683,28.6728659 C20.9986579,28.5522555 20.9383537,28.4106106 20.9383537,28.2479268 Z M23.3365244,27.2970732 L24.3462805,27.2970732 L24.3462805,33.6585366 L23.3365244,33.6585366 L23.3365244,27.2970732 Z M30.3964024,29.5017073 C30.6600623,29.5017073 30.8858527,29.5479873 31.0737805,29.6405488 C31.2617083,29.7331102 31.415975,29.8551212 31.5365854,30.0065854 C31.6571957,30.1580495 31.7455485,30.3319502 31.8016463,30.5282927 C31.8577442,30.7246351 31.8857927,30.9265843 31.8857927,31.1341463 L31.8857927,33.6585366 L30.8760366,33.6585366 L30.8760366,31.4202439 C30.8760366,31.3024384 30.867622,31.179025 30.8507927,31.05 C30.8339633,30.920975 30.7975003,30.8045737 30.7414024,30.7007927 C30.6853046,30.5970117 30.6081712,30.5114638 30.51,30.4441463 C30.4118288,30.3768289 30.2814033,30.3431707 30.1187195,30.3431707 C29.9616456,30.3431707 29.8270128,30.3768289 29.7148171,30.4441463 C29.6026214,30.5114638 29.5100613,30.5984141 29.4371341,30.705 C29.364207,30.8115859 29.3109148,30.930792 29.2772561,31.062622 C29.2435974,31.1944519 29.2267683,31.3248774 29.2267683,31.4539024 L29.2267683,33.6585366 L28.2170122,33.6585366 L28.2170122,31.2182927 C28.2170122,30.9658524 28.1567079,30.7568911 28.0360976,30.5914024 C27.9154872,30.4259138 27.7261598,30.3431707 27.4681098,30.3431707 C27.3166456,30.3431707 27.1848176,30.3754265 27.072622,30.439939 C26.9604263,30.5044515 26.8692686,30.5871946 26.7991463,30.6881707 C26.729024,30.7891468 26.6757319,30.9055481 26.6392683,31.037378 C26.6028047,31.169208 26.5845732,31.3024384 26.5845732,31.4370732 L26.5845732,33.6585366 L25.5748171,33.6585366 L25.5748171,29.6195122 L26.5340854,29.6195122 L26.5340854,30.267439 L26.5509146,30.267439 C26.5957929,30.1664629 26.6560972,30.071098 26.7318293,29.9813415 C26.8075614,29.8915849 26.8973166,29.8102443 27.0010976,29.7373171 C27.1048786,29.6643899 27.2240847,29.6068905 27.3587195,29.5648171 C27.4933543,29.5227437 27.6420114,29.5017073 27.8046951,29.5017073 C28.118843,29.5017073 28.3796941,29.5718286 28.5872561,29.7120732 C28.7948181,29.8523178 28.9546946,30.0374379 29.0668902,30.267439 C29.2015251,30.0206085 29.3810355,29.8312811 29.6054268,29.6994512 C29.8298182,29.5676213 30.0934741,29.5017073 30.3964024,29.5017073 Z M35.2179878,27.7009756 L39.0634756,27.7009756 L39.0634756,28.6265854 L36.2782317,28.6265854 L36.2782317,30.2590244 L38.9035976,30.2590244 L38.9035976,31.1509756 L36.2782317,31.1509756 L36.2782317,33.6585366 L35.2179878,33.6585366 L35.2179878,27.7009756 Z M42.4293293,31.235122 C42.4293293,31.1060969 42.4110977,30.9826835 42.3746341,30.864878 C42.3381705,30.7470726 42.2806711,30.6432931 42.2021341,30.5535366 C42.1235972,30.46378 42.024025,30.3922564 41.9034146,30.3389634 C41.7828043,30.2856705 41.6411594,30.2590244 41.4784756,30.2590244 C41.1755473,30.2590244 40.9189035,30.350182 40.7085366,30.5325 C40.4981697,30.714818 40.3817684,30.949023 40.3593293,31.235122 L42.4293293,31.235122 Z M43.4390854,31.6895122 L43.4390854,31.8241463 C43.4390854,31.8690246 43.4362805,31.9139022 43.4306707,31.9587805 L40.3593293,31.9587805 C40.3705488,32.1046349 40.4084143,32.2378653 40.4729268,32.3584756 C40.5374393,32.479086 40.6229873,32.5828654 40.7295732,32.6698171 C40.8361591,32.7567687 40.9567676,32.8254876 41.0914024,32.8759756 C41.2260373,32.9264637 41.3662798,32.9517073 41.5121341,32.9517073 C41.7645744,32.9517073 41.977743,32.9054273 42.1516463,32.8128659 C42.3255497,32.7203044 42.468597,32.5926837 42.5807927,32.43 L43.2539634,32.9685366 C42.8556687,33.5070759 42.2778696,33.7763415 41.5205488,33.7763415 C41.2064009,33.7763415 40.9175013,33.7272566 40.6538415,33.6290854 C40.3901816,33.5309141 40.1615863,33.3920741 39.9680488,33.212561 C39.7745112,33.0330479 39.6230493,32.8128672 39.5136585,32.5520122 C39.4042677,32.2911572 39.3495732,31.9952456 39.3495732,31.6642683 C39.3495732,31.3389008 39.4042677,31.0429891 39.5136585,30.7765244 C39.6230493,30.5100596 39.7731088,30.2828668 39.9638415,30.094939 C40.1545741,29.9070113 40.3803645,29.7611591 40.6412195,29.657378 C40.9020745,29.553597 41.1839619,29.5017073 41.4868902,29.5017073 C41.7673795,29.5017073 42.0268281,29.5479873 42.2652439,29.6405488 C42.5036597,29.7331102 42.7098162,29.8705479 42.8837195,30.0528659 C43.0576228,30.2351838 43.193658,30.4623767 43.2918293,30.7344512 C43.3900005,31.0065258 43.4390854,31.3248762 43.4390854,31.6895122 Z M46.6282317,30.6965854 C46.5384752,30.5787799 46.4150618,30.4764029 46.2579878,30.3894512 C46.1009138,30.3024996 45.929818,30.2590244 45.7446951,30.2590244 C45.5820114,30.2590244 45.4333543,30.2926826 45.2987195,30.36 C45.1640847,30.4273174 45.0967683,30.5395114 45.0967683,30.6965854 C45.0967683,30.8536593 45.1710968,30.9644509 45.3197561,31.0289634 C45.4684154,31.0934759 45.6857913,31.1593899 45.9718902,31.2267073 C46.1233544,31.260366 46.2762187,31.3052436 46.4304878,31.3613415 C46.5847569,31.4174393 46.7249994,31.4917678 46.8512195,31.5843293 C46.9774397,31.6768907 47.0798167,31.7918896 47.1583537,31.9293293 C47.2368906,32.066769 47.2761585,32.2336576 47.2761585,32.43 C47.2761585,32.6768305 47.2298785,32.8857918 47.1373171,33.0568902 C47.0447556,33.2279887 46.9213422,33.3668287 46.7670732,33.4734146 C46.6128041,33.5800005 46.4332937,33.6571339 46.2285366,33.7048171 C46.0237795,33.7525002 45.8120133,33.7763415 45.5932317,33.7763415 C45.2790838,33.7763415 44.9733551,33.718842 44.6760366,33.6038415 C44.378718,33.4888409 44.1318912,33.3247572 43.9355488,33.1115854 L44.6003049,32.4889024 C44.7125006,32.6347568 44.8583528,32.7553654 45.0378659,32.8507317 C45.2173789,32.946098 45.4165233,32.9937805 45.6353049,32.9937805 C45.7082321,32.9937805 45.7825606,32.9853659 45.8582927,32.9685366 C45.9340248,32.9517072 46.004146,32.9250612 46.0686585,32.8885976 C46.1331711,32.852134 46.1850608,32.8030491 46.2243293,32.7413415 C46.2635978,32.6796338 46.2832317,32.6039029 46.2832317,32.5141463 C46.2832317,32.3458528 46.2060983,32.2252443 46.0518293,32.1523171 C45.8975602,32.0793899 45.6661601,32.0064638 45.357622,31.9335366 C45.2061578,31.8998779 45.0589032,31.8564027 44.9158537,31.8031098 C44.7728042,31.7498168 44.6451835,31.6796956 44.5329878,31.5927439 C44.4207921,31.5057922 44.3310369,31.3978055 44.2637195,31.2687805 C44.1964021,31.1397555 44.1627439,30.979879 44.1627439,30.7891463 C44.1627439,30.564755 44.2090239,30.3712203 44.3015854,30.2085366 C44.3941468,30.0458528 44.5161578,29.9126225 44.667622,29.8088415 C44.8190861,29.7050605 44.990182,29.6279271 45.1809146,29.577439 C45.3716473,29.526951 45.5679868,29.5017073 45.769939,29.5017073 C46.0616478,29.5017073 46.3463401,29.5521946 46.6240244,29.6531707 C46.9017087,29.7541468 47.1218894,29.9084136 47.2845732,30.1159756 L46.6282317,30.6965854 Z M47.5706707,30.4273171 L47.5706707,29.6195122 L48.2775,29.6195122 L48.2775,28.449878 L49.2704268,28.449878 L49.2704268,29.6195122 L50.2801829,29.6195122 L50.2801829,30.4273171 L49.2704268,30.4273171 L49.2704268,32.3037805 C49.2704268,32.4832936 49.3026826,32.6319506 49.3671951,32.7497561 C49.4317076,32.8675616 49.5761574,32.9264634 49.8005488,32.9264634 C49.8678662,32.9264634 49.9407923,32.9194513 50.0193293,32.9054268 C50.0978662,32.8914024 50.1679875,32.870366 50.2296951,32.8423171 L50.2633537,33.6332927 C50.1735971,33.6669514 50.0670128,33.6935975 49.9435976,33.7132317 C49.8201823,33.732866 49.7023786,33.7426829 49.5901829,33.7426829 C49.3209133,33.7426829 49.102135,33.7048175 48.9338415,33.6290854 C48.7655479,33.5533533 48.6323176,33.4495738 48.5341463,33.3177439 C48.4359751,33.185914 48.3686587,33.0344521 48.3321951,32.8633537 C48.2957315,32.6922552 48.2775,32.5085376 48.2775,32.3121951 L48.2775,30.4273171 L47.5706707,30.4273171 Z M51.0290854,29.6195122 L52.0388415,29.6195122 L52.0388415,33.6585366 L51.0290854,33.6585366 L51.0290854,29.6195122 Z M50.8860366,28.2479268 C50.8860366,28.0852431 50.9463409,27.9435982 51.0669512,27.8229878 C51.1875616,27.7023774 51.3404259,27.6420732 51.5255488,27.6420732 C51.7106717,27.6420732 51.8663408,27.6995726 51.992561,27.8145732 C52.1187811,27.9295737 52.1818902,28.0740235 52.1818902,28.2479268 C52.1818902,28.4218301 52.1187811,28.5662799 51.992561,28.6812805 C51.8663408,28.7962811 51.7106717,28.8537805 51.5255488,28.8537805 C51.3404259,28.8537805 51.1875616,28.7934762 51.0669512,28.6728659 C50.9463409,28.5522555 50.8860366,28.4106106 50.8860366,28.2479268 Z M52.6615244,29.6195122 L53.7638415,29.6195122 L54.8240854,32.5646341 L54.8409146,32.5646341 L55.9095732,29.6195122 L56.9782317,29.6195122 L55.3710366,33.6585366 L54.2939634,33.6585366 L52.6615244,29.6195122 Z M60.0916463,33.1452439 L60.0664024,33.1452439 C59.9654263,33.324757 59.802745,33.4720116 59.5783537,33.5870122 C59.3539623,33.7020128 59.0987209,33.7595122 58.812622,33.7595122 C58.6499382,33.7595122 58.4802448,33.7384758 58.3035366,33.6964024 C58.1268284,33.6543291 57.9641471,33.5842078 57.8154878,33.4860366 C57.6668285,33.3878654 57.5434151,33.2588423 57.4452439,33.0989634 C57.3470727,32.9390846 57.2979878,32.7413426 57.2979878,32.5057317 C57.2979878,32.2028034 57.3835357,31.9615863 57.5546341,31.7820732 C57.7257326,31.6025601 57.9459133,31.4651224 58.2151829,31.3697561 C58.4844526,31.2743898 58.7831691,31.2112806 59.1113415,31.1804268 C59.4395138,31.149573 59.7606692,31.1341463 60.0748171,31.1341463 L60.0748171,31.0331707 C60.0748171,30.7807304 59.9836594,30.5942079 59.8013415,30.4735976 C59.6190235,30.3529872 59.4016476,30.2926829 59.1492073,30.2926829 C58.9360355,30.2926829 58.7312815,30.3375605 58.534939,30.4273171 C58.3385966,30.5170736 58.1759153,30.6264628 58.0468902,30.7554878 L57.5251829,30.1412195 C57.7551841,29.9280477 58.0202424,29.7681713 58.3203659,29.6615854 C58.6204893,29.5549995 58.9248155,29.5017073 59.2333537,29.5017073 C59.5923798,29.5017073 59.8882915,29.5521946 60.1210976,29.6531707 C60.3539036,29.7541468 60.5376213,29.8859748 60.6722561,30.0486585 C60.8068909,30.2113423 60.9008534,30.3936575 60.9541463,30.5956098 C61.0074393,30.797562 61.0340854,30.9995112 61.0340854,31.2014634 L61.0340854,33.6585366 L60.0916463,33.6585366 L60.0916463,33.1452439 Z M60.0748171,31.8157317 L59.847622,31.8157317 C59.6849382,31.8157317 59.5138424,31.8227438 59.3343293,31.8367683 C59.1548162,31.8507928 58.98933,31.8816461 58.8378659,31.9293293 C58.6864017,31.9770124 58.5601834,32.0443288 58.4592073,32.1312805 C58.3582312,32.2182321 58.3077439,32.3374383 58.3077439,32.4889024 C58.3077439,32.5842688 58.3287803,32.664207 58.3708537,32.7287195 C58.412927,32.793232 58.4676216,32.8451218 58.534939,32.8843902 C58.6022564,32.9236587 58.6779874,32.9517072 58.7621341,32.9685366 C58.8462809,32.9853659 58.9304264,32.9937805 59.0145732,32.9937805 C59.3623798,32.9937805 59.6260357,32.9012204 59.8055488,32.7160976 C59.9850619,32.5309747 60.0748171,32.2785382 60.0748171,31.9587805 L60.0748171,31.8157317 Z M62.2289634,27.2970732 L63.2387195,27.2970732 L63.2387195,33.6585366 L62.2289634,33.6585366 L62.2289634,27.2970732 Z M64.652378,32.4973171 L65.6284756,32.4973171 L64.9132317,34.7187805 L64.0633537,34.7187805 L64.652378,32.4973171 Z M20.1768293,39.042439 L21.2370732,39.042439 L21.2370732,41.4490244 L24.0223171,41.4490244 L24.0223171,39.042439 L25.082561,39.042439 L25.082561,45 L24.0223171,45 L24.0223171,42.3578049 L21.2370732,42.3578049 L21.2370732,45 L20.1768293,45 L20.1768293,39.042439 Z M26.1091463,42.9636585 C26.1091463,42.6439008 26.1666458,42.3535989 26.2816463,42.0927439 C26.3966469,41.8318889 26.5523161,41.6089034 26.7486585,41.4237805 C26.945001,41.2386576 27.1778035,41.0956103 27.4470732,40.9946341 C27.7163428,40.893658 28.0024375,40.8431707 28.3053659,40.8431707 C28.6082942,40.8431707 28.8943889,40.893658 29.1636585,40.9946341 C29.4329282,41.0956103 29.6657307,41.2386576 29.8620732,41.4237805 C30.0584156,41.6089034 30.2140848,41.8318889 30.3290854,42.0927439 C30.4440859,42.3535989 30.5015854,42.6439008 30.5015854,42.9636585 C30.5015854,43.2834162 30.4440859,43.5751206 30.3290854,43.8387805 C30.2140848,44.1024403 30.0584156,44.3282308 29.8620732,44.5161585 C29.6657307,44.7040863 29.4329282,44.8513409 29.1636585,44.9579268 C28.8943889,45.0645127 28.6082942,45.1178049 28.3053659,45.1178049 C28.0024375,45.1178049 27.7163428,45.0645127 27.4470732,44.9579268 C27.1778035,44.8513409 26.945001,44.7040863 26.7486585,44.5161585 C26.5523161,44.3282308 26.3966469,44.1024403 26.2816463,43.8387805 C26.1666458,43.5751206 26.1091463,43.2834162 26.1091463,42.9636585 Z M27.1357317,42.9636585 C27.1357317,43.1207325 27.1595729,43.2778041 27.2072561,43.434878 C27.2549393,43.591952 27.3264629,43.7321945 27.4218293,43.8556098 C27.5171956,43.979025 27.6378041,44.0799996 27.7836585,44.1585366 C27.9295129,44.2370736 28.1034136,44.2763415 28.3053659,44.2763415 C28.5073181,44.2763415 28.6812188,44.2370736 28.8270732,44.1585366 C28.9729276,44.0799996 29.0935361,43.979025 29.1889024,43.8556098 C29.2842688,43.7321945 29.3557924,43.591952 29.4034756,43.434878 C29.4511588,43.2778041 29.475,43.1207325 29.475,42.9636585 C29.475,42.8065846 29.4511588,42.6509154 29.4034756,42.4966463 C29.3557924,42.3423773 29.2842688,42.2035372 29.1889024,42.080122 C29.0935361,41.9567067 28.9729276,41.8571345 28.8270732,41.7814024 C28.6812188,41.7056704 28.5073181,41.6678049 28.3053659,41.6678049 C28.1034136,41.6678049 27.9295129,41.7056704 27.7836585,41.7814024 C27.6378041,41.8571345 27.5171956,41.9567067 27.4218293,42.080122 C27.3264629,42.2035372 27.2549393,42.3423773 27.2072561,42.4966463 C27.1595729,42.6509154 27.1357317,42.8065846 27.1357317,42.9636585 Z M31.4945122,38.6385366 L32.5042683,38.6385366 L32.5042683,45 L31.4945122,45 L31.4945122,38.6385366 Z M33.7496341,38.6385366 L34.7593902,38.6385366 L34.7593902,45 L33.7496341,45 L33.7496341,38.6385366 Z M35.3820732,40.9609756 L36.5012195,40.9609756 L37.6287805,43.8976829 L37.6456098,43.8976829 L38.6469512,40.9609756 L39.6987805,40.9609756 L37.7886585,45.8667073 C37.7157313,46.0518302 37.6371955,46.2159139 37.5530488,46.3589634 C37.468902,46.5020129 37.3679274,46.6226215 37.250122,46.7207927 C37.1323165,46.8189639 36.9934764,46.8932924 36.8335976,46.9437805 C36.6737187,46.9942685 36.4815865,47.0195122 36.2571951,47.0195122 C36.1730484,47.0195122 36.0875004,47.0153049 36.0005488,47.0068902 C35.9135971,46.9984756 35.8252444,46.9830489 35.7354878,46.9606098 L35.8196341,46.0854878 C35.8869516,46.1079269 35.9528655,46.1233536 36.017378,46.1317683 C36.0818906,46.140183 36.1421948,46.1443902 36.1982927,46.1443902 C36.3048786,46.1443902 36.3946338,46.1317684 36.467561,46.1065244 C36.5404882,46.0812804 36.6021949,46.0420125 36.6526829,45.9887195 C36.703171,45.9354266 36.7480486,45.8695126 36.7873171,45.7909756 C36.8265856,45.7124386 36.8686583,45.6198786 36.9135366,45.5132927 L37.1154878,45 L35.3820732,40.9609756 Z M39.732439,40.9609756 L40.8263415,40.9609756 L41.6678049,43.8556098 L41.6846341,43.8556098 L42.5513415,40.9609756 L43.6284146,40.9609756 L44.5035366,43.8556098 L44.5203659,43.8556098 L45.3786585,40.9609756 L46.4304878,40.9609756 L45.0336585,45 L44.0070732,45 L43.089878,42.1726829 L43.0730488,42.1726829 L42.1642683,45 L41.1376829,45 L39.732439,40.9609756 Z M46.8343902,42.9636585 C46.8343902,42.6439008 46.8918897,42.3535989 47.0068902,42.0927439 C47.1218908,41.8318889 47.27756,41.6089034 47.4739024,41.4237805 C47.6702449,41.2386576 47.9030474,41.0956103 48.1723171,40.9946341 C48.4415867,40.893658 48.7276814,40.8431707 49.0306098,40.8431707 C49.3335381,40.8431707 49.6196328,40.893658 49.8889024,40.9946341 C50.1581721,41.0956103 50.3909746,41.2386576 50.5873171,41.4237805 C50.7836595,41.6089034 50.9393287,41.8318889 51.0543293,42.0927439 C51.1693298,42.3535989 51.2268293,42.6439008 51.2268293,42.9636585 C51.2268293,43.2834162 51.1693298,43.5751206 51.0543293,43.8387805 C50.9393287,44.1024403 50.7836595,44.3282308 50.5873171,44.5161585 C50.3909746,44.7040863 50.1581721,44.8513409 49.8889024,44.9579268 C49.6196328,45.0645127 49.3335381,45.1178049 49.0306098,45.1178049 C48.7276814,45.1178049 48.4415867,45.0645127 48.1723171,44.9579268 C47.9030474,44.8513409 47.6702449,44.7040863 47.4739024,44.5161585 C47.27756,44.3282308 47.1218908,44.1024403 47.0068902,43.8387805 C46.8918897,43.5751206 46.8343902,43.2834162 46.8343902,42.9636585 Z M47.8609756,42.9636585 C47.8609756,43.1207325 47.8848168,43.2778041 47.9325,43.434878 C47.9801832,43.591952 48.0517068,43.7321945 48.1470732,43.8556098 C48.2424395,43.979025 48.3630481,44.0799996 48.5089024,44.1585366 C48.6547568,44.2370736 48.8286575,44.2763415 49.0306098,44.2763415 C49.232562,44.2763415 49.4064627,44.2370736 49.5523171,44.1585366 C49.6981715,44.0799996 49.81878,43.979025 49.9141463,43.8556098 C50.0095127,43.7321945 50.0810363,43.591952 50.1287195,43.434878 C50.1764027,43.2778041 50.2002439,43.1207325 50.2002439,42.9636585 C50.2002439,42.8065846 50.1764027,42.6509154 50.1287195,42.4966463 C50.0810363,42.3423773 50.0095127,42.2035372 49.9141463,42.080122 C49.81878,41.9567067 49.6981715,41.8571345 49.5523171,41.7814024 C49.4064627,41.7056704 49.232562,41.6678049 49.0306098,41.6678049 C48.8286575,41.6678049 48.6547568,41.7056704 48.5089024,41.7814024 C48.3630481,41.8571345 48.2424395,41.9567067 48.1470732,42.080122 C48.0517068,42.2035372 47.9801832,42.3423773 47.9325,42.4966463 C47.8848168,42.6509154 47.8609756,42.8065846 47.8609756,42.9636585 Z M51.9673171,42.9636585 C51.9673171,42.6439008 52.0248165,42.3535989 52.1398171,42.0927439 C52.2548176,41.8318889 52.4104868,41.6089034 52.6068293,41.4237805 C52.8031717,41.2386576 53.0359743,41.0956103 53.3052439,40.9946341 C53.5745135,40.893658 53.8606082,40.8431707 54.1635366,40.8431707 C54.4664649,40.8431707 54.7525596,40.893658 55.0218293,40.9946341 C55.2910989,41.0956103 55.5239015,41.2386576 55.7202439,41.4237805 C55.9165863,41.6089034 56.0722555,41.8318889 56.1872561,42.0927439 C56.3022567,42.3535989 56.3597561,42.6439008 56.3597561,42.9636585 C56.3597561,43.2834162 56.3022567,43.5751206 56.1872561,43.8387805 C56.0722555,44.1024403 55.9165863,44.3282308 55.7202439,44.5161585 C55.5239015,44.7040863 55.2910989,44.8513409 55.0218293,44.9579268 C54.7525596,45.0645127 54.4664649,45.1178049 54.1635366,45.1178049 C53.8606082,45.1178049 53.5745135,45.0645127 53.3052439,44.9579268 C53.0359743,44.8513409 52.8031717,44.7040863 52.6068293,44.5161585 C52.4104868,44.3282308 52.2548176,44.1024403 52.1398171,43.8387805 C52.0248165,43.5751206 51.9673171,43.2834162 51.9673171,42.9636585 Z M52.9939024,42.9636585 C52.9939024,43.1207325 53.0177437,43.2778041 53.0654268,43.434878 C53.11311,43.591952 53.1846337,43.7321945 53.28,43.8556098 C53.3753663,43.979025 53.4959749,44.0799996 53.6418293,44.1585366 C53.7876837,44.2370736 53.9615844,44.2763415 54.1635366,44.2763415 C54.3654888,44.2763415 54.5393895,44.2370736 54.6852439,44.1585366 C54.8310983,44.0799996 54.9517068,43.979025 55.0470732,43.8556098 C55.1424395,43.7321945 55.2139632,43.591952 55.2616463,43.434878 C55.3093295,43.2778041 55.3331707,43.1207325 55.3331707,42.9636585 C55.3331707,42.8065846 55.3093295,42.6509154 55.2616463,42.4966463 C55.2139632,42.3423773 55.1424395,42.2035372 55.0470732,42.080122 C54.9517068,41.9567067 54.8310983,41.8571345 54.6852439,41.7814024 C54.5393895,41.7056704 54.3654888,41.6678049 54.1635366,41.6678049 C53.9615844,41.6678049 53.7876837,41.7056704 53.6418293,41.7814024 C53.4959749,41.8571345 53.3753663,41.9567067 53.28,42.080122 C53.1846337,42.2035372 53.11311,42.3423773 53.0654268,42.4966463 C53.0177437,42.6509154 52.9939024,42.8065846 52.9939024,42.9636585 Z M61.4421951,45 L60.4829268,45 L60.4829268,44.3941463 L60.4660976,44.3941463 C60.325853,44.6297573 60.1309159,44.8092677 59.8812805,44.9326829 C59.6316451,45.0560982 59.3637819,45.1178049 59.0776829,45.1178049 C58.7691448,45.1178049 58.4928671,45.0603055 58.2488415,44.9453049 C58.0048159,44.8303043 57.797257,44.6760376 57.6261585,44.4825 C57.4550601,44.2889624 57.3232322,44.0617696 57.2306707,43.8009146 C57.1381093,43.5400597 57.0918293,43.2609771 57.0918293,42.9636585 C57.0918293,42.66634 57.1395117,42.3886598 57.234878,42.1306098 C57.3302444,41.8725597 57.4648772,41.6481717 57.6387805,41.457439 C57.8126838,41.2667064 58.0202427,41.1166469 58.2614634,41.0072561 C58.5026841,40.8978653 58.76634,40.8431707 59.052439,40.8431707 C59.2375619,40.8431707 59.4030481,40.8642071 59.5489024,40.9062805 C59.6947568,40.9483539 59.8223775,41.0002436 59.9317683,41.0619512 C60.0411591,41.1236588 60.1351216,41.1909752 60.2136585,41.2639024 C60.2921955,41.3368296 60.3567071,41.4069509 60.4071951,41.4742683 L60.432439,41.4742683 L60.432439,38.6385366 L61.4421951,38.6385366 L61.4421951,45 Z M58.1184146,42.9636585 C58.1184146,43.1207325 58.1422559,43.2778041 58.189939,43.434878 C58.2376222,43.591952 58.3091459,43.7321945 58.4045122,43.8556098 C58.4998785,43.979025 58.6204871,44.0799996 58.7663415,44.1585366 C58.9121959,44.2370736 59.0832917,44.2763415 59.2796341,44.2763415 C59.464757,44.2763415 59.6302432,44.238476 59.7760976,44.1627439 C59.9219519,44.0870118 60.0467678,43.9874396 60.1505488,43.8640244 C60.2543298,43.7406091 60.3328656,43.6017691 60.3861585,43.4475 C60.4394515,43.2932309 60.4660976,43.1375618 60.4660976,42.9804878 C60.4660976,42.8234138 60.4394515,42.6663422 60.3861585,42.5092683 C60.3328656,42.3521943 60.2543298,42.2119518 60.1505488,42.0885366 C60.0467678,41.9651213 59.9219519,41.8641467 59.7760976,41.7856098 C59.6302432,41.7070728 59.464757,41.6678049 59.2796341,41.6678049 C59.0832917,41.6678049 58.9121959,41.7056704 58.7663415,41.7814024 C58.6204871,41.8571345 58.4998785,41.9567067 58.4045122,42.080122 C58.3091459,42.2035372 58.2376222,42.3423773 58.189939,42.4966463 C58.1422559,42.6509154 58.1184146,42.8065846 58.1184146,42.9636585 Z" id="California-Womens-F"></path>
                    <path d="M4.45463444,2.31219512 C4.45463444,2.63219672 4.39902524,2.92585232 4.28780517,3.19317073 C4.17658511,3.46048914 4.02341591,3.69073074 3.82829298,3.88390244 C3.63317005,4.07707414 3.40097725,4.22731654 3.13170761,4.33463415 C2.86243797,4.44195176 2.56975797,4.49560976 2.25365883,4.49560976 C1.93755969,4.49560976 1.64585529,4.44195176 1.37853688,4.33463415 C1.11121847,4.22731654 0.880001272,4.07707414 0.684878345,3.88390244 C0.489755419,3.69073074 0.337561819,3.46048914 0.228292979,3.19317073 C0.11902414,2.92585232 0.0643905405,2.63219672 0.0643905405,2.31219512 C0.0643905405,1.98829106 0.11902414,1.69268426 0.228292979,1.42536585 C0.337561819,1.15804744 0.489755419,0.929757044 0.684878345,0.740487805 C0.880001272,0.551218566 1.11121847,0.403902966 1.37853688,0.298536585 C1.64585529,0.193170205 1.93755969,0.140487805 2.25365883,0.140487805 C2.56975797,0.140487805 2.86243797,0.193170205 3.13170761,0.298536585 C3.40097725,0.403902966 3.63317005,0.551218566 3.82829298,0.740487805 C4.02341591,0.929757044 4.17658511,1.15804744 4.28780517,1.42536585 C4.39902524,1.69268426 4.45463444,1.98829106 4.45463444,2.31219512 Z M3.82829298,2.31219512 C3.82829298,2.08585253 3.79122018,1.87219613 3.71707347,1.67121951 C3.64292676,1.4702429 3.53756196,1.2936593 3.40097591,1.14146341 C3.26438986,0.989267532 3.09951346,0.869268732 2.90634176,0.781463415 C2.71317006,0.693658098 2.49561126,0.649756098 2.25365883,0.649756098 C2.01560886,0.649756098 1.80000126,0.693658098 1.60682956,0.781463415 C1.41365787,0.869268732 1.24975707,0.989267532 1.11512225,1.14146341 C0.980487428,1.2936593 0.876098228,1.4702429 0.801951516,1.67121951 C0.727804804,1.87219613 0.690732004,2.08585253 0.690732004,2.31219512 C0.690732004,2.54244018 0.727804804,2.75902338 0.801951516,2.96195122 C0.876098228,3.16487906 0.981463028,3.34146266 1.11804908,3.49170732 C1.25463513,3.64195197 1.41853593,3.75999957 1.60975639,3.84585366 C1.80097686,3.93170775 2.01560886,3.97463415 2.25365883,3.97463415 C2.4917088,3.97463415 2.708292,3.93170775 2.90341493,3.84585366 C3.09853786,3.75999957 3.26438986,3.64195197 3.40097591,3.49170732 C3.53756196,3.34146266 3.64292676,3.16487906 3.71707347,2.96195122 C3.79122018,2.75902338 3.82829298,2.54244018 3.82829298,2.31219512 Z M7.14146368,4.3902439 L6.56195148,4.3902439 L6.56195148,0.245853659 L9.14926855,0.245853659 L9.14926855,0.755121951 L7.14146368,0.755121951 L7.14146368,2.04292683 L9.02048807,2.04292683 L9.02048807,2.5404878 L7.14146368,2.5404878 L7.14146368,4.3902439 Z M11.7834149,4.3902439 L11.2039027,4.3902439 L11.2039027,0.245853659 L13.7912197,0.245853659 L13.7912197,0.755121951 L11.7834149,0.755121951 L11.7834149,2.04292683 L13.6624393,2.04292683 L13.6624393,2.5404878 L11.7834149,2.5404878 L11.7834149,4.3902439 Z M16.425366,4.3902439 L15.8458539,4.3902439 L15.8458539,0.245853659 L16.425366,0.245853659 L16.425366,4.3902439 Z M22.3024392,3.74634146 C22.1385359,3.9687816 21.9258551,4.1492676 21.6643904,4.28780488 C21.4029257,4.42634216 21.0887825,4.49560976 20.7219514,4.49560976 C20.4058522,4.49560976 20.1141478,4.44195176 19.8468294,4.33463415 C19.579511,4.22731654 19.3492694,4.07707414 19.1560977,3.88390244 C18.962926,3.69073074 18.811708,3.46048914 18.7024392,3.19317073 C18.5931703,2.92585232 18.5385367,2.63219672 18.5385367,2.31219512 C18.5385367,1.98829106 18.5941459,1.69268426 18.705366,1.42536585 C18.8165861,1.15804744 18.9707309,0.929757044 19.167805,0.740487805 C19.3648792,0.551218566 19.5980476,0.403902966 19.8673172,0.298536585 C20.1365869,0.193170205 20.4292669,0.140487805 20.745366,0.140487805 C20.8858545,0.140487805 21.0282921,0.154146205 21.1726831,0.181463415 C21.317074,0.208780624 21.4556092,0.249755824 21.5882928,0.304390244 C21.7209764,0.359024663 21.8419508,0.426341063 21.9512197,0.506341463 C22.0604885,0.586341863 22.1541461,0.679023863 22.2321953,0.784390244 L21.7756099,1.13560976 C21.674146,0.995121249 21.5307328,0.879024849 21.345366,0.787317073 C21.1599992,0.695609298 20.9600012,0.649756098 20.745366,0.649756098 C20.5034136,0.649756098 20.2858548,0.693658098 20.0926831,0.781463415 C19.8995114,0.869268732 19.734635,0.989267532 19.5980489,1.14146341 C19.4614629,1.2936593 19.3560981,1.4702429 19.2819514,1.67121951 C19.2078047,1.87219613 19.1707319,2.08585253 19.1707319,2.31219512 C19.1707319,2.54634263 19.2068291,2.76487703 19.2790245,2.96780488 C19.35122,3.17073272 19.4546336,3.34731632 19.5892684,3.49756098 C19.7239033,3.64780563 19.8878041,3.76585323 20.0809758,3.85170732 C20.2741475,3.9375614 20.4897551,3.9804878 20.727805,3.9804878 C20.9619525,3.9804878 21.1746333,3.933659 21.3658538,3.84 C21.5570743,3.746341 21.7151215,3.609757 21.8400002,3.4302439 L22.3024392,3.74634146 Z M24.790244,4.3902439 L24.2107318,4.3902439 L24.2107318,0.245853659 L24.790244,0.245853659 L24.790244,4.3902439 Z M27.2839025,4.3902439 L26.6400001,4.3902439 L28.4370733,0.245853659 L28.9639025,0.245853659 L30.7434147,4.3902439 L30.087805,4.3902439 L29.6663416,3.37170732 L27.6995123,3.37170732 L27.2839025,4.3902439 Z M27.9043903,2.86243902 L29.4556098,2.86243902 L28.6829269,0.91902439 L27.9043903,2.86243902 Z M33.172683,3.87512195 L35.0224391,3.87512195 L35.0224391,4.3902439 L32.5931708,4.3902439 L32.5931708,0.245853659 L33.172683,0.245853659 L33.172683,3.87512195 Z M41.6019512,1.01268293 C41.5199996,0.899511629 41.4087812,0.806829629 41.2682927,0.734634146 C41.1278042,0.662438663 40.969757,0.626341463 40.7941463,0.626341463 C40.7004873,0.626341463 40.6058541,0.639024263 40.5102439,0.664390244 C40.4146337,0.689756224 40.3278053,0.730731424 40.2497561,0.787317073 C40.1717069,0.843902722 40.1082929,0.914145922 40.0595122,0.99804878 C40.0107314,1.08195164 39.9863414,1.18243844 39.9863414,1.2995122 C39.9863414,1.41268349 40.0087802,1.50731669 40.0536585,1.58341463 C40.0985368,1.65951258 40.159024,1.72390218 40.2351219,1.77658537 C40.3112199,1.82926856 40.4009751,1.87414616 40.5043902,1.91121951 C40.6078054,1.94829287 40.7180482,1.98634127 40.8351219,2.02536585 C40.9756104,2.0682929 41.118048,2.1170729 41.262439,2.17170732 C41.40683,2.22634174 41.5375604,2.29853614 41.6546341,2.38829268 C41.7717079,2.47804923 41.8673167,2.59024323 41.9414634,2.72487805 C42.0156101,2.85951287 42.0526829,3.03024287 42.0526829,3.23707317 C42.0526829,3.45170839 42.0126833,3.63804799 41.9326829,3.79609756 C41.8526825,3.95414713 41.7463421,4.08487753 41.6136585,4.18829268 C41.4809749,4.29170783 41.3278057,4.36878023 41.1541463,4.4195122 C40.9804869,4.47024416 40.8019521,4.49560976 40.6185366,4.49560976 C40.3570718,4.49560976 40.1043914,4.44487856 39.8604878,4.34341463 C39.6165841,4.24195071 39.4146349,4.09170831 39.2546341,3.89268293 L39.7053658,3.51219512 C39.8029273,3.65658609 39.9336577,3.77365809 40.097561,3.86341463 C40.2614642,3.95317118 40.4390234,3.99804878 40.6302439,3.99804878 C40.7278053,3.99804878 40.8253653,3.98439038 40.9229268,3.95707317 C41.0204883,3.92975596 41.1092679,3.88682956 41.1892683,3.82829268 C41.2692687,3.7697558 41.3346339,3.6965858 41.3853658,3.60878049 C41.4360978,3.52097517 41.4614634,3.41463477 41.4614634,3.2897561 C41.4614634,3.16487742 41.4351222,3.06048822 41.382439,2.97658537 C41.3297558,2.89268251 41.258537,2.82146371 41.1687805,2.76292683 C41.0790239,2.70438995 40.9746347,2.65463435 40.8556097,2.61365854 C40.7365848,2.57268272 40.6107324,2.53073192 40.4780488,2.48780488 C40.3453652,2.44878029 40.2146348,2.40097589 40.0858536,2.34439024 C39.9570725,2.2878046 39.8419517,2.2156102 39.7404878,2.12780488 C39.6390239,2.03999956 39.5570735,1.93170796 39.4946341,1.80292683 C39.4321948,1.6741457 39.4009756,1.5141473 39.4009756,1.32292683 C39.4009756,1.11609653 39.4429264,0.938537327 39.5268293,0.790243902 C39.6107321,0.641950478 39.7199993,0.519024878 39.8546341,0.421463415 C39.9892689,0.323901951 40.1414625,0.252683151 40.3112195,0.207804878 C40.4809764,0.162926605 40.6517064,0.140487805 40.8234146,0.140487805 C41.065367,0.140487805 41.2917062,0.183414205 41.502439,0.269268293 C41.7131718,0.35512238 41.8829262,0.47024318 42.0117073,0.614634146 L41.6019512,1.01268293 Z M44.7687804,3.87512195 L46.9346341,3.87512195 L46.9346341,4.3902439 L44.1892682,4.3902439 L44.1892682,0.245853659 L46.8468292,0.245853659 L46.8468292,0.755121951 L44.7687804,0.755121951 L44.7687804,1.99609756 L46.7239024,1.99609756 L46.7239024,2.49365854 L44.7687804,2.49365854 L44.7687804,3.87512195 Z M49.6039024,3.87512195 L51.4536584,3.87512195 L51.4536584,4.3902439 L49.0243902,4.3902439 L49.0243902,0.245853659 L49.6039024,0.245853659 L49.6039024,3.87512195 Z M53.912195,3.87512195 L56.0780487,3.87512195 L56.0780487,4.3902439 L53.3326828,4.3902439 L53.3326828,0.245853659 L55.9902438,0.245853659 L55.9902438,0.755121951 L53.912195,0.755121951 L53.912195,1.99609756 L55.867317,1.99609756 L55.867317,2.49365854 L53.912195,2.49365854 L53.912195,3.87512195 Z M61.7209755,3.74634146 C61.5570722,3.9687816 61.3443914,4.1492676 61.0829267,4.28780488 C60.821462,4.42634216 60.5073188,4.49560976 60.1404876,4.49560976 C59.8243885,4.49560976 59.5326841,4.44195176 59.2653657,4.33463415 C58.9980473,4.22731654 58.7678057,4.07707414 58.574634,3.88390244 C58.3814623,3.69073074 58.2302443,3.46048914 58.1209755,3.19317073 C58.0117066,2.92585232 57.957073,2.63219672 57.957073,2.31219512 C57.957073,1.98829106 58.0126822,1.69268426 58.1239023,1.42536585 C58.2351224,1.15804744 58.3892672,0.929757044 58.5863413,0.740487805 C58.7834155,0.551218566 59.0165839,0.403902966 59.2858535,0.298536585 C59.5551231,0.193170205 59.8478031,0.140487805 60.1639023,0.140487805 C60.3043908,0.140487805 60.4468284,0.154146205 60.5912194,0.181463415 C60.7356103,0.208780624 60.8741455,0.249755824 61.0068291,0.304390244 C61.1395127,0.359024663 61.2604871,0.426341063 61.3697559,0.506341463 C61.4790248,0.586341863 61.5726824,0.679023863 61.6507316,0.784390244 L61.1941462,1.13560976 C61.0926823,0.995121249 60.9492691,0.879024849 60.7639023,0.787317073 C60.5785355,0.695609298 60.3785375,0.649756098 60.1639023,0.649756098 C59.9219499,0.649756098 59.7043911,0.693658098 59.5112194,0.781463415 C59.3180477,0.869268732 59.1531713,0.989267532 59.0165852,1.14146341 C58.8799992,1.2936593 58.7746344,1.4702429 58.7004876,1.67121951 C58.6263409,1.87219613 58.5892681,2.08585253 58.5892681,2.31219512 C58.5892681,2.54634263 58.6253653,2.76487703 58.6975608,2.96780488 C58.7697563,3.17073272 58.8731699,3.34731632 59.0078047,3.49756098 C59.1424395,3.64780563 59.3063403,3.76585323 59.499512,3.85170732 C59.6926837,3.9375614 59.9082913,3.9804878 60.1463413,3.9804878 C60.3804888,3.9804878 60.5931696,3.933659 60.7843901,3.84 C60.9756106,3.746341 61.1336578,3.609757 61.2585364,3.4302439 L61.7209755,3.74634146 Z M65.0458535,4.3902439 L64.4663413,4.3902439 L64.4663413,0.755121951 L63.1375608,0.755121951 L63.1375608,0.245853659 L66.374634,0.245853659 L66.374634,0.755121951 L65.0458535,0.755121951 L65.0458535,4.3902439 Z M68.8214632,4.3902439 L68.241951,4.3902439 L68.241951,0.245853659 L68.8214632,0.245853659 L68.8214632,4.3902439 Z M75.3248778,2.31219512 C75.3248778,2.63219672 75.2692686,2.92585232 75.1580485,3.19317073 C75.0468285,3.46048914 74.8936593,3.69073074 74.6985363,3.88390244 C74.5034134,4.07707414 74.2712206,4.22731654 74.001951,4.33463415 C73.7326813,4.44195176 73.4400013,4.49560976 73.1239022,4.49560976 C72.807803,4.49560976 72.5160986,4.44195176 72.2487802,4.33463415 C71.9814618,4.22731654 71.7502446,4.07707414 71.5551217,3.88390244 C71.3599988,3.69073074 71.2078052,3.46048914 71.0985363,3.19317073 C70.9892675,2.92585232 70.9346339,2.63219672 70.9346339,2.31219512 C70.9346339,1.98829106 70.9892675,1.69268426 71.0985363,1.42536585 C71.2078052,1.15804744 71.3599988,0.929757044 71.5551217,0.740487805 C71.7502446,0.551218566 71.9814618,0.403902966 72.2487802,0.298536585 C72.5160986,0.193170205 72.807803,0.140487805 73.1239022,0.140487805 C73.4400013,0.140487805 73.7326813,0.193170205 74.001951,0.298536585 C74.2712206,0.403902966 74.5034134,0.551218566 74.6985363,0.740487805 C74.8936593,0.929757044 75.0468285,1.15804744 75.1580485,1.42536585 C75.2692686,1.69268426 75.3248778,1.98829106 75.3248778,2.31219512 Z M74.6985363,2.31219512 C74.6985363,2.08585253 74.6614635,1.87219613 74.5873168,1.67121951 C74.5131701,1.4702429 74.4078053,1.2936593 74.2712193,1.14146341 C74.1346332,0.989267532 73.9697568,0.869268732 73.7765851,0.781463415 C73.5834134,0.693658098 73.3658546,0.649756098 73.1239022,0.649756098 C72.8858522,0.649756098 72.6702446,0.693658098 72.4770729,0.781463415 C72.2839012,0.869268732 72.1200004,0.989267532 71.9853656,1.14146341 C71.8507308,1.2936593 71.7463416,1.4702429 71.6721949,1.67121951 C71.5980481,1.87219613 71.5609753,2.08585253 71.5609753,2.31219512 C71.5609753,2.54244018 71.5980481,2.75902338 71.6721949,2.96195122 C71.7463416,3.16487906 71.8517064,3.34146266 71.9882924,3.49170732 C72.1248785,3.64195197 72.2887793,3.75999957 72.4799997,3.84585366 C72.6712202,3.93170775 72.8858522,3.97463415 73.1239022,3.97463415 C73.3619521,3.97463415 73.5785353,3.93170775 73.7736583,3.84585366 C73.9687812,3.75999957 74.1346332,3.64195197 74.2712193,3.49170732 C74.4078053,3.34146266 74.5131701,3.16487906 74.5873168,2.96195122 C74.6614635,2.75902338 74.6985363,2.54244018 74.6985363,2.31219512 Z M80.3531704,3.55902439 L80.3648778,3.55902439 L80.3648778,0.245853659 L80.9443899,0.245853659 L80.9443899,4.3902439 L80.2126826,4.3902439 L78.0234143,1.00682927 L78.011707,1.00682927 L78.011707,4.3902439 L77.4321948,4.3902439 L77.4321948,0.245853659 L78.1873168,0.245853659 L80.3531704,3.55902439 Z" id="OFFICIAL-SELECTION"></path>
                    <path d="M35.1512196,60.7317073 L32.6158537,60.7317073 L32.6158537,60.2213415 L34.1634147,58.6847561 C34.2804884,58.5640238 34.3810972,58.4378055 34.465244,58.3060976 C34.5493907,58.1743896 34.5914635,58.0262203 34.5914635,57.8615854 C34.5914635,57.7591458 34.573171,57.6667687 34.5365854,57.5844512 C34.4999999,57.5021337 34.4506101,57.4317076 34.3884147,57.3731707 C34.3262193,57.3146339 34.2530493,57.2698172 34.1689025,57.2387195 C34.0847557,57.2076218 33.9951225,57.1920732 33.9000001,57.1920732 C33.7024381,57.1920732 33.5396348,57.2551823 33.4115854,57.3814024 C33.283536,57.5076226 33.203049,57.6695112 33.170122,57.8670732 L32.6487805,57.7792683 C32.6707319,57.6329261 32.7173777,57.496647 32.7887196,57.3704268 C32.8600614,57.2442067 32.9506093,57.1344517 33.0603659,57.0411585 C33.1701226,56.9478654 33.2972554,56.87561 33.4417683,56.8243902 C33.5862813,56.7731705 33.7408529,56.747561 33.9054879,56.747561 C34.0664643,56.747561 34.2210359,56.7713412 34.3692074,56.8189024 C34.5173788,56.8664637 34.6481702,56.9359752 34.7615854,57.027439 C34.8750006,57.1189029 34.9655485,57.2341456 35.0332318,57.3731707 C35.100915,57.5121958 35.1347561,57.6713406 35.1347561,57.8506098 C35.1347561,57.9750006 35.1182929,58.0902434 35.0853659,58.1963415 C35.0524389,58.3024396 35.0076223,58.4030483 34.9509147,58.4981707 C34.8942071,58.5932932 34.8274395,58.683841 34.7506098,58.7698171 C34.6737802,58.8557931 34.5932932,58.9408532 34.5091464,59.025 L33.2469513,60.2542683 L35.1512196,60.2542683 L35.1512196,60.7317073 Z M38.5042683,56.747561 C38.7347573,56.747561 38.9332309,56.8006092 39.0996951,56.9067073 C39.2661594,57.0128054 39.4033531,57.1582308 39.5112805,57.3429878 C39.6192079,57.5277448 39.6987802,57.744511 39.75,57.9932927 C39.8012198,58.2420744 39.8268293,58.5073157 39.8268293,58.7890244 C39.8268293,59.0743917 39.8012198,59.3405475 39.75,59.5875 C39.6987802,59.8344525 39.6192079,60.050304 39.5112805,60.235061 C39.4033531,60.419818 39.2661594,60.5652434 39.0996951,60.6713415 C38.9332309,60.7774396 38.7347573,60.8304878 38.5042683,60.8304878 C38.2737794,60.8304878 38.0743911,60.7774396 37.9060976,60.6713415 C37.7378041,60.5652434 37.5996957,60.419818 37.4917683,60.235061 C37.3838409,60.050304 37.3042686,59.8344525 37.2530488,59.5875 C37.201829,59.3405475 37.1762195,59.0743917 37.1762195,58.7890244 C37.1762195,58.5073157 37.201829,58.2420744 37.2530488,57.9932927 C37.3042686,57.744511 37.3838409,57.5277448 37.4917683,57.3429878 C37.5996957,57.1582308 37.7378041,57.0128054 37.9060976,56.9067073 C38.0743911,56.8006092 38.2737794,56.747561 38.5042683,56.747561 Z M38.5042683,57.1920732 C38.3432919,57.1920732 38.2115859,57.2442068 38.1091464,57.3484756 C38.0067068,57.4527444 37.9271344,57.5844504 37.8704268,57.7435976 C37.8137192,57.9027447 37.7743904,58.0756088 37.752439,58.2621951 C37.7304877,58.4487814 37.7195122,58.6243894 37.7195122,58.7890244 C37.7195122,58.9536594 37.7304877,59.1292674 37.752439,59.3158537 C37.7743904,59.50244 37.8137192,59.6743895 37.8704268,59.8317073 C37.9271344,59.9890252 38.0067068,60.1198166 38.1091464,60.2240854 C38.2115859,60.3283542 38.3432919,60.3804878 38.5042683,60.3804878 C38.6615862,60.3804878 38.7905483,60.3283542 38.8911586,60.2240854 C38.9917688,60.1198166 39.0713412,59.9890252 39.1298781,59.8317073 C39.1884149,59.6743895 39.2286584,59.50244 39.2506098,59.3158537 C39.2725611,59.1292674 39.2835366,58.9536594 39.2835366,58.7890244 C39.2835366,58.6243894 39.2725611,58.4487814 39.2506098,58.2621951 C39.2286584,58.0756088 39.1884149,57.9027447 39.1298781,57.7435976 C39.0713412,57.5844504 38.9917688,57.4527444 38.8911586,57.3484756 C38.7905483,57.2442068 38.6615862,57.1920732 38.5042683,57.1920732 Z M43.5310975,60.7317073 L42.9987805,60.7317073 L42.9987805,57.4939024 L42.2634146,58.1085366 L41.9506097,57.7408537 L43.0536585,56.8463415 L43.5310975,56.8463415 L43.5310975,60.7317073 Z M48.859756,57.3292683 L47.3012195,60.7317073 L46.6920731,60.7317073 L48.3109756,57.3182927 L46.384756,57.3182927 L46.384756,56.8463415 L48.859756,56.8463415 L48.859756,57.3292683 Z" id="2017"></path>
                </g>
            </g>
        </g>
    </g>
</svg>